%TF.GenerationSoftware,KiCad,Pcbnew,7.0.2*%
%TF.CreationDate,2025-01-10T16:23:45-06:00*%
%TF.ProjectId,gateDr_displayboard,67617465-4472-45f6-9469-73706c617962,rev?*%
%TF.SameCoordinates,Original*%
%TF.FileFunction,Copper,L1,Top*%
%TF.FilePolarity,Positive*%
%FSLAX46Y46*%
G04 Gerber Fmt 4.6, Leading zero omitted, Abs format (unit mm)*
G04 Created by KiCad (PCBNEW 7.0.2) date 2025-01-10 16:23:45*
%MOMM*%
%LPD*%
G01*
G04 APERTURE LIST*
%TA.AperFunction,ComponentPad*%
%ADD10R,1.700000X1.700000*%
%TD*%
%TA.AperFunction,ComponentPad*%
%ADD11O,1.700000X1.700000*%
%TD*%
%TA.AperFunction,ViaPad*%
%ADD12C,0.800000*%
%TD*%
G04 APERTURE END LIST*
D10*
%TO.P,J1,1,Pin_1*%
%TO.N,/display_SCK*%
X83040000Y-64220000D03*
D11*
%TO.P,J1,2,Pin_2*%
%TO.N,/display_DO*%
X80500000Y-64220000D03*
%TO.P,J1,3,Pin_3*%
%TO.N,/display_RST*%
X77960000Y-64220000D03*
%TO.P,J1,4,Pin_4*%
%TO.N,/display_CS*%
X75420000Y-64220000D03*
%TO.P,J1,5,Pin_5*%
%TO.N,/display_DC*%
X72880000Y-64220000D03*
%TO.P,J1,6,Pin_6*%
%TO.N,+3.3V*%
X70340000Y-64220000D03*
%TO.P,J1,7,Pin_7*%
%TO.N,GND*%
X67800000Y-64220000D03*
%TD*%
D12*
%TO.N,GND*%
X73000000Y-89500000D03*
X67750000Y-66250000D03*
X75750000Y-87500000D03*
X83500000Y-84000000D03*
X78500000Y-80000000D03*
X81500000Y-82500000D03*
X71500000Y-89750000D03*
X67250000Y-88250000D03*
X78500000Y-85250000D03*
X78500000Y-75750000D03*
X69500000Y-75250000D03*
X72000000Y-84500000D03*
X70500000Y-70500000D03*
X78250000Y-87500000D03*
X79750000Y-89500000D03*
X82500000Y-87500000D03*
X66000000Y-66250000D03*
%TD*%
%TA.AperFunction,Conductor*%
%TO.N,GND*%
G36*
X97192539Y-62020185D02*
G01*
X97238294Y-62072989D01*
X97249500Y-62124500D01*
X97249500Y-94875500D01*
X97229815Y-94942539D01*
X97177011Y-94988294D01*
X97125500Y-94999500D01*
X53374500Y-94999500D01*
X53307461Y-94979815D01*
X53261706Y-94927011D01*
X53250500Y-94875500D01*
X53250500Y-64999999D01*
X54444706Y-64999999D01*
X54450208Y-65069913D01*
X54447901Y-65080890D01*
X54453227Y-65113658D01*
X54454449Y-65123799D01*
X54454643Y-65126270D01*
X54455026Y-65135998D01*
X54455026Y-65163819D01*
X54458604Y-65176590D01*
X54463854Y-65243303D01*
X54480978Y-65314630D01*
X54480360Y-65326974D01*
X54491409Y-65360069D01*
X54494367Y-65370398D01*
X54495099Y-65373448D01*
X54496917Y-65382494D01*
X54501068Y-65408038D01*
X54505951Y-65418648D01*
X54520827Y-65480611D01*
X54550137Y-65551372D01*
X54551576Y-65564765D01*
X54568451Y-65596917D01*
X54573213Y-65607083D01*
X54574960Y-65611300D01*
X54578019Y-65619490D01*
X54585468Y-65641802D01*
X54591054Y-65650156D01*
X54614223Y-65706090D01*
X54655941Y-65774168D01*
X54659741Y-65788215D01*
X54682276Y-65818204D01*
X54688870Y-65827903D01*
X54692373Y-65833619D01*
X54696444Y-65840786D01*
X54706055Y-65859098D01*
X54711753Y-65865244D01*
X54741739Y-65914177D01*
X54795712Y-65977371D01*
X54802094Y-65991615D01*
X54829874Y-66018298D01*
X54838271Y-66027201D01*
X54844558Y-66034563D01*
X54849392Y-66040594D01*
X54859749Y-66054376D01*
X54864994Y-66058490D01*
X54900241Y-66099759D01*
X54948883Y-66141303D01*
X54965918Y-66155852D01*
X54975015Y-66169788D01*
X55007405Y-66192145D01*
X55017485Y-66199895D01*
X55027839Y-66208737D01*
X55033188Y-66213584D01*
X55042618Y-66222641D01*
X55046905Y-66225022D01*
X55085821Y-66258259D01*
X55162256Y-66305098D01*
X55174094Y-66318183D01*
X55210266Y-66335347D01*
X55221895Y-66341645D01*
X55237748Y-66351360D01*
X55243390Y-66355033D01*
X55249971Y-66359575D01*
X55252880Y-66360633D01*
X55280707Y-66377685D01*
X55293914Y-66385779D01*
X55379767Y-66421340D01*
X55394270Y-66433027D01*
X55433265Y-66444322D01*
X55446222Y-66448866D01*
X55469146Y-66458362D01*
X55474847Y-66460893D01*
X55476484Y-66461670D01*
X55477700Y-66461904D01*
X55519388Y-66479172D01*
X55612953Y-66501635D01*
X55629935Y-66511386D01*
X55670677Y-66516333D01*
X55684670Y-66518853D01*
X55756698Y-66536146D01*
X55855907Y-66543953D01*
X55875079Y-66551260D01*
X55916438Y-66549594D01*
X55931138Y-66549874D01*
X56000000Y-66555294D01*
X56102504Y-66547226D01*
X56123477Y-66551632D01*
X56164282Y-66543302D01*
X56179351Y-66541178D01*
X56243302Y-66536146D01*
X56346490Y-66511372D01*
X56368786Y-66512487D01*
X56407891Y-66497656D01*
X56422913Y-66493024D01*
X56480612Y-66479172D01*
X56581707Y-66437297D01*
X56604768Y-66434817D01*
X56641080Y-66413853D01*
X56655628Y-66406679D01*
X56706085Y-66385779D01*
X56706086Y-66385777D01*
X56706089Y-66385777D01*
X56802215Y-66326870D01*
X56825421Y-66320592D01*
X56857934Y-66294047D01*
X56871556Y-66284378D01*
X56914179Y-66258259D01*
X57002432Y-66182883D01*
X57025128Y-66172713D01*
X57052955Y-66141303D01*
X57065224Y-66129254D01*
X57099759Y-66099759D01*
X57258259Y-65914179D01*
X57355163Y-65756045D01*
X57385778Y-65706088D01*
X57479171Y-65480615D01*
X57479172Y-65480611D01*
X57536146Y-65243302D01*
X57555294Y-65000000D01*
X57536146Y-64756698D01*
X57479172Y-64519388D01*
X57479171Y-64519387D01*
X57479171Y-64519384D01*
X57458716Y-64470000D01*
X66469364Y-64470000D01*
X66526569Y-64683492D01*
X66626399Y-64897576D01*
X66761893Y-65091081D01*
X66928918Y-65258106D01*
X67122423Y-65393600D01*
X67336509Y-65493430D01*
X67550000Y-65550634D01*
X67550000Y-64655501D01*
X67657685Y-64704680D01*
X67764237Y-64720000D01*
X67835763Y-64720000D01*
X67942315Y-64704680D01*
X68050000Y-64655501D01*
X68050000Y-65550633D01*
X68263490Y-65493430D01*
X68477576Y-65393600D01*
X68671081Y-65258106D01*
X68838109Y-65091078D01*
X68968119Y-64905405D01*
X69022696Y-64861780D01*
X69092194Y-64854586D01*
X69154549Y-64886109D01*
X69171265Y-64905400D01*
X69301505Y-65091401D01*
X69468599Y-65258495D01*
X69662170Y-65394035D01*
X69876337Y-65493903D01*
X70104592Y-65555063D01*
X70340000Y-65575659D01*
X70575408Y-65555063D01*
X70803663Y-65493903D01*
X71017830Y-65394035D01*
X71211401Y-65258495D01*
X71378495Y-65091401D01*
X71508426Y-64905839D01*
X71563002Y-64862216D01*
X71632500Y-64855022D01*
X71694855Y-64886545D01*
X71711571Y-64905837D01*
X71841505Y-65091401D01*
X72008599Y-65258495D01*
X72202170Y-65394035D01*
X72416337Y-65493903D01*
X72644592Y-65555063D01*
X72880000Y-65575659D01*
X73115408Y-65555063D01*
X73343663Y-65493903D01*
X73557830Y-65394035D01*
X73751401Y-65258495D01*
X73918495Y-65091401D01*
X74048426Y-64905839D01*
X74103002Y-64862216D01*
X74172500Y-64855022D01*
X74234855Y-64886545D01*
X74251571Y-64905837D01*
X74381505Y-65091401D01*
X74548599Y-65258495D01*
X74742170Y-65394035D01*
X74956337Y-65493903D01*
X75168059Y-65550633D01*
X75184592Y-65555063D01*
X75419999Y-65575659D01*
X75419999Y-65575658D01*
X75420000Y-65575659D01*
X75655408Y-65555063D01*
X75883663Y-65493903D01*
X76097830Y-65394035D01*
X76291401Y-65258495D01*
X76458495Y-65091401D01*
X76588427Y-64905838D01*
X76643001Y-64862216D01*
X76712499Y-64855022D01*
X76774854Y-64886545D01*
X76791572Y-64905838D01*
X76921505Y-65091401D01*
X77088599Y-65258495D01*
X77282170Y-65394035D01*
X77496337Y-65493903D01*
X77708059Y-65550633D01*
X77724592Y-65555063D01*
X77959999Y-65575659D01*
X77959999Y-65575658D01*
X77960000Y-65575659D01*
X78195408Y-65555063D01*
X78423663Y-65493903D01*
X78637830Y-65394035D01*
X78831401Y-65258495D01*
X78998495Y-65091401D01*
X79128426Y-64905839D01*
X79183002Y-64862216D01*
X79252500Y-64855022D01*
X79314855Y-64886545D01*
X79331571Y-64905837D01*
X79461505Y-65091401D01*
X79628599Y-65258495D01*
X79822170Y-65394035D01*
X80036337Y-65493903D01*
X80248059Y-65550633D01*
X80264592Y-65555063D01*
X80499999Y-65575659D01*
X80499999Y-65575658D01*
X80500000Y-65575659D01*
X80735408Y-65555063D01*
X80963663Y-65493903D01*
X81177830Y-65394035D01*
X81371401Y-65258495D01*
X81493329Y-65136566D01*
X81554648Y-65103084D01*
X81624340Y-65108068D01*
X81680274Y-65149939D01*
X81697189Y-65180916D01*
X81746204Y-65312331D01*
X81832454Y-65427546D01*
X81947669Y-65513796D01*
X82082517Y-65564091D01*
X82142127Y-65570500D01*
X83937872Y-65570499D01*
X83997483Y-65564091D01*
X84132331Y-65513796D01*
X84247546Y-65427546D01*
X84333796Y-65312331D01*
X84384091Y-65177483D01*
X84390500Y-65117873D01*
X84390500Y-64999999D01*
X92944706Y-64999999D01*
X92950208Y-65069913D01*
X92947901Y-65080890D01*
X92953227Y-65113658D01*
X92954449Y-65123799D01*
X92954643Y-65126270D01*
X92955026Y-65135998D01*
X92955026Y-65163819D01*
X92958604Y-65176590D01*
X92963854Y-65243303D01*
X92980978Y-65314630D01*
X92980360Y-65326974D01*
X92991409Y-65360069D01*
X92994367Y-65370398D01*
X92995099Y-65373448D01*
X92996917Y-65382494D01*
X93001068Y-65408038D01*
X93005951Y-65418648D01*
X93020827Y-65480611D01*
X93050137Y-65551372D01*
X93051576Y-65564765D01*
X93068451Y-65596917D01*
X93073213Y-65607083D01*
X93074960Y-65611300D01*
X93078019Y-65619490D01*
X93085468Y-65641802D01*
X93091054Y-65650156D01*
X93114223Y-65706090D01*
X93155941Y-65774168D01*
X93159741Y-65788215D01*
X93182276Y-65818204D01*
X93188870Y-65827903D01*
X93192373Y-65833619D01*
X93196444Y-65840786D01*
X93206055Y-65859098D01*
X93211753Y-65865244D01*
X93241739Y-65914177D01*
X93295712Y-65977371D01*
X93302094Y-65991615D01*
X93329874Y-66018298D01*
X93338271Y-66027201D01*
X93344558Y-66034563D01*
X93349392Y-66040594D01*
X93359749Y-66054376D01*
X93364994Y-66058490D01*
X93400241Y-66099759D01*
X93448883Y-66141303D01*
X93465918Y-66155852D01*
X93475015Y-66169788D01*
X93507405Y-66192145D01*
X93517485Y-66199895D01*
X93527839Y-66208737D01*
X93533188Y-66213584D01*
X93542618Y-66222641D01*
X93546905Y-66225022D01*
X93585821Y-66258259D01*
X93662256Y-66305098D01*
X93674094Y-66318183D01*
X93710266Y-66335347D01*
X93721895Y-66341645D01*
X93737748Y-66351360D01*
X93743390Y-66355033D01*
X93749971Y-66359575D01*
X93752880Y-66360633D01*
X93780707Y-66377685D01*
X93793914Y-66385779D01*
X93879767Y-66421340D01*
X93894270Y-66433027D01*
X93933265Y-66444322D01*
X93946222Y-66448866D01*
X93969146Y-66458362D01*
X93974847Y-66460893D01*
X93976484Y-66461670D01*
X93977700Y-66461904D01*
X94019388Y-66479172D01*
X94112953Y-66501635D01*
X94129935Y-66511386D01*
X94170677Y-66516333D01*
X94184670Y-66518853D01*
X94256698Y-66536146D01*
X94355907Y-66543953D01*
X94375079Y-66551260D01*
X94416438Y-66549594D01*
X94431138Y-66549874D01*
X94500000Y-66555294D01*
X94602504Y-66547226D01*
X94623477Y-66551632D01*
X94664282Y-66543302D01*
X94679351Y-66541178D01*
X94743302Y-66536146D01*
X94846490Y-66511372D01*
X94868786Y-66512487D01*
X94907891Y-66497656D01*
X94922913Y-66493024D01*
X94980612Y-66479172D01*
X95081707Y-66437297D01*
X95104768Y-66434817D01*
X95141080Y-66413853D01*
X95155628Y-66406679D01*
X95206085Y-66385779D01*
X95206086Y-66385777D01*
X95206089Y-66385777D01*
X95302215Y-66326870D01*
X95325421Y-66320592D01*
X95357934Y-66294047D01*
X95371556Y-66284378D01*
X95414179Y-66258259D01*
X95502432Y-66182883D01*
X95525128Y-66172713D01*
X95552955Y-66141303D01*
X95565224Y-66129254D01*
X95599759Y-66099759D01*
X95758259Y-65914179D01*
X95855163Y-65756045D01*
X95885778Y-65706088D01*
X95979171Y-65480615D01*
X95979172Y-65480611D01*
X96036146Y-65243302D01*
X96055294Y-65000000D01*
X96036146Y-64756698D01*
X95979172Y-64519388D01*
X95979171Y-64519387D01*
X95979171Y-64519384D01*
X95885778Y-64293911D01*
X95760346Y-64089227D01*
X95758259Y-64085821D01*
X95599759Y-63900241D01*
X95565239Y-63870758D01*
X95552962Y-63858702D01*
X95530717Y-63833592D01*
X95502437Y-63817120D01*
X95414179Y-63741741D01*
X95371571Y-63715630D01*
X95357938Y-63705955D01*
X95331723Y-63684551D01*
X95302217Y-63673130D01*
X95206088Y-63614221D01*
X95155629Y-63593321D01*
X95141081Y-63586147D01*
X95111562Y-63569104D01*
X95081711Y-63562703D01*
X94980615Y-63520828D01*
X94922920Y-63506977D01*
X94907896Y-63502345D01*
X94875848Y-63490191D01*
X94846491Y-63488628D01*
X94743302Y-63463854D01*
X94729299Y-63462751D01*
X94679367Y-63458822D01*
X94664294Y-63456698D01*
X94630582Y-63449815D01*
X94602505Y-63452773D01*
X94529011Y-63446989D01*
X94500000Y-63444706D01*
X94499999Y-63444706D01*
X94431169Y-63450123D01*
X94416449Y-63450404D01*
X94382014Y-63449016D01*
X94355908Y-63456046D01*
X94256696Y-63463854D01*
X94184692Y-63481141D01*
X94170692Y-63483663D01*
X94136509Y-63487813D01*
X94112957Y-63498363D01*
X94019385Y-63520828D01*
X93977699Y-63538095D01*
X93976761Y-63538195D01*
X93974813Y-63539120D01*
X93969121Y-63541647D01*
X93946228Y-63551130D01*
X93933275Y-63555674D01*
X93900315Y-63565221D01*
X93879769Y-63578659D01*
X93793910Y-63614222D01*
X93752880Y-63639366D01*
X93750616Y-63639978D01*
X93743381Y-63644972D01*
X93737738Y-63648644D01*
X93721906Y-63658346D01*
X93710276Y-63664646D01*
X93679479Y-63679259D01*
X93662257Y-63694900D01*
X93585820Y-63741741D01*
X93546906Y-63774977D01*
X93543511Y-63776497D01*
X93533177Y-63786424D01*
X93527814Y-63791283D01*
X93517499Y-63800093D01*
X93507408Y-63807853D01*
X93479638Y-63827021D01*
X93465920Y-63844145D01*
X93400242Y-63900240D01*
X93364995Y-63941509D01*
X93360763Y-63944270D01*
X93349378Y-63959422D01*
X93344540Y-63965458D01*
X93338272Y-63972797D01*
X93329880Y-63981694D01*
X93305898Y-64004729D01*
X93295713Y-64022627D01*
X93241738Y-64085824D01*
X93211752Y-64134756D01*
X93207045Y-64139013D01*
X93196443Y-64159215D01*
X93192371Y-64166385D01*
X93188875Y-64172089D01*
X93182284Y-64181782D01*
X93162693Y-64207853D01*
X93155943Y-64225830D01*
X93114218Y-64293917D01*
X93091053Y-64349843D01*
X93086279Y-64355766D01*
X93078018Y-64380512D01*
X93074956Y-64388710D01*
X93073212Y-64392919D01*
X93068453Y-64403078D01*
X93053687Y-64431212D01*
X93050137Y-64448626D01*
X93020828Y-64519383D01*
X93005952Y-64581349D01*
X93001546Y-64589021D01*
X92996916Y-64617510D01*
X92995101Y-64626542D01*
X92994371Y-64629585D01*
X92991411Y-64639926D01*
X92981679Y-64669076D01*
X92980978Y-64685367D01*
X92963854Y-64756694D01*
X92958604Y-64823408D01*
X92955026Y-64832795D01*
X92955026Y-64864001D01*
X92954642Y-64873751D01*
X92954449Y-64876198D01*
X92953227Y-64886338D01*
X92948507Y-64915376D01*
X92950208Y-64930084D01*
X92944706Y-64999999D01*
X84390500Y-64999999D01*
X84390499Y-63322128D01*
X84384091Y-63262517D01*
X84333796Y-63127669D01*
X84247546Y-63012454D01*
X84132331Y-62926204D01*
X83997483Y-62875909D01*
X83937873Y-62869500D01*
X83934550Y-62869500D01*
X82145439Y-62869500D01*
X82145420Y-62869500D01*
X82142128Y-62869501D01*
X82138848Y-62869853D01*
X82138840Y-62869854D01*
X82082515Y-62875909D01*
X81947669Y-62926204D01*
X81832454Y-63012454D01*
X81746204Y-63127669D01*
X81697189Y-63259083D01*
X81655317Y-63315016D01*
X81589852Y-63339433D01*
X81521580Y-63324581D01*
X81493326Y-63303430D01*
X81371404Y-63181508D01*
X81371401Y-63181505D01*
X81177830Y-63045965D01*
X80963663Y-62946097D01*
X80902502Y-62929709D01*
X80735407Y-62884936D01*
X80500000Y-62864340D01*
X80264592Y-62884936D01*
X80036336Y-62946097D01*
X79822170Y-63045965D01*
X79628598Y-63181505D01*
X79461505Y-63348598D01*
X79331575Y-63534159D01*
X79276998Y-63577784D01*
X79207500Y-63584978D01*
X79145145Y-63553455D01*
X79128425Y-63534159D01*
X79093067Y-63483663D01*
X78998495Y-63348599D01*
X78831401Y-63181505D01*
X78637830Y-63045965D01*
X78423663Y-62946097D01*
X78362502Y-62929709D01*
X78195407Y-62884936D01*
X77959999Y-62864340D01*
X77724592Y-62884936D01*
X77496336Y-62946097D01*
X77282170Y-63045965D01*
X77088598Y-63181505D01*
X76921505Y-63348598D01*
X76791575Y-63534159D01*
X76736998Y-63577784D01*
X76667500Y-63584978D01*
X76605145Y-63553455D01*
X76588425Y-63534159D01*
X76553067Y-63483663D01*
X76458495Y-63348599D01*
X76291401Y-63181505D01*
X76097830Y-63045965D01*
X75883663Y-62946097D01*
X75822502Y-62929709D01*
X75655407Y-62884936D01*
X75420000Y-62864340D01*
X75184592Y-62884936D01*
X74956336Y-62946097D01*
X74742170Y-63045965D01*
X74548598Y-63181505D01*
X74381505Y-63348598D01*
X74251575Y-63534159D01*
X74196998Y-63577784D01*
X74127500Y-63584978D01*
X74065145Y-63553455D01*
X74048425Y-63534159D01*
X74013067Y-63483663D01*
X73918495Y-63348599D01*
X73751401Y-63181505D01*
X73557830Y-63045965D01*
X73343663Y-62946097D01*
X73282502Y-62929709D01*
X73115407Y-62884936D01*
X72879999Y-62864340D01*
X72644592Y-62884936D01*
X72416336Y-62946097D01*
X72202170Y-63045965D01*
X72008598Y-63181505D01*
X71841505Y-63348598D01*
X71711575Y-63534159D01*
X71656998Y-63577784D01*
X71587500Y-63584978D01*
X71525145Y-63553455D01*
X71508425Y-63534159D01*
X71473067Y-63483663D01*
X71378495Y-63348599D01*
X71211401Y-63181505D01*
X71017830Y-63045965D01*
X70803663Y-62946097D01*
X70742502Y-62929709D01*
X70575407Y-62884936D01*
X70340000Y-62864340D01*
X70104592Y-62884936D01*
X69876336Y-62946097D01*
X69662170Y-63045965D01*
X69468598Y-63181505D01*
X69301508Y-63348595D01*
X69301505Y-63348598D01*
X69301505Y-63348599D01*
X69206933Y-63483663D01*
X69171269Y-63534596D01*
X69116692Y-63578220D01*
X69047193Y-63585413D01*
X68984839Y-63553891D01*
X68968119Y-63534595D01*
X68838109Y-63348921D01*
X68671081Y-63181893D01*
X68477576Y-63046399D01*
X68263492Y-62946569D01*
X68050000Y-62889364D01*
X68050000Y-63784498D01*
X67942315Y-63735320D01*
X67835763Y-63720000D01*
X67764237Y-63720000D01*
X67657685Y-63735320D01*
X67550000Y-63784498D01*
X67550000Y-62889364D01*
X67549999Y-62889364D01*
X67336507Y-62946569D01*
X67122421Y-63046400D01*
X66928921Y-63181890D01*
X66761890Y-63348921D01*
X66626400Y-63542421D01*
X66526569Y-63756507D01*
X66469364Y-63969999D01*
X66469364Y-63970000D01*
X67366314Y-63970000D01*
X67340507Y-64010156D01*
X67300000Y-64148111D01*
X67300000Y-64291889D01*
X67340507Y-64429844D01*
X67366314Y-64470000D01*
X66469364Y-64470000D01*
X57458716Y-64470000D01*
X57385778Y-64293911D01*
X57260346Y-64089227D01*
X57258259Y-64085821D01*
X57099759Y-63900241D01*
X57065239Y-63870758D01*
X57052962Y-63858702D01*
X57030717Y-63833592D01*
X57002437Y-63817120D01*
X56914179Y-63741741D01*
X56871571Y-63715630D01*
X56857938Y-63705955D01*
X56831723Y-63684551D01*
X56802217Y-63673130D01*
X56706088Y-63614221D01*
X56655629Y-63593321D01*
X56641081Y-63586147D01*
X56611562Y-63569104D01*
X56581711Y-63562703D01*
X56480615Y-63520828D01*
X56422920Y-63506977D01*
X56407896Y-63502345D01*
X56375848Y-63490191D01*
X56346491Y-63488628D01*
X56243302Y-63463854D01*
X56229299Y-63462751D01*
X56179367Y-63458822D01*
X56164294Y-63456698D01*
X56130582Y-63449815D01*
X56102505Y-63452773D01*
X56029011Y-63446989D01*
X56000000Y-63444706D01*
X55999999Y-63444706D01*
X55931169Y-63450123D01*
X55916449Y-63450404D01*
X55882014Y-63449016D01*
X55855908Y-63456046D01*
X55756696Y-63463854D01*
X55684692Y-63481141D01*
X55670692Y-63483663D01*
X55636509Y-63487813D01*
X55612957Y-63498363D01*
X55519385Y-63520828D01*
X55477699Y-63538095D01*
X55476761Y-63538195D01*
X55474813Y-63539120D01*
X55469121Y-63541647D01*
X55446228Y-63551130D01*
X55433275Y-63555674D01*
X55400315Y-63565221D01*
X55379769Y-63578659D01*
X55293910Y-63614222D01*
X55252880Y-63639366D01*
X55250616Y-63639978D01*
X55243381Y-63644972D01*
X55237738Y-63648644D01*
X55221906Y-63658346D01*
X55210276Y-63664646D01*
X55179479Y-63679259D01*
X55162257Y-63694900D01*
X55085820Y-63741741D01*
X55046906Y-63774977D01*
X55043511Y-63776497D01*
X55033177Y-63786424D01*
X55027814Y-63791283D01*
X55017499Y-63800093D01*
X55007408Y-63807853D01*
X54979638Y-63827021D01*
X54965920Y-63844145D01*
X54900242Y-63900240D01*
X54864995Y-63941509D01*
X54860763Y-63944270D01*
X54849378Y-63959422D01*
X54844540Y-63965458D01*
X54838272Y-63972797D01*
X54829880Y-63981694D01*
X54805898Y-64004729D01*
X54795713Y-64022627D01*
X54741738Y-64085824D01*
X54711752Y-64134756D01*
X54707045Y-64139013D01*
X54696443Y-64159215D01*
X54692371Y-64166385D01*
X54688875Y-64172089D01*
X54682284Y-64181782D01*
X54662693Y-64207853D01*
X54655943Y-64225830D01*
X54614218Y-64293917D01*
X54591053Y-64349843D01*
X54586279Y-64355766D01*
X54578018Y-64380512D01*
X54574956Y-64388710D01*
X54573212Y-64392919D01*
X54568453Y-64403078D01*
X54553687Y-64431212D01*
X54550137Y-64448626D01*
X54520828Y-64519383D01*
X54505952Y-64581349D01*
X54501546Y-64589021D01*
X54496916Y-64617510D01*
X54495101Y-64626542D01*
X54494371Y-64629585D01*
X54491411Y-64639926D01*
X54481679Y-64669076D01*
X54480978Y-64685367D01*
X54463854Y-64756694D01*
X54458604Y-64823408D01*
X54455026Y-64832795D01*
X54455026Y-64864001D01*
X54454642Y-64873751D01*
X54454449Y-64876198D01*
X54453227Y-64886338D01*
X54448507Y-64915376D01*
X54450208Y-64930084D01*
X54444706Y-64999999D01*
X53250500Y-64999999D01*
X53250500Y-62124500D01*
X53270185Y-62057461D01*
X53322989Y-62011706D01*
X53374500Y-62000500D01*
X97125500Y-62000500D01*
X97192539Y-62020185D01*
G37*
%TD.AperFunction*%
%TD*%
M02*
