%TF.GenerationSoftware,KiCad,Pcbnew,7.0.2*%
%TF.CreationDate,2025-01-10T16:23:45-06:00*%
%TF.ProjectId,gateDr_displayboard,67617465-4472-45f6-9469-73706c617962,rev?*%
%TF.SameCoordinates,Original*%
%TF.FileFunction,Paste,Bot*%
%TF.FilePolarity,Positive*%
%FSLAX46Y46*%
G04 Gerber Fmt 4.6, Leading zero omitted, Abs format (unit mm)*
G04 Created by KiCad (PCBNEW 7.0.2) date 2025-01-10 16:23:45*
%MOMM*%
%LPD*%
G01*
G04 APERTURE LIST*
G04 Aperture macros list*
%AMRoundRect*
0 Rectangle with rounded corners*
0 $1 Rounding radius*
0 $2 $3 $4 $5 $6 $7 $8 $9 X,Y pos of 4 corners*
0 Add a 4 corners polygon primitive as box body*
4,1,4,$2,$3,$4,$5,$6,$7,$8,$9,$2,$3,0*
0 Add four circle primitives for the rounded corners*
1,1,$1+$1,$2,$3*
1,1,$1+$1,$4,$5*
1,1,$1+$1,$6,$7*
1,1,$1+$1,$8,$9*
0 Add four rect primitives between the rounded corners*
20,1,$1+$1,$2,$3,$4,$5,0*
20,1,$1+$1,$4,$5,$6,$7,0*
20,1,$1+$1,$6,$7,$8,$9,0*
20,1,$1+$1,$8,$9,$2,$3,0*%
G04 Aperture macros list end*
%ADD10RoundRect,0.225000X0.250000X-0.225000X0.250000X0.225000X-0.250000X0.225000X-0.250000X-0.225000X0*%
%ADD11RoundRect,0.225000X-0.250000X0.225000X-0.250000X-0.225000X0.250000X-0.225000X0.250000X0.225000X0*%
%ADD12RoundRect,0.135000X-0.135000X-0.185000X0.135000X-0.185000X0.135000X0.185000X-0.135000X0.185000X0*%
%ADD13R,0.300000X1.300000*%
%ADD14R,1.800000X2.200000*%
G04 APERTURE END LIST*
D10*
%TO.C,C3*%
X71000000Y-86800000D03*
X71000000Y-85250000D03*
%TD*%
D11*
%TO.C,C6*%
X83000000Y-84725000D03*
X83000000Y-86275000D03*
%TD*%
D10*
%TO.C,C4*%
X72750000Y-86800000D03*
X72750000Y-85250000D03*
%TD*%
D11*
%TO.C,C5*%
X81000000Y-83250000D03*
X81000000Y-84800000D03*
%TD*%
D10*
%TO.C,C2*%
X70500000Y-83275000D03*
X70500000Y-81725000D03*
%TD*%
D12*
%TO.C,R1*%
X79230000Y-87000000D03*
X80250000Y-87000000D03*
%TD*%
D10*
%TO.C,C1*%
X69500000Y-80025000D03*
X69500000Y-78475000D03*
%TD*%
D13*
%TO.C,J2*%
X68000000Y-88550000D03*
X68500000Y-88550000D03*
X69000000Y-88550000D03*
X69500000Y-88550000D03*
X70000000Y-88550000D03*
X70500000Y-88550000D03*
X71000000Y-88550000D03*
X71500000Y-88550000D03*
X72000000Y-88550000D03*
X72500000Y-88550000D03*
X73000000Y-88550000D03*
X73500000Y-88550000D03*
X74000000Y-88550000D03*
X74500000Y-88550000D03*
X75000000Y-88550000D03*
X75500000Y-88550000D03*
X76000000Y-88550000D03*
X76500000Y-88550000D03*
X77000000Y-88550000D03*
X77500000Y-88550000D03*
X78000000Y-88550000D03*
X78500000Y-88550000D03*
X79000000Y-88550000D03*
X79500000Y-88550000D03*
X80000000Y-88550000D03*
X80500000Y-88550000D03*
X81000000Y-88550000D03*
X81500000Y-88550000D03*
X82000000Y-88550000D03*
X82500000Y-88550000D03*
D14*
X66100000Y-91800000D03*
X84400000Y-91800000D03*
%TD*%
M02*
