%TF.GenerationSoftware,KiCad,Pcbnew,7.0.2*%
%TF.CreationDate,2025-01-10T16:22:39-06:00*%
%TF.ProjectId,gateDr_panel,67617465-4472-45f7-9061-6e656c2e6b69,rev?*%
%TF.SameCoordinates,Original*%
%TF.FileFunction,Copper,L2,Bot*%
%TF.FilePolarity,Positive*%
%FSLAX46Y46*%
G04 Gerber Fmt 4.6, Leading zero omitted, Abs format (unit mm)*
G04 Created by KiCad (PCBNEW 7.0.2) date 2025-01-10 16:22:39*
%MOMM*%
%LPD*%
G01*
G04 APERTURE LIST*
%TA.AperFunction,ComponentPad*%
%ADD10C,8.000000*%
%TD*%
%TA.AperFunction,ComponentPad*%
%ADD11C,7.000000*%
%TD*%
%TA.AperFunction,ComponentPad*%
%ADD12C,7.200000*%
%TD*%
G04 APERTURE END LIST*
D10*
%TO.P,REF\u002A\u002A,1*%
%TO.N,N/C*%
X64050000Y-107950000D03*
%TD*%
D11*
%TO.P,REF\u002A\u002A,1*%
%TO.N,N/C*%
X58500000Y-139200000D03*
%TD*%
%TO.P,REF\u002A\u002A,1*%
%TO.N,N/C*%
X92000000Y-139000000D03*
%TD*%
D12*
%TO.P,REF\u002A\u002A,1*%
%TO.N,N/C*%
X86500000Y-122200000D03*
%TD*%
D11*
%TO.P,REF\u002A\u002A,1*%
%TO.N,N/C*%
X81000000Y-139000000D03*
%TD*%
%TO.P,REF\u002A\u002A,1*%
%TO.N,N/C*%
X58500000Y-160250000D03*
%TD*%
%TO.P,REF\u002A\u002A,1*%
%TO.N,N/C*%
X58500000Y-125200000D03*
%TD*%
D12*
%TO.P,REF\u002A\u002A,1*%
%TO.N,N/C*%
X86500000Y-108600000D03*
%TD*%
D11*
%TO.P,REF\u002A\u002A,1*%
%TO.N,N/C*%
X69900000Y-160250000D03*
%TD*%
%TO.P,REF\u002A\u002A,1*%
%TO.N,N/C*%
X92000000Y-160250000D03*
%TD*%
%TO.P,REF\u002A\u002A,1*%
%TO.N,N/C*%
X69500000Y-125200000D03*
%TD*%
%TO.P,REF\u002A\u002A,1*%
%TO.N,N/C*%
X69500000Y-139000000D03*
%TD*%
%TO.P,REF\u002A\u002A,1*%
%TO.N,N/C*%
X81000000Y-160250000D03*
%TD*%
%TA.AperFunction,NonConductor*%
G36*
X100442539Y-50020185D02*
G01*
X100488294Y-50072989D01*
X100499500Y-50124500D01*
X100499500Y-178375500D01*
X100479815Y-178442539D01*
X100427011Y-178488294D01*
X100375500Y-178499500D01*
X50124500Y-178499500D01*
X50057461Y-178479815D01*
X50011706Y-178427011D01*
X50000500Y-178375500D01*
X50000500Y-175567764D01*
X55645787Y-175567764D01*
X55675413Y-175837016D01*
X55743928Y-176099087D01*
X55849871Y-176348392D01*
X55990982Y-176579611D01*
X56080253Y-176686881D01*
X56164255Y-176787820D01*
X56365998Y-176968582D01*
X56591910Y-177118044D01*
X56698211Y-177167876D01*
X56837177Y-177233021D01*
X57096562Y-177311058D01*
X57096569Y-177311060D01*
X57364561Y-177350500D01*
X57364564Y-177350500D01*
X57565369Y-177350500D01*
X57567631Y-177350500D01*
X57770156Y-177335677D01*
X58034553Y-177276780D01*
X58287558Y-177180014D01*
X58523777Y-177047441D01*
X58738177Y-176881888D01*
X58926186Y-176686881D01*
X59083799Y-176466579D01*
X59207656Y-176225675D01*
X59295118Y-175969305D01*
X59344319Y-175702933D01*
X59349259Y-175567764D01*
X91145787Y-175567764D01*
X91175413Y-175837016D01*
X91243928Y-176099087D01*
X91349871Y-176348392D01*
X91490982Y-176579611D01*
X91580253Y-176686881D01*
X91664255Y-176787820D01*
X91865998Y-176968582D01*
X92091910Y-177118044D01*
X92198211Y-177167876D01*
X92337177Y-177233021D01*
X92596562Y-177311058D01*
X92596569Y-177311060D01*
X92864561Y-177350500D01*
X92864564Y-177350500D01*
X93065369Y-177350500D01*
X93067631Y-177350500D01*
X93270156Y-177335677D01*
X93534553Y-177276780D01*
X93787558Y-177180014D01*
X94023777Y-177047441D01*
X94238177Y-176881888D01*
X94426186Y-176686881D01*
X94583799Y-176466579D01*
X94707656Y-176225675D01*
X94795118Y-175969305D01*
X94844319Y-175702933D01*
X94854212Y-175432235D01*
X94824586Y-175162982D01*
X94756072Y-174900912D01*
X94650130Y-174651610D01*
X94509018Y-174420390D01*
X94509017Y-174420388D01*
X94335746Y-174212181D01*
X94230759Y-174118112D01*
X94134002Y-174031418D01*
X93908090Y-173881956D01*
X93908086Y-173881954D01*
X93662822Y-173766978D01*
X93403437Y-173688941D01*
X93403431Y-173688940D01*
X93135439Y-173649500D01*
X92932369Y-173649500D01*
X92930120Y-173649664D01*
X92930109Y-173649665D01*
X92729843Y-173664322D01*
X92465449Y-173723219D01*
X92212441Y-173819986D01*
X91976223Y-173952559D01*
X91761825Y-174118109D01*
X91573813Y-174313120D01*
X91416201Y-174533420D01*
X91292342Y-174774329D01*
X91204881Y-175030695D01*
X91155680Y-175297066D01*
X91145787Y-175567764D01*
X59349259Y-175567764D01*
X59354212Y-175432235D01*
X59324586Y-175162982D01*
X59256072Y-174900912D01*
X59150130Y-174651610D01*
X59009018Y-174420390D01*
X59009017Y-174420388D01*
X58835746Y-174212181D01*
X58730759Y-174118112D01*
X58634002Y-174031418D01*
X58408090Y-173881956D01*
X58408086Y-173881954D01*
X58162822Y-173766978D01*
X57903437Y-173688941D01*
X57903431Y-173688940D01*
X57635439Y-173649500D01*
X57432369Y-173649500D01*
X57430120Y-173649664D01*
X57430109Y-173649665D01*
X57229843Y-173664322D01*
X56965449Y-173723219D01*
X56712441Y-173819986D01*
X56476223Y-173952559D01*
X56261825Y-174118109D01*
X56073813Y-174313120D01*
X55916201Y-174533420D01*
X55792342Y-174774329D01*
X55704881Y-175030695D01*
X55655680Y-175297066D01*
X55645787Y-175567764D01*
X50000500Y-175567764D01*
X50000500Y-160250000D01*
X54494675Y-160250000D01*
X54494824Y-160253032D01*
X54513812Y-160639548D01*
X54513813Y-160639558D01*
X54513962Y-160642591D01*
X54514408Y-160645599D01*
X54514409Y-160645607D01*
X54571188Y-161028386D01*
X54571191Y-161028404D01*
X54571636Y-161031400D01*
X54572372Y-161034339D01*
X54572375Y-161034353D01*
X54666404Y-161409736D01*
X54666407Y-161409746D01*
X54667143Y-161412684D01*
X54668159Y-161415525D01*
X54668165Y-161415543D01*
X54798538Y-161779912D01*
X54798542Y-161779924D01*
X54799562Y-161782772D01*
X54967619Y-162138097D01*
X55169694Y-162475239D01*
X55403842Y-162790951D01*
X55667808Y-163082192D01*
X55959049Y-163346158D01*
X56274761Y-163580306D01*
X56611903Y-163782381D01*
X56967228Y-163950438D01*
X56970086Y-163951460D01*
X56970087Y-163951461D01*
X57334456Y-164081834D01*
X57334461Y-164081835D01*
X57337316Y-164082857D01*
X57718600Y-164178364D01*
X58107409Y-164236038D01*
X58500000Y-164255325D01*
X58892591Y-164236038D01*
X59281400Y-164178364D01*
X59662684Y-164082857D01*
X60032772Y-163950438D01*
X60388097Y-163782381D01*
X60725239Y-163580306D01*
X61040951Y-163346158D01*
X61332192Y-163082192D01*
X61596158Y-162790951D01*
X61830306Y-162475239D01*
X62032381Y-162138097D01*
X62200438Y-161782772D01*
X62332857Y-161412684D01*
X62428364Y-161031400D01*
X62486038Y-160642591D01*
X62505325Y-160250000D01*
X65894675Y-160250000D01*
X65894824Y-160253032D01*
X65913812Y-160639548D01*
X65913813Y-160639558D01*
X65913962Y-160642591D01*
X65914408Y-160645599D01*
X65914409Y-160645607D01*
X65971188Y-161028386D01*
X65971191Y-161028404D01*
X65971636Y-161031400D01*
X65972372Y-161034339D01*
X65972375Y-161034353D01*
X66066404Y-161409736D01*
X66066407Y-161409746D01*
X66067143Y-161412684D01*
X66068159Y-161415525D01*
X66068165Y-161415543D01*
X66198538Y-161779912D01*
X66198542Y-161779924D01*
X66199562Y-161782772D01*
X66367619Y-162138097D01*
X66569694Y-162475239D01*
X66803842Y-162790951D01*
X67067808Y-163082192D01*
X67359049Y-163346158D01*
X67674761Y-163580306D01*
X68011903Y-163782381D01*
X68367228Y-163950438D01*
X68370086Y-163951460D01*
X68370087Y-163951461D01*
X68734456Y-164081834D01*
X68734461Y-164081835D01*
X68737316Y-164082857D01*
X69118600Y-164178364D01*
X69507409Y-164236038D01*
X69900000Y-164255325D01*
X70292591Y-164236038D01*
X70681400Y-164178364D01*
X71062684Y-164082857D01*
X71432772Y-163950438D01*
X71788097Y-163782381D01*
X72125239Y-163580306D01*
X72440951Y-163346158D01*
X72732192Y-163082192D01*
X72996158Y-162790951D01*
X73230306Y-162475239D01*
X73432381Y-162138097D01*
X73600438Y-161782772D01*
X73732857Y-161412684D01*
X73828364Y-161031400D01*
X73886038Y-160642591D01*
X73905325Y-160250000D01*
X76994675Y-160250000D01*
X76994824Y-160253032D01*
X77013812Y-160639548D01*
X77013813Y-160639558D01*
X77013962Y-160642591D01*
X77014408Y-160645599D01*
X77014409Y-160645607D01*
X77071188Y-161028386D01*
X77071191Y-161028404D01*
X77071636Y-161031400D01*
X77072372Y-161034339D01*
X77072375Y-161034353D01*
X77166404Y-161409736D01*
X77166407Y-161409746D01*
X77167143Y-161412684D01*
X77168159Y-161415525D01*
X77168165Y-161415543D01*
X77298538Y-161779912D01*
X77298542Y-161779924D01*
X77299562Y-161782772D01*
X77467619Y-162138097D01*
X77669694Y-162475239D01*
X77903842Y-162790951D01*
X78167808Y-163082192D01*
X78459049Y-163346158D01*
X78774761Y-163580306D01*
X79111903Y-163782381D01*
X79467228Y-163950438D01*
X79470086Y-163951460D01*
X79470087Y-163951461D01*
X79834456Y-164081834D01*
X79834461Y-164081835D01*
X79837316Y-164082857D01*
X80218600Y-164178364D01*
X80607409Y-164236038D01*
X81000000Y-164255325D01*
X81392591Y-164236038D01*
X81781400Y-164178364D01*
X82162684Y-164082857D01*
X82532772Y-163950438D01*
X82888097Y-163782381D01*
X83225239Y-163580306D01*
X83540951Y-163346158D01*
X83832192Y-163082192D01*
X84096158Y-162790951D01*
X84330306Y-162475239D01*
X84532381Y-162138097D01*
X84700438Y-161782772D01*
X84832857Y-161412684D01*
X84928364Y-161031400D01*
X84986038Y-160642591D01*
X85005325Y-160250000D01*
X87994675Y-160250000D01*
X87994824Y-160253032D01*
X88013812Y-160639548D01*
X88013813Y-160639558D01*
X88013962Y-160642591D01*
X88014408Y-160645599D01*
X88014409Y-160645607D01*
X88071188Y-161028386D01*
X88071191Y-161028404D01*
X88071636Y-161031400D01*
X88072372Y-161034339D01*
X88072375Y-161034353D01*
X88166404Y-161409736D01*
X88166407Y-161409746D01*
X88167143Y-161412684D01*
X88168159Y-161415525D01*
X88168165Y-161415543D01*
X88298538Y-161779912D01*
X88298542Y-161779924D01*
X88299562Y-161782772D01*
X88467619Y-162138097D01*
X88669694Y-162475239D01*
X88903842Y-162790951D01*
X89167808Y-163082192D01*
X89459049Y-163346158D01*
X89774761Y-163580306D01*
X90111903Y-163782381D01*
X90467228Y-163950438D01*
X90470086Y-163951460D01*
X90470087Y-163951461D01*
X90834456Y-164081834D01*
X90834461Y-164081835D01*
X90837316Y-164082857D01*
X91218600Y-164178364D01*
X91607409Y-164236038D01*
X92000000Y-164255325D01*
X92392591Y-164236038D01*
X92781400Y-164178364D01*
X93162684Y-164082857D01*
X93532772Y-163950438D01*
X93888097Y-163782381D01*
X94225239Y-163580306D01*
X94540951Y-163346158D01*
X94832192Y-163082192D01*
X95096158Y-162790951D01*
X95330306Y-162475239D01*
X95532381Y-162138097D01*
X95700438Y-161782772D01*
X95832857Y-161412684D01*
X95928364Y-161031400D01*
X95986038Y-160642591D01*
X96005325Y-160250000D01*
X95986038Y-159857409D01*
X95928364Y-159468600D01*
X95832857Y-159087316D01*
X95700438Y-158717228D01*
X95532381Y-158361903D01*
X95330306Y-158024761D01*
X95096158Y-157709049D01*
X94832192Y-157417808D01*
X94540951Y-157153842D01*
X94225239Y-156919694D01*
X93888097Y-156717619D01*
X93885350Y-156716319D01*
X93885343Y-156716316D01*
X93535517Y-156550860D01*
X93535511Y-156550857D01*
X93532772Y-156549562D01*
X93529924Y-156548542D01*
X93529912Y-156548538D01*
X93165543Y-156418165D01*
X93165525Y-156418159D01*
X93162684Y-156417143D01*
X93159746Y-156416407D01*
X93159736Y-156416404D01*
X92784353Y-156322375D01*
X92784339Y-156322372D01*
X92781400Y-156321636D01*
X92778404Y-156321191D01*
X92778386Y-156321188D01*
X92395607Y-156264409D01*
X92395599Y-156264408D01*
X92392591Y-156263962D01*
X92389558Y-156263813D01*
X92389548Y-156263812D01*
X92003033Y-156244824D01*
X92000000Y-156244675D01*
X91996967Y-156244824D01*
X91610451Y-156263812D01*
X91610439Y-156263813D01*
X91607409Y-156263962D01*
X91604402Y-156264407D01*
X91604392Y-156264409D01*
X91221613Y-156321188D01*
X91221591Y-156321192D01*
X91218600Y-156321636D01*
X91215664Y-156322371D01*
X91215646Y-156322375D01*
X90840263Y-156416404D01*
X90840247Y-156416408D01*
X90837316Y-156417143D01*
X90834480Y-156418157D01*
X90834456Y-156418165D01*
X90470087Y-156548538D01*
X90470068Y-156548545D01*
X90467228Y-156549562D01*
X90464495Y-156550854D01*
X90464482Y-156550860D01*
X90114656Y-156716316D01*
X90114641Y-156716323D01*
X90111903Y-156717619D01*
X90109294Y-156719182D01*
X90109286Y-156719187D01*
X89777366Y-156918132D01*
X89777356Y-156918138D01*
X89774761Y-156919694D01*
X89772333Y-156921493D01*
X89772325Y-156921500D01*
X89461492Y-157152030D01*
X89459049Y-157153842D01*
X89456797Y-157155882D01*
X89456791Y-157155888D01*
X89170061Y-157415765D01*
X89170050Y-157415775D01*
X89167808Y-157417808D01*
X89165775Y-157420050D01*
X89165765Y-157420061D01*
X88905888Y-157706791D01*
X88905882Y-157706797D01*
X88903842Y-157709049D01*
X88902031Y-157711490D01*
X88902030Y-157711492D01*
X88671500Y-158022325D01*
X88671493Y-158022333D01*
X88669694Y-158024761D01*
X88668138Y-158027356D01*
X88668132Y-158027366D01*
X88469187Y-158359286D01*
X88469182Y-158359294D01*
X88467619Y-158361903D01*
X88466323Y-158364641D01*
X88466316Y-158364656D01*
X88300860Y-158714482D01*
X88300854Y-158714495D01*
X88299562Y-158717228D01*
X88298545Y-158720068D01*
X88298538Y-158720087D01*
X88168165Y-159084456D01*
X88168157Y-159084480D01*
X88167143Y-159087316D01*
X88166408Y-159090247D01*
X88166404Y-159090263D01*
X88072375Y-159465646D01*
X88072371Y-159465664D01*
X88071636Y-159468600D01*
X88071192Y-159471591D01*
X88071188Y-159471613D01*
X88014409Y-159854392D01*
X88014407Y-159854402D01*
X88013962Y-159857409D01*
X88013813Y-159860439D01*
X88013812Y-159860451D01*
X87994824Y-160246967D01*
X87994675Y-160250000D01*
X85005325Y-160250000D01*
X84986038Y-159857409D01*
X84928364Y-159468600D01*
X84832857Y-159087316D01*
X84700438Y-158717228D01*
X84532381Y-158361903D01*
X84330306Y-158024761D01*
X84096158Y-157709049D01*
X83832192Y-157417808D01*
X83540951Y-157153842D01*
X83225239Y-156919694D01*
X82888097Y-156717619D01*
X82885350Y-156716319D01*
X82885343Y-156716316D01*
X82535517Y-156550860D01*
X82535511Y-156550857D01*
X82532772Y-156549562D01*
X82529924Y-156548542D01*
X82529912Y-156548538D01*
X82165543Y-156418165D01*
X82165525Y-156418159D01*
X82162684Y-156417143D01*
X82159746Y-156416407D01*
X82159736Y-156416404D01*
X81784353Y-156322375D01*
X81784339Y-156322372D01*
X81781400Y-156321636D01*
X81778404Y-156321191D01*
X81778386Y-156321188D01*
X81395607Y-156264409D01*
X81395599Y-156264408D01*
X81392591Y-156263962D01*
X81389558Y-156263813D01*
X81389548Y-156263812D01*
X81003033Y-156244824D01*
X81000000Y-156244675D01*
X80996967Y-156244824D01*
X80610451Y-156263812D01*
X80610439Y-156263813D01*
X80607409Y-156263962D01*
X80604402Y-156264407D01*
X80604392Y-156264409D01*
X80221613Y-156321188D01*
X80221591Y-156321192D01*
X80218600Y-156321636D01*
X80215664Y-156322371D01*
X80215646Y-156322375D01*
X79840263Y-156416404D01*
X79840247Y-156416408D01*
X79837316Y-156417143D01*
X79834480Y-156418157D01*
X79834456Y-156418165D01*
X79470087Y-156548538D01*
X79470068Y-156548545D01*
X79467228Y-156549562D01*
X79464495Y-156550854D01*
X79464482Y-156550860D01*
X79114656Y-156716316D01*
X79114641Y-156716323D01*
X79111903Y-156717619D01*
X79109294Y-156719182D01*
X79109286Y-156719187D01*
X78777366Y-156918132D01*
X78777356Y-156918138D01*
X78774761Y-156919694D01*
X78772333Y-156921493D01*
X78772325Y-156921500D01*
X78461492Y-157152030D01*
X78459049Y-157153842D01*
X78456797Y-157155882D01*
X78456791Y-157155888D01*
X78170061Y-157415765D01*
X78170050Y-157415775D01*
X78167808Y-157417808D01*
X78165775Y-157420050D01*
X78165765Y-157420061D01*
X77905888Y-157706791D01*
X77905882Y-157706797D01*
X77903842Y-157709049D01*
X77902031Y-157711490D01*
X77902030Y-157711492D01*
X77671500Y-158022325D01*
X77671493Y-158022333D01*
X77669694Y-158024761D01*
X77668138Y-158027356D01*
X77668132Y-158027366D01*
X77469187Y-158359286D01*
X77469182Y-158359294D01*
X77467619Y-158361903D01*
X77466323Y-158364641D01*
X77466316Y-158364656D01*
X77300860Y-158714482D01*
X77300854Y-158714495D01*
X77299562Y-158717228D01*
X77298545Y-158720068D01*
X77298538Y-158720087D01*
X77168165Y-159084456D01*
X77168157Y-159084480D01*
X77167143Y-159087316D01*
X77166408Y-159090247D01*
X77166404Y-159090263D01*
X77072375Y-159465646D01*
X77072371Y-159465664D01*
X77071636Y-159468600D01*
X77071192Y-159471591D01*
X77071188Y-159471613D01*
X77014409Y-159854392D01*
X77014407Y-159854402D01*
X77013962Y-159857409D01*
X77013813Y-159860439D01*
X77013812Y-159860451D01*
X76994824Y-160246967D01*
X76994675Y-160250000D01*
X73905325Y-160250000D01*
X73886038Y-159857409D01*
X73828364Y-159468600D01*
X73732857Y-159087316D01*
X73600438Y-158717228D01*
X73432381Y-158361903D01*
X73230306Y-158024761D01*
X72996158Y-157709049D01*
X72732192Y-157417808D01*
X72440951Y-157153842D01*
X72125239Y-156919694D01*
X71788097Y-156717619D01*
X71785350Y-156716319D01*
X71785343Y-156716316D01*
X71435517Y-156550860D01*
X71435511Y-156550857D01*
X71432772Y-156549562D01*
X71429924Y-156548542D01*
X71429912Y-156548538D01*
X71065543Y-156418165D01*
X71065525Y-156418159D01*
X71062684Y-156417143D01*
X71059746Y-156416407D01*
X71059736Y-156416404D01*
X70684353Y-156322375D01*
X70684339Y-156322372D01*
X70681400Y-156321636D01*
X70678404Y-156321191D01*
X70678386Y-156321188D01*
X70295607Y-156264409D01*
X70295599Y-156264408D01*
X70292591Y-156263962D01*
X70289558Y-156263813D01*
X70289548Y-156263812D01*
X69903033Y-156244824D01*
X69900000Y-156244675D01*
X69896967Y-156244824D01*
X69510451Y-156263812D01*
X69510439Y-156263813D01*
X69507409Y-156263962D01*
X69504402Y-156264407D01*
X69504392Y-156264409D01*
X69121613Y-156321188D01*
X69121591Y-156321192D01*
X69118600Y-156321636D01*
X69115664Y-156322371D01*
X69115646Y-156322375D01*
X68740263Y-156416404D01*
X68740247Y-156416408D01*
X68737316Y-156417143D01*
X68734480Y-156418157D01*
X68734456Y-156418165D01*
X68370087Y-156548538D01*
X68370068Y-156548545D01*
X68367228Y-156549562D01*
X68364495Y-156550854D01*
X68364482Y-156550860D01*
X68014656Y-156716316D01*
X68014641Y-156716323D01*
X68011903Y-156717619D01*
X68009294Y-156719182D01*
X68009286Y-156719187D01*
X67677366Y-156918132D01*
X67677356Y-156918138D01*
X67674761Y-156919694D01*
X67672333Y-156921493D01*
X67672325Y-156921500D01*
X67361492Y-157152030D01*
X67359049Y-157153842D01*
X67356797Y-157155882D01*
X67356791Y-157155888D01*
X67070061Y-157415765D01*
X67070050Y-157415775D01*
X67067808Y-157417808D01*
X67065775Y-157420050D01*
X67065765Y-157420061D01*
X66805888Y-157706791D01*
X66805882Y-157706797D01*
X66803842Y-157709049D01*
X66802031Y-157711490D01*
X66802030Y-157711492D01*
X66571500Y-158022325D01*
X66571493Y-158022333D01*
X66569694Y-158024761D01*
X66568138Y-158027356D01*
X66568132Y-158027366D01*
X66369187Y-158359286D01*
X66369182Y-158359294D01*
X66367619Y-158361903D01*
X66366323Y-158364641D01*
X66366316Y-158364656D01*
X66200860Y-158714482D01*
X66200854Y-158714495D01*
X66199562Y-158717228D01*
X66198545Y-158720068D01*
X66198538Y-158720087D01*
X66068165Y-159084456D01*
X66068157Y-159084480D01*
X66067143Y-159087316D01*
X66066408Y-159090247D01*
X66066404Y-159090263D01*
X65972375Y-159465646D01*
X65972371Y-159465664D01*
X65971636Y-159468600D01*
X65971192Y-159471591D01*
X65971188Y-159471613D01*
X65914409Y-159854392D01*
X65914407Y-159854402D01*
X65913962Y-159857409D01*
X65913813Y-159860439D01*
X65913812Y-159860451D01*
X65894824Y-160246967D01*
X65894675Y-160250000D01*
X62505325Y-160250000D01*
X62486038Y-159857409D01*
X62428364Y-159468600D01*
X62332857Y-159087316D01*
X62200438Y-158717228D01*
X62032381Y-158361903D01*
X61830306Y-158024761D01*
X61596158Y-157709049D01*
X61332192Y-157417808D01*
X61040951Y-157153842D01*
X60725239Y-156919694D01*
X60388097Y-156717619D01*
X60385350Y-156716319D01*
X60385343Y-156716316D01*
X60035517Y-156550860D01*
X60035511Y-156550857D01*
X60032772Y-156549562D01*
X60029924Y-156548542D01*
X60029912Y-156548538D01*
X59665543Y-156418165D01*
X59665525Y-156418159D01*
X59662684Y-156417143D01*
X59659746Y-156416407D01*
X59659736Y-156416404D01*
X59284353Y-156322375D01*
X59284339Y-156322372D01*
X59281400Y-156321636D01*
X59278404Y-156321191D01*
X59278386Y-156321188D01*
X58895607Y-156264409D01*
X58895599Y-156264408D01*
X58892591Y-156263962D01*
X58889558Y-156263813D01*
X58889548Y-156263812D01*
X58503033Y-156244824D01*
X58500000Y-156244675D01*
X58496967Y-156244824D01*
X58110451Y-156263812D01*
X58110439Y-156263813D01*
X58107409Y-156263962D01*
X58104402Y-156264407D01*
X58104392Y-156264409D01*
X57721613Y-156321188D01*
X57721591Y-156321192D01*
X57718600Y-156321636D01*
X57715664Y-156322371D01*
X57715646Y-156322375D01*
X57340263Y-156416404D01*
X57340247Y-156416408D01*
X57337316Y-156417143D01*
X57334480Y-156418157D01*
X57334456Y-156418165D01*
X56970087Y-156548538D01*
X56970068Y-156548545D01*
X56967228Y-156549562D01*
X56964495Y-156550854D01*
X56964482Y-156550860D01*
X56614656Y-156716316D01*
X56614641Y-156716323D01*
X56611903Y-156717619D01*
X56609294Y-156719182D01*
X56609286Y-156719187D01*
X56277366Y-156918132D01*
X56277356Y-156918138D01*
X56274761Y-156919694D01*
X56272333Y-156921493D01*
X56272325Y-156921500D01*
X55961492Y-157152030D01*
X55959049Y-157153842D01*
X55956797Y-157155882D01*
X55956791Y-157155888D01*
X55670061Y-157415765D01*
X55670050Y-157415775D01*
X55667808Y-157417808D01*
X55665775Y-157420050D01*
X55665765Y-157420061D01*
X55405888Y-157706791D01*
X55405882Y-157706797D01*
X55403842Y-157709049D01*
X55402031Y-157711490D01*
X55402030Y-157711492D01*
X55171500Y-158022325D01*
X55171493Y-158022333D01*
X55169694Y-158024761D01*
X55168138Y-158027356D01*
X55168132Y-158027366D01*
X54969187Y-158359286D01*
X54969182Y-158359294D01*
X54967619Y-158361903D01*
X54966323Y-158364641D01*
X54966316Y-158364656D01*
X54800860Y-158714482D01*
X54800854Y-158714495D01*
X54799562Y-158717228D01*
X54798545Y-158720068D01*
X54798538Y-158720087D01*
X54668165Y-159084456D01*
X54668157Y-159084480D01*
X54667143Y-159087316D01*
X54666408Y-159090247D01*
X54666404Y-159090263D01*
X54572375Y-159465646D01*
X54572371Y-159465664D01*
X54571636Y-159468600D01*
X54571192Y-159471591D01*
X54571188Y-159471613D01*
X54514409Y-159854392D01*
X54514407Y-159854402D01*
X54513962Y-159857409D01*
X54513813Y-159860439D01*
X54513812Y-159860451D01*
X54494824Y-160246967D01*
X54494675Y-160250000D01*
X50000500Y-160250000D01*
X50000500Y-149113897D01*
X55895673Y-149113897D01*
X55895781Y-149117549D01*
X55895781Y-149117560D01*
X55905766Y-149454334D01*
X55905875Y-149458006D01*
X55906415Y-149461627D01*
X55906417Y-149461643D01*
X55956161Y-149794865D01*
X55956162Y-149794874D01*
X55956703Y-149798492D01*
X55957669Y-149802027D01*
X56046479Y-150127040D01*
X56046481Y-150127047D01*
X56047446Y-150130577D01*
X56048819Y-150133964D01*
X56048822Y-150133971D01*
X56175449Y-150446200D01*
X56175452Y-150446207D01*
X56176828Y-150449599D01*
X56343034Y-150751079D01*
X56345169Y-150754054D01*
X56345175Y-150754064D01*
X56447566Y-150896763D01*
X56543730Y-151030785D01*
X56776099Y-151284791D01*
X57036880Y-151509531D01*
X57213411Y-151628434D01*
X57319354Y-151699793D01*
X57319358Y-151699795D01*
X57322410Y-151701851D01*
X57628683Y-151859050D01*
X57951399Y-151978922D01*
X58286027Y-152059783D01*
X58627870Y-152100500D01*
X58631538Y-152100500D01*
X58884165Y-152100500D01*
X58885990Y-152100500D01*
X59143655Y-152085209D01*
X59482486Y-152024313D01*
X59811736Y-151923769D01*
X60126783Y-151784990D01*
X60423206Y-151609924D01*
X60696842Y-151401027D01*
X60943851Y-151161233D01*
X61160764Y-150893907D01*
X61344538Y-150602802D01*
X61492592Y-150292006D01*
X61602848Y-149965880D01*
X61673758Y-149629002D01*
X61704327Y-149286103D01*
X61699222Y-149113897D01*
X66895673Y-149113897D01*
X66895781Y-149117549D01*
X66895781Y-149117560D01*
X66905766Y-149454334D01*
X66905875Y-149458006D01*
X66906415Y-149461627D01*
X66906417Y-149461643D01*
X66956161Y-149794865D01*
X66956162Y-149794874D01*
X66956703Y-149798492D01*
X66957669Y-149802027D01*
X67046479Y-150127040D01*
X67046481Y-150127047D01*
X67047446Y-150130577D01*
X67048819Y-150133964D01*
X67048822Y-150133971D01*
X67175449Y-150446200D01*
X67175452Y-150446207D01*
X67176828Y-150449599D01*
X67343034Y-150751079D01*
X67345169Y-150754054D01*
X67345175Y-150754064D01*
X67447566Y-150896763D01*
X67543730Y-151030785D01*
X67776099Y-151284791D01*
X68036880Y-151509531D01*
X68213411Y-151628434D01*
X68319354Y-151699793D01*
X68319358Y-151699795D01*
X68322410Y-151701851D01*
X68628683Y-151859050D01*
X68951399Y-151978922D01*
X69286027Y-152059783D01*
X69627870Y-152100500D01*
X69631538Y-152100500D01*
X69884165Y-152100500D01*
X69885990Y-152100500D01*
X70143655Y-152085209D01*
X70482486Y-152024313D01*
X70811736Y-151923769D01*
X71126783Y-151784990D01*
X71423206Y-151609924D01*
X71696842Y-151401027D01*
X71943851Y-151161233D01*
X72160764Y-150893907D01*
X72344538Y-150602802D01*
X72492592Y-150292006D01*
X72602848Y-149965880D01*
X72673758Y-149629002D01*
X72704327Y-149286103D01*
X72699222Y-149113897D01*
X78095673Y-149113897D01*
X78095781Y-149117549D01*
X78095781Y-149117560D01*
X78105766Y-149454334D01*
X78105875Y-149458006D01*
X78106415Y-149461627D01*
X78106417Y-149461643D01*
X78156161Y-149794865D01*
X78156162Y-149794874D01*
X78156703Y-149798492D01*
X78157669Y-149802027D01*
X78246479Y-150127040D01*
X78246481Y-150127047D01*
X78247446Y-150130577D01*
X78248819Y-150133964D01*
X78248822Y-150133971D01*
X78375449Y-150446200D01*
X78375452Y-150446207D01*
X78376828Y-150449599D01*
X78543034Y-150751079D01*
X78545169Y-150754054D01*
X78545175Y-150754064D01*
X78647566Y-150896763D01*
X78743730Y-151030785D01*
X78976099Y-151284791D01*
X79236880Y-151509531D01*
X79413411Y-151628434D01*
X79519354Y-151699793D01*
X79519358Y-151699795D01*
X79522410Y-151701851D01*
X79828683Y-151859050D01*
X80151399Y-151978922D01*
X80486027Y-152059783D01*
X80827870Y-152100500D01*
X80831538Y-152100500D01*
X81084165Y-152100500D01*
X81085990Y-152100500D01*
X81343655Y-152085209D01*
X81682486Y-152024313D01*
X82011736Y-151923769D01*
X82326783Y-151784990D01*
X82623206Y-151609924D01*
X82896842Y-151401027D01*
X83143851Y-151161233D01*
X83360764Y-150893907D01*
X83544538Y-150602802D01*
X83692592Y-150292006D01*
X83802848Y-149965880D01*
X83873758Y-149629002D01*
X83904327Y-149286103D01*
X83899222Y-149113897D01*
X89295673Y-149113897D01*
X89295781Y-149117549D01*
X89295781Y-149117560D01*
X89305766Y-149454334D01*
X89305875Y-149458006D01*
X89306415Y-149461627D01*
X89306417Y-149461643D01*
X89356161Y-149794865D01*
X89356162Y-149794874D01*
X89356703Y-149798492D01*
X89357669Y-149802027D01*
X89446479Y-150127040D01*
X89446481Y-150127047D01*
X89447446Y-150130577D01*
X89448819Y-150133964D01*
X89448822Y-150133971D01*
X89575449Y-150446200D01*
X89575452Y-150446207D01*
X89576828Y-150449599D01*
X89743034Y-150751079D01*
X89745169Y-150754054D01*
X89745175Y-150754064D01*
X89847566Y-150896763D01*
X89943730Y-151030785D01*
X90176099Y-151284791D01*
X90436880Y-151509531D01*
X90613411Y-151628434D01*
X90719354Y-151699793D01*
X90719358Y-151699795D01*
X90722410Y-151701851D01*
X91028683Y-151859050D01*
X91351399Y-151978922D01*
X91686027Y-152059783D01*
X92027870Y-152100500D01*
X92031538Y-152100500D01*
X92284165Y-152100500D01*
X92285990Y-152100500D01*
X92543655Y-152085209D01*
X92882486Y-152024313D01*
X93211736Y-151923769D01*
X93526783Y-151784990D01*
X93823206Y-151609924D01*
X94096842Y-151401027D01*
X94343851Y-151161233D01*
X94560764Y-150893907D01*
X94744538Y-150602802D01*
X94892592Y-150292006D01*
X95002848Y-149965880D01*
X95073758Y-149629002D01*
X95104327Y-149286103D01*
X95094125Y-148941994D01*
X95043297Y-148601508D01*
X94952554Y-148269423D01*
X94823172Y-147950401D01*
X94656966Y-147648921D01*
X94654827Y-147645941D01*
X94654824Y-147645935D01*
X94458415Y-147372205D01*
X94456270Y-147369215D01*
X94223901Y-147115209D01*
X93963120Y-146890469D01*
X93817380Y-146792305D01*
X93680645Y-146700206D01*
X93680636Y-146700200D01*
X93677590Y-146698149D01*
X93674318Y-146696469D01*
X93674312Y-146696466D01*
X93374594Y-146542632D01*
X93371317Y-146540950D01*
X93048601Y-146421078D01*
X93045036Y-146420216D01*
X93045031Y-146420215D01*
X92717537Y-146341078D01*
X92717533Y-146341077D01*
X92713973Y-146340217D01*
X92710337Y-146339783D01*
X92710332Y-146339783D01*
X92375769Y-146299933D01*
X92375761Y-146299932D01*
X92372130Y-146299500D01*
X92114010Y-146299500D01*
X92112196Y-146299607D01*
X92112184Y-146299608D01*
X91860011Y-146314573D01*
X91860003Y-146314573D01*
X91856345Y-146314791D01*
X91852750Y-146315437D01*
X91852734Y-146315439D01*
X91521130Y-146375037D01*
X91521128Y-146375037D01*
X91517514Y-146375687D01*
X91514005Y-146376758D01*
X91513999Y-146376760D01*
X91191778Y-146475157D01*
X91191764Y-146475162D01*
X91188264Y-146476231D01*
X91184913Y-146477706D01*
X91184897Y-146477713D01*
X90876573Y-146613531D01*
X90876563Y-146613535D01*
X90873217Y-146615010D01*
X90870078Y-146616863D01*
X90870064Y-146616871D01*
X90579952Y-146788210D01*
X90579941Y-146788217D01*
X90576794Y-146790076D01*
X90573883Y-146792298D01*
X90573873Y-146792305D01*
X90306078Y-146996743D01*
X90306069Y-146996750D01*
X90303158Y-146998973D01*
X90300529Y-147001524D01*
X90300521Y-147001532D01*
X90058793Y-147236199D01*
X90058782Y-147236209D01*
X90056149Y-147238767D01*
X90053838Y-147241614D01*
X90053828Y-147241626D01*
X89841554Y-147503236D01*
X89839236Y-147506093D01*
X89837279Y-147509192D01*
X89837271Y-147509204D01*
X89747039Y-147652136D01*
X89655462Y-147797198D01*
X89653888Y-147800501D01*
X89653882Y-147800513D01*
X89508994Y-148104664D01*
X89507408Y-148107994D01*
X89506227Y-148111486D01*
X89506225Y-148111492D01*
X89398333Y-148430625D01*
X89398330Y-148430633D01*
X89397152Y-148434120D01*
X89396396Y-148437710D01*
X89396392Y-148437726D01*
X89326999Y-148767399D01*
X89326997Y-148767408D01*
X89326242Y-148770998D01*
X89325916Y-148774653D01*
X89325915Y-148774661D01*
X89295998Y-149110241D01*
X89295997Y-149110256D01*
X89295673Y-149113897D01*
X83899222Y-149113897D01*
X83894125Y-148941994D01*
X83843297Y-148601508D01*
X83752554Y-148269423D01*
X83623172Y-147950401D01*
X83456966Y-147648921D01*
X83454827Y-147645941D01*
X83454824Y-147645935D01*
X83258415Y-147372205D01*
X83256270Y-147369215D01*
X83023901Y-147115209D01*
X82763120Y-146890469D01*
X82617380Y-146792305D01*
X82480645Y-146700206D01*
X82480636Y-146700200D01*
X82477590Y-146698149D01*
X82474318Y-146696469D01*
X82474312Y-146696466D01*
X82174594Y-146542632D01*
X82171317Y-146540950D01*
X81848601Y-146421078D01*
X81845036Y-146420216D01*
X81845031Y-146420215D01*
X81517537Y-146341078D01*
X81517533Y-146341077D01*
X81513973Y-146340217D01*
X81510337Y-146339783D01*
X81510332Y-146339783D01*
X81175769Y-146299933D01*
X81175761Y-146299932D01*
X81172130Y-146299500D01*
X80914010Y-146299500D01*
X80912196Y-146299607D01*
X80912184Y-146299608D01*
X80660011Y-146314573D01*
X80660003Y-146314573D01*
X80656345Y-146314791D01*
X80652750Y-146315437D01*
X80652734Y-146315439D01*
X80321130Y-146375037D01*
X80321128Y-146375037D01*
X80317514Y-146375687D01*
X80314005Y-146376758D01*
X80313999Y-146376760D01*
X79991778Y-146475157D01*
X79991764Y-146475162D01*
X79988264Y-146476231D01*
X79984913Y-146477706D01*
X79984897Y-146477713D01*
X79676573Y-146613531D01*
X79676563Y-146613535D01*
X79673217Y-146615010D01*
X79670078Y-146616863D01*
X79670064Y-146616871D01*
X79379952Y-146788210D01*
X79379941Y-146788217D01*
X79376794Y-146790076D01*
X79373883Y-146792298D01*
X79373873Y-146792305D01*
X79106078Y-146996743D01*
X79106069Y-146996750D01*
X79103158Y-146998973D01*
X79100529Y-147001524D01*
X79100521Y-147001532D01*
X78858793Y-147236199D01*
X78858782Y-147236209D01*
X78856149Y-147238767D01*
X78853838Y-147241614D01*
X78853828Y-147241626D01*
X78641554Y-147503236D01*
X78639236Y-147506093D01*
X78637279Y-147509192D01*
X78637271Y-147509204D01*
X78547039Y-147652136D01*
X78455462Y-147797198D01*
X78453888Y-147800501D01*
X78453882Y-147800513D01*
X78308994Y-148104664D01*
X78307408Y-148107994D01*
X78306227Y-148111486D01*
X78306225Y-148111492D01*
X78198333Y-148430625D01*
X78198330Y-148430633D01*
X78197152Y-148434120D01*
X78196396Y-148437710D01*
X78196392Y-148437726D01*
X78126999Y-148767399D01*
X78126997Y-148767408D01*
X78126242Y-148770998D01*
X78125916Y-148774653D01*
X78125915Y-148774661D01*
X78095998Y-149110241D01*
X78095997Y-149110256D01*
X78095673Y-149113897D01*
X72699222Y-149113897D01*
X72694125Y-148941994D01*
X72643297Y-148601508D01*
X72552554Y-148269423D01*
X72423172Y-147950401D01*
X72256966Y-147648921D01*
X72254827Y-147645941D01*
X72254824Y-147645935D01*
X72058415Y-147372205D01*
X72056270Y-147369215D01*
X71823901Y-147115209D01*
X71563120Y-146890469D01*
X71417380Y-146792305D01*
X71280645Y-146700206D01*
X71280636Y-146700200D01*
X71277590Y-146698149D01*
X71274318Y-146696469D01*
X71274312Y-146696466D01*
X70974594Y-146542632D01*
X70971317Y-146540950D01*
X70648601Y-146421078D01*
X70645036Y-146420216D01*
X70645031Y-146420215D01*
X70317537Y-146341078D01*
X70317533Y-146341077D01*
X70313973Y-146340217D01*
X70310337Y-146339783D01*
X70310332Y-146339783D01*
X69975769Y-146299933D01*
X69975761Y-146299932D01*
X69972130Y-146299500D01*
X69714010Y-146299500D01*
X69712196Y-146299607D01*
X69712184Y-146299608D01*
X69460011Y-146314573D01*
X69460003Y-146314573D01*
X69456345Y-146314791D01*
X69452750Y-146315437D01*
X69452734Y-146315439D01*
X69121130Y-146375037D01*
X69121128Y-146375037D01*
X69117514Y-146375687D01*
X69114005Y-146376758D01*
X69113999Y-146376760D01*
X68791778Y-146475157D01*
X68791764Y-146475162D01*
X68788264Y-146476231D01*
X68784913Y-146477706D01*
X68784897Y-146477713D01*
X68476573Y-146613531D01*
X68476563Y-146613535D01*
X68473217Y-146615010D01*
X68470078Y-146616863D01*
X68470064Y-146616871D01*
X68179952Y-146788210D01*
X68179941Y-146788217D01*
X68176794Y-146790076D01*
X68173883Y-146792298D01*
X68173873Y-146792305D01*
X67906078Y-146996743D01*
X67906069Y-146996750D01*
X67903158Y-146998973D01*
X67900529Y-147001524D01*
X67900521Y-147001532D01*
X67658793Y-147236199D01*
X67658782Y-147236209D01*
X67656149Y-147238767D01*
X67653838Y-147241614D01*
X67653828Y-147241626D01*
X67441554Y-147503236D01*
X67439236Y-147506093D01*
X67437279Y-147509192D01*
X67437271Y-147509204D01*
X67347039Y-147652136D01*
X67255462Y-147797198D01*
X67253888Y-147800501D01*
X67253882Y-147800513D01*
X67108994Y-148104664D01*
X67107408Y-148107994D01*
X67106227Y-148111486D01*
X67106225Y-148111492D01*
X66998333Y-148430625D01*
X66998330Y-148430633D01*
X66997152Y-148434120D01*
X66996396Y-148437710D01*
X66996392Y-148437726D01*
X66926999Y-148767399D01*
X66926997Y-148767408D01*
X66926242Y-148770998D01*
X66925916Y-148774653D01*
X66925915Y-148774661D01*
X66895998Y-149110241D01*
X66895997Y-149110256D01*
X66895673Y-149113897D01*
X61699222Y-149113897D01*
X61694125Y-148941994D01*
X61643297Y-148601508D01*
X61552554Y-148269423D01*
X61423172Y-147950401D01*
X61256966Y-147648921D01*
X61254827Y-147645941D01*
X61254824Y-147645935D01*
X61058415Y-147372205D01*
X61056270Y-147369215D01*
X60823901Y-147115209D01*
X60563120Y-146890469D01*
X60417380Y-146792305D01*
X60280645Y-146700206D01*
X60280636Y-146700200D01*
X60277590Y-146698149D01*
X60274318Y-146696469D01*
X60274312Y-146696466D01*
X59974594Y-146542632D01*
X59971317Y-146540950D01*
X59648601Y-146421078D01*
X59645036Y-146420216D01*
X59645031Y-146420215D01*
X59317537Y-146341078D01*
X59317533Y-146341077D01*
X59313973Y-146340217D01*
X59310337Y-146339783D01*
X59310332Y-146339783D01*
X58975769Y-146299933D01*
X58975761Y-146299932D01*
X58972130Y-146299500D01*
X58714010Y-146299500D01*
X58712196Y-146299607D01*
X58712184Y-146299608D01*
X58460011Y-146314573D01*
X58460003Y-146314573D01*
X58456345Y-146314791D01*
X58452750Y-146315437D01*
X58452734Y-146315439D01*
X58121130Y-146375037D01*
X58121128Y-146375037D01*
X58117514Y-146375687D01*
X58114005Y-146376758D01*
X58113999Y-146376760D01*
X57791778Y-146475157D01*
X57791764Y-146475162D01*
X57788264Y-146476231D01*
X57784913Y-146477706D01*
X57784897Y-146477713D01*
X57476573Y-146613531D01*
X57476563Y-146613535D01*
X57473217Y-146615010D01*
X57470078Y-146616863D01*
X57470064Y-146616871D01*
X57179952Y-146788210D01*
X57179941Y-146788217D01*
X57176794Y-146790076D01*
X57173883Y-146792298D01*
X57173873Y-146792305D01*
X56906078Y-146996743D01*
X56906069Y-146996750D01*
X56903158Y-146998973D01*
X56900529Y-147001524D01*
X56900521Y-147001532D01*
X56658793Y-147236199D01*
X56658782Y-147236209D01*
X56656149Y-147238767D01*
X56653838Y-147241614D01*
X56653828Y-147241626D01*
X56441554Y-147503236D01*
X56439236Y-147506093D01*
X56437279Y-147509192D01*
X56437271Y-147509204D01*
X56347039Y-147652136D01*
X56255462Y-147797198D01*
X56253888Y-147800501D01*
X56253882Y-147800513D01*
X56108994Y-148104664D01*
X56107408Y-148107994D01*
X56106227Y-148111486D01*
X56106225Y-148111492D01*
X55998333Y-148430625D01*
X55998330Y-148430633D01*
X55997152Y-148434120D01*
X55996396Y-148437710D01*
X55996392Y-148437726D01*
X55926999Y-148767399D01*
X55926997Y-148767408D01*
X55926242Y-148770998D01*
X55925916Y-148774653D01*
X55925915Y-148774661D01*
X55895998Y-149110241D01*
X55895997Y-149110256D01*
X55895673Y-149113897D01*
X50000500Y-149113897D01*
X50000500Y-139200000D01*
X54494675Y-139200000D01*
X54494824Y-139203032D01*
X54513812Y-139589548D01*
X54513813Y-139589558D01*
X54513962Y-139592591D01*
X54514408Y-139595599D01*
X54514409Y-139595607D01*
X54571188Y-139978386D01*
X54571191Y-139978404D01*
X54571636Y-139981400D01*
X54572372Y-139984339D01*
X54572375Y-139984353D01*
X54666404Y-140359736D01*
X54666407Y-140359746D01*
X54667143Y-140362684D01*
X54668159Y-140365525D01*
X54668165Y-140365543D01*
X54798538Y-140729912D01*
X54798542Y-140729924D01*
X54799562Y-140732772D01*
X54800857Y-140735511D01*
X54800860Y-140735517D01*
X54873025Y-140888097D01*
X54967619Y-141088097D01*
X55169694Y-141425239D01*
X55403842Y-141740951D01*
X55667808Y-142032192D01*
X55959049Y-142296158D01*
X56274761Y-142530306D01*
X56611903Y-142732381D01*
X56967228Y-142900438D01*
X56970086Y-142901460D01*
X56970087Y-142901461D01*
X57334456Y-143031834D01*
X57334461Y-143031835D01*
X57337316Y-143032857D01*
X57718600Y-143128364D01*
X58107409Y-143186038D01*
X58500000Y-143205325D01*
X58892591Y-143186038D01*
X59281400Y-143128364D01*
X59662684Y-143032857D01*
X60032772Y-142900438D01*
X60388097Y-142732381D01*
X60725239Y-142530306D01*
X61040951Y-142296158D01*
X61332192Y-142032192D01*
X61596158Y-141740951D01*
X61830306Y-141425239D01*
X62032381Y-141088097D01*
X62200438Y-140732772D01*
X62332857Y-140362684D01*
X62428364Y-139981400D01*
X62486038Y-139592591D01*
X62505325Y-139200000D01*
X62495500Y-139000000D01*
X65494675Y-139000000D01*
X65494824Y-139003032D01*
X65513812Y-139389548D01*
X65513813Y-139389558D01*
X65513962Y-139392591D01*
X65514408Y-139395599D01*
X65514409Y-139395607D01*
X65571188Y-139778386D01*
X65571191Y-139778404D01*
X65571636Y-139781400D01*
X65572372Y-139784339D01*
X65572375Y-139784353D01*
X65666404Y-140159736D01*
X65666407Y-140159746D01*
X65667143Y-140162684D01*
X65668159Y-140165525D01*
X65668165Y-140165543D01*
X65798538Y-140529912D01*
X65798542Y-140529924D01*
X65799562Y-140532772D01*
X65800857Y-140535511D01*
X65800860Y-140535517D01*
X65895453Y-140735517D01*
X65967619Y-140888097D01*
X66169694Y-141225239D01*
X66403842Y-141540951D01*
X66667808Y-141832192D01*
X66959049Y-142096158D01*
X67274761Y-142330306D01*
X67611903Y-142532381D01*
X67967228Y-142700438D01*
X67970086Y-142701460D01*
X67970087Y-142701461D01*
X68334456Y-142831834D01*
X68334461Y-142831835D01*
X68337316Y-142832857D01*
X68718600Y-142928364D01*
X69107409Y-142986038D01*
X69500000Y-143005325D01*
X69892591Y-142986038D01*
X70281400Y-142928364D01*
X70662684Y-142832857D01*
X71032772Y-142700438D01*
X71388097Y-142532381D01*
X71725239Y-142330306D01*
X72040951Y-142096158D01*
X72332192Y-141832192D01*
X72596158Y-141540951D01*
X72830306Y-141225239D01*
X73032381Y-140888097D01*
X73200438Y-140532772D01*
X73332857Y-140162684D01*
X73428364Y-139781400D01*
X73486038Y-139392591D01*
X73505325Y-139000000D01*
X76994675Y-139000000D01*
X76994824Y-139003032D01*
X77013812Y-139389548D01*
X77013813Y-139389558D01*
X77013962Y-139392591D01*
X77014408Y-139395599D01*
X77014409Y-139395607D01*
X77071188Y-139778386D01*
X77071191Y-139778404D01*
X77071636Y-139781400D01*
X77072372Y-139784339D01*
X77072375Y-139784353D01*
X77166404Y-140159736D01*
X77166407Y-140159746D01*
X77167143Y-140162684D01*
X77168159Y-140165525D01*
X77168165Y-140165543D01*
X77298538Y-140529912D01*
X77298542Y-140529924D01*
X77299562Y-140532772D01*
X77300857Y-140535511D01*
X77300860Y-140535517D01*
X77395453Y-140735517D01*
X77467619Y-140888097D01*
X77669694Y-141225239D01*
X77903842Y-141540951D01*
X78167808Y-141832192D01*
X78459049Y-142096158D01*
X78774761Y-142330306D01*
X79111903Y-142532381D01*
X79467228Y-142700438D01*
X79470086Y-142701460D01*
X79470087Y-142701461D01*
X79834456Y-142831834D01*
X79834461Y-142831835D01*
X79837316Y-142832857D01*
X80218600Y-142928364D01*
X80607409Y-142986038D01*
X81000000Y-143005325D01*
X81392591Y-142986038D01*
X81781400Y-142928364D01*
X82162684Y-142832857D01*
X82532772Y-142700438D01*
X82888097Y-142532381D01*
X83225239Y-142330306D01*
X83540951Y-142096158D01*
X83832192Y-141832192D01*
X84096158Y-141540951D01*
X84330306Y-141225239D01*
X84532381Y-140888097D01*
X84700438Y-140532772D01*
X84832857Y-140162684D01*
X84928364Y-139781400D01*
X84986038Y-139392591D01*
X85005325Y-139000000D01*
X87994675Y-139000000D01*
X87994824Y-139003032D01*
X88013812Y-139389548D01*
X88013813Y-139389558D01*
X88013962Y-139392591D01*
X88014408Y-139395599D01*
X88014409Y-139395607D01*
X88071188Y-139778386D01*
X88071191Y-139778404D01*
X88071636Y-139781400D01*
X88072372Y-139784339D01*
X88072375Y-139784353D01*
X88166404Y-140159736D01*
X88166407Y-140159746D01*
X88167143Y-140162684D01*
X88168159Y-140165525D01*
X88168165Y-140165543D01*
X88298538Y-140529912D01*
X88298542Y-140529924D01*
X88299562Y-140532772D01*
X88300857Y-140535511D01*
X88300860Y-140535517D01*
X88395453Y-140735517D01*
X88467619Y-140888097D01*
X88669694Y-141225239D01*
X88903842Y-141540951D01*
X89167808Y-141832192D01*
X89459049Y-142096158D01*
X89774761Y-142330306D01*
X90111903Y-142532381D01*
X90467228Y-142700438D01*
X90470086Y-142701460D01*
X90470087Y-142701461D01*
X90834456Y-142831834D01*
X90834461Y-142831835D01*
X90837316Y-142832857D01*
X91218600Y-142928364D01*
X91607409Y-142986038D01*
X92000000Y-143005325D01*
X92392591Y-142986038D01*
X92781400Y-142928364D01*
X93162684Y-142832857D01*
X93532772Y-142700438D01*
X93888097Y-142532381D01*
X94225239Y-142330306D01*
X94540951Y-142096158D01*
X94832192Y-141832192D01*
X95096158Y-141540951D01*
X95330306Y-141225239D01*
X95532381Y-140888097D01*
X95700438Y-140532772D01*
X95832857Y-140162684D01*
X95928364Y-139781400D01*
X95986038Y-139392591D01*
X96005325Y-139000000D01*
X95986038Y-138607409D01*
X95928364Y-138218600D01*
X95832857Y-137837316D01*
X95700438Y-137467228D01*
X95532381Y-137111903D01*
X95330306Y-136774761D01*
X95096158Y-136459049D01*
X94832192Y-136167808D01*
X94540951Y-135903842D01*
X94225239Y-135669694D01*
X93888097Y-135467619D01*
X93885350Y-135466319D01*
X93885343Y-135466316D01*
X93535517Y-135300860D01*
X93535511Y-135300857D01*
X93532772Y-135299562D01*
X93529924Y-135298542D01*
X93529912Y-135298538D01*
X93165543Y-135168165D01*
X93165525Y-135168159D01*
X93162684Y-135167143D01*
X93159746Y-135166407D01*
X93159736Y-135166404D01*
X92784353Y-135072375D01*
X92784339Y-135072372D01*
X92781400Y-135071636D01*
X92778404Y-135071191D01*
X92778386Y-135071188D01*
X92395607Y-135014409D01*
X92395599Y-135014408D01*
X92392591Y-135013962D01*
X92389558Y-135013813D01*
X92389548Y-135013812D01*
X92003033Y-134994824D01*
X92000000Y-134994675D01*
X91996967Y-134994824D01*
X91610451Y-135013812D01*
X91610439Y-135013813D01*
X91607409Y-135013962D01*
X91604402Y-135014407D01*
X91604392Y-135014409D01*
X91221613Y-135071188D01*
X91221591Y-135071192D01*
X91218600Y-135071636D01*
X91215664Y-135072371D01*
X91215646Y-135072375D01*
X90840263Y-135166404D01*
X90840247Y-135166408D01*
X90837316Y-135167143D01*
X90834480Y-135168157D01*
X90834456Y-135168165D01*
X90470087Y-135298538D01*
X90470068Y-135298545D01*
X90467228Y-135299562D01*
X90464495Y-135300854D01*
X90464482Y-135300860D01*
X90114656Y-135466316D01*
X90114641Y-135466323D01*
X90111903Y-135467619D01*
X90109294Y-135469182D01*
X90109286Y-135469187D01*
X89777366Y-135668132D01*
X89777356Y-135668138D01*
X89774761Y-135669694D01*
X89772333Y-135671493D01*
X89772325Y-135671500D01*
X89507198Y-135868132D01*
X89459049Y-135903842D01*
X89456797Y-135905882D01*
X89456791Y-135905888D01*
X89170061Y-136165765D01*
X89170050Y-136165775D01*
X89167808Y-136167808D01*
X89165775Y-136170050D01*
X89165765Y-136170061D01*
X88905888Y-136456791D01*
X88905882Y-136456797D01*
X88903842Y-136459049D01*
X88902031Y-136461490D01*
X88902030Y-136461492D01*
X88671500Y-136772325D01*
X88671493Y-136772333D01*
X88669694Y-136774761D01*
X88668138Y-136777356D01*
X88668132Y-136777366D01*
X88469187Y-137109286D01*
X88469182Y-137109294D01*
X88467619Y-137111903D01*
X88466323Y-137114641D01*
X88466316Y-137114656D01*
X88300860Y-137464482D01*
X88300854Y-137464495D01*
X88299562Y-137467228D01*
X88298545Y-137470068D01*
X88298538Y-137470087D01*
X88168165Y-137834456D01*
X88168157Y-137834480D01*
X88167143Y-137837316D01*
X88166408Y-137840247D01*
X88166404Y-137840263D01*
X88072375Y-138215646D01*
X88072371Y-138215664D01*
X88071636Y-138218600D01*
X88071192Y-138221591D01*
X88071188Y-138221613D01*
X88014409Y-138604392D01*
X88014407Y-138604402D01*
X88013962Y-138607409D01*
X88013813Y-138610439D01*
X88013812Y-138610451D01*
X88003987Y-138810451D01*
X87994675Y-139000000D01*
X85005325Y-139000000D01*
X84986038Y-138607409D01*
X84928364Y-138218600D01*
X84832857Y-137837316D01*
X84700438Y-137467228D01*
X84532381Y-137111903D01*
X84330306Y-136774761D01*
X84096158Y-136459049D01*
X83832192Y-136167808D01*
X83540951Y-135903842D01*
X83225239Y-135669694D01*
X82888097Y-135467619D01*
X82885350Y-135466319D01*
X82885343Y-135466316D01*
X82535517Y-135300860D01*
X82535511Y-135300857D01*
X82532772Y-135299562D01*
X82529924Y-135298542D01*
X82529912Y-135298538D01*
X82165543Y-135168165D01*
X82165525Y-135168159D01*
X82162684Y-135167143D01*
X82159746Y-135166407D01*
X82159736Y-135166404D01*
X81784353Y-135072375D01*
X81784339Y-135072372D01*
X81781400Y-135071636D01*
X81778404Y-135071191D01*
X81778386Y-135071188D01*
X81395607Y-135014409D01*
X81395599Y-135014408D01*
X81392591Y-135013962D01*
X81389558Y-135013813D01*
X81389548Y-135013812D01*
X81003033Y-134994824D01*
X81000000Y-134994675D01*
X80996967Y-134994824D01*
X80610451Y-135013812D01*
X80610439Y-135013813D01*
X80607409Y-135013962D01*
X80604402Y-135014407D01*
X80604392Y-135014409D01*
X80221613Y-135071188D01*
X80221591Y-135071192D01*
X80218600Y-135071636D01*
X80215664Y-135072371D01*
X80215646Y-135072375D01*
X79840263Y-135166404D01*
X79840247Y-135166408D01*
X79837316Y-135167143D01*
X79834480Y-135168157D01*
X79834456Y-135168165D01*
X79470087Y-135298538D01*
X79470068Y-135298545D01*
X79467228Y-135299562D01*
X79464495Y-135300854D01*
X79464482Y-135300860D01*
X79114656Y-135466316D01*
X79114641Y-135466323D01*
X79111903Y-135467619D01*
X79109294Y-135469182D01*
X79109286Y-135469187D01*
X78777366Y-135668132D01*
X78777356Y-135668138D01*
X78774761Y-135669694D01*
X78772333Y-135671493D01*
X78772325Y-135671500D01*
X78507198Y-135868132D01*
X78459049Y-135903842D01*
X78456797Y-135905882D01*
X78456791Y-135905888D01*
X78170061Y-136165765D01*
X78170050Y-136165775D01*
X78167808Y-136167808D01*
X78165775Y-136170050D01*
X78165765Y-136170061D01*
X77905888Y-136456791D01*
X77905882Y-136456797D01*
X77903842Y-136459049D01*
X77902031Y-136461490D01*
X77902030Y-136461492D01*
X77671500Y-136772325D01*
X77671493Y-136772333D01*
X77669694Y-136774761D01*
X77668138Y-136777356D01*
X77668132Y-136777366D01*
X77469187Y-137109286D01*
X77469182Y-137109294D01*
X77467619Y-137111903D01*
X77466323Y-137114641D01*
X77466316Y-137114656D01*
X77300860Y-137464482D01*
X77300854Y-137464495D01*
X77299562Y-137467228D01*
X77298545Y-137470068D01*
X77298538Y-137470087D01*
X77168165Y-137834456D01*
X77168157Y-137834480D01*
X77167143Y-137837316D01*
X77166408Y-137840247D01*
X77166404Y-137840263D01*
X77072375Y-138215646D01*
X77072371Y-138215664D01*
X77071636Y-138218600D01*
X77071192Y-138221591D01*
X77071188Y-138221613D01*
X77014409Y-138604392D01*
X77014407Y-138604402D01*
X77013962Y-138607409D01*
X77013813Y-138610439D01*
X77013812Y-138610451D01*
X77003987Y-138810451D01*
X76994675Y-139000000D01*
X73505325Y-139000000D01*
X73486038Y-138607409D01*
X73428364Y-138218600D01*
X73332857Y-137837316D01*
X73200438Y-137467228D01*
X73032381Y-137111903D01*
X72830306Y-136774761D01*
X72596158Y-136459049D01*
X72332192Y-136167808D01*
X72040951Y-135903842D01*
X71725239Y-135669694D01*
X71388097Y-135467619D01*
X71385350Y-135466319D01*
X71385343Y-135466316D01*
X71035517Y-135300860D01*
X71035511Y-135300857D01*
X71032772Y-135299562D01*
X71029924Y-135298542D01*
X71029912Y-135298538D01*
X70665543Y-135168165D01*
X70665525Y-135168159D01*
X70662684Y-135167143D01*
X70659746Y-135166407D01*
X70659736Y-135166404D01*
X70284353Y-135072375D01*
X70284339Y-135072372D01*
X70281400Y-135071636D01*
X70278404Y-135071191D01*
X70278386Y-135071188D01*
X69895607Y-135014409D01*
X69895599Y-135014408D01*
X69892591Y-135013962D01*
X69889558Y-135013813D01*
X69889548Y-135013812D01*
X69503033Y-134994824D01*
X69500000Y-134994675D01*
X69496967Y-134994824D01*
X69110451Y-135013812D01*
X69110439Y-135013813D01*
X69107409Y-135013962D01*
X69104402Y-135014407D01*
X69104392Y-135014409D01*
X68721613Y-135071188D01*
X68721591Y-135071192D01*
X68718600Y-135071636D01*
X68715664Y-135072371D01*
X68715646Y-135072375D01*
X68340263Y-135166404D01*
X68340247Y-135166408D01*
X68337316Y-135167143D01*
X68334480Y-135168157D01*
X68334456Y-135168165D01*
X67970087Y-135298538D01*
X67970068Y-135298545D01*
X67967228Y-135299562D01*
X67964495Y-135300854D01*
X67964482Y-135300860D01*
X67614656Y-135466316D01*
X67614641Y-135466323D01*
X67611903Y-135467619D01*
X67609294Y-135469182D01*
X67609286Y-135469187D01*
X67277366Y-135668132D01*
X67277356Y-135668138D01*
X67274761Y-135669694D01*
X67272333Y-135671493D01*
X67272325Y-135671500D01*
X67007198Y-135868132D01*
X66959049Y-135903842D01*
X66956797Y-135905882D01*
X66956791Y-135905888D01*
X66670061Y-136165765D01*
X66670050Y-136165775D01*
X66667808Y-136167808D01*
X66665775Y-136170050D01*
X66665765Y-136170061D01*
X66405888Y-136456791D01*
X66405882Y-136456797D01*
X66403842Y-136459049D01*
X66402031Y-136461490D01*
X66402030Y-136461492D01*
X66171500Y-136772325D01*
X66171493Y-136772333D01*
X66169694Y-136774761D01*
X66168138Y-136777356D01*
X66168132Y-136777366D01*
X65969187Y-137109286D01*
X65969182Y-137109294D01*
X65967619Y-137111903D01*
X65966323Y-137114641D01*
X65966316Y-137114656D01*
X65800860Y-137464482D01*
X65800854Y-137464495D01*
X65799562Y-137467228D01*
X65798545Y-137470068D01*
X65798538Y-137470087D01*
X65668165Y-137834456D01*
X65668157Y-137834480D01*
X65667143Y-137837316D01*
X65666408Y-137840247D01*
X65666404Y-137840263D01*
X65572375Y-138215646D01*
X65572371Y-138215664D01*
X65571636Y-138218600D01*
X65571192Y-138221591D01*
X65571188Y-138221613D01*
X65514409Y-138604392D01*
X65514407Y-138604402D01*
X65513962Y-138607409D01*
X65513813Y-138610439D01*
X65513812Y-138610451D01*
X65503987Y-138810451D01*
X65494675Y-139000000D01*
X62495500Y-139000000D01*
X62486038Y-138807409D01*
X62428364Y-138418600D01*
X62332857Y-138037316D01*
X62200438Y-137667228D01*
X62032381Y-137311903D01*
X61830306Y-136974761D01*
X61596158Y-136659049D01*
X61332192Y-136367808D01*
X61040951Y-136103842D01*
X60725239Y-135869694D01*
X60388097Y-135667619D01*
X60385350Y-135666319D01*
X60385343Y-135666316D01*
X60035517Y-135500860D01*
X60035511Y-135500857D01*
X60032772Y-135499562D01*
X60029924Y-135498542D01*
X60029912Y-135498538D01*
X59665543Y-135368165D01*
X59665525Y-135368159D01*
X59662684Y-135367143D01*
X59659746Y-135366407D01*
X59659736Y-135366404D01*
X59284353Y-135272375D01*
X59284339Y-135272372D01*
X59281400Y-135271636D01*
X59278404Y-135271191D01*
X59278386Y-135271188D01*
X58895607Y-135214409D01*
X58895599Y-135214408D01*
X58892591Y-135213962D01*
X58889558Y-135213813D01*
X58889548Y-135213812D01*
X58503033Y-135194824D01*
X58500000Y-135194675D01*
X58496967Y-135194824D01*
X58110451Y-135213812D01*
X58110439Y-135213813D01*
X58107409Y-135213962D01*
X58104402Y-135214407D01*
X58104392Y-135214409D01*
X57721613Y-135271188D01*
X57721591Y-135271192D01*
X57718600Y-135271636D01*
X57715664Y-135272371D01*
X57715646Y-135272375D01*
X57340263Y-135366404D01*
X57340247Y-135366408D01*
X57337316Y-135367143D01*
X57334480Y-135368157D01*
X57334456Y-135368165D01*
X56970087Y-135498538D01*
X56970068Y-135498545D01*
X56967228Y-135499562D01*
X56964495Y-135500854D01*
X56964482Y-135500860D01*
X56614656Y-135666316D01*
X56614641Y-135666323D01*
X56611903Y-135667619D01*
X56609294Y-135669182D01*
X56609286Y-135669187D01*
X56277366Y-135868132D01*
X56277356Y-135868138D01*
X56274761Y-135869694D01*
X56272333Y-135871493D01*
X56272325Y-135871500D01*
X55961492Y-136102030D01*
X55959049Y-136103842D01*
X55956797Y-136105882D01*
X55956791Y-136105888D01*
X55670061Y-136365765D01*
X55670050Y-136365775D01*
X55667808Y-136367808D01*
X55665775Y-136370050D01*
X55665765Y-136370061D01*
X55405888Y-136656791D01*
X55405882Y-136656797D01*
X55403842Y-136659049D01*
X55402031Y-136661490D01*
X55402030Y-136661492D01*
X55171500Y-136972325D01*
X55171493Y-136972333D01*
X55169694Y-136974761D01*
X55168138Y-136977356D01*
X55168132Y-136977366D01*
X54969187Y-137309286D01*
X54969182Y-137309294D01*
X54967619Y-137311903D01*
X54966323Y-137314641D01*
X54966316Y-137314656D01*
X54800860Y-137664482D01*
X54800854Y-137664495D01*
X54799562Y-137667228D01*
X54798545Y-137670068D01*
X54798538Y-137670087D01*
X54668165Y-138034456D01*
X54668157Y-138034480D01*
X54667143Y-138037316D01*
X54666408Y-138040247D01*
X54666404Y-138040263D01*
X54572375Y-138415646D01*
X54572371Y-138415664D01*
X54571636Y-138418600D01*
X54571192Y-138421591D01*
X54571188Y-138421613D01*
X54514409Y-138804392D01*
X54514407Y-138804402D01*
X54513962Y-138807409D01*
X54513813Y-138810439D01*
X54513812Y-138810451D01*
X54494824Y-139196967D01*
X54494675Y-139200000D01*
X50000500Y-139200000D01*
X50000500Y-125200000D01*
X54494675Y-125200000D01*
X54494824Y-125203032D01*
X54513812Y-125589548D01*
X54513813Y-125589558D01*
X54513962Y-125592591D01*
X54514408Y-125595599D01*
X54514409Y-125595607D01*
X54571188Y-125978386D01*
X54571191Y-125978404D01*
X54571636Y-125981400D01*
X54572372Y-125984339D01*
X54572375Y-125984353D01*
X54666404Y-126359736D01*
X54666407Y-126359746D01*
X54667143Y-126362684D01*
X54668159Y-126365525D01*
X54668165Y-126365543D01*
X54798538Y-126729912D01*
X54798542Y-126729924D01*
X54799562Y-126732772D01*
X54967619Y-127088097D01*
X55169694Y-127425239D01*
X55403842Y-127740951D01*
X55667808Y-128032192D01*
X55959049Y-128296158D01*
X56274761Y-128530306D01*
X56611903Y-128732381D01*
X56967228Y-128900438D01*
X56970086Y-128901460D01*
X56970087Y-128901461D01*
X57334456Y-129031834D01*
X57334461Y-129031835D01*
X57337316Y-129032857D01*
X57718600Y-129128364D01*
X58107409Y-129186038D01*
X58500000Y-129205325D01*
X58892591Y-129186038D01*
X59281400Y-129128364D01*
X59662684Y-129032857D01*
X60032772Y-128900438D01*
X60388097Y-128732381D01*
X60725239Y-128530306D01*
X61040951Y-128296158D01*
X61332192Y-128032192D01*
X61596158Y-127740951D01*
X61830306Y-127425239D01*
X62032381Y-127088097D01*
X62200438Y-126732772D01*
X62332857Y-126362684D01*
X62428364Y-125981400D01*
X62486038Y-125592591D01*
X62505325Y-125200000D01*
X65494675Y-125200000D01*
X65494824Y-125203032D01*
X65513812Y-125589548D01*
X65513813Y-125589558D01*
X65513962Y-125592591D01*
X65514408Y-125595599D01*
X65514409Y-125595607D01*
X65571188Y-125978386D01*
X65571191Y-125978404D01*
X65571636Y-125981400D01*
X65572372Y-125984339D01*
X65572375Y-125984353D01*
X65666404Y-126359736D01*
X65666407Y-126359746D01*
X65667143Y-126362684D01*
X65668159Y-126365525D01*
X65668165Y-126365543D01*
X65798538Y-126729912D01*
X65798542Y-126729924D01*
X65799562Y-126732772D01*
X65967619Y-127088097D01*
X66169694Y-127425239D01*
X66403842Y-127740951D01*
X66667808Y-128032192D01*
X66959049Y-128296158D01*
X67274761Y-128530306D01*
X67611903Y-128732381D01*
X67967228Y-128900438D01*
X67970086Y-128901460D01*
X67970087Y-128901461D01*
X68334456Y-129031834D01*
X68334461Y-129031835D01*
X68337316Y-129032857D01*
X68718600Y-129128364D01*
X69107409Y-129186038D01*
X69500000Y-129205325D01*
X69892591Y-129186038D01*
X70281400Y-129128364D01*
X70662684Y-129032857D01*
X71032772Y-128900438D01*
X71388097Y-128732381D01*
X71725239Y-128530306D01*
X72040951Y-128296158D01*
X72332192Y-128032192D01*
X72596158Y-127740951D01*
X72830306Y-127425239D01*
X73032381Y-127088097D01*
X73200438Y-126732772D01*
X73332857Y-126362684D01*
X73428364Y-125981400D01*
X73486038Y-125592591D01*
X73505325Y-125200000D01*
X73486038Y-124807409D01*
X73428364Y-124418600D01*
X73332857Y-124037316D01*
X73200438Y-123667228D01*
X73032381Y-123311903D01*
X72830306Y-122974761D01*
X72596158Y-122659049D01*
X72332192Y-122367808D01*
X72147045Y-122200000D01*
X82394555Y-122200000D01*
X82394704Y-122203032D01*
X82414174Y-122599363D01*
X82414175Y-122599375D01*
X82414324Y-122602404D01*
X82414768Y-122605400D01*
X82414770Y-122605416D01*
X82469196Y-122972325D01*
X82473440Y-123000933D01*
X82474174Y-123003864D01*
X82474176Y-123003873D01*
X82570595Y-123388801D01*
X82570599Y-123388816D01*
X82571334Y-123391748D01*
X82572360Y-123394615D01*
X82668919Y-123664482D01*
X82707063Y-123771086D01*
X82708361Y-123773830D01*
X82708365Y-123773840D01*
X82878018Y-124132539D01*
X82879321Y-124135293D01*
X83086447Y-124480863D01*
X83326448Y-124804467D01*
X83597012Y-125102988D01*
X83895533Y-125373552D01*
X84219137Y-125613553D01*
X84564707Y-125820679D01*
X84928914Y-125992937D01*
X85308252Y-126128666D01*
X85699067Y-126226560D01*
X86097596Y-126285676D01*
X86500000Y-126305445D01*
X86902404Y-126285676D01*
X87300933Y-126226560D01*
X87691748Y-126128666D01*
X88071086Y-125992937D01*
X88435293Y-125820679D01*
X88780863Y-125613553D01*
X89104467Y-125373552D01*
X89402988Y-125102988D01*
X89673552Y-124804467D01*
X89913553Y-124480863D01*
X90120679Y-124135293D01*
X90292937Y-123771086D01*
X90428666Y-123391748D01*
X90526560Y-123000933D01*
X90585676Y-122602404D01*
X90605445Y-122200000D01*
X90585676Y-121797596D01*
X90526560Y-121399067D01*
X90428666Y-121008252D01*
X90292937Y-120628914D01*
X90120679Y-120264707D01*
X89913553Y-119919137D01*
X89673552Y-119595533D01*
X89402988Y-119297012D01*
X89104467Y-119026448D01*
X88780863Y-118786447D01*
X88435293Y-118579321D01*
X88432546Y-118578021D01*
X88432539Y-118578018D01*
X88073840Y-118408365D01*
X88073830Y-118408361D01*
X88071086Y-118407063D01*
X88068212Y-118406034D01*
X88068208Y-118406033D01*
X87694615Y-118272360D01*
X87694618Y-118272360D01*
X87691748Y-118271334D01*
X87688816Y-118270599D01*
X87688801Y-118270595D01*
X87303873Y-118174176D01*
X87303864Y-118174174D01*
X87300933Y-118173440D01*
X87297936Y-118172995D01*
X87297934Y-118172995D01*
X86905416Y-118114770D01*
X86905400Y-118114768D01*
X86902404Y-118114324D01*
X86899375Y-118114175D01*
X86899363Y-118114174D01*
X86503033Y-118094704D01*
X86500000Y-118094555D01*
X86496967Y-118094704D01*
X86100636Y-118114174D01*
X86100622Y-118114175D01*
X86097596Y-118114324D01*
X86094601Y-118114768D01*
X86094583Y-118114770D01*
X85702065Y-118172995D01*
X85702059Y-118172996D01*
X85699067Y-118173440D01*
X85696139Y-118174173D01*
X85696126Y-118174176D01*
X85311198Y-118270595D01*
X85311177Y-118270601D01*
X85308252Y-118271334D01*
X85305387Y-118272358D01*
X85305384Y-118272360D01*
X84931791Y-118406033D01*
X84931780Y-118406037D01*
X84928914Y-118407063D01*
X84926176Y-118408357D01*
X84926159Y-118408365D01*
X84567460Y-118578018D01*
X84567445Y-118578025D01*
X84564707Y-118579321D01*
X84562098Y-118580884D01*
X84562090Y-118580889D01*
X84221742Y-118784885D01*
X84221732Y-118784891D01*
X84219137Y-118786447D01*
X84216709Y-118788247D01*
X84216701Y-118788253D01*
X83897976Y-119024636D01*
X83895533Y-119026448D01*
X83893281Y-119028488D01*
X83893275Y-119028494D01*
X83599265Y-119294969D01*
X83599254Y-119294979D01*
X83597012Y-119297012D01*
X83594979Y-119299254D01*
X83594969Y-119299265D01*
X83328494Y-119593275D01*
X83328488Y-119593281D01*
X83326448Y-119595533D01*
X83324637Y-119597974D01*
X83324636Y-119597976D01*
X83088253Y-119916701D01*
X83088247Y-119916709D01*
X83086447Y-119919137D01*
X83084891Y-119921732D01*
X83084885Y-119921742D01*
X82880889Y-120262090D01*
X82880884Y-120262098D01*
X82879321Y-120264707D01*
X82878025Y-120267445D01*
X82878018Y-120267460D01*
X82708365Y-120626159D01*
X82708357Y-120626176D01*
X82707063Y-120628914D01*
X82706037Y-120631780D01*
X82706033Y-120631791D01*
X82572360Y-121005384D01*
X82571334Y-121008252D01*
X82570601Y-121011177D01*
X82570595Y-121011198D01*
X82474176Y-121396126D01*
X82474173Y-121396139D01*
X82473440Y-121399067D01*
X82472996Y-121402059D01*
X82472995Y-121402065D01*
X82414770Y-121794583D01*
X82414768Y-121794601D01*
X82414324Y-121797596D01*
X82414175Y-121800622D01*
X82414174Y-121800636D01*
X82410693Y-121871500D01*
X82394555Y-122200000D01*
X72147045Y-122200000D01*
X72040951Y-122103842D01*
X71725239Y-121869694D01*
X71388097Y-121667619D01*
X71385350Y-121666319D01*
X71385343Y-121666316D01*
X71035517Y-121500860D01*
X71035511Y-121500857D01*
X71032772Y-121499562D01*
X71029924Y-121498542D01*
X71029912Y-121498538D01*
X70665543Y-121368165D01*
X70665525Y-121368159D01*
X70662684Y-121367143D01*
X70659746Y-121366407D01*
X70659736Y-121366404D01*
X70284353Y-121272375D01*
X70284339Y-121272372D01*
X70281400Y-121271636D01*
X70278404Y-121271191D01*
X70278386Y-121271188D01*
X69895607Y-121214409D01*
X69895599Y-121214408D01*
X69892591Y-121213962D01*
X69889558Y-121213813D01*
X69889548Y-121213812D01*
X69503033Y-121194824D01*
X69500000Y-121194675D01*
X69496967Y-121194824D01*
X69110451Y-121213812D01*
X69110439Y-121213813D01*
X69107409Y-121213962D01*
X69104402Y-121214407D01*
X69104392Y-121214409D01*
X68721613Y-121271188D01*
X68721591Y-121271192D01*
X68718600Y-121271636D01*
X68715664Y-121272371D01*
X68715646Y-121272375D01*
X68340263Y-121366404D01*
X68340247Y-121366408D01*
X68337316Y-121367143D01*
X68334480Y-121368157D01*
X68334456Y-121368165D01*
X67970087Y-121498538D01*
X67970068Y-121498545D01*
X67967228Y-121499562D01*
X67964495Y-121500854D01*
X67964482Y-121500860D01*
X67614656Y-121666316D01*
X67614641Y-121666323D01*
X67611903Y-121667619D01*
X67609294Y-121669182D01*
X67609286Y-121669187D01*
X67277366Y-121868132D01*
X67277356Y-121868138D01*
X67274761Y-121869694D01*
X67272333Y-121871493D01*
X67272325Y-121871500D01*
X66961492Y-122102030D01*
X66959049Y-122103842D01*
X66956797Y-122105882D01*
X66956791Y-122105888D01*
X66670061Y-122365765D01*
X66670050Y-122365775D01*
X66667808Y-122367808D01*
X66665775Y-122370050D01*
X66665765Y-122370061D01*
X66405888Y-122656791D01*
X66405882Y-122656797D01*
X66403842Y-122659049D01*
X66402031Y-122661490D01*
X66402030Y-122661492D01*
X66171500Y-122972325D01*
X66171493Y-122972333D01*
X66169694Y-122974761D01*
X66168138Y-122977356D01*
X66168132Y-122977366D01*
X65969187Y-123309286D01*
X65969182Y-123309294D01*
X65967619Y-123311903D01*
X65966323Y-123314641D01*
X65966316Y-123314656D01*
X65800860Y-123664482D01*
X65800854Y-123664495D01*
X65799562Y-123667228D01*
X65798545Y-123670068D01*
X65798538Y-123670087D01*
X65668165Y-124034456D01*
X65668157Y-124034480D01*
X65667143Y-124037316D01*
X65666408Y-124040247D01*
X65666404Y-124040263D01*
X65572375Y-124415646D01*
X65572371Y-124415664D01*
X65571636Y-124418600D01*
X65571192Y-124421591D01*
X65571188Y-124421613D01*
X65514409Y-124804392D01*
X65514407Y-124804402D01*
X65513962Y-124807409D01*
X65513813Y-124810439D01*
X65513812Y-124810451D01*
X65499552Y-125100734D01*
X65494675Y-125200000D01*
X62505325Y-125200000D01*
X62486038Y-124807409D01*
X62428364Y-124418600D01*
X62332857Y-124037316D01*
X62200438Y-123667228D01*
X62032381Y-123311903D01*
X61830306Y-122974761D01*
X61596158Y-122659049D01*
X61332192Y-122367808D01*
X61040951Y-122103842D01*
X60725239Y-121869694D01*
X60388097Y-121667619D01*
X60385350Y-121666319D01*
X60385343Y-121666316D01*
X60035517Y-121500860D01*
X60035511Y-121500857D01*
X60032772Y-121499562D01*
X60029924Y-121498542D01*
X60029912Y-121498538D01*
X59665543Y-121368165D01*
X59665525Y-121368159D01*
X59662684Y-121367143D01*
X59659746Y-121366407D01*
X59659736Y-121366404D01*
X59284353Y-121272375D01*
X59284339Y-121272372D01*
X59281400Y-121271636D01*
X59278404Y-121271191D01*
X59278386Y-121271188D01*
X58895607Y-121214409D01*
X58895599Y-121214408D01*
X58892591Y-121213962D01*
X58889558Y-121213813D01*
X58889548Y-121213812D01*
X58503033Y-121194824D01*
X58500000Y-121194675D01*
X58496967Y-121194824D01*
X58110451Y-121213812D01*
X58110439Y-121213813D01*
X58107409Y-121213962D01*
X58104402Y-121214407D01*
X58104392Y-121214409D01*
X57721613Y-121271188D01*
X57721591Y-121271192D01*
X57718600Y-121271636D01*
X57715664Y-121272371D01*
X57715646Y-121272375D01*
X57340263Y-121366404D01*
X57340247Y-121366408D01*
X57337316Y-121367143D01*
X57334480Y-121368157D01*
X57334456Y-121368165D01*
X56970087Y-121498538D01*
X56970068Y-121498545D01*
X56967228Y-121499562D01*
X56964495Y-121500854D01*
X56964482Y-121500860D01*
X56614656Y-121666316D01*
X56614641Y-121666323D01*
X56611903Y-121667619D01*
X56609294Y-121669182D01*
X56609286Y-121669187D01*
X56277366Y-121868132D01*
X56277356Y-121868138D01*
X56274761Y-121869694D01*
X56272333Y-121871493D01*
X56272325Y-121871500D01*
X55961492Y-122102030D01*
X55959049Y-122103842D01*
X55956797Y-122105882D01*
X55956791Y-122105888D01*
X55670061Y-122365765D01*
X55670050Y-122365775D01*
X55667808Y-122367808D01*
X55665775Y-122370050D01*
X55665765Y-122370061D01*
X55405888Y-122656791D01*
X55405882Y-122656797D01*
X55403842Y-122659049D01*
X55402031Y-122661490D01*
X55402030Y-122661492D01*
X55171500Y-122972325D01*
X55171493Y-122972333D01*
X55169694Y-122974761D01*
X55168138Y-122977356D01*
X55168132Y-122977366D01*
X54969187Y-123309286D01*
X54969182Y-123309294D01*
X54967619Y-123311903D01*
X54966323Y-123314641D01*
X54966316Y-123314656D01*
X54800860Y-123664482D01*
X54800854Y-123664495D01*
X54799562Y-123667228D01*
X54798545Y-123670068D01*
X54798538Y-123670087D01*
X54668165Y-124034456D01*
X54668157Y-124034480D01*
X54667143Y-124037316D01*
X54666408Y-124040247D01*
X54666404Y-124040263D01*
X54572375Y-124415646D01*
X54572371Y-124415664D01*
X54571636Y-124418600D01*
X54571192Y-124421591D01*
X54571188Y-124421613D01*
X54514409Y-124804392D01*
X54514407Y-124804402D01*
X54513962Y-124807409D01*
X54513813Y-124810439D01*
X54513812Y-124810451D01*
X54499552Y-125100734D01*
X54494675Y-125200000D01*
X50000500Y-125200000D01*
X50000500Y-115317764D01*
X93895787Y-115317764D01*
X93925413Y-115587016D01*
X93993928Y-115849087D01*
X94099871Y-116098392D01*
X94240982Y-116329611D01*
X94330253Y-116436881D01*
X94414255Y-116537820D01*
X94615998Y-116718582D01*
X94841910Y-116868044D01*
X94948211Y-116917876D01*
X95087177Y-116983021D01*
X95346562Y-117061058D01*
X95346569Y-117061060D01*
X95614561Y-117100500D01*
X95614564Y-117100500D01*
X95815369Y-117100500D01*
X95817631Y-117100500D01*
X96020156Y-117085677D01*
X96284553Y-117026780D01*
X96537558Y-116930014D01*
X96773777Y-116797441D01*
X96988177Y-116631888D01*
X97176186Y-116436881D01*
X97333799Y-116216579D01*
X97457656Y-115975675D01*
X97545118Y-115719305D01*
X97594319Y-115452933D01*
X97604212Y-115182235D01*
X97574586Y-114912982D01*
X97506072Y-114650912D01*
X97400130Y-114401610D01*
X97259018Y-114170390D01*
X97259017Y-114170388D01*
X97085746Y-113962181D01*
X96980759Y-113868112D01*
X96884002Y-113781418D01*
X96658090Y-113631956D01*
X96658086Y-113631954D01*
X96412822Y-113516978D01*
X96153437Y-113438941D01*
X96153431Y-113438940D01*
X95885439Y-113399500D01*
X95682369Y-113399500D01*
X95680120Y-113399664D01*
X95680109Y-113399665D01*
X95479843Y-113414322D01*
X95215449Y-113473219D01*
X94962441Y-113569986D01*
X94726223Y-113702559D01*
X94511825Y-113868109D01*
X94323813Y-114063120D01*
X94166201Y-114283420D01*
X94042342Y-114524329D01*
X93954881Y-114780695D01*
X93905680Y-115047066D01*
X93895787Y-115317764D01*
X50000500Y-115317764D01*
X50000500Y-107950000D01*
X59544693Y-107950000D01*
X59544825Y-107952855D01*
X59563779Y-108362836D01*
X59563780Y-108362851D01*
X59563912Y-108365697D01*
X59564307Y-108368535D01*
X59564308Y-108368536D01*
X59596595Y-108600000D01*
X59621404Y-108777848D01*
X59622058Y-108780629D01*
X59622060Y-108780639D01*
X59716024Y-109180149D01*
X59716026Y-109180159D01*
X59716680Y-109182936D01*
X59717584Y-109185634D01*
X59717588Y-109185647D01*
X59848012Y-109574779D01*
X59848926Y-109577505D01*
X60017015Y-109958188D01*
X60219511Y-110321739D01*
X60454687Y-110665054D01*
X60720538Y-110985206D01*
X61014794Y-111279462D01*
X61334946Y-111545313D01*
X61678261Y-111780489D01*
X62041812Y-111982985D01*
X62422495Y-112151074D01*
X62817064Y-112283320D01*
X63222152Y-112378596D01*
X63634303Y-112436088D01*
X64050000Y-112455307D01*
X64465697Y-112436088D01*
X64877848Y-112378596D01*
X65282936Y-112283320D01*
X65677505Y-112151074D01*
X66058188Y-111982985D01*
X66421739Y-111780489D01*
X66765054Y-111545313D01*
X67085206Y-111279462D01*
X67379462Y-110985206D01*
X67645313Y-110665054D01*
X67880489Y-110321739D01*
X68082985Y-109958188D01*
X68251074Y-109577505D01*
X68383320Y-109182936D01*
X68478596Y-108777848D01*
X68503404Y-108600000D01*
X82394555Y-108600000D01*
X82394704Y-108603032D01*
X82414174Y-108999363D01*
X82414175Y-108999375D01*
X82414324Y-109002404D01*
X82414768Y-109005400D01*
X82414770Y-109005416D01*
X82441103Y-109182936D01*
X82473440Y-109400933D01*
X82474174Y-109403864D01*
X82474176Y-109403873D01*
X82570595Y-109788801D01*
X82570599Y-109788816D01*
X82571334Y-109791748D01*
X82707063Y-110171086D01*
X82708361Y-110173830D01*
X82708365Y-110173840D01*
X82878018Y-110532539D01*
X82879321Y-110535293D01*
X83086447Y-110880863D01*
X83326448Y-111204467D01*
X83597012Y-111502988D01*
X83895533Y-111773552D01*
X84219137Y-112013553D01*
X84564707Y-112220679D01*
X84928914Y-112392937D01*
X85308252Y-112528666D01*
X85699067Y-112626560D01*
X86097596Y-112685676D01*
X86500000Y-112705445D01*
X86902404Y-112685676D01*
X87300933Y-112626560D01*
X87691748Y-112528666D01*
X88071086Y-112392937D01*
X88435293Y-112220679D01*
X88780863Y-112013553D01*
X89104467Y-111773552D01*
X89402988Y-111502988D01*
X89673552Y-111204467D01*
X89913553Y-110880863D01*
X90120679Y-110535293D01*
X90292937Y-110171086D01*
X90428666Y-109791748D01*
X90526560Y-109400933D01*
X90585676Y-109002404D01*
X90605445Y-108600000D01*
X90585676Y-108197596D01*
X90526560Y-107799067D01*
X90428666Y-107408252D01*
X90292937Y-107028914D01*
X90120679Y-106664707D01*
X89913553Y-106319137D01*
X89673552Y-105995533D01*
X89402988Y-105697012D01*
X89104467Y-105426448D01*
X88780863Y-105186447D01*
X88435293Y-104979321D01*
X88432546Y-104978021D01*
X88432539Y-104978018D01*
X88073840Y-104808365D01*
X88073830Y-104808361D01*
X88071086Y-104807063D01*
X88068212Y-104806034D01*
X88068208Y-104806033D01*
X87694615Y-104672360D01*
X87694618Y-104672360D01*
X87691748Y-104671334D01*
X87688816Y-104670599D01*
X87688801Y-104670595D01*
X87303873Y-104574176D01*
X87303864Y-104574174D01*
X87300933Y-104573440D01*
X87297936Y-104572995D01*
X87297934Y-104572995D01*
X86905416Y-104514770D01*
X86905400Y-104514768D01*
X86902404Y-104514324D01*
X86899375Y-104514175D01*
X86899363Y-104514174D01*
X86503033Y-104494704D01*
X86500000Y-104494555D01*
X86496967Y-104494704D01*
X86100636Y-104514174D01*
X86100622Y-104514175D01*
X86097596Y-104514324D01*
X86094601Y-104514768D01*
X86094583Y-104514770D01*
X85702065Y-104572995D01*
X85702059Y-104572996D01*
X85699067Y-104573440D01*
X85696139Y-104574173D01*
X85696126Y-104574176D01*
X85311198Y-104670595D01*
X85311177Y-104670601D01*
X85308252Y-104671334D01*
X85305387Y-104672358D01*
X85305384Y-104672360D01*
X84931791Y-104806033D01*
X84931780Y-104806037D01*
X84928914Y-104807063D01*
X84926176Y-104808357D01*
X84926159Y-104808365D01*
X84567460Y-104978018D01*
X84567445Y-104978025D01*
X84564707Y-104979321D01*
X84562098Y-104980884D01*
X84562090Y-104980889D01*
X84221742Y-105184885D01*
X84221732Y-105184891D01*
X84219137Y-105186447D01*
X84216709Y-105188247D01*
X84216701Y-105188253D01*
X83897976Y-105424636D01*
X83895533Y-105426448D01*
X83893281Y-105428488D01*
X83893275Y-105428494D01*
X83599265Y-105694969D01*
X83599254Y-105694979D01*
X83597012Y-105697012D01*
X83594979Y-105699254D01*
X83594969Y-105699265D01*
X83328494Y-105993275D01*
X83328488Y-105993281D01*
X83326448Y-105995533D01*
X83324637Y-105997974D01*
X83324636Y-105997976D01*
X83088253Y-106316701D01*
X83088247Y-106316709D01*
X83086447Y-106319137D01*
X83084891Y-106321732D01*
X83084885Y-106321742D01*
X82880889Y-106662090D01*
X82880884Y-106662098D01*
X82879321Y-106664707D01*
X82878025Y-106667445D01*
X82878018Y-106667460D01*
X82708365Y-107026159D01*
X82708357Y-107026176D01*
X82707063Y-107028914D01*
X82706037Y-107031780D01*
X82706033Y-107031791D01*
X82672687Y-107124988D01*
X82571334Y-107408252D01*
X82570601Y-107411177D01*
X82570595Y-107411198D01*
X82474176Y-107796126D01*
X82474173Y-107796139D01*
X82473440Y-107799067D01*
X82472996Y-107802059D01*
X82472995Y-107802065D01*
X82414770Y-108194583D01*
X82414768Y-108194601D01*
X82414324Y-108197596D01*
X82414175Y-108200622D01*
X82414174Y-108200636D01*
X82405926Y-108368536D01*
X82394555Y-108600000D01*
X68503404Y-108600000D01*
X68536088Y-108365697D01*
X68555307Y-107950000D01*
X68536088Y-107534303D01*
X68478596Y-107122152D01*
X68383320Y-106717064D01*
X68251074Y-106322495D01*
X68082985Y-105941812D01*
X67880489Y-105578261D01*
X67645313Y-105234946D01*
X67379462Y-104914794D01*
X67085206Y-104620538D01*
X66765054Y-104354687D01*
X66762699Y-104353073D01*
X66762694Y-104353070D01*
X66605293Y-104245248D01*
X66421739Y-104119511D01*
X66058188Y-103917015D01*
X66055559Y-103915854D01*
X65680140Y-103750089D01*
X65680131Y-103750085D01*
X65677505Y-103748926D01*
X65674785Y-103748014D01*
X65674779Y-103748012D01*
X65285647Y-103617588D01*
X65285634Y-103617584D01*
X65282936Y-103616680D01*
X65280159Y-103616026D01*
X65280149Y-103616024D01*
X64880639Y-103522060D01*
X64880629Y-103522058D01*
X64877848Y-103521404D01*
X64875016Y-103521009D01*
X64875011Y-103521008D01*
X64468536Y-103464308D01*
X64468535Y-103464307D01*
X64465697Y-103463912D01*
X64462851Y-103463780D01*
X64462836Y-103463779D01*
X64052855Y-103444825D01*
X64050000Y-103444693D01*
X64047145Y-103444825D01*
X63637163Y-103463779D01*
X63637146Y-103463780D01*
X63634303Y-103463912D01*
X63631466Y-103464307D01*
X63631463Y-103464308D01*
X63224988Y-103521008D01*
X63224979Y-103521009D01*
X63222152Y-103521404D01*
X63219373Y-103522057D01*
X63219360Y-103522060D01*
X62819850Y-103616024D01*
X62819835Y-103616028D01*
X62817064Y-103616680D01*
X62814371Y-103617582D01*
X62814352Y-103617588D01*
X62425220Y-103748012D01*
X62425207Y-103748016D01*
X62422495Y-103748926D01*
X62419875Y-103750082D01*
X62419859Y-103750089D01*
X62044440Y-103915854D01*
X62044429Y-103915859D01*
X62041812Y-103917015D01*
X62039311Y-103918407D01*
X62039305Y-103918411D01*
X61680761Y-104118118D01*
X61680752Y-104118123D01*
X61678261Y-104119511D01*
X61675907Y-104121123D01*
X61675903Y-104121126D01*
X61337305Y-104353070D01*
X61337290Y-104353081D01*
X61334946Y-104354687D01*
X61332751Y-104356509D01*
X61332740Y-104356518D01*
X61017010Y-104618697D01*
X61016999Y-104618706D01*
X61014794Y-104620538D01*
X61012767Y-104622564D01*
X61012756Y-104622575D01*
X60722575Y-104912756D01*
X60722564Y-104912767D01*
X60720538Y-104914794D01*
X60718706Y-104916999D01*
X60718697Y-104917010D01*
X60456518Y-105232740D01*
X60456509Y-105232751D01*
X60454687Y-105234946D01*
X60453081Y-105237290D01*
X60453070Y-105237305D01*
X60221126Y-105575903D01*
X60219511Y-105578261D01*
X60218123Y-105580752D01*
X60218118Y-105580761D01*
X60154505Y-105694969D01*
X60017015Y-105941812D01*
X60015859Y-105944429D01*
X60015854Y-105944440D01*
X59850089Y-106319859D01*
X59850082Y-106319875D01*
X59848926Y-106322495D01*
X59848016Y-106325207D01*
X59848012Y-106325220D01*
X59717588Y-106714352D01*
X59717582Y-106714371D01*
X59716680Y-106717064D01*
X59716028Y-106719835D01*
X59716024Y-106719850D01*
X59622060Y-107119360D01*
X59622057Y-107119373D01*
X59621404Y-107122152D01*
X59563912Y-107534303D01*
X59563780Y-107537146D01*
X59563779Y-107537163D01*
X59544825Y-107947144D01*
X59544693Y-107950000D01*
X50000500Y-107950000D01*
X50000500Y-88725889D01*
X58749416Y-88725889D01*
X58749459Y-88750000D01*
X58749501Y-88750101D01*
X58749616Y-88750382D01*
X58749618Y-88750384D01*
X58749808Y-88750462D01*
X58750000Y-88750541D01*
X58750002Y-88750539D01*
X58774616Y-88750524D01*
X58774616Y-88750528D01*
X58774760Y-88750500D01*
X91725240Y-88750500D01*
X91725383Y-88750528D01*
X91725384Y-88750524D01*
X91749997Y-88750539D01*
X91750000Y-88750541D01*
X91750383Y-88750383D01*
X91750500Y-88750099D01*
X91750541Y-88750000D01*
X91750540Y-88749997D01*
X91750583Y-88725889D01*
X91750500Y-88725467D01*
X91750500Y-70774759D01*
X91750528Y-70774616D01*
X91750524Y-70774616D01*
X91750539Y-70750002D01*
X91750541Y-70750000D01*
X91750462Y-70749808D01*
X91750384Y-70749618D01*
X91750383Y-70749617D01*
X91750379Y-70749615D01*
X91750097Y-70749499D01*
X91750000Y-70749459D01*
X91725446Y-70749459D01*
X91725240Y-70749500D01*
X58774760Y-70749500D01*
X58774554Y-70749459D01*
X58749999Y-70749459D01*
X58749900Y-70749500D01*
X58749618Y-70749615D01*
X58749615Y-70749618D01*
X58749459Y-70749999D01*
X58749476Y-70774616D01*
X58749471Y-70774616D01*
X58749500Y-70774759D01*
X58749500Y-88725467D01*
X58749416Y-88725889D01*
X50000500Y-88725889D01*
X50000500Y-65067764D01*
X54145787Y-65067764D01*
X54175413Y-65337016D01*
X54243928Y-65599087D01*
X54349871Y-65848392D01*
X54490982Y-66079611D01*
X54580253Y-66186881D01*
X54664255Y-66287820D01*
X54865998Y-66468582D01*
X55091910Y-66618044D01*
X55198211Y-66667876D01*
X55337177Y-66733021D01*
X55596562Y-66811058D01*
X55596569Y-66811060D01*
X55864561Y-66850500D01*
X55864564Y-66850500D01*
X56065369Y-66850500D01*
X56067631Y-66850500D01*
X56270156Y-66835677D01*
X56534553Y-66776780D01*
X56787558Y-66680014D01*
X57023777Y-66547441D01*
X57238177Y-66381888D01*
X57426186Y-66186881D01*
X57583799Y-65966579D01*
X57707656Y-65725675D01*
X57795118Y-65469305D01*
X57844319Y-65202933D01*
X57849259Y-65067764D01*
X92645787Y-65067764D01*
X92675413Y-65337016D01*
X92743928Y-65599087D01*
X92849871Y-65848392D01*
X92990982Y-66079611D01*
X93080253Y-66186881D01*
X93164255Y-66287820D01*
X93365998Y-66468582D01*
X93591910Y-66618044D01*
X93698211Y-66667876D01*
X93837177Y-66733021D01*
X94096562Y-66811058D01*
X94096569Y-66811060D01*
X94364561Y-66850500D01*
X94364564Y-66850500D01*
X94565369Y-66850500D01*
X94567631Y-66850500D01*
X94770156Y-66835677D01*
X95034553Y-66776780D01*
X95287558Y-66680014D01*
X95523777Y-66547441D01*
X95738177Y-66381888D01*
X95926186Y-66186881D01*
X96083799Y-65966579D01*
X96207656Y-65725675D01*
X96295118Y-65469305D01*
X96344319Y-65202933D01*
X96354212Y-64932235D01*
X96324586Y-64662982D01*
X96256072Y-64400912D01*
X96150130Y-64151610D01*
X96009018Y-63920390D01*
X96009017Y-63920388D01*
X95835746Y-63712181D01*
X95730759Y-63618112D01*
X95634002Y-63531418D01*
X95408090Y-63381956D01*
X95408086Y-63381954D01*
X95162822Y-63266978D01*
X94903437Y-63188941D01*
X94903431Y-63188940D01*
X94635439Y-63149500D01*
X94432369Y-63149500D01*
X94430120Y-63149664D01*
X94430109Y-63149665D01*
X94229843Y-63164322D01*
X93965449Y-63223219D01*
X93712441Y-63319986D01*
X93476223Y-63452559D01*
X93261825Y-63618109D01*
X93073813Y-63813120D01*
X92916201Y-64033420D01*
X92792342Y-64274329D01*
X92704881Y-64530695D01*
X92655680Y-64797066D01*
X92645787Y-65067764D01*
X57849259Y-65067764D01*
X57854212Y-64932235D01*
X57824586Y-64662982D01*
X57756072Y-64400912D01*
X57650130Y-64151610D01*
X57509018Y-63920390D01*
X57509017Y-63920388D01*
X57335746Y-63712181D01*
X57230759Y-63618112D01*
X57134002Y-63531418D01*
X56908090Y-63381956D01*
X56908086Y-63381954D01*
X56662822Y-63266978D01*
X56403437Y-63188941D01*
X56403431Y-63188940D01*
X56135439Y-63149500D01*
X55932369Y-63149500D01*
X55930120Y-63149664D01*
X55930109Y-63149665D01*
X55729843Y-63164322D01*
X55465449Y-63223219D01*
X55212441Y-63319986D01*
X54976223Y-63452559D01*
X54761825Y-63618109D01*
X54573813Y-63813120D01*
X54416201Y-64033420D01*
X54292342Y-64274329D01*
X54204881Y-64530695D01*
X54155680Y-64797066D01*
X54145787Y-65067764D01*
X50000500Y-65067764D01*
X50000500Y-53067764D01*
X55645787Y-53067764D01*
X55675413Y-53337016D01*
X55743928Y-53599087D01*
X55849871Y-53848392D01*
X55990982Y-54079611D01*
X56080253Y-54186881D01*
X56164255Y-54287820D01*
X56365998Y-54468582D01*
X56591910Y-54618044D01*
X56698211Y-54667876D01*
X56837177Y-54733021D01*
X57096562Y-54811058D01*
X57096569Y-54811060D01*
X57364561Y-54850500D01*
X57364564Y-54850500D01*
X57565369Y-54850500D01*
X57567631Y-54850500D01*
X57770156Y-54835677D01*
X58034553Y-54776780D01*
X58287558Y-54680014D01*
X58523777Y-54547441D01*
X58738177Y-54381888D01*
X58926186Y-54186881D01*
X59083799Y-53966579D01*
X59207656Y-53725675D01*
X59295118Y-53469305D01*
X59344319Y-53202933D01*
X59349259Y-53067764D01*
X91145787Y-53067764D01*
X91175413Y-53337016D01*
X91243928Y-53599087D01*
X91349871Y-53848392D01*
X91490982Y-54079611D01*
X91580253Y-54186881D01*
X91664255Y-54287820D01*
X91865998Y-54468582D01*
X92091910Y-54618044D01*
X92198211Y-54667876D01*
X92337177Y-54733021D01*
X92596562Y-54811058D01*
X92596569Y-54811060D01*
X92864561Y-54850500D01*
X92864564Y-54850500D01*
X93065369Y-54850500D01*
X93067631Y-54850500D01*
X93270156Y-54835677D01*
X93534553Y-54776780D01*
X93787558Y-54680014D01*
X94023777Y-54547441D01*
X94238177Y-54381888D01*
X94426186Y-54186881D01*
X94583799Y-53966579D01*
X94707656Y-53725675D01*
X94795118Y-53469305D01*
X94844319Y-53202933D01*
X94854212Y-52932235D01*
X94824586Y-52662982D01*
X94756072Y-52400912D01*
X94650130Y-52151610D01*
X94509018Y-51920390D01*
X94509017Y-51920388D01*
X94335746Y-51712181D01*
X94230759Y-51618112D01*
X94134002Y-51531418D01*
X93908090Y-51381956D01*
X93908086Y-51381954D01*
X93662822Y-51266978D01*
X93403437Y-51188941D01*
X93403431Y-51188940D01*
X93135439Y-51149500D01*
X92932369Y-51149500D01*
X92930120Y-51149664D01*
X92930109Y-51149665D01*
X92729843Y-51164322D01*
X92465449Y-51223219D01*
X92212441Y-51319986D01*
X91976223Y-51452559D01*
X91761825Y-51618109D01*
X91573813Y-51813120D01*
X91416201Y-52033420D01*
X91292342Y-52274329D01*
X91204881Y-52530695D01*
X91155680Y-52797066D01*
X91145787Y-53067764D01*
X59349259Y-53067764D01*
X59354212Y-52932235D01*
X59324586Y-52662982D01*
X59256072Y-52400912D01*
X59150130Y-52151610D01*
X59009018Y-51920390D01*
X59009017Y-51920388D01*
X58835746Y-51712181D01*
X58730759Y-51618112D01*
X58634002Y-51531418D01*
X58408090Y-51381956D01*
X58408086Y-51381954D01*
X58162822Y-51266978D01*
X57903437Y-51188941D01*
X57903431Y-51188940D01*
X57635439Y-51149500D01*
X57432369Y-51149500D01*
X57430120Y-51149664D01*
X57430109Y-51149665D01*
X57229843Y-51164322D01*
X56965449Y-51223219D01*
X56712441Y-51319986D01*
X56476223Y-51452559D01*
X56261825Y-51618109D01*
X56073813Y-51813120D01*
X55916201Y-52033420D01*
X55792342Y-52274329D01*
X55704881Y-52530695D01*
X55655680Y-52797066D01*
X55645787Y-53067764D01*
X50000500Y-53067764D01*
X50000500Y-50124500D01*
X50020185Y-50057461D01*
X50072989Y-50011706D01*
X50124500Y-50000500D01*
X100375500Y-50000500D01*
X100442539Y-50020185D01*
G37*
%TD.AperFunction*%
M02*
