M48
; DRILL file {KiCad 7.0.2} date Fri Jan 10 16:25:53 2025
; FORMAT={-:-/ absolute / metric / decimal}
; #@! TF.CreationDate,2025-01-10T16:25:53-06:00
; #@! TF.GenerationSoftware,Kicad,Pcbnew,7.0.2
; #@! TF.FileFunction,Plated,1,4,PTH
FMAT,2
METRIC
; #@! TA.AperFunction,Plated,PTH,ViaDrill
T1C0.400
; #@! TA.AperFunction,Plated,PTH,ComponentDrill
T2C0.500
; #@! TA.AperFunction,Plated,PTH,ComponentDrill
T3C0.550
; #@! TA.AperFunction,Plated,PTH,ComponentDrill
T4C0.700
; #@! TA.AperFunction,Plated,PTH,ComponentDrill
T5C0.900
; #@! TA.AperFunction,Plated,PTH,ComponentDrill
T6C1.000
; #@! TA.AperFunction,Plated,PTH,ComponentDrill
T7C1.100
; #@! TA.AperFunction,Plated,PTH,ComponentDrill
T8C3.441
%
G90
G05
T1
X52.6Y-71.75
X52.7Y-62.2
X52.7Y-69.8
X53.45Y-75.75
X53.45Y-83.4
X53.45Y-89.9
X53.45Y-99.55
X53.45Y-109.4
X53.45Y-118.65
X53.45Y-129.95
X53.45Y-143.15
X53.45Y-155.9
X53.45Y-158.9
X54.15Y-64.35
X55.1Y-93.8
X55.75Y-160.55
X56.85Y-84.0
X56.9Y-62.2
X56.9Y-81.5
X56.932Y-161.99
X57.15Y-120.2
X57.25Y-124.2
X57.75Y-100.75
X57.831Y-123.387
X58.25Y-70.0
X59.15Y-96.05
X59.85Y-134.2
X60.15Y-117.8
X61.25Y-165.75
X62.0Y-129.05
X62.15Y-62.2
X62.45Y-84.05
X62.5Y-81.5
X62.9Y-144.2
X63.15Y-104.15
X63.95Y-117.6
X64.15Y-153.172
X64.85Y-154.1
X65.2Y-160.25
X65.54Y-74.35
X66.25Y-129.0
X66.65Y-109.0
X66.7Y-139.9
X66.95Y-165.75
X67.45Y-68.8
X67.701Y-87.508
X67.8Y-62.2
X68.15Y-134.25
X68.4Y-145.9
X68.401Y-88.3
X69.1Y-89.017
X70.475Y-89.825
X70.499Y-85.544
X70.6Y-140.2
X70.9Y-120.2
X71.1Y-161.7
X71.25Y-76.0
X71.65Y-123.7
X72.6Y-157.3
X73.75Y-73.01
X74.15Y-84.72
X74.45Y-152.7
X75.45Y-165.75
X75.716Y-76.75
X76.25Y-73.01
X76.715Y-76.75
X77.25Y-84.1
X77.5Y-62.2
X78.75Y-73.01
X79.0Y-77.0
X79.049Y-139.179
X79.05Y-160.65
X79.7Y-162.05
X80.048Y-138.38
X80.201Y-82.32
X80.566Y-78.47
X82.1Y-145.8
X82.379Y-83.92
X82.45Y-134.25
X82.55Y-155.2
X82.7Y-113.7
X82.75Y-127.4
X82.98Y-141.43
X83.55Y-165.75
X83.75Y-93.0
X83.9Y-139.9
X85.0Y-89.5
X85.95Y-82.85
X86.0Y-62.2
X86.3Y-152.7
X87.0Y-154.05
X87.501Y-160.762
X88.0Y-91.25
X88.55Y-145.15
X89.0Y-87.0
X89.55Y-82.45
X89.7Y-165.75
X90.65Y-134.25
X90.75Y-155.2
X91.7Y-92.55
X92.35Y-62.2
X92.5Y-82.0
X92.75Y-96.0
X93.45Y-161.75
X94.55Y-157.3
X97.9Y-62.2
X97.9Y-72.05
X97.9Y-83.2
X97.9Y-89.0
X97.9Y-101.75
X97.9Y-109.4
X97.9Y-120.5
X97.9Y-129.95
X97.9Y-143.15
X97.9Y-155.9
X97.9Y-158.9
X97.9Y-165.75
T4
X94.0Y-81.96
X94.0Y-83.23
X94.0Y-84.5
X94.0Y-85.77
X94.0Y-87.04
X95.27Y-81.96
X95.27Y-83.23
X95.27Y-84.5
X95.27Y-85.77
X95.27Y-87.04
T5
X57.5Y-149.22
X60.04Y-149.22
X68.5Y-149.22
X71.04Y-149.22
X79.765Y-149.22
X81.42Y-104.79
X81.42Y-112.41
X81.46Y-118.41
X81.46Y-126.03
X82.305Y-149.22
X91.0Y-149.22
X91.58Y-104.79
X91.58Y-112.41
X91.62Y-118.41
X91.62Y-126.03
X93.54Y-149.22
T6
X58.5Y-77.68
X58.5Y-80.22
X58.5Y-82.76
X58.5Y-85.3
X58.5Y-87.84
X61.04Y-77.68
X61.04Y-80.22
X61.04Y-82.76
X61.04Y-85.3
X61.04Y-87.84
X67.8Y-64.22
X70.34Y-64.22
X72.88Y-64.22
X75.42Y-64.22
X77.96Y-64.22
X80.5Y-64.22
X83.04Y-64.22
T7
X58.54Y-118.72
X58.54Y-121.72
X58.54Y-130.22
X58.54Y-132.72
X58.54Y-135.72
X58.54Y-144.22
X58.54Y-153.72
X58.54Y-156.72
X58.54Y-165.22
X61.54Y-100.97
X61.54Y-115.47
X64.04Y-115.47
X66.54Y-100.97
X66.54Y-115.47
X69.54Y-118.72
X69.54Y-121.72
X69.54Y-130.22
X69.54Y-132.72
X69.54Y-135.72
X69.54Y-144.22
X69.89Y-153.72
X69.89Y-156.72
X69.89Y-165.22
X81.04Y-132.72
X81.04Y-135.72
X81.04Y-144.22
X81.04Y-153.72
X81.04Y-156.72
X81.04Y-165.22
X91.55Y-68.95
X91.55Y-75.45
X92.04Y-132.72
X92.04Y-135.72
X92.04Y-144.22
X92.04Y-153.72
X92.04Y-156.72
X92.04Y-165.22
X96.05Y-68.95
X96.05Y-75.45
T8
X58.34Y-107.97
X69.74Y-107.97
T2
G00X97.275Y-91.25
M15
G01X96.625Y-91.25
M16
G05
G00X97.275Y-98.25
M15
G01X96.625Y-98.25
M16
G05
T3
G00X94.25Y-92.1
M15
G01X94.25Y-92.4
M16
G05
G00X94.25Y-97.1
M15
G01X94.25Y-97.4
M16
G05
T0
M30
