%TF.GenerationSoftware,KiCad,Pcbnew,7.0.2*%
%TF.CreationDate,2025-01-10T16:25:54-06:00*%
%TF.ProjectId,gateDr_mainboard,67617465-4472-45f6-9d61-696e626f6172,rev?*%
%TF.SameCoordinates,Original*%
%TF.FileFunction,Drillmap*%
%TF.FilePolarity,Positive*%
%FSLAX45Y45*%
G04 Gerber Fmt 4.5, Leading zero omitted, Abs format (unit mm)*
G04 Created by KiCad (PCBNEW 7.0.2) date 2025-01-10 16:25:54*
%MOMM*%
%LPD*%
G01*
G04 APERTURE LIST*
%ADD10C,0.100000*%
%ADD11C,0.200000*%
%ADD12C,0.040000*%
%ADD13C,0.050000*%
%ADD14C,0.055000*%
%ADD15C,0.070000*%
%ADD16C,0.090000*%
%ADD17C,0.110000*%
%ADD18C,0.344090*%
G04 APERTURE END LIST*
D10*
X9735000Y-11525000D02*
G75*
G03*
X9735000Y-11525000I-160000J0D01*
G01*
X5175000Y-6125000D02*
X9875000Y-6125000D01*
X9875000Y-16725000D01*
X5175000Y-16725000D01*
X5175000Y-6125000D01*
D11*
D12*
X5240000Y-7155000D02*
X5280000Y-7195000D01*
X5280000Y-7155000D02*
X5240000Y-7195000D01*
X5250000Y-6200000D02*
X5290000Y-6240000D01*
X5290000Y-6200000D02*
X5250000Y-6240000D01*
X5250000Y-6960000D02*
X5290000Y-7000000D01*
X5290000Y-6960000D02*
X5250000Y-7000000D01*
X5325000Y-7555000D02*
X5365000Y-7595000D01*
X5365000Y-7555000D02*
X5325000Y-7595000D01*
X5325000Y-8320000D02*
X5365000Y-8360000D01*
X5365000Y-8320000D02*
X5325000Y-8360000D01*
X5325000Y-8970000D02*
X5365000Y-9010000D01*
X5365000Y-8970000D02*
X5325000Y-9010000D01*
X5325000Y-9935000D02*
X5365000Y-9975000D01*
X5365000Y-9935000D02*
X5325000Y-9975000D01*
X5325000Y-10920000D02*
X5365000Y-10960000D01*
X5365000Y-10920000D02*
X5325000Y-10960000D01*
X5325000Y-11845000D02*
X5365000Y-11885000D01*
X5365000Y-11845000D02*
X5325000Y-11885000D01*
X5325000Y-12975000D02*
X5365000Y-13015000D01*
X5365000Y-12975000D02*
X5325000Y-13015000D01*
X5325000Y-14295000D02*
X5365000Y-14335000D01*
X5365000Y-14295000D02*
X5325000Y-14335000D01*
X5325000Y-15570000D02*
X5365000Y-15610000D01*
X5365000Y-15570000D02*
X5325000Y-15610000D01*
X5325000Y-15870000D02*
X5365000Y-15910000D01*
X5365000Y-15870000D02*
X5325000Y-15910000D01*
X5395000Y-6415000D02*
X5435000Y-6455000D01*
X5435000Y-6415000D02*
X5395000Y-6455000D01*
X5490000Y-9360000D02*
X5530000Y-9400000D01*
X5530000Y-9360000D02*
X5490000Y-9400000D01*
X5555000Y-16035000D02*
X5595000Y-16075000D01*
X5595000Y-16035000D02*
X5555000Y-16075000D01*
X5665000Y-8380000D02*
X5705000Y-8420000D01*
X5705000Y-8380000D02*
X5665000Y-8420000D01*
X5670000Y-6200000D02*
X5710000Y-6240000D01*
X5710000Y-6200000D02*
X5670000Y-6240000D01*
X5670000Y-8130000D02*
X5710000Y-8170000D01*
X5710000Y-8130000D02*
X5670000Y-8170000D01*
X5673184Y-16179027D02*
X5713184Y-16219027D01*
X5713184Y-16179027D02*
X5673184Y-16219027D01*
X5695000Y-12000000D02*
X5735000Y-12040000D01*
X5735000Y-12000000D02*
X5695000Y-12040000D01*
X5705000Y-12400000D02*
X5745000Y-12440000D01*
X5745000Y-12400000D02*
X5705000Y-12440000D01*
X5755000Y-10055000D02*
X5795000Y-10095000D01*
X5795000Y-10055000D02*
X5755000Y-10095000D01*
X5763095Y-12318667D02*
X5803095Y-12358667D01*
X5803095Y-12318667D02*
X5763095Y-12358667D01*
X5805000Y-6980000D02*
X5845000Y-7020000D01*
X5845000Y-6980000D02*
X5805000Y-7020000D01*
X5895000Y-9585000D02*
X5935000Y-9625000D01*
X5935000Y-9585000D02*
X5895000Y-9625000D01*
X5965000Y-13400000D02*
X6005000Y-13440000D01*
X6005000Y-13400000D02*
X5965000Y-13440000D01*
X5995000Y-11760000D02*
X6035000Y-11800000D01*
X6035000Y-11760000D02*
X5995000Y-11800000D01*
X6105000Y-16555000D02*
X6145000Y-16595000D01*
X6145000Y-16555000D02*
X6105000Y-16595000D01*
X6180000Y-12885000D02*
X6220000Y-12925000D01*
X6220000Y-12885000D02*
X6180000Y-12925000D01*
X6195000Y-6200000D02*
X6235000Y-6240000D01*
X6235000Y-6200000D02*
X6195000Y-6240000D01*
X6225000Y-8385000D02*
X6265000Y-8425000D01*
X6265000Y-8385000D02*
X6225000Y-8425000D01*
X6230000Y-8130000D02*
X6270000Y-8170000D01*
X6270000Y-8130000D02*
X6230000Y-8170000D01*
X6270000Y-14400000D02*
X6310000Y-14440000D01*
X6310000Y-14400000D02*
X6270000Y-14440000D01*
X6295000Y-10395000D02*
X6335000Y-10435000D01*
X6335000Y-10395000D02*
X6295000Y-10435000D01*
X6375000Y-11740000D02*
X6415000Y-11780000D01*
X6415000Y-11740000D02*
X6375000Y-11780000D01*
X6395050Y-15297198D02*
X6435050Y-15337198D01*
X6435050Y-15297198D02*
X6395050Y-15337198D01*
X6465000Y-15390000D02*
X6505000Y-15430000D01*
X6505000Y-15390000D02*
X6465000Y-15430000D01*
X6499950Y-16005000D02*
X6539950Y-16045000D01*
X6539950Y-16005000D02*
X6499950Y-16045000D01*
X6534000Y-7415000D02*
X6574000Y-7455000D01*
X6574000Y-7415000D02*
X6534000Y-7455000D01*
X6605000Y-12880000D02*
X6645000Y-12920000D01*
X6645000Y-12880000D02*
X6605000Y-12920000D01*
X6645000Y-10880000D02*
X6685000Y-10920000D01*
X6685000Y-10880000D02*
X6645000Y-10920000D01*
X6650000Y-13970000D02*
X6690000Y-14010000D01*
X6690000Y-13970000D02*
X6650000Y-14010000D01*
X6675000Y-16555000D02*
X6715000Y-16595000D01*
X6715000Y-16555000D02*
X6675000Y-16595000D01*
X6725000Y-6860000D02*
X6765000Y-6900000D01*
X6765000Y-6860000D02*
X6725000Y-6900000D01*
X6750150Y-8730836D02*
X6790150Y-8770836D01*
X6790150Y-8730836D02*
X6750150Y-8770836D01*
X6760000Y-6200000D02*
X6800000Y-6240000D01*
X6800000Y-6200000D02*
X6760000Y-6240000D01*
X6795000Y-13405000D02*
X6835000Y-13445000D01*
X6835000Y-13405000D02*
X6795000Y-13445000D01*
X6820000Y-14570000D02*
X6860000Y-14610000D01*
X6860000Y-14570000D02*
X6820000Y-14610000D01*
X6820100Y-8810000D02*
X6860100Y-8850000D01*
X6860100Y-8810000D02*
X6820100Y-8850000D01*
X6890050Y-8881689D02*
X6930050Y-8921689D01*
X6930050Y-8881689D02*
X6890050Y-8921689D01*
X7027465Y-8962535D02*
X7067465Y-9002535D01*
X7067465Y-8962535D02*
X7027465Y-9002535D01*
X7029950Y-8534395D02*
X7069950Y-8574395D01*
X7069950Y-8534395D02*
X7029950Y-8574395D01*
X7040000Y-14000000D02*
X7080000Y-14040000D01*
X7080000Y-14000000D02*
X7040000Y-14040000D01*
X7070000Y-12000000D02*
X7110000Y-12040000D01*
X7110000Y-12000000D02*
X7070000Y-12040000D01*
X7090000Y-16150000D02*
X7130000Y-16190000D01*
X7130000Y-16150000D02*
X7090000Y-16190000D01*
X7105000Y-7580000D02*
X7145000Y-7620000D01*
X7145000Y-7580000D02*
X7105000Y-7620000D01*
X7145000Y-12350000D02*
X7185000Y-12390000D01*
X7185000Y-12350000D02*
X7145000Y-12390000D01*
X7240000Y-15710000D02*
X7280000Y-15750000D01*
X7280000Y-15710000D02*
X7240000Y-15750000D01*
X7355000Y-7281000D02*
X7395000Y-7321000D01*
X7395000Y-7281000D02*
X7355000Y-7321000D01*
X7395000Y-8452000D02*
X7435000Y-8492000D01*
X7435000Y-8452000D02*
X7395000Y-8492000D01*
X7425000Y-15250000D02*
X7465000Y-15290000D01*
X7465000Y-15250000D02*
X7425000Y-15290000D01*
X7525000Y-16555000D02*
X7565000Y-16595000D01*
X7565000Y-16555000D02*
X7525000Y-16595000D01*
X7551600Y-7655000D02*
X7591600Y-7695000D01*
X7591600Y-7655000D02*
X7551600Y-7695000D01*
X7605000Y-7281000D02*
X7645000Y-7321000D01*
X7645000Y-7281000D02*
X7605000Y-7321000D01*
X7651550Y-7655000D02*
X7691550Y-7695000D01*
X7691550Y-7655000D02*
X7651550Y-7695000D01*
X7705000Y-8390000D02*
X7745000Y-8430000D01*
X7745000Y-8390000D02*
X7705000Y-8430000D01*
X7730000Y-6200000D02*
X7770000Y-6240000D01*
X7770000Y-6200000D02*
X7730000Y-6240000D01*
X7855000Y-7281000D02*
X7895000Y-7321000D01*
X7895000Y-7281000D02*
X7855000Y-7321000D01*
X7880000Y-7680000D02*
X7920000Y-7720000D01*
X7920000Y-7680000D02*
X7880000Y-7720000D01*
X7884899Y-13897900D02*
X7924899Y-13937900D01*
X7924899Y-13897900D02*
X7884899Y-13937900D01*
X7885000Y-16045000D02*
X7925000Y-16085000D01*
X7925000Y-16045000D02*
X7885000Y-16085000D01*
X7950000Y-16185000D02*
X7990000Y-16225000D01*
X7990000Y-16185000D02*
X7950000Y-16225000D01*
X7984788Y-13817950D02*
X8024788Y-13857950D01*
X8024788Y-13817950D02*
X7984788Y-13857950D01*
X8000056Y-8212000D02*
X8040056Y-8252000D01*
X8040056Y-8212000D02*
X8000056Y-8252000D01*
X8036550Y-7827000D02*
X8076550Y-7867000D01*
X8076550Y-7827000D02*
X8036550Y-7867000D01*
X8190000Y-14560000D02*
X8230000Y-14600000D01*
X8230000Y-14560000D02*
X8190000Y-14600000D01*
X8217944Y-8372000D02*
X8257944Y-8412000D01*
X8257944Y-8372000D02*
X8217944Y-8412000D01*
X8225000Y-13405000D02*
X8265000Y-13445000D01*
X8265000Y-13405000D02*
X8225000Y-13445000D01*
X8235000Y-15500000D02*
X8275000Y-15540000D01*
X8275000Y-15500000D02*
X8235000Y-15540000D01*
X8250000Y-11350000D02*
X8290000Y-11390000D01*
X8290000Y-11350000D02*
X8250000Y-11390000D01*
X8255000Y-12720000D02*
X8295000Y-12760000D01*
X8295000Y-12720000D02*
X8255000Y-12760000D01*
X8278038Y-14123038D02*
X8318038Y-14163038D01*
X8318038Y-14123038D02*
X8278038Y-14163038D01*
X8335000Y-16555000D02*
X8375000Y-16595000D01*
X8375000Y-16555000D02*
X8335000Y-16595000D01*
X8355000Y-9280000D02*
X8395000Y-9320000D01*
X8395000Y-9280000D02*
X8355000Y-9320000D01*
X8370000Y-13970000D02*
X8410000Y-14010000D01*
X8410000Y-13970000D02*
X8370000Y-14010000D01*
X8480000Y-8930000D02*
X8520000Y-8970000D01*
X8520000Y-8930000D02*
X8480000Y-8970000D01*
X8575000Y-8265000D02*
X8615000Y-8305000D01*
X8615000Y-8265000D02*
X8575000Y-8305000D01*
X8580000Y-6200000D02*
X8620000Y-6240000D01*
X8620000Y-6200000D02*
X8580000Y-6240000D01*
X8610050Y-15250000D02*
X8650050Y-15290000D01*
X8650050Y-15250000D02*
X8610050Y-15290000D01*
X8680000Y-15385000D02*
X8720000Y-15425000D01*
X8720000Y-15385000D02*
X8680000Y-15425000D01*
X8730141Y-16056217D02*
X8770141Y-16096217D01*
X8770141Y-16056217D02*
X8730141Y-16096217D01*
X8780000Y-9105000D02*
X8820000Y-9145000D01*
X8820000Y-9105000D02*
X8780000Y-9145000D01*
X8835000Y-14495000D02*
X8875000Y-14535000D01*
X8875000Y-14495000D02*
X8835000Y-14535000D01*
X8880000Y-8680000D02*
X8920000Y-8720000D01*
X8920000Y-8680000D02*
X8880000Y-8720000D01*
X8935000Y-8225000D02*
X8975000Y-8265000D01*
X8975000Y-8225000D02*
X8935000Y-8265000D01*
X8950000Y-16555000D02*
X8990000Y-16595000D01*
X8990000Y-16555000D02*
X8950000Y-16595000D01*
X9045000Y-13405000D02*
X9085000Y-13445000D01*
X9085000Y-13405000D02*
X9045000Y-13445000D01*
X9055000Y-15500000D02*
X9095000Y-15540000D01*
X9095000Y-15500000D02*
X9055000Y-15540000D01*
X9150020Y-9234980D02*
X9190020Y-9274980D01*
X9190020Y-9234980D02*
X9150020Y-9274980D01*
X9215000Y-6200000D02*
X9255000Y-6240000D01*
X9255000Y-6200000D02*
X9215000Y-6240000D01*
X9230000Y-8180000D02*
X9270000Y-8220000D01*
X9270000Y-8180000D02*
X9230000Y-8220000D01*
X9255000Y-9580000D02*
X9295000Y-9620000D01*
X9295000Y-9580000D02*
X9255000Y-9620000D01*
X9325000Y-16155000D02*
X9365000Y-16195000D01*
X9365000Y-16155000D02*
X9325000Y-16195000D01*
X9435000Y-15710000D02*
X9475000Y-15750000D01*
X9475000Y-15710000D02*
X9435000Y-15750000D01*
X9770000Y-6200000D02*
X9810000Y-6240000D01*
X9810000Y-6200000D02*
X9770000Y-6240000D01*
X9770000Y-7185000D02*
X9810000Y-7225000D01*
X9810000Y-7185000D02*
X9770000Y-7225000D01*
X9770000Y-8300000D02*
X9810000Y-8340000D01*
X9810000Y-8300000D02*
X9770000Y-8340000D01*
X9770000Y-8880000D02*
X9810000Y-8920000D01*
X9810000Y-8880000D02*
X9770000Y-8920000D01*
X9770000Y-10155000D02*
X9810000Y-10195000D01*
X9810000Y-10155000D02*
X9770000Y-10195000D01*
X9770000Y-10920000D02*
X9810000Y-10960000D01*
X9810000Y-10920000D02*
X9770000Y-10960000D01*
X9770000Y-12030000D02*
X9810000Y-12070000D01*
X9810000Y-12030000D02*
X9770000Y-12070000D01*
X9770000Y-12975000D02*
X9810000Y-13015000D01*
X9810000Y-12975000D02*
X9770000Y-13015000D01*
X9770000Y-14295000D02*
X9810000Y-14335000D01*
X9810000Y-14295000D02*
X9770000Y-14335000D01*
X9770000Y-15570000D02*
X9810000Y-15610000D01*
X9810000Y-15570000D02*
X9770000Y-15610000D01*
X9770000Y-15870000D02*
X9810000Y-15910000D01*
X9810000Y-15870000D02*
X9770000Y-15910000D01*
X9770000Y-16555000D02*
X9810000Y-16595000D01*
X9810000Y-16555000D02*
X9770000Y-16595000D01*
D13*
X9720000Y-9125000D02*
G75*
G03*
X9720000Y-9125000I-25000J0D01*
G01*
D11*
X9727500Y-9100000D02*
X9662500Y-9100000D01*
X9662500Y-9100000D02*
G75*
G03*
X9662500Y-9150000I0J-25000D01*
G01*
X9662500Y-9150000D02*
X9727500Y-9150000D01*
X9727500Y-9150000D02*
G75*
G03*
X9727500Y-9100000I0J25000D01*
G01*
D13*
X9720000Y-9825000D02*
G75*
G03*
X9720000Y-9825000I-25000J0D01*
G01*
D11*
X9727500Y-9800000D02*
X9662500Y-9800000D01*
X9662500Y-9800000D02*
G75*
G03*
X9662500Y-9850000I0J-25000D01*
G01*
X9662500Y-9850000D02*
X9727500Y-9850000D01*
X9727500Y-9850000D02*
G75*
G03*
X9727500Y-9800000I0J25000D01*
G01*
D14*
X9425000Y-9197500D02*
X9425000Y-9252500D01*
X9397500Y-9225000D02*
X9452500Y-9225000D01*
D11*
X9397500Y-9210000D02*
X9397500Y-9240000D01*
X9397500Y-9240000D02*
G75*
G03*
X9452500Y-9240000I27500J0D01*
G01*
X9452500Y-9240000D02*
X9452500Y-9210000D01*
X9452500Y-9210000D02*
G75*
G03*
X9397500Y-9210000I-27500J0D01*
G01*
D14*
X9425000Y-9697500D02*
X9425000Y-9752500D01*
X9397500Y-9725000D02*
X9452500Y-9725000D01*
D11*
X9397500Y-9710000D02*
X9397500Y-9740000D01*
X9397500Y-9740000D02*
G75*
G03*
X9452500Y-9740000I27500J0D01*
G01*
X9452500Y-9740000D02*
X9452500Y-9710000D01*
X9452500Y-9710000D02*
G75*
G03*
X9397500Y-9710000I-27500J0D01*
G01*
D15*
X9424749Y-8220749D02*
X9424749Y-8171251D01*
X9375251Y-8171251D01*
X9375251Y-8220749D01*
X9424749Y-8220749D01*
X9424749Y-8347749D02*
X9424749Y-8298251D01*
X9375251Y-8298251D01*
X9375251Y-8347749D01*
X9424749Y-8347749D01*
X9424749Y-8474749D02*
X9424749Y-8425251D01*
X9375251Y-8425251D01*
X9375251Y-8474749D01*
X9424749Y-8474749D01*
X9424749Y-8601749D02*
X9424749Y-8552251D01*
X9375251Y-8552251D01*
X9375251Y-8601749D01*
X9424749Y-8601749D01*
X9424749Y-8728749D02*
X9424749Y-8679251D01*
X9375251Y-8679251D01*
X9375251Y-8728749D01*
X9424749Y-8728749D01*
X9551749Y-8220749D02*
X9551749Y-8171251D01*
X9502251Y-8171251D01*
X9502251Y-8220749D01*
X9551749Y-8220749D01*
X9551749Y-8347749D02*
X9551749Y-8298251D01*
X9502251Y-8298251D01*
X9502251Y-8347749D01*
X9551749Y-8347749D01*
X9551749Y-8474749D02*
X9551749Y-8425251D01*
X9502251Y-8425251D01*
X9502251Y-8474749D01*
X9551749Y-8474749D01*
X9551749Y-8601749D02*
X9551749Y-8552251D01*
X9502251Y-8552251D01*
X9502251Y-8601749D01*
X9551749Y-8601749D01*
X9551749Y-8728749D02*
X9551749Y-8679251D01*
X9502251Y-8679251D01*
X9502251Y-8728749D01*
X9551749Y-8728749D01*
D16*
X5750000Y-14967000D02*
X5795000Y-14922000D01*
X5750000Y-14877000D01*
X5705000Y-14922000D01*
X5750000Y-14967000D01*
X6004000Y-14967000D02*
X6049000Y-14922000D01*
X6004000Y-14877000D01*
X5959000Y-14922000D01*
X6004000Y-14967000D01*
X6850000Y-14967000D02*
X6895000Y-14922000D01*
X6850000Y-14877000D01*
X6805000Y-14922000D01*
X6850000Y-14967000D01*
X7104000Y-14967000D02*
X7149000Y-14922000D01*
X7104000Y-14877000D01*
X7059000Y-14922000D01*
X7104000Y-14967000D01*
X7976500Y-14967000D02*
X8021500Y-14922000D01*
X7976500Y-14877000D01*
X7931500Y-14922000D01*
X7976500Y-14967000D01*
X8142000Y-10524000D02*
X8187000Y-10479000D01*
X8142000Y-10434000D01*
X8097000Y-10479000D01*
X8142000Y-10524000D01*
X8142000Y-11286000D02*
X8187000Y-11241000D01*
X8142000Y-11196000D01*
X8097000Y-11241000D01*
X8142000Y-11286000D01*
X8146000Y-11886000D02*
X8191000Y-11841000D01*
X8146000Y-11796000D01*
X8101000Y-11841000D01*
X8146000Y-11886000D01*
X8146000Y-12648000D02*
X8191000Y-12603000D01*
X8146000Y-12558000D01*
X8101000Y-12603000D01*
X8146000Y-12648000D01*
X8230500Y-14967000D02*
X8275500Y-14922000D01*
X8230500Y-14877000D01*
X8185500Y-14922000D01*
X8230500Y-14967000D01*
X9100000Y-14967000D02*
X9145000Y-14922000D01*
X9100000Y-14877000D01*
X9055000Y-14922000D01*
X9100000Y-14967000D01*
X9158000Y-10524000D02*
X9203000Y-10479000D01*
X9158000Y-10434000D01*
X9113000Y-10479000D01*
X9158000Y-10524000D01*
X9158000Y-11286000D02*
X9203000Y-11241000D01*
X9158000Y-11196000D01*
X9113000Y-11241000D01*
X9158000Y-11286000D01*
X9162000Y-11886000D02*
X9207000Y-11841000D01*
X9162000Y-11796000D01*
X9117000Y-11841000D01*
X9162000Y-11886000D01*
X9162000Y-12648000D02*
X9207000Y-12603000D01*
X9162000Y-12558000D01*
X9117000Y-12603000D01*
X9162000Y-12648000D01*
X9354000Y-14967000D02*
X9399000Y-14922000D01*
X9354000Y-14877000D01*
X9309000Y-14922000D01*
X9354000Y-14967000D01*
D10*
X5800000Y-7718000D02*
X5900000Y-7818000D01*
X5900000Y-7718000D02*
X5800000Y-7818000D01*
X5900000Y-7768000D02*
G75*
G03*
X5900000Y-7768000I-50000J0D01*
G01*
X5800000Y-7972000D02*
X5900000Y-8072000D01*
X5900000Y-7972000D02*
X5800000Y-8072000D01*
X5900000Y-8022000D02*
G75*
G03*
X5900000Y-8022000I-50000J0D01*
G01*
X5800000Y-8226000D02*
X5900000Y-8326000D01*
X5900000Y-8226000D02*
X5800000Y-8326000D01*
X5900000Y-8276000D02*
G75*
G03*
X5900000Y-8276000I-50000J0D01*
G01*
X5800000Y-8480000D02*
X5900000Y-8580000D01*
X5900000Y-8480000D02*
X5800000Y-8580000D01*
X5900000Y-8530000D02*
G75*
G03*
X5900000Y-8530000I-50000J0D01*
G01*
X5800000Y-8734000D02*
X5900000Y-8834000D01*
X5900000Y-8734000D02*
X5800000Y-8834000D01*
X5900000Y-8784000D02*
G75*
G03*
X5900000Y-8784000I-50000J0D01*
G01*
X6054000Y-7718000D02*
X6154000Y-7818000D01*
X6154000Y-7718000D02*
X6054000Y-7818000D01*
X6154000Y-7768000D02*
G75*
G03*
X6154000Y-7768000I-50000J0D01*
G01*
X6054000Y-7972000D02*
X6154000Y-8072000D01*
X6154000Y-7972000D02*
X6054000Y-8072000D01*
X6154000Y-8022000D02*
G75*
G03*
X6154000Y-8022000I-50000J0D01*
G01*
X6054000Y-8226000D02*
X6154000Y-8326000D01*
X6154000Y-8226000D02*
X6054000Y-8326000D01*
X6154000Y-8276000D02*
G75*
G03*
X6154000Y-8276000I-50000J0D01*
G01*
X6054000Y-8480000D02*
X6154000Y-8580000D01*
X6154000Y-8480000D02*
X6054000Y-8580000D01*
X6154000Y-8530000D02*
G75*
G03*
X6154000Y-8530000I-50000J0D01*
G01*
X6054000Y-8734000D02*
X6154000Y-8834000D01*
X6154000Y-8734000D02*
X6054000Y-8834000D01*
X6154000Y-8784000D02*
G75*
G03*
X6154000Y-8784000I-50000J0D01*
G01*
X6730000Y-6372000D02*
X6830000Y-6472000D01*
X6830000Y-6372000D02*
X6730000Y-6472000D01*
X6830000Y-6422000D02*
G75*
G03*
X6830000Y-6422000I-50000J0D01*
G01*
X6984000Y-6372000D02*
X7084000Y-6472000D01*
X7084000Y-6372000D02*
X6984000Y-6472000D01*
X7084000Y-6422000D02*
G75*
G03*
X7084000Y-6422000I-50000J0D01*
G01*
X7238000Y-6372000D02*
X7338000Y-6472000D01*
X7338000Y-6372000D02*
X7238000Y-6472000D01*
X7338000Y-6422000D02*
G75*
G03*
X7338000Y-6422000I-50000J0D01*
G01*
X7492000Y-6372000D02*
X7592000Y-6472000D01*
X7592000Y-6372000D02*
X7492000Y-6472000D01*
X7592000Y-6422000D02*
G75*
G03*
X7592000Y-6422000I-50000J0D01*
G01*
X7746000Y-6372000D02*
X7846000Y-6472000D01*
X7846000Y-6372000D02*
X7746000Y-6472000D01*
X7846000Y-6422000D02*
G75*
G03*
X7846000Y-6422000I-50000J0D01*
G01*
X8000000Y-6372000D02*
X8100000Y-6472000D01*
X8100000Y-6372000D02*
X8000000Y-6472000D01*
X8100000Y-6422000D02*
G75*
G03*
X8100000Y-6422000I-50000J0D01*
G01*
X8254000Y-6372000D02*
X8354000Y-6472000D01*
X8354000Y-6372000D02*
X8254000Y-6472000D01*
X8354000Y-6422000D02*
G75*
G03*
X8354000Y-6422000I-50000J0D01*
G01*
D17*
X5799000Y-11817000D02*
X5909000Y-11927000D01*
X5909000Y-11817000D02*
X5799000Y-11927000D01*
X5854000Y-11817000D02*
X5854000Y-11927000D01*
X5799000Y-11872000D02*
X5909000Y-11872000D01*
X5799000Y-12117000D02*
X5909000Y-12227000D01*
X5909000Y-12117000D02*
X5799000Y-12227000D01*
X5854000Y-12117000D02*
X5854000Y-12227000D01*
X5799000Y-12172000D02*
X5909000Y-12172000D01*
X5799000Y-12967000D02*
X5909000Y-13077000D01*
X5909000Y-12967000D02*
X5799000Y-13077000D01*
X5854000Y-12967000D02*
X5854000Y-13077000D01*
X5799000Y-13022000D02*
X5909000Y-13022000D01*
X5799000Y-13217000D02*
X5909000Y-13327000D01*
X5909000Y-13217000D02*
X5799000Y-13327000D01*
X5854000Y-13217000D02*
X5854000Y-13327000D01*
X5799000Y-13272000D02*
X5909000Y-13272000D01*
X5799000Y-13517000D02*
X5909000Y-13627000D01*
X5909000Y-13517000D02*
X5799000Y-13627000D01*
X5854000Y-13517000D02*
X5854000Y-13627000D01*
X5799000Y-13572000D02*
X5909000Y-13572000D01*
X5799000Y-14367000D02*
X5909000Y-14477000D01*
X5909000Y-14367000D02*
X5799000Y-14477000D01*
X5854000Y-14367000D02*
X5854000Y-14477000D01*
X5799000Y-14422000D02*
X5909000Y-14422000D01*
X5799000Y-15317000D02*
X5909000Y-15427000D01*
X5909000Y-15317000D02*
X5799000Y-15427000D01*
X5854000Y-15317000D02*
X5854000Y-15427000D01*
X5799000Y-15372000D02*
X5909000Y-15372000D01*
X5799000Y-15617000D02*
X5909000Y-15727000D01*
X5909000Y-15617000D02*
X5799000Y-15727000D01*
X5854000Y-15617000D02*
X5854000Y-15727000D01*
X5799000Y-15672000D02*
X5909000Y-15672000D01*
X5799000Y-16467000D02*
X5909000Y-16577000D01*
X5909000Y-16467000D02*
X5799000Y-16577000D01*
X5854000Y-16467000D02*
X5854000Y-16577000D01*
X5799000Y-16522000D02*
X5909000Y-16522000D01*
X6099000Y-10042000D02*
X6209000Y-10152000D01*
X6209000Y-10042000D02*
X6099000Y-10152000D01*
X6154000Y-10042000D02*
X6154000Y-10152000D01*
X6099000Y-10097000D02*
X6209000Y-10097000D01*
X6099000Y-11492000D02*
X6209000Y-11602000D01*
X6209000Y-11492000D02*
X6099000Y-11602000D01*
X6154000Y-11492000D02*
X6154000Y-11602000D01*
X6099000Y-11547000D02*
X6209000Y-11547000D01*
X6349000Y-11492000D02*
X6459000Y-11602000D01*
X6459000Y-11492000D02*
X6349000Y-11602000D01*
X6404000Y-11492000D02*
X6404000Y-11602000D01*
X6349000Y-11547000D02*
X6459000Y-11547000D01*
X6599000Y-10042000D02*
X6709000Y-10152000D01*
X6709000Y-10042000D02*
X6599000Y-10152000D01*
X6654000Y-10042000D02*
X6654000Y-10152000D01*
X6599000Y-10097000D02*
X6709000Y-10097000D01*
X6599000Y-11492000D02*
X6709000Y-11602000D01*
X6709000Y-11492000D02*
X6599000Y-11602000D01*
X6654000Y-11492000D02*
X6654000Y-11602000D01*
X6599000Y-11547000D02*
X6709000Y-11547000D01*
X6899000Y-11817000D02*
X7009000Y-11927000D01*
X7009000Y-11817000D02*
X6899000Y-11927000D01*
X6954000Y-11817000D02*
X6954000Y-11927000D01*
X6899000Y-11872000D02*
X7009000Y-11872000D01*
X6899000Y-12117000D02*
X7009000Y-12227000D01*
X7009000Y-12117000D02*
X6899000Y-12227000D01*
X6954000Y-12117000D02*
X6954000Y-12227000D01*
X6899000Y-12172000D02*
X7009000Y-12172000D01*
X6899000Y-12967000D02*
X7009000Y-13077000D01*
X7009000Y-12967000D02*
X6899000Y-13077000D01*
X6954000Y-12967000D02*
X6954000Y-13077000D01*
X6899000Y-13022000D02*
X7009000Y-13022000D01*
X6899000Y-13217000D02*
X7009000Y-13327000D01*
X7009000Y-13217000D02*
X6899000Y-13327000D01*
X6954000Y-13217000D02*
X6954000Y-13327000D01*
X6899000Y-13272000D02*
X7009000Y-13272000D01*
X6899000Y-13517000D02*
X7009000Y-13627000D01*
X7009000Y-13517000D02*
X6899000Y-13627000D01*
X6954000Y-13517000D02*
X6954000Y-13627000D01*
X6899000Y-13572000D02*
X7009000Y-13572000D01*
X6899000Y-14367000D02*
X7009000Y-14477000D01*
X7009000Y-14367000D02*
X6899000Y-14477000D01*
X6954000Y-14367000D02*
X6954000Y-14477000D01*
X6899000Y-14422000D02*
X7009000Y-14422000D01*
X6934000Y-15317000D02*
X7044000Y-15427000D01*
X7044000Y-15317000D02*
X6934000Y-15427000D01*
X6989000Y-15317000D02*
X6989000Y-15427000D01*
X6934000Y-15372000D02*
X7044000Y-15372000D01*
X6934000Y-15617000D02*
X7044000Y-15727000D01*
X7044000Y-15617000D02*
X6934000Y-15727000D01*
X6989000Y-15617000D02*
X6989000Y-15727000D01*
X6934000Y-15672000D02*
X7044000Y-15672000D01*
X6934000Y-16467000D02*
X7044000Y-16577000D01*
X7044000Y-16467000D02*
X6934000Y-16577000D01*
X6989000Y-16467000D02*
X6989000Y-16577000D01*
X6934000Y-16522000D02*
X7044000Y-16522000D01*
X8049000Y-13217000D02*
X8159000Y-13327000D01*
X8159000Y-13217000D02*
X8049000Y-13327000D01*
X8104000Y-13217000D02*
X8104000Y-13327000D01*
X8049000Y-13272000D02*
X8159000Y-13272000D01*
X8049000Y-13517000D02*
X8159000Y-13627000D01*
X8159000Y-13517000D02*
X8049000Y-13627000D01*
X8104000Y-13517000D02*
X8104000Y-13627000D01*
X8049000Y-13572000D02*
X8159000Y-13572000D01*
X8049000Y-14367000D02*
X8159000Y-14477000D01*
X8159000Y-14367000D02*
X8049000Y-14477000D01*
X8104000Y-14367000D02*
X8104000Y-14477000D01*
X8049000Y-14422000D02*
X8159000Y-14422000D01*
X8049000Y-15317000D02*
X8159000Y-15427000D01*
X8159000Y-15317000D02*
X8049000Y-15427000D01*
X8104000Y-15317000D02*
X8104000Y-15427000D01*
X8049000Y-15372000D02*
X8159000Y-15372000D01*
X8049000Y-15617000D02*
X8159000Y-15727000D01*
X8159000Y-15617000D02*
X8049000Y-15727000D01*
X8104000Y-15617000D02*
X8104000Y-15727000D01*
X8049000Y-15672000D02*
X8159000Y-15672000D01*
X8049000Y-16467000D02*
X8159000Y-16577000D01*
X8159000Y-16467000D02*
X8049000Y-16577000D01*
X8104000Y-16467000D02*
X8104000Y-16577000D01*
X8049000Y-16522000D02*
X8159000Y-16522000D01*
X9100000Y-6840000D02*
X9210000Y-6950000D01*
X9210000Y-6840000D02*
X9100000Y-6950000D01*
X9155000Y-6840000D02*
X9155000Y-6950000D01*
X9100000Y-6895000D02*
X9210000Y-6895000D01*
X9100000Y-7490000D02*
X9210000Y-7600000D01*
X9210000Y-7490000D02*
X9100000Y-7600000D01*
X9155000Y-7490000D02*
X9155000Y-7600000D01*
X9100000Y-7545000D02*
X9210000Y-7545000D01*
X9149000Y-13217000D02*
X9259000Y-13327000D01*
X9259000Y-13217000D02*
X9149000Y-13327000D01*
X9204000Y-13217000D02*
X9204000Y-13327000D01*
X9149000Y-13272000D02*
X9259000Y-13272000D01*
X9149000Y-13517000D02*
X9259000Y-13627000D01*
X9259000Y-13517000D02*
X9149000Y-13627000D01*
X9204000Y-13517000D02*
X9204000Y-13627000D01*
X9149000Y-13572000D02*
X9259000Y-13572000D01*
X9149000Y-14367000D02*
X9259000Y-14477000D01*
X9259000Y-14367000D02*
X9149000Y-14477000D01*
X9204000Y-14367000D02*
X9204000Y-14477000D01*
X9149000Y-14422000D02*
X9259000Y-14422000D01*
X9149000Y-15317000D02*
X9259000Y-15427000D01*
X9259000Y-15317000D02*
X9149000Y-15427000D01*
X9204000Y-15317000D02*
X9204000Y-15427000D01*
X9149000Y-15372000D02*
X9259000Y-15372000D01*
X9149000Y-15617000D02*
X9259000Y-15727000D01*
X9259000Y-15617000D02*
X9149000Y-15727000D01*
X9204000Y-15617000D02*
X9204000Y-15727000D01*
X9149000Y-15672000D02*
X9259000Y-15672000D01*
X9149000Y-16467000D02*
X9259000Y-16577000D01*
X9259000Y-16467000D02*
X9149000Y-16577000D01*
X9204000Y-16467000D02*
X9204000Y-16577000D01*
X9149000Y-16522000D02*
X9259000Y-16522000D01*
X9550000Y-6840000D02*
X9660000Y-6950000D01*
X9660000Y-6840000D02*
X9550000Y-6950000D01*
X9605000Y-6840000D02*
X9605000Y-6950000D01*
X9550000Y-6895000D02*
X9660000Y-6895000D01*
X9550000Y-7490000D02*
X9660000Y-7600000D01*
X9660000Y-7490000D02*
X9550000Y-7600000D01*
X9605000Y-7490000D02*
X9605000Y-7600000D01*
X9550000Y-7545000D02*
X9660000Y-7545000D01*
D18*
X5661955Y-10624955D02*
X6006045Y-10969045D01*
X6006045Y-10624955D02*
X5661955Y-10969045D01*
X5955655Y-10918655D02*
X5955655Y-10675345D01*
X5712345Y-10675345D01*
X5712345Y-10918655D01*
X5955655Y-10918655D01*
X6801955Y-10624955D02*
X7146045Y-10969045D01*
X7146045Y-10624955D02*
X6801955Y-10969045D01*
X7095655Y-10918655D02*
X7095655Y-10675345D01*
X6852345Y-10675345D01*
X6852345Y-10918655D01*
X7095655Y-10918655D01*
D11*
X5417619Y-17042524D02*
X5417619Y-16842524D01*
X5417619Y-16842524D02*
X5465238Y-16842524D01*
X5465238Y-16842524D02*
X5493810Y-16852048D01*
X5493810Y-16852048D02*
X5512857Y-16871095D01*
X5512857Y-16871095D02*
X5522381Y-16890143D01*
X5522381Y-16890143D02*
X5531905Y-16928238D01*
X5531905Y-16928238D02*
X5531905Y-16956810D01*
X5531905Y-16956810D02*
X5522381Y-16994905D01*
X5522381Y-16994905D02*
X5512857Y-17013952D01*
X5512857Y-17013952D02*
X5493810Y-17033000D01*
X5493810Y-17033000D02*
X5465238Y-17042524D01*
X5465238Y-17042524D02*
X5417619Y-17042524D01*
X5617619Y-17042524D02*
X5617619Y-16909190D01*
X5617619Y-16947286D02*
X5627143Y-16928238D01*
X5627143Y-16928238D02*
X5636667Y-16918714D01*
X5636667Y-16918714D02*
X5655714Y-16909190D01*
X5655714Y-16909190D02*
X5674762Y-16909190D01*
X5741428Y-17042524D02*
X5741428Y-16909190D01*
X5741428Y-16842524D02*
X5731905Y-16852048D01*
X5731905Y-16852048D02*
X5741428Y-16861571D01*
X5741428Y-16861571D02*
X5750952Y-16852048D01*
X5750952Y-16852048D02*
X5741428Y-16842524D01*
X5741428Y-16842524D02*
X5741428Y-16861571D01*
X5865238Y-17042524D02*
X5846190Y-17033000D01*
X5846190Y-17033000D02*
X5836667Y-17013952D01*
X5836667Y-17013952D02*
X5836667Y-16842524D01*
X5970000Y-17042524D02*
X5950952Y-17033000D01*
X5950952Y-17033000D02*
X5941428Y-17013952D01*
X5941428Y-17013952D02*
X5941428Y-16842524D01*
X6198571Y-17042524D02*
X6198571Y-16842524D01*
X6198571Y-16842524D02*
X6265238Y-16985381D01*
X6265238Y-16985381D02*
X6331905Y-16842524D01*
X6331905Y-16842524D02*
X6331905Y-17042524D01*
X6512857Y-17042524D02*
X6512857Y-16937762D01*
X6512857Y-16937762D02*
X6503333Y-16918714D01*
X6503333Y-16918714D02*
X6484286Y-16909190D01*
X6484286Y-16909190D02*
X6446190Y-16909190D01*
X6446190Y-16909190D02*
X6427143Y-16918714D01*
X6512857Y-17033000D02*
X6493809Y-17042524D01*
X6493809Y-17042524D02*
X6446190Y-17042524D01*
X6446190Y-17042524D02*
X6427143Y-17033000D01*
X6427143Y-17033000D02*
X6417619Y-17013952D01*
X6417619Y-17013952D02*
X6417619Y-16994905D01*
X6417619Y-16994905D02*
X6427143Y-16975857D01*
X6427143Y-16975857D02*
X6446190Y-16966333D01*
X6446190Y-16966333D02*
X6493809Y-16966333D01*
X6493809Y-16966333D02*
X6512857Y-16956810D01*
X6608095Y-16909190D02*
X6608095Y-17109190D01*
X6608095Y-16918714D02*
X6627143Y-16909190D01*
X6627143Y-16909190D02*
X6665238Y-16909190D01*
X6665238Y-16909190D02*
X6684286Y-16918714D01*
X6684286Y-16918714D02*
X6693809Y-16928238D01*
X6693809Y-16928238D02*
X6703333Y-16947286D01*
X6703333Y-16947286D02*
X6703333Y-17004429D01*
X6703333Y-17004429D02*
X6693809Y-17023476D01*
X6693809Y-17023476D02*
X6684286Y-17033000D01*
X6684286Y-17033000D02*
X6665238Y-17042524D01*
X6665238Y-17042524D02*
X6627143Y-17042524D01*
X6627143Y-17042524D02*
X6608095Y-17033000D01*
X6789048Y-17023476D02*
X6798571Y-17033000D01*
X6798571Y-17033000D02*
X6789048Y-17042524D01*
X6789048Y-17042524D02*
X6779524Y-17033000D01*
X6779524Y-17033000D02*
X6789048Y-17023476D01*
X6789048Y-17023476D02*
X6789048Y-17042524D01*
X6789048Y-16918714D02*
X6798571Y-16928238D01*
X6798571Y-16928238D02*
X6789048Y-16937762D01*
X6789048Y-16937762D02*
X6779524Y-16928238D01*
X6779524Y-16928238D02*
X6789048Y-16918714D01*
X6789048Y-16918714D02*
X6789048Y-16937762D01*
D12*
X5130000Y-17350000D02*
X5170000Y-17390000D01*
X5170000Y-17350000D02*
X5130000Y-17390000D01*
D11*
X5455714Y-17262524D02*
X5474762Y-17262524D01*
X5474762Y-17262524D02*
X5493810Y-17272048D01*
X5493810Y-17272048D02*
X5503333Y-17281571D01*
X5503333Y-17281571D02*
X5512857Y-17300619D01*
X5512857Y-17300619D02*
X5522381Y-17338714D01*
X5522381Y-17338714D02*
X5522381Y-17386333D01*
X5522381Y-17386333D02*
X5512857Y-17424429D01*
X5512857Y-17424429D02*
X5503333Y-17443476D01*
X5503333Y-17443476D02*
X5493810Y-17453000D01*
X5493810Y-17453000D02*
X5474762Y-17462524D01*
X5474762Y-17462524D02*
X5455714Y-17462524D01*
X5455714Y-17462524D02*
X5436667Y-17453000D01*
X5436667Y-17453000D02*
X5427143Y-17443476D01*
X5427143Y-17443476D02*
X5417619Y-17424429D01*
X5417619Y-17424429D02*
X5408095Y-17386333D01*
X5408095Y-17386333D02*
X5408095Y-17338714D01*
X5408095Y-17338714D02*
X5417619Y-17300619D01*
X5417619Y-17300619D02*
X5427143Y-17281571D01*
X5427143Y-17281571D02*
X5436667Y-17272048D01*
X5436667Y-17272048D02*
X5455714Y-17262524D01*
X5608095Y-17443476D02*
X5617619Y-17453000D01*
X5617619Y-17453000D02*
X5608095Y-17462524D01*
X5608095Y-17462524D02*
X5598571Y-17453000D01*
X5598571Y-17453000D02*
X5608095Y-17443476D01*
X5608095Y-17443476D02*
X5608095Y-17462524D01*
X5789048Y-17329190D02*
X5789048Y-17462524D01*
X5741428Y-17253000D02*
X5693809Y-17395857D01*
X5693809Y-17395857D02*
X5817619Y-17395857D01*
X5931905Y-17262524D02*
X5950952Y-17262524D01*
X5950952Y-17262524D02*
X5970000Y-17272048D01*
X5970000Y-17272048D02*
X5979524Y-17281571D01*
X5979524Y-17281571D02*
X5989048Y-17300619D01*
X5989048Y-17300619D02*
X5998571Y-17338714D01*
X5998571Y-17338714D02*
X5998571Y-17386333D01*
X5998571Y-17386333D02*
X5989048Y-17424429D01*
X5989048Y-17424429D02*
X5979524Y-17443476D01*
X5979524Y-17443476D02*
X5970000Y-17453000D01*
X5970000Y-17453000D02*
X5950952Y-17462524D01*
X5950952Y-17462524D02*
X5931905Y-17462524D01*
X5931905Y-17462524D02*
X5912857Y-17453000D01*
X5912857Y-17453000D02*
X5903333Y-17443476D01*
X5903333Y-17443476D02*
X5893809Y-17424429D01*
X5893809Y-17424429D02*
X5884286Y-17386333D01*
X5884286Y-17386333D02*
X5884286Y-17338714D01*
X5884286Y-17338714D02*
X5893809Y-17300619D01*
X5893809Y-17300619D02*
X5903333Y-17281571D01*
X5903333Y-17281571D02*
X5912857Y-17272048D01*
X5912857Y-17272048D02*
X5931905Y-17262524D01*
X6122381Y-17262524D02*
X6141429Y-17262524D01*
X6141429Y-17262524D02*
X6160476Y-17272048D01*
X6160476Y-17272048D02*
X6170000Y-17281571D01*
X6170000Y-17281571D02*
X6179524Y-17300619D01*
X6179524Y-17300619D02*
X6189048Y-17338714D01*
X6189048Y-17338714D02*
X6189048Y-17386333D01*
X6189048Y-17386333D02*
X6179524Y-17424429D01*
X6179524Y-17424429D02*
X6170000Y-17443476D01*
X6170000Y-17443476D02*
X6160476Y-17453000D01*
X6160476Y-17453000D02*
X6141429Y-17462524D01*
X6141429Y-17462524D02*
X6122381Y-17462524D01*
X6122381Y-17462524D02*
X6103333Y-17453000D01*
X6103333Y-17453000D02*
X6093809Y-17443476D01*
X6093809Y-17443476D02*
X6084286Y-17424429D01*
X6084286Y-17424429D02*
X6074762Y-17386333D01*
X6074762Y-17386333D02*
X6074762Y-17338714D01*
X6074762Y-17338714D02*
X6084286Y-17300619D01*
X6084286Y-17300619D02*
X6093809Y-17281571D01*
X6093809Y-17281571D02*
X6103333Y-17272048D01*
X6103333Y-17272048D02*
X6122381Y-17262524D01*
X6274762Y-17462524D02*
X6274762Y-17329190D01*
X6274762Y-17348238D02*
X6284286Y-17338714D01*
X6284286Y-17338714D02*
X6303333Y-17329190D01*
X6303333Y-17329190D02*
X6331905Y-17329190D01*
X6331905Y-17329190D02*
X6350952Y-17338714D01*
X6350952Y-17338714D02*
X6360476Y-17357762D01*
X6360476Y-17357762D02*
X6360476Y-17462524D01*
X6360476Y-17357762D02*
X6370000Y-17338714D01*
X6370000Y-17338714D02*
X6389048Y-17329190D01*
X6389048Y-17329190D02*
X6417619Y-17329190D01*
X6417619Y-17329190D02*
X6436667Y-17338714D01*
X6436667Y-17338714D02*
X6446190Y-17357762D01*
X6446190Y-17357762D02*
X6446190Y-17462524D01*
X6541429Y-17462524D02*
X6541429Y-17329190D01*
X6541429Y-17348238D02*
X6550952Y-17338714D01*
X6550952Y-17338714D02*
X6570000Y-17329190D01*
X6570000Y-17329190D02*
X6598571Y-17329190D01*
X6598571Y-17329190D02*
X6617619Y-17338714D01*
X6617619Y-17338714D02*
X6627143Y-17357762D01*
X6627143Y-17357762D02*
X6627143Y-17462524D01*
X6627143Y-17357762D02*
X6636667Y-17338714D01*
X6636667Y-17338714D02*
X6655714Y-17329190D01*
X6655714Y-17329190D02*
X6684286Y-17329190D01*
X6684286Y-17329190D02*
X6703333Y-17338714D01*
X6703333Y-17338714D02*
X6712857Y-17357762D01*
X6712857Y-17357762D02*
X6712857Y-17462524D01*
X7103333Y-17253000D02*
X6931905Y-17510143D01*
X7360476Y-17262524D02*
X7379524Y-17262524D01*
X7379524Y-17262524D02*
X7398572Y-17272048D01*
X7398572Y-17272048D02*
X7408095Y-17281571D01*
X7408095Y-17281571D02*
X7417619Y-17300619D01*
X7417619Y-17300619D02*
X7427143Y-17338714D01*
X7427143Y-17338714D02*
X7427143Y-17386333D01*
X7427143Y-17386333D02*
X7417619Y-17424429D01*
X7417619Y-17424429D02*
X7408095Y-17443476D01*
X7408095Y-17443476D02*
X7398572Y-17453000D01*
X7398572Y-17453000D02*
X7379524Y-17462524D01*
X7379524Y-17462524D02*
X7360476Y-17462524D01*
X7360476Y-17462524D02*
X7341429Y-17453000D01*
X7341429Y-17453000D02*
X7331905Y-17443476D01*
X7331905Y-17443476D02*
X7322381Y-17424429D01*
X7322381Y-17424429D02*
X7312857Y-17386333D01*
X7312857Y-17386333D02*
X7312857Y-17338714D01*
X7312857Y-17338714D02*
X7322381Y-17300619D01*
X7322381Y-17300619D02*
X7331905Y-17281571D01*
X7331905Y-17281571D02*
X7341429Y-17272048D01*
X7341429Y-17272048D02*
X7360476Y-17262524D01*
X7512857Y-17443476D02*
X7522381Y-17453000D01*
X7522381Y-17453000D02*
X7512857Y-17462524D01*
X7512857Y-17462524D02*
X7503333Y-17453000D01*
X7503333Y-17453000D02*
X7512857Y-17443476D01*
X7512857Y-17443476D02*
X7512857Y-17462524D01*
X7646191Y-17262524D02*
X7665238Y-17262524D01*
X7665238Y-17262524D02*
X7684286Y-17272048D01*
X7684286Y-17272048D02*
X7693810Y-17281571D01*
X7693810Y-17281571D02*
X7703333Y-17300619D01*
X7703333Y-17300619D02*
X7712857Y-17338714D01*
X7712857Y-17338714D02*
X7712857Y-17386333D01*
X7712857Y-17386333D02*
X7703333Y-17424429D01*
X7703333Y-17424429D02*
X7693810Y-17443476D01*
X7693810Y-17443476D02*
X7684286Y-17453000D01*
X7684286Y-17453000D02*
X7665238Y-17462524D01*
X7665238Y-17462524D02*
X7646191Y-17462524D01*
X7646191Y-17462524D02*
X7627143Y-17453000D01*
X7627143Y-17453000D02*
X7617619Y-17443476D01*
X7617619Y-17443476D02*
X7608095Y-17424429D01*
X7608095Y-17424429D02*
X7598572Y-17386333D01*
X7598572Y-17386333D02*
X7598572Y-17338714D01*
X7598572Y-17338714D02*
X7608095Y-17300619D01*
X7608095Y-17300619D02*
X7617619Y-17281571D01*
X7617619Y-17281571D02*
X7627143Y-17272048D01*
X7627143Y-17272048D02*
X7646191Y-17262524D01*
X7903333Y-17462524D02*
X7789048Y-17462524D01*
X7846191Y-17462524D02*
X7846191Y-17262524D01*
X7846191Y-17262524D02*
X7827143Y-17291095D01*
X7827143Y-17291095D02*
X7808095Y-17310143D01*
X7808095Y-17310143D02*
X7789048Y-17319667D01*
X8084286Y-17262524D02*
X7989048Y-17262524D01*
X7989048Y-17262524D02*
X7979524Y-17357762D01*
X7979524Y-17357762D02*
X7989048Y-17348238D01*
X7989048Y-17348238D02*
X8008095Y-17338714D01*
X8008095Y-17338714D02*
X8055714Y-17338714D01*
X8055714Y-17338714D02*
X8074762Y-17348238D01*
X8074762Y-17348238D02*
X8084286Y-17357762D01*
X8084286Y-17357762D02*
X8093810Y-17376810D01*
X8093810Y-17376810D02*
X8093810Y-17424429D01*
X8093810Y-17424429D02*
X8084286Y-17443476D01*
X8084286Y-17443476D02*
X8074762Y-17453000D01*
X8074762Y-17453000D02*
X8055714Y-17462524D01*
X8055714Y-17462524D02*
X8008095Y-17462524D01*
X8008095Y-17462524D02*
X7989048Y-17453000D01*
X7989048Y-17453000D02*
X7979524Y-17443476D01*
X8160476Y-17262524D02*
X8293810Y-17262524D01*
X8293810Y-17262524D02*
X8208095Y-17462524D01*
X8360476Y-17262524D02*
X8360476Y-17300619D01*
X8436667Y-17262524D02*
X8436667Y-17300619D01*
X8731905Y-17538714D02*
X8722381Y-17529190D01*
X8722381Y-17529190D02*
X8703334Y-17500619D01*
X8703334Y-17500619D02*
X8693810Y-17481571D01*
X8693810Y-17481571D02*
X8684286Y-17453000D01*
X8684286Y-17453000D02*
X8674762Y-17405381D01*
X8674762Y-17405381D02*
X8674762Y-17367286D01*
X8674762Y-17367286D02*
X8684286Y-17319667D01*
X8684286Y-17319667D02*
X8693810Y-17291095D01*
X8693810Y-17291095D02*
X8703334Y-17272048D01*
X8703334Y-17272048D02*
X8722381Y-17243476D01*
X8722381Y-17243476D02*
X8731905Y-17233952D01*
X8912857Y-17462524D02*
X8798572Y-17462524D01*
X8855715Y-17462524D02*
X8855715Y-17262524D01*
X8855715Y-17262524D02*
X8836667Y-17291095D01*
X8836667Y-17291095D02*
X8817619Y-17310143D01*
X8817619Y-17310143D02*
X8798572Y-17319667D01*
X9103334Y-17462524D02*
X8989048Y-17462524D01*
X9046191Y-17462524D02*
X9046191Y-17262524D01*
X9046191Y-17262524D02*
X9027143Y-17291095D01*
X9027143Y-17291095D02*
X9008096Y-17310143D01*
X9008096Y-17310143D02*
X8989048Y-17319667D01*
X9170000Y-17262524D02*
X9303334Y-17262524D01*
X9303334Y-17262524D02*
X9217619Y-17462524D01*
X9531905Y-17462524D02*
X9531905Y-17262524D01*
X9617619Y-17462524D02*
X9617619Y-17357762D01*
X9617619Y-17357762D02*
X9608096Y-17338714D01*
X9608096Y-17338714D02*
X9589048Y-17329190D01*
X9589048Y-17329190D02*
X9560477Y-17329190D01*
X9560477Y-17329190D02*
X9541429Y-17338714D01*
X9541429Y-17338714D02*
X9531905Y-17348238D01*
X9741429Y-17462524D02*
X9722381Y-17453000D01*
X9722381Y-17453000D02*
X9712858Y-17443476D01*
X9712858Y-17443476D02*
X9703334Y-17424429D01*
X9703334Y-17424429D02*
X9703334Y-17367286D01*
X9703334Y-17367286D02*
X9712858Y-17348238D01*
X9712858Y-17348238D02*
X9722381Y-17338714D01*
X9722381Y-17338714D02*
X9741429Y-17329190D01*
X9741429Y-17329190D02*
X9770000Y-17329190D01*
X9770000Y-17329190D02*
X9789048Y-17338714D01*
X9789048Y-17338714D02*
X9798572Y-17348238D01*
X9798572Y-17348238D02*
X9808096Y-17367286D01*
X9808096Y-17367286D02*
X9808096Y-17424429D01*
X9808096Y-17424429D02*
X9798572Y-17443476D01*
X9798572Y-17443476D02*
X9789048Y-17453000D01*
X9789048Y-17453000D02*
X9770000Y-17462524D01*
X9770000Y-17462524D02*
X9741429Y-17462524D01*
X9922381Y-17462524D02*
X9903334Y-17453000D01*
X9903334Y-17453000D02*
X9893810Y-17433952D01*
X9893810Y-17433952D02*
X9893810Y-17262524D01*
X10074762Y-17453000D02*
X10055715Y-17462524D01*
X10055715Y-17462524D02*
X10017619Y-17462524D01*
X10017619Y-17462524D02*
X9998572Y-17453000D01*
X9998572Y-17453000D02*
X9989048Y-17433952D01*
X9989048Y-17433952D02*
X9989048Y-17357762D01*
X9989048Y-17357762D02*
X9998572Y-17338714D01*
X9998572Y-17338714D02*
X10017619Y-17329190D01*
X10017619Y-17329190D02*
X10055715Y-17329190D01*
X10055715Y-17329190D02*
X10074762Y-17338714D01*
X10074762Y-17338714D02*
X10084286Y-17357762D01*
X10084286Y-17357762D02*
X10084286Y-17376810D01*
X10084286Y-17376810D02*
X9989048Y-17395857D01*
X10160477Y-17453000D02*
X10179524Y-17462524D01*
X10179524Y-17462524D02*
X10217619Y-17462524D01*
X10217619Y-17462524D02*
X10236667Y-17453000D01*
X10236667Y-17453000D02*
X10246191Y-17433952D01*
X10246191Y-17433952D02*
X10246191Y-17424429D01*
X10246191Y-17424429D02*
X10236667Y-17405381D01*
X10236667Y-17405381D02*
X10217619Y-17395857D01*
X10217619Y-17395857D02*
X10189048Y-17395857D01*
X10189048Y-17395857D02*
X10170000Y-17386333D01*
X10170000Y-17386333D02*
X10160477Y-17367286D01*
X10160477Y-17367286D02*
X10160477Y-17357762D01*
X10160477Y-17357762D02*
X10170000Y-17338714D01*
X10170000Y-17338714D02*
X10189048Y-17329190D01*
X10189048Y-17329190D02*
X10217619Y-17329190D01*
X10217619Y-17329190D02*
X10236667Y-17338714D01*
X10312858Y-17538714D02*
X10322381Y-17529190D01*
X10322381Y-17529190D02*
X10341429Y-17500619D01*
X10341429Y-17500619D02*
X10350953Y-17481571D01*
X10350953Y-17481571D02*
X10360477Y-17453000D01*
X10360477Y-17453000D02*
X10370000Y-17405381D01*
X10370000Y-17405381D02*
X10370000Y-17367286D01*
X10370000Y-17367286D02*
X10360477Y-17319667D01*
X10360477Y-17319667D02*
X10350953Y-17291095D01*
X10350953Y-17291095D02*
X10341429Y-17272048D01*
X10341429Y-17272048D02*
X10322381Y-17243476D01*
X10322381Y-17243476D02*
X10312858Y-17233952D01*
D13*
X5170000Y-17634000D02*
G75*
G03*
X5170000Y-17634000I-25000J0D01*
G01*
D11*
X5455714Y-17526524D02*
X5474762Y-17526524D01*
X5474762Y-17526524D02*
X5493810Y-17536048D01*
X5493810Y-17536048D02*
X5503333Y-17545571D01*
X5503333Y-17545571D02*
X5512857Y-17564619D01*
X5512857Y-17564619D02*
X5522381Y-17602714D01*
X5522381Y-17602714D02*
X5522381Y-17650333D01*
X5522381Y-17650333D02*
X5512857Y-17688429D01*
X5512857Y-17688429D02*
X5503333Y-17707476D01*
X5503333Y-17707476D02*
X5493810Y-17717000D01*
X5493810Y-17717000D02*
X5474762Y-17726524D01*
X5474762Y-17726524D02*
X5455714Y-17726524D01*
X5455714Y-17726524D02*
X5436667Y-17717000D01*
X5436667Y-17717000D02*
X5427143Y-17707476D01*
X5427143Y-17707476D02*
X5417619Y-17688429D01*
X5417619Y-17688429D02*
X5408095Y-17650333D01*
X5408095Y-17650333D02*
X5408095Y-17602714D01*
X5408095Y-17602714D02*
X5417619Y-17564619D01*
X5417619Y-17564619D02*
X5427143Y-17545571D01*
X5427143Y-17545571D02*
X5436667Y-17536048D01*
X5436667Y-17536048D02*
X5455714Y-17526524D01*
X5608095Y-17707476D02*
X5617619Y-17717000D01*
X5617619Y-17717000D02*
X5608095Y-17726524D01*
X5608095Y-17726524D02*
X5598571Y-17717000D01*
X5598571Y-17717000D02*
X5608095Y-17707476D01*
X5608095Y-17707476D02*
X5608095Y-17726524D01*
X5798571Y-17526524D02*
X5703333Y-17526524D01*
X5703333Y-17526524D02*
X5693809Y-17621762D01*
X5693809Y-17621762D02*
X5703333Y-17612238D01*
X5703333Y-17612238D02*
X5722381Y-17602714D01*
X5722381Y-17602714D02*
X5770000Y-17602714D01*
X5770000Y-17602714D02*
X5789048Y-17612238D01*
X5789048Y-17612238D02*
X5798571Y-17621762D01*
X5798571Y-17621762D02*
X5808095Y-17640810D01*
X5808095Y-17640810D02*
X5808095Y-17688429D01*
X5808095Y-17688429D02*
X5798571Y-17707476D01*
X5798571Y-17707476D02*
X5789048Y-17717000D01*
X5789048Y-17717000D02*
X5770000Y-17726524D01*
X5770000Y-17726524D02*
X5722381Y-17726524D01*
X5722381Y-17726524D02*
X5703333Y-17717000D01*
X5703333Y-17717000D02*
X5693809Y-17707476D01*
X5931905Y-17526524D02*
X5950952Y-17526524D01*
X5950952Y-17526524D02*
X5970000Y-17536048D01*
X5970000Y-17536048D02*
X5979524Y-17545571D01*
X5979524Y-17545571D02*
X5989048Y-17564619D01*
X5989048Y-17564619D02*
X5998571Y-17602714D01*
X5998571Y-17602714D02*
X5998571Y-17650333D01*
X5998571Y-17650333D02*
X5989048Y-17688429D01*
X5989048Y-17688429D02*
X5979524Y-17707476D01*
X5979524Y-17707476D02*
X5970000Y-17717000D01*
X5970000Y-17717000D02*
X5950952Y-17726524D01*
X5950952Y-17726524D02*
X5931905Y-17726524D01*
X5931905Y-17726524D02*
X5912857Y-17717000D01*
X5912857Y-17717000D02*
X5903333Y-17707476D01*
X5903333Y-17707476D02*
X5893809Y-17688429D01*
X5893809Y-17688429D02*
X5884286Y-17650333D01*
X5884286Y-17650333D02*
X5884286Y-17602714D01*
X5884286Y-17602714D02*
X5893809Y-17564619D01*
X5893809Y-17564619D02*
X5903333Y-17545571D01*
X5903333Y-17545571D02*
X5912857Y-17536048D01*
X5912857Y-17536048D02*
X5931905Y-17526524D01*
X6122381Y-17526524D02*
X6141429Y-17526524D01*
X6141429Y-17526524D02*
X6160476Y-17536048D01*
X6160476Y-17536048D02*
X6170000Y-17545571D01*
X6170000Y-17545571D02*
X6179524Y-17564619D01*
X6179524Y-17564619D02*
X6189048Y-17602714D01*
X6189048Y-17602714D02*
X6189048Y-17650333D01*
X6189048Y-17650333D02*
X6179524Y-17688429D01*
X6179524Y-17688429D02*
X6170000Y-17707476D01*
X6170000Y-17707476D02*
X6160476Y-17717000D01*
X6160476Y-17717000D02*
X6141429Y-17726524D01*
X6141429Y-17726524D02*
X6122381Y-17726524D01*
X6122381Y-17726524D02*
X6103333Y-17717000D01*
X6103333Y-17717000D02*
X6093809Y-17707476D01*
X6093809Y-17707476D02*
X6084286Y-17688429D01*
X6084286Y-17688429D02*
X6074762Y-17650333D01*
X6074762Y-17650333D02*
X6074762Y-17602714D01*
X6074762Y-17602714D02*
X6084286Y-17564619D01*
X6084286Y-17564619D02*
X6093809Y-17545571D01*
X6093809Y-17545571D02*
X6103333Y-17536048D01*
X6103333Y-17536048D02*
X6122381Y-17526524D01*
X6274762Y-17726524D02*
X6274762Y-17593190D01*
X6274762Y-17612238D02*
X6284286Y-17602714D01*
X6284286Y-17602714D02*
X6303333Y-17593190D01*
X6303333Y-17593190D02*
X6331905Y-17593190D01*
X6331905Y-17593190D02*
X6350952Y-17602714D01*
X6350952Y-17602714D02*
X6360476Y-17621762D01*
X6360476Y-17621762D02*
X6360476Y-17726524D01*
X6360476Y-17621762D02*
X6370000Y-17602714D01*
X6370000Y-17602714D02*
X6389048Y-17593190D01*
X6389048Y-17593190D02*
X6417619Y-17593190D01*
X6417619Y-17593190D02*
X6436667Y-17602714D01*
X6436667Y-17602714D02*
X6446190Y-17621762D01*
X6446190Y-17621762D02*
X6446190Y-17726524D01*
X6541429Y-17726524D02*
X6541429Y-17593190D01*
X6541429Y-17612238D02*
X6550952Y-17602714D01*
X6550952Y-17602714D02*
X6570000Y-17593190D01*
X6570000Y-17593190D02*
X6598571Y-17593190D01*
X6598571Y-17593190D02*
X6617619Y-17602714D01*
X6617619Y-17602714D02*
X6627143Y-17621762D01*
X6627143Y-17621762D02*
X6627143Y-17726524D01*
X6627143Y-17621762D02*
X6636667Y-17602714D01*
X6636667Y-17602714D02*
X6655714Y-17593190D01*
X6655714Y-17593190D02*
X6684286Y-17593190D01*
X6684286Y-17593190D02*
X6703333Y-17602714D01*
X6703333Y-17602714D02*
X6712857Y-17621762D01*
X6712857Y-17621762D02*
X6712857Y-17726524D01*
X7103333Y-17517000D02*
X6931905Y-17774143D01*
X7360476Y-17526524D02*
X7379524Y-17526524D01*
X7379524Y-17526524D02*
X7398572Y-17536048D01*
X7398572Y-17536048D02*
X7408095Y-17545571D01*
X7408095Y-17545571D02*
X7417619Y-17564619D01*
X7417619Y-17564619D02*
X7427143Y-17602714D01*
X7427143Y-17602714D02*
X7427143Y-17650333D01*
X7427143Y-17650333D02*
X7417619Y-17688429D01*
X7417619Y-17688429D02*
X7408095Y-17707476D01*
X7408095Y-17707476D02*
X7398572Y-17717000D01*
X7398572Y-17717000D02*
X7379524Y-17726524D01*
X7379524Y-17726524D02*
X7360476Y-17726524D01*
X7360476Y-17726524D02*
X7341429Y-17717000D01*
X7341429Y-17717000D02*
X7331905Y-17707476D01*
X7331905Y-17707476D02*
X7322381Y-17688429D01*
X7322381Y-17688429D02*
X7312857Y-17650333D01*
X7312857Y-17650333D02*
X7312857Y-17602714D01*
X7312857Y-17602714D02*
X7322381Y-17564619D01*
X7322381Y-17564619D02*
X7331905Y-17545571D01*
X7331905Y-17545571D02*
X7341429Y-17536048D01*
X7341429Y-17536048D02*
X7360476Y-17526524D01*
X7512857Y-17707476D02*
X7522381Y-17717000D01*
X7522381Y-17717000D02*
X7512857Y-17726524D01*
X7512857Y-17726524D02*
X7503333Y-17717000D01*
X7503333Y-17717000D02*
X7512857Y-17707476D01*
X7512857Y-17707476D02*
X7512857Y-17726524D01*
X7646191Y-17526524D02*
X7665238Y-17526524D01*
X7665238Y-17526524D02*
X7684286Y-17536048D01*
X7684286Y-17536048D02*
X7693810Y-17545571D01*
X7693810Y-17545571D02*
X7703333Y-17564619D01*
X7703333Y-17564619D02*
X7712857Y-17602714D01*
X7712857Y-17602714D02*
X7712857Y-17650333D01*
X7712857Y-17650333D02*
X7703333Y-17688429D01*
X7703333Y-17688429D02*
X7693810Y-17707476D01*
X7693810Y-17707476D02*
X7684286Y-17717000D01*
X7684286Y-17717000D02*
X7665238Y-17726524D01*
X7665238Y-17726524D02*
X7646191Y-17726524D01*
X7646191Y-17726524D02*
X7627143Y-17717000D01*
X7627143Y-17717000D02*
X7617619Y-17707476D01*
X7617619Y-17707476D02*
X7608095Y-17688429D01*
X7608095Y-17688429D02*
X7598572Y-17650333D01*
X7598572Y-17650333D02*
X7598572Y-17602714D01*
X7598572Y-17602714D02*
X7608095Y-17564619D01*
X7608095Y-17564619D02*
X7617619Y-17545571D01*
X7617619Y-17545571D02*
X7627143Y-17536048D01*
X7627143Y-17536048D02*
X7646191Y-17526524D01*
X7903333Y-17726524D02*
X7789048Y-17726524D01*
X7846191Y-17726524D02*
X7846191Y-17526524D01*
X7846191Y-17526524D02*
X7827143Y-17555095D01*
X7827143Y-17555095D02*
X7808095Y-17574143D01*
X7808095Y-17574143D02*
X7789048Y-17583667D01*
X7998572Y-17726524D02*
X8036667Y-17726524D01*
X8036667Y-17726524D02*
X8055714Y-17717000D01*
X8055714Y-17717000D02*
X8065238Y-17707476D01*
X8065238Y-17707476D02*
X8084286Y-17678905D01*
X8084286Y-17678905D02*
X8093810Y-17640810D01*
X8093810Y-17640810D02*
X8093810Y-17564619D01*
X8093810Y-17564619D02*
X8084286Y-17545571D01*
X8084286Y-17545571D02*
X8074762Y-17536048D01*
X8074762Y-17536048D02*
X8055714Y-17526524D01*
X8055714Y-17526524D02*
X8017619Y-17526524D01*
X8017619Y-17526524D02*
X7998572Y-17536048D01*
X7998572Y-17536048D02*
X7989048Y-17545571D01*
X7989048Y-17545571D02*
X7979524Y-17564619D01*
X7979524Y-17564619D02*
X7979524Y-17612238D01*
X7979524Y-17612238D02*
X7989048Y-17631286D01*
X7989048Y-17631286D02*
X7998572Y-17640810D01*
X7998572Y-17640810D02*
X8017619Y-17650333D01*
X8017619Y-17650333D02*
X8055714Y-17650333D01*
X8055714Y-17650333D02*
X8074762Y-17640810D01*
X8074762Y-17640810D02*
X8084286Y-17631286D01*
X8084286Y-17631286D02*
X8093810Y-17612238D01*
X8160476Y-17526524D02*
X8293810Y-17526524D01*
X8293810Y-17526524D02*
X8208095Y-17726524D01*
X8360476Y-17526524D02*
X8360476Y-17564619D01*
X8436667Y-17526524D02*
X8436667Y-17564619D01*
X8731905Y-17802714D02*
X8722381Y-17793190D01*
X8722381Y-17793190D02*
X8703334Y-17764619D01*
X8703334Y-17764619D02*
X8693810Y-17745571D01*
X8693810Y-17745571D02*
X8684286Y-17717000D01*
X8684286Y-17717000D02*
X8674762Y-17669381D01*
X8674762Y-17669381D02*
X8674762Y-17631286D01*
X8674762Y-17631286D02*
X8684286Y-17583667D01*
X8684286Y-17583667D02*
X8693810Y-17555095D01*
X8693810Y-17555095D02*
X8703334Y-17536048D01*
X8703334Y-17536048D02*
X8722381Y-17507476D01*
X8722381Y-17507476D02*
X8731905Y-17497952D01*
X8846191Y-17526524D02*
X8865238Y-17526524D01*
X8865238Y-17526524D02*
X8884286Y-17536048D01*
X8884286Y-17536048D02*
X8893810Y-17545571D01*
X8893810Y-17545571D02*
X8903334Y-17564619D01*
X8903334Y-17564619D02*
X8912857Y-17602714D01*
X8912857Y-17602714D02*
X8912857Y-17650333D01*
X8912857Y-17650333D02*
X8903334Y-17688429D01*
X8903334Y-17688429D02*
X8893810Y-17707476D01*
X8893810Y-17707476D02*
X8884286Y-17717000D01*
X8884286Y-17717000D02*
X8865238Y-17726524D01*
X8865238Y-17726524D02*
X8846191Y-17726524D01*
X8846191Y-17726524D02*
X8827143Y-17717000D01*
X8827143Y-17717000D02*
X8817619Y-17707476D01*
X8817619Y-17707476D02*
X8808096Y-17688429D01*
X8808096Y-17688429D02*
X8798572Y-17650333D01*
X8798572Y-17650333D02*
X8798572Y-17602714D01*
X8798572Y-17602714D02*
X8808096Y-17564619D01*
X8808096Y-17564619D02*
X8817619Y-17545571D01*
X8817619Y-17545571D02*
X8827143Y-17536048D01*
X8827143Y-17536048D02*
X8846191Y-17526524D01*
X9150953Y-17726524D02*
X9150953Y-17526524D01*
X9236667Y-17726524D02*
X9236667Y-17621762D01*
X9236667Y-17621762D02*
X9227143Y-17602714D01*
X9227143Y-17602714D02*
X9208096Y-17593190D01*
X9208096Y-17593190D02*
X9179524Y-17593190D01*
X9179524Y-17593190D02*
X9160477Y-17602714D01*
X9160477Y-17602714D02*
X9150953Y-17612238D01*
X9360477Y-17726524D02*
X9341429Y-17717000D01*
X9341429Y-17717000D02*
X9331905Y-17707476D01*
X9331905Y-17707476D02*
X9322381Y-17688429D01*
X9322381Y-17688429D02*
X9322381Y-17631286D01*
X9322381Y-17631286D02*
X9331905Y-17612238D01*
X9331905Y-17612238D02*
X9341429Y-17602714D01*
X9341429Y-17602714D02*
X9360477Y-17593190D01*
X9360477Y-17593190D02*
X9389048Y-17593190D01*
X9389048Y-17593190D02*
X9408096Y-17602714D01*
X9408096Y-17602714D02*
X9417619Y-17612238D01*
X9417619Y-17612238D02*
X9427143Y-17631286D01*
X9427143Y-17631286D02*
X9427143Y-17688429D01*
X9427143Y-17688429D02*
X9417619Y-17707476D01*
X9417619Y-17707476D02*
X9408096Y-17717000D01*
X9408096Y-17717000D02*
X9389048Y-17726524D01*
X9389048Y-17726524D02*
X9360477Y-17726524D01*
X9541429Y-17726524D02*
X9522381Y-17717000D01*
X9522381Y-17717000D02*
X9512858Y-17697952D01*
X9512858Y-17697952D02*
X9512858Y-17526524D01*
X9693810Y-17717000D02*
X9674762Y-17726524D01*
X9674762Y-17726524D02*
X9636667Y-17726524D01*
X9636667Y-17726524D02*
X9617619Y-17717000D01*
X9617619Y-17717000D02*
X9608096Y-17697952D01*
X9608096Y-17697952D02*
X9608096Y-17621762D01*
X9608096Y-17621762D02*
X9617619Y-17602714D01*
X9617619Y-17602714D02*
X9636667Y-17593190D01*
X9636667Y-17593190D02*
X9674762Y-17593190D01*
X9674762Y-17593190D02*
X9693810Y-17602714D01*
X9693810Y-17602714D02*
X9703334Y-17621762D01*
X9703334Y-17621762D02*
X9703334Y-17640810D01*
X9703334Y-17640810D02*
X9608096Y-17659857D01*
X9779524Y-17717000D02*
X9798572Y-17726524D01*
X9798572Y-17726524D02*
X9836667Y-17726524D01*
X9836667Y-17726524D02*
X9855715Y-17717000D01*
X9855715Y-17717000D02*
X9865239Y-17697952D01*
X9865239Y-17697952D02*
X9865239Y-17688429D01*
X9865239Y-17688429D02*
X9855715Y-17669381D01*
X9855715Y-17669381D02*
X9836667Y-17659857D01*
X9836667Y-17659857D02*
X9808096Y-17659857D01*
X9808096Y-17659857D02*
X9789048Y-17650333D01*
X9789048Y-17650333D02*
X9779524Y-17631286D01*
X9779524Y-17631286D02*
X9779524Y-17621762D01*
X9779524Y-17621762D02*
X9789048Y-17602714D01*
X9789048Y-17602714D02*
X9808096Y-17593190D01*
X9808096Y-17593190D02*
X9836667Y-17593190D01*
X9836667Y-17593190D02*
X9855715Y-17602714D01*
X10103334Y-17650333D02*
X10255715Y-17650333D01*
X10179524Y-17726524D02*
X10179524Y-17574143D01*
X10493810Y-17545571D02*
X10503334Y-17536048D01*
X10503334Y-17536048D02*
X10522381Y-17526524D01*
X10522381Y-17526524D02*
X10570001Y-17526524D01*
X10570001Y-17526524D02*
X10589048Y-17536048D01*
X10589048Y-17536048D02*
X10598572Y-17545571D01*
X10598572Y-17545571D02*
X10608096Y-17564619D01*
X10608096Y-17564619D02*
X10608096Y-17583667D01*
X10608096Y-17583667D02*
X10598572Y-17612238D01*
X10598572Y-17612238D02*
X10484286Y-17726524D01*
X10484286Y-17726524D02*
X10608096Y-17726524D01*
X10836667Y-17717000D02*
X10855715Y-17726524D01*
X10855715Y-17726524D02*
X10893810Y-17726524D01*
X10893810Y-17726524D02*
X10912858Y-17717000D01*
X10912858Y-17717000D02*
X10922382Y-17697952D01*
X10922382Y-17697952D02*
X10922382Y-17688429D01*
X10922382Y-17688429D02*
X10912858Y-17669381D01*
X10912858Y-17669381D02*
X10893810Y-17659857D01*
X10893810Y-17659857D02*
X10865239Y-17659857D01*
X10865239Y-17659857D02*
X10846191Y-17650333D01*
X10846191Y-17650333D02*
X10836667Y-17631286D01*
X10836667Y-17631286D02*
X10836667Y-17621762D01*
X10836667Y-17621762D02*
X10846191Y-17602714D01*
X10846191Y-17602714D02*
X10865239Y-17593190D01*
X10865239Y-17593190D02*
X10893810Y-17593190D01*
X10893810Y-17593190D02*
X10912858Y-17602714D01*
X11036667Y-17726524D02*
X11017620Y-17717000D01*
X11017620Y-17717000D02*
X11008096Y-17697952D01*
X11008096Y-17697952D02*
X11008096Y-17526524D01*
X11141429Y-17726524D02*
X11122382Y-17717000D01*
X11122382Y-17717000D02*
X11112858Y-17707476D01*
X11112858Y-17707476D02*
X11103334Y-17688429D01*
X11103334Y-17688429D02*
X11103334Y-17631286D01*
X11103334Y-17631286D02*
X11112858Y-17612238D01*
X11112858Y-17612238D02*
X11122382Y-17602714D01*
X11122382Y-17602714D02*
X11141429Y-17593190D01*
X11141429Y-17593190D02*
X11170001Y-17593190D01*
X11170001Y-17593190D02*
X11189048Y-17602714D01*
X11189048Y-17602714D02*
X11198572Y-17612238D01*
X11198572Y-17612238D02*
X11208096Y-17631286D01*
X11208096Y-17631286D02*
X11208096Y-17688429D01*
X11208096Y-17688429D02*
X11198572Y-17707476D01*
X11198572Y-17707476D02*
X11189048Y-17717000D01*
X11189048Y-17717000D02*
X11170001Y-17726524D01*
X11170001Y-17726524D02*
X11141429Y-17726524D01*
X11265239Y-17593190D02*
X11341429Y-17593190D01*
X11293810Y-17526524D02*
X11293810Y-17697952D01*
X11293810Y-17697952D02*
X11303334Y-17717000D01*
X11303334Y-17717000D02*
X11322381Y-17726524D01*
X11322381Y-17726524D02*
X11341429Y-17726524D01*
X11398572Y-17717000D02*
X11417620Y-17726524D01*
X11417620Y-17726524D02*
X11455715Y-17726524D01*
X11455715Y-17726524D02*
X11474762Y-17717000D01*
X11474762Y-17717000D02*
X11484286Y-17697952D01*
X11484286Y-17697952D02*
X11484286Y-17688429D01*
X11484286Y-17688429D02*
X11474762Y-17669381D01*
X11474762Y-17669381D02*
X11455715Y-17659857D01*
X11455715Y-17659857D02*
X11427143Y-17659857D01*
X11427143Y-17659857D02*
X11408096Y-17650333D01*
X11408096Y-17650333D02*
X11398572Y-17631286D01*
X11398572Y-17631286D02*
X11398572Y-17621762D01*
X11398572Y-17621762D02*
X11408096Y-17602714D01*
X11408096Y-17602714D02*
X11427143Y-17593190D01*
X11427143Y-17593190D02*
X11455715Y-17593190D01*
X11455715Y-17593190D02*
X11474762Y-17602714D01*
X11550953Y-17802714D02*
X11560477Y-17793190D01*
X11560477Y-17793190D02*
X11579524Y-17764619D01*
X11579524Y-17764619D02*
X11589048Y-17745571D01*
X11589048Y-17745571D02*
X11598572Y-17717000D01*
X11598572Y-17717000D02*
X11608096Y-17669381D01*
X11608096Y-17669381D02*
X11608096Y-17631286D01*
X11608096Y-17631286D02*
X11598572Y-17583667D01*
X11598572Y-17583667D02*
X11589048Y-17555095D01*
X11589048Y-17555095D02*
X11579524Y-17536048D01*
X11579524Y-17536048D02*
X11560477Y-17507476D01*
X11560477Y-17507476D02*
X11550953Y-17497952D01*
D14*
X5142500Y-17870500D02*
X5142500Y-17925500D01*
X5115000Y-17898000D02*
X5170000Y-17898000D01*
D11*
X5455714Y-17790524D02*
X5474762Y-17790524D01*
X5474762Y-17790524D02*
X5493810Y-17800048D01*
X5493810Y-17800048D02*
X5503333Y-17809571D01*
X5503333Y-17809571D02*
X5512857Y-17828619D01*
X5512857Y-17828619D02*
X5522381Y-17866714D01*
X5522381Y-17866714D02*
X5522381Y-17914333D01*
X5522381Y-17914333D02*
X5512857Y-17952429D01*
X5512857Y-17952429D02*
X5503333Y-17971476D01*
X5503333Y-17971476D02*
X5493810Y-17981000D01*
X5493810Y-17981000D02*
X5474762Y-17990524D01*
X5474762Y-17990524D02*
X5455714Y-17990524D01*
X5455714Y-17990524D02*
X5436667Y-17981000D01*
X5436667Y-17981000D02*
X5427143Y-17971476D01*
X5427143Y-17971476D02*
X5417619Y-17952429D01*
X5417619Y-17952429D02*
X5408095Y-17914333D01*
X5408095Y-17914333D02*
X5408095Y-17866714D01*
X5408095Y-17866714D02*
X5417619Y-17828619D01*
X5417619Y-17828619D02*
X5427143Y-17809571D01*
X5427143Y-17809571D02*
X5436667Y-17800048D01*
X5436667Y-17800048D02*
X5455714Y-17790524D01*
X5608095Y-17971476D02*
X5617619Y-17981000D01*
X5617619Y-17981000D02*
X5608095Y-17990524D01*
X5608095Y-17990524D02*
X5598571Y-17981000D01*
X5598571Y-17981000D02*
X5608095Y-17971476D01*
X5608095Y-17971476D02*
X5608095Y-17990524D01*
X5798571Y-17790524D02*
X5703333Y-17790524D01*
X5703333Y-17790524D02*
X5693809Y-17885762D01*
X5693809Y-17885762D02*
X5703333Y-17876238D01*
X5703333Y-17876238D02*
X5722381Y-17866714D01*
X5722381Y-17866714D02*
X5770000Y-17866714D01*
X5770000Y-17866714D02*
X5789048Y-17876238D01*
X5789048Y-17876238D02*
X5798571Y-17885762D01*
X5798571Y-17885762D02*
X5808095Y-17904810D01*
X5808095Y-17904810D02*
X5808095Y-17952429D01*
X5808095Y-17952429D02*
X5798571Y-17971476D01*
X5798571Y-17971476D02*
X5789048Y-17981000D01*
X5789048Y-17981000D02*
X5770000Y-17990524D01*
X5770000Y-17990524D02*
X5722381Y-17990524D01*
X5722381Y-17990524D02*
X5703333Y-17981000D01*
X5703333Y-17981000D02*
X5693809Y-17971476D01*
X5989048Y-17790524D02*
X5893809Y-17790524D01*
X5893809Y-17790524D02*
X5884286Y-17885762D01*
X5884286Y-17885762D02*
X5893809Y-17876238D01*
X5893809Y-17876238D02*
X5912857Y-17866714D01*
X5912857Y-17866714D02*
X5960476Y-17866714D01*
X5960476Y-17866714D02*
X5979524Y-17876238D01*
X5979524Y-17876238D02*
X5989048Y-17885762D01*
X5989048Y-17885762D02*
X5998571Y-17904810D01*
X5998571Y-17904810D02*
X5998571Y-17952429D01*
X5998571Y-17952429D02*
X5989048Y-17971476D01*
X5989048Y-17971476D02*
X5979524Y-17981000D01*
X5979524Y-17981000D02*
X5960476Y-17990524D01*
X5960476Y-17990524D02*
X5912857Y-17990524D01*
X5912857Y-17990524D02*
X5893809Y-17981000D01*
X5893809Y-17981000D02*
X5884286Y-17971476D01*
X6122381Y-17790524D02*
X6141429Y-17790524D01*
X6141429Y-17790524D02*
X6160476Y-17800048D01*
X6160476Y-17800048D02*
X6170000Y-17809571D01*
X6170000Y-17809571D02*
X6179524Y-17828619D01*
X6179524Y-17828619D02*
X6189048Y-17866714D01*
X6189048Y-17866714D02*
X6189048Y-17914333D01*
X6189048Y-17914333D02*
X6179524Y-17952429D01*
X6179524Y-17952429D02*
X6170000Y-17971476D01*
X6170000Y-17971476D02*
X6160476Y-17981000D01*
X6160476Y-17981000D02*
X6141429Y-17990524D01*
X6141429Y-17990524D02*
X6122381Y-17990524D01*
X6122381Y-17990524D02*
X6103333Y-17981000D01*
X6103333Y-17981000D02*
X6093809Y-17971476D01*
X6093809Y-17971476D02*
X6084286Y-17952429D01*
X6084286Y-17952429D02*
X6074762Y-17914333D01*
X6074762Y-17914333D02*
X6074762Y-17866714D01*
X6074762Y-17866714D02*
X6084286Y-17828619D01*
X6084286Y-17828619D02*
X6093809Y-17809571D01*
X6093809Y-17809571D02*
X6103333Y-17800048D01*
X6103333Y-17800048D02*
X6122381Y-17790524D01*
X6274762Y-17990524D02*
X6274762Y-17857190D01*
X6274762Y-17876238D02*
X6284286Y-17866714D01*
X6284286Y-17866714D02*
X6303333Y-17857190D01*
X6303333Y-17857190D02*
X6331905Y-17857190D01*
X6331905Y-17857190D02*
X6350952Y-17866714D01*
X6350952Y-17866714D02*
X6360476Y-17885762D01*
X6360476Y-17885762D02*
X6360476Y-17990524D01*
X6360476Y-17885762D02*
X6370000Y-17866714D01*
X6370000Y-17866714D02*
X6389048Y-17857190D01*
X6389048Y-17857190D02*
X6417619Y-17857190D01*
X6417619Y-17857190D02*
X6436667Y-17866714D01*
X6436667Y-17866714D02*
X6446190Y-17885762D01*
X6446190Y-17885762D02*
X6446190Y-17990524D01*
X6541429Y-17990524D02*
X6541429Y-17857190D01*
X6541429Y-17876238D02*
X6550952Y-17866714D01*
X6550952Y-17866714D02*
X6570000Y-17857190D01*
X6570000Y-17857190D02*
X6598571Y-17857190D01*
X6598571Y-17857190D02*
X6617619Y-17866714D01*
X6617619Y-17866714D02*
X6627143Y-17885762D01*
X6627143Y-17885762D02*
X6627143Y-17990524D01*
X6627143Y-17885762D02*
X6636667Y-17866714D01*
X6636667Y-17866714D02*
X6655714Y-17857190D01*
X6655714Y-17857190D02*
X6684286Y-17857190D01*
X6684286Y-17857190D02*
X6703333Y-17866714D01*
X6703333Y-17866714D02*
X6712857Y-17885762D01*
X6712857Y-17885762D02*
X6712857Y-17990524D01*
X7103333Y-17781000D02*
X6931905Y-18038143D01*
X7360476Y-17790524D02*
X7379524Y-17790524D01*
X7379524Y-17790524D02*
X7398572Y-17800048D01*
X7398572Y-17800048D02*
X7408095Y-17809571D01*
X7408095Y-17809571D02*
X7417619Y-17828619D01*
X7417619Y-17828619D02*
X7427143Y-17866714D01*
X7427143Y-17866714D02*
X7427143Y-17914333D01*
X7427143Y-17914333D02*
X7417619Y-17952429D01*
X7417619Y-17952429D02*
X7408095Y-17971476D01*
X7408095Y-17971476D02*
X7398572Y-17981000D01*
X7398572Y-17981000D02*
X7379524Y-17990524D01*
X7379524Y-17990524D02*
X7360476Y-17990524D01*
X7360476Y-17990524D02*
X7341429Y-17981000D01*
X7341429Y-17981000D02*
X7331905Y-17971476D01*
X7331905Y-17971476D02*
X7322381Y-17952429D01*
X7322381Y-17952429D02*
X7312857Y-17914333D01*
X7312857Y-17914333D02*
X7312857Y-17866714D01*
X7312857Y-17866714D02*
X7322381Y-17828619D01*
X7322381Y-17828619D02*
X7331905Y-17809571D01*
X7331905Y-17809571D02*
X7341429Y-17800048D01*
X7341429Y-17800048D02*
X7360476Y-17790524D01*
X7512857Y-17971476D02*
X7522381Y-17981000D01*
X7522381Y-17981000D02*
X7512857Y-17990524D01*
X7512857Y-17990524D02*
X7503333Y-17981000D01*
X7503333Y-17981000D02*
X7512857Y-17971476D01*
X7512857Y-17971476D02*
X7512857Y-17990524D01*
X7646191Y-17790524D02*
X7665238Y-17790524D01*
X7665238Y-17790524D02*
X7684286Y-17800048D01*
X7684286Y-17800048D02*
X7693810Y-17809571D01*
X7693810Y-17809571D02*
X7703333Y-17828619D01*
X7703333Y-17828619D02*
X7712857Y-17866714D01*
X7712857Y-17866714D02*
X7712857Y-17914333D01*
X7712857Y-17914333D02*
X7703333Y-17952429D01*
X7703333Y-17952429D02*
X7693810Y-17971476D01*
X7693810Y-17971476D02*
X7684286Y-17981000D01*
X7684286Y-17981000D02*
X7665238Y-17990524D01*
X7665238Y-17990524D02*
X7646191Y-17990524D01*
X7646191Y-17990524D02*
X7627143Y-17981000D01*
X7627143Y-17981000D02*
X7617619Y-17971476D01*
X7617619Y-17971476D02*
X7608095Y-17952429D01*
X7608095Y-17952429D02*
X7598572Y-17914333D01*
X7598572Y-17914333D02*
X7598572Y-17866714D01*
X7598572Y-17866714D02*
X7608095Y-17828619D01*
X7608095Y-17828619D02*
X7617619Y-17809571D01*
X7617619Y-17809571D02*
X7627143Y-17800048D01*
X7627143Y-17800048D02*
X7646191Y-17790524D01*
X7789048Y-17809571D02*
X7798572Y-17800048D01*
X7798572Y-17800048D02*
X7817619Y-17790524D01*
X7817619Y-17790524D02*
X7865238Y-17790524D01*
X7865238Y-17790524D02*
X7884286Y-17800048D01*
X7884286Y-17800048D02*
X7893810Y-17809571D01*
X7893810Y-17809571D02*
X7903333Y-17828619D01*
X7903333Y-17828619D02*
X7903333Y-17847667D01*
X7903333Y-17847667D02*
X7893810Y-17876238D01*
X7893810Y-17876238D02*
X7779524Y-17990524D01*
X7779524Y-17990524D02*
X7903333Y-17990524D01*
X8093810Y-17990524D02*
X7979524Y-17990524D01*
X8036667Y-17990524D02*
X8036667Y-17790524D01*
X8036667Y-17790524D02*
X8017619Y-17819095D01*
X8017619Y-17819095D02*
X7998572Y-17838143D01*
X7998572Y-17838143D02*
X7979524Y-17847667D01*
X8160476Y-17790524D02*
X8293810Y-17790524D01*
X8293810Y-17790524D02*
X8208095Y-17990524D01*
X8360476Y-17790524D02*
X8360476Y-17828619D01*
X8436667Y-17790524D02*
X8436667Y-17828619D01*
X8731905Y-18066714D02*
X8722381Y-18057190D01*
X8722381Y-18057190D02*
X8703334Y-18028619D01*
X8703334Y-18028619D02*
X8693810Y-18009571D01*
X8693810Y-18009571D02*
X8684286Y-17981000D01*
X8684286Y-17981000D02*
X8674762Y-17933381D01*
X8674762Y-17933381D02*
X8674762Y-17895286D01*
X8674762Y-17895286D02*
X8684286Y-17847667D01*
X8684286Y-17847667D02*
X8693810Y-17819095D01*
X8693810Y-17819095D02*
X8703334Y-17800048D01*
X8703334Y-17800048D02*
X8722381Y-17771476D01*
X8722381Y-17771476D02*
X8731905Y-17761952D01*
X8846191Y-17790524D02*
X8865238Y-17790524D01*
X8865238Y-17790524D02*
X8884286Y-17800048D01*
X8884286Y-17800048D02*
X8893810Y-17809571D01*
X8893810Y-17809571D02*
X8903334Y-17828619D01*
X8903334Y-17828619D02*
X8912857Y-17866714D01*
X8912857Y-17866714D02*
X8912857Y-17914333D01*
X8912857Y-17914333D02*
X8903334Y-17952429D01*
X8903334Y-17952429D02*
X8893810Y-17971476D01*
X8893810Y-17971476D02*
X8884286Y-17981000D01*
X8884286Y-17981000D02*
X8865238Y-17990524D01*
X8865238Y-17990524D02*
X8846191Y-17990524D01*
X8846191Y-17990524D02*
X8827143Y-17981000D01*
X8827143Y-17981000D02*
X8817619Y-17971476D01*
X8817619Y-17971476D02*
X8808096Y-17952429D01*
X8808096Y-17952429D02*
X8798572Y-17914333D01*
X8798572Y-17914333D02*
X8798572Y-17866714D01*
X8798572Y-17866714D02*
X8808096Y-17828619D01*
X8808096Y-17828619D02*
X8817619Y-17809571D01*
X8817619Y-17809571D02*
X8827143Y-17800048D01*
X8827143Y-17800048D02*
X8846191Y-17790524D01*
X9150953Y-17990524D02*
X9150953Y-17790524D01*
X9236667Y-17990524D02*
X9236667Y-17885762D01*
X9236667Y-17885762D02*
X9227143Y-17866714D01*
X9227143Y-17866714D02*
X9208096Y-17857190D01*
X9208096Y-17857190D02*
X9179524Y-17857190D01*
X9179524Y-17857190D02*
X9160477Y-17866714D01*
X9160477Y-17866714D02*
X9150953Y-17876238D01*
X9360477Y-17990524D02*
X9341429Y-17981000D01*
X9341429Y-17981000D02*
X9331905Y-17971476D01*
X9331905Y-17971476D02*
X9322381Y-17952429D01*
X9322381Y-17952429D02*
X9322381Y-17895286D01*
X9322381Y-17895286D02*
X9331905Y-17876238D01*
X9331905Y-17876238D02*
X9341429Y-17866714D01*
X9341429Y-17866714D02*
X9360477Y-17857190D01*
X9360477Y-17857190D02*
X9389048Y-17857190D01*
X9389048Y-17857190D02*
X9408096Y-17866714D01*
X9408096Y-17866714D02*
X9417619Y-17876238D01*
X9417619Y-17876238D02*
X9427143Y-17895286D01*
X9427143Y-17895286D02*
X9427143Y-17952429D01*
X9427143Y-17952429D02*
X9417619Y-17971476D01*
X9417619Y-17971476D02*
X9408096Y-17981000D01*
X9408096Y-17981000D02*
X9389048Y-17990524D01*
X9389048Y-17990524D02*
X9360477Y-17990524D01*
X9541429Y-17990524D02*
X9522381Y-17981000D01*
X9522381Y-17981000D02*
X9512858Y-17961952D01*
X9512858Y-17961952D02*
X9512858Y-17790524D01*
X9693810Y-17981000D02*
X9674762Y-17990524D01*
X9674762Y-17990524D02*
X9636667Y-17990524D01*
X9636667Y-17990524D02*
X9617619Y-17981000D01*
X9617619Y-17981000D02*
X9608096Y-17961952D01*
X9608096Y-17961952D02*
X9608096Y-17885762D01*
X9608096Y-17885762D02*
X9617619Y-17866714D01*
X9617619Y-17866714D02*
X9636667Y-17857190D01*
X9636667Y-17857190D02*
X9674762Y-17857190D01*
X9674762Y-17857190D02*
X9693810Y-17866714D01*
X9693810Y-17866714D02*
X9703334Y-17885762D01*
X9703334Y-17885762D02*
X9703334Y-17904810D01*
X9703334Y-17904810D02*
X9608096Y-17923857D01*
X9779524Y-17981000D02*
X9798572Y-17990524D01*
X9798572Y-17990524D02*
X9836667Y-17990524D01*
X9836667Y-17990524D02*
X9855715Y-17981000D01*
X9855715Y-17981000D02*
X9865239Y-17961952D01*
X9865239Y-17961952D02*
X9865239Y-17952429D01*
X9865239Y-17952429D02*
X9855715Y-17933381D01*
X9855715Y-17933381D02*
X9836667Y-17923857D01*
X9836667Y-17923857D02*
X9808096Y-17923857D01*
X9808096Y-17923857D02*
X9789048Y-17914333D01*
X9789048Y-17914333D02*
X9779524Y-17895286D01*
X9779524Y-17895286D02*
X9779524Y-17885762D01*
X9779524Y-17885762D02*
X9789048Y-17866714D01*
X9789048Y-17866714D02*
X9808096Y-17857190D01*
X9808096Y-17857190D02*
X9836667Y-17857190D01*
X9836667Y-17857190D02*
X9855715Y-17866714D01*
X10103334Y-17914333D02*
X10255715Y-17914333D01*
X10179524Y-17990524D02*
X10179524Y-17838143D01*
X10493810Y-17809571D02*
X10503334Y-17800048D01*
X10503334Y-17800048D02*
X10522381Y-17790524D01*
X10522381Y-17790524D02*
X10570001Y-17790524D01*
X10570001Y-17790524D02*
X10589048Y-17800048D01*
X10589048Y-17800048D02*
X10598572Y-17809571D01*
X10598572Y-17809571D02*
X10608096Y-17828619D01*
X10608096Y-17828619D02*
X10608096Y-17847667D01*
X10608096Y-17847667D02*
X10598572Y-17876238D01*
X10598572Y-17876238D02*
X10484286Y-17990524D01*
X10484286Y-17990524D02*
X10608096Y-17990524D01*
X10836667Y-17981000D02*
X10855715Y-17990524D01*
X10855715Y-17990524D02*
X10893810Y-17990524D01*
X10893810Y-17990524D02*
X10912858Y-17981000D01*
X10912858Y-17981000D02*
X10922382Y-17961952D01*
X10922382Y-17961952D02*
X10922382Y-17952429D01*
X10922382Y-17952429D02*
X10912858Y-17933381D01*
X10912858Y-17933381D02*
X10893810Y-17923857D01*
X10893810Y-17923857D02*
X10865239Y-17923857D01*
X10865239Y-17923857D02*
X10846191Y-17914333D01*
X10846191Y-17914333D02*
X10836667Y-17895286D01*
X10836667Y-17895286D02*
X10836667Y-17885762D01*
X10836667Y-17885762D02*
X10846191Y-17866714D01*
X10846191Y-17866714D02*
X10865239Y-17857190D01*
X10865239Y-17857190D02*
X10893810Y-17857190D01*
X10893810Y-17857190D02*
X10912858Y-17866714D01*
X11036667Y-17990524D02*
X11017620Y-17981000D01*
X11017620Y-17981000D02*
X11008096Y-17961952D01*
X11008096Y-17961952D02*
X11008096Y-17790524D01*
X11141429Y-17990524D02*
X11122382Y-17981000D01*
X11122382Y-17981000D02*
X11112858Y-17971476D01*
X11112858Y-17971476D02*
X11103334Y-17952429D01*
X11103334Y-17952429D02*
X11103334Y-17895286D01*
X11103334Y-17895286D02*
X11112858Y-17876238D01*
X11112858Y-17876238D02*
X11122382Y-17866714D01*
X11122382Y-17866714D02*
X11141429Y-17857190D01*
X11141429Y-17857190D02*
X11170001Y-17857190D01*
X11170001Y-17857190D02*
X11189048Y-17866714D01*
X11189048Y-17866714D02*
X11198572Y-17876238D01*
X11198572Y-17876238D02*
X11208096Y-17895286D01*
X11208096Y-17895286D02*
X11208096Y-17952429D01*
X11208096Y-17952429D02*
X11198572Y-17971476D01*
X11198572Y-17971476D02*
X11189048Y-17981000D01*
X11189048Y-17981000D02*
X11170001Y-17990524D01*
X11170001Y-17990524D02*
X11141429Y-17990524D01*
X11265239Y-17857190D02*
X11341429Y-17857190D01*
X11293810Y-17790524D02*
X11293810Y-17961952D01*
X11293810Y-17961952D02*
X11303334Y-17981000D01*
X11303334Y-17981000D02*
X11322381Y-17990524D01*
X11322381Y-17990524D02*
X11341429Y-17990524D01*
X11398572Y-17981000D02*
X11417620Y-17990524D01*
X11417620Y-17990524D02*
X11455715Y-17990524D01*
X11455715Y-17990524D02*
X11474762Y-17981000D01*
X11474762Y-17981000D02*
X11484286Y-17961952D01*
X11484286Y-17961952D02*
X11484286Y-17952429D01*
X11484286Y-17952429D02*
X11474762Y-17933381D01*
X11474762Y-17933381D02*
X11455715Y-17923857D01*
X11455715Y-17923857D02*
X11427143Y-17923857D01*
X11427143Y-17923857D02*
X11408096Y-17914333D01*
X11408096Y-17914333D02*
X11398572Y-17895286D01*
X11398572Y-17895286D02*
X11398572Y-17885762D01*
X11398572Y-17885762D02*
X11408096Y-17866714D01*
X11408096Y-17866714D02*
X11427143Y-17857190D01*
X11427143Y-17857190D02*
X11455715Y-17857190D01*
X11455715Y-17857190D02*
X11474762Y-17866714D01*
X11550953Y-18066714D02*
X11560477Y-18057190D01*
X11560477Y-18057190D02*
X11579524Y-18028619D01*
X11579524Y-18028619D02*
X11589048Y-18009571D01*
X11589048Y-18009571D02*
X11598572Y-17981000D01*
X11598572Y-17981000D02*
X11608096Y-17933381D01*
X11608096Y-17933381D02*
X11608096Y-17895286D01*
X11608096Y-17895286D02*
X11598572Y-17847667D01*
X11598572Y-17847667D02*
X11589048Y-17819095D01*
X11589048Y-17819095D02*
X11579524Y-17800048D01*
X11579524Y-17800048D02*
X11560477Y-17771476D01*
X11560477Y-17771476D02*
X11550953Y-17761952D01*
D15*
X5159749Y-18186749D02*
X5159749Y-18137251D01*
X5110251Y-18137251D01*
X5110251Y-18186749D01*
X5159749Y-18186749D01*
D11*
X5455714Y-18054524D02*
X5474762Y-18054524D01*
X5474762Y-18054524D02*
X5493810Y-18064048D01*
X5493810Y-18064048D02*
X5503333Y-18073571D01*
X5503333Y-18073571D02*
X5512857Y-18092619D01*
X5512857Y-18092619D02*
X5522381Y-18130714D01*
X5522381Y-18130714D02*
X5522381Y-18178333D01*
X5522381Y-18178333D02*
X5512857Y-18216429D01*
X5512857Y-18216429D02*
X5503333Y-18235476D01*
X5503333Y-18235476D02*
X5493810Y-18245000D01*
X5493810Y-18245000D02*
X5474762Y-18254524D01*
X5474762Y-18254524D02*
X5455714Y-18254524D01*
X5455714Y-18254524D02*
X5436667Y-18245000D01*
X5436667Y-18245000D02*
X5427143Y-18235476D01*
X5427143Y-18235476D02*
X5417619Y-18216429D01*
X5417619Y-18216429D02*
X5408095Y-18178333D01*
X5408095Y-18178333D02*
X5408095Y-18130714D01*
X5408095Y-18130714D02*
X5417619Y-18092619D01*
X5417619Y-18092619D02*
X5427143Y-18073571D01*
X5427143Y-18073571D02*
X5436667Y-18064048D01*
X5436667Y-18064048D02*
X5455714Y-18054524D01*
X5608095Y-18235476D02*
X5617619Y-18245000D01*
X5617619Y-18245000D02*
X5608095Y-18254524D01*
X5608095Y-18254524D02*
X5598571Y-18245000D01*
X5598571Y-18245000D02*
X5608095Y-18235476D01*
X5608095Y-18235476D02*
X5608095Y-18254524D01*
X5684286Y-18054524D02*
X5817619Y-18054524D01*
X5817619Y-18054524D02*
X5731905Y-18254524D01*
X5931905Y-18054524D02*
X5950952Y-18054524D01*
X5950952Y-18054524D02*
X5970000Y-18064048D01*
X5970000Y-18064048D02*
X5979524Y-18073571D01*
X5979524Y-18073571D02*
X5989048Y-18092619D01*
X5989048Y-18092619D02*
X5998571Y-18130714D01*
X5998571Y-18130714D02*
X5998571Y-18178333D01*
X5998571Y-18178333D02*
X5989048Y-18216429D01*
X5989048Y-18216429D02*
X5979524Y-18235476D01*
X5979524Y-18235476D02*
X5970000Y-18245000D01*
X5970000Y-18245000D02*
X5950952Y-18254524D01*
X5950952Y-18254524D02*
X5931905Y-18254524D01*
X5931905Y-18254524D02*
X5912857Y-18245000D01*
X5912857Y-18245000D02*
X5903333Y-18235476D01*
X5903333Y-18235476D02*
X5893809Y-18216429D01*
X5893809Y-18216429D02*
X5884286Y-18178333D01*
X5884286Y-18178333D02*
X5884286Y-18130714D01*
X5884286Y-18130714D02*
X5893809Y-18092619D01*
X5893809Y-18092619D02*
X5903333Y-18073571D01*
X5903333Y-18073571D02*
X5912857Y-18064048D01*
X5912857Y-18064048D02*
X5931905Y-18054524D01*
X6122381Y-18054524D02*
X6141429Y-18054524D01*
X6141429Y-18054524D02*
X6160476Y-18064048D01*
X6160476Y-18064048D02*
X6170000Y-18073571D01*
X6170000Y-18073571D02*
X6179524Y-18092619D01*
X6179524Y-18092619D02*
X6189048Y-18130714D01*
X6189048Y-18130714D02*
X6189048Y-18178333D01*
X6189048Y-18178333D02*
X6179524Y-18216429D01*
X6179524Y-18216429D02*
X6170000Y-18235476D01*
X6170000Y-18235476D02*
X6160476Y-18245000D01*
X6160476Y-18245000D02*
X6141429Y-18254524D01*
X6141429Y-18254524D02*
X6122381Y-18254524D01*
X6122381Y-18254524D02*
X6103333Y-18245000D01*
X6103333Y-18245000D02*
X6093809Y-18235476D01*
X6093809Y-18235476D02*
X6084286Y-18216429D01*
X6084286Y-18216429D02*
X6074762Y-18178333D01*
X6074762Y-18178333D02*
X6074762Y-18130714D01*
X6074762Y-18130714D02*
X6084286Y-18092619D01*
X6084286Y-18092619D02*
X6093809Y-18073571D01*
X6093809Y-18073571D02*
X6103333Y-18064048D01*
X6103333Y-18064048D02*
X6122381Y-18054524D01*
X6274762Y-18254524D02*
X6274762Y-18121190D01*
X6274762Y-18140238D02*
X6284286Y-18130714D01*
X6284286Y-18130714D02*
X6303333Y-18121190D01*
X6303333Y-18121190D02*
X6331905Y-18121190D01*
X6331905Y-18121190D02*
X6350952Y-18130714D01*
X6350952Y-18130714D02*
X6360476Y-18149762D01*
X6360476Y-18149762D02*
X6360476Y-18254524D01*
X6360476Y-18149762D02*
X6370000Y-18130714D01*
X6370000Y-18130714D02*
X6389048Y-18121190D01*
X6389048Y-18121190D02*
X6417619Y-18121190D01*
X6417619Y-18121190D02*
X6436667Y-18130714D01*
X6436667Y-18130714D02*
X6446190Y-18149762D01*
X6446190Y-18149762D02*
X6446190Y-18254524D01*
X6541429Y-18254524D02*
X6541429Y-18121190D01*
X6541429Y-18140238D02*
X6550952Y-18130714D01*
X6550952Y-18130714D02*
X6570000Y-18121190D01*
X6570000Y-18121190D02*
X6598571Y-18121190D01*
X6598571Y-18121190D02*
X6617619Y-18130714D01*
X6617619Y-18130714D02*
X6627143Y-18149762D01*
X6627143Y-18149762D02*
X6627143Y-18254524D01*
X6627143Y-18149762D02*
X6636667Y-18130714D01*
X6636667Y-18130714D02*
X6655714Y-18121190D01*
X6655714Y-18121190D02*
X6684286Y-18121190D01*
X6684286Y-18121190D02*
X6703333Y-18130714D01*
X6703333Y-18130714D02*
X6712857Y-18149762D01*
X6712857Y-18149762D02*
X6712857Y-18254524D01*
X7103333Y-18045000D02*
X6931905Y-18302143D01*
X7360476Y-18054524D02*
X7379524Y-18054524D01*
X7379524Y-18054524D02*
X7398572Y-18064048D01*
X7398572Y-18064048D02*
X7408095Y-18073571D01*
X7408095Y-18073571D02*
X7417619Y-18092619D01*
X7417619Y-18092619D02*
X7427143Y-18130714D01*
X7427143Y-18130714D02*
X7427143Y-18178333D01*
X7427143Y-18178333D02*
X7417619Y-18216429D01*
X7417619Y-18216429D02*
X7408095Y-18235476D01*
X7408095Y-18235476D02*
X7398572Y-18245000D01*
X7398572Y-18245000D02*
X7379524Y-18254524D01*
X7379524Y-18254524D02*
X7360476Y-18254524D01*
X7360476Y-18254524D02*
X7341429Y-18245000D01*
X7341429Y-18245000D02*
X7331905Y-18235476D01*
X7331905Y-18235476D02*
X7322381Y-18216429D01*
X7322381Y-18216429D02*
X7312857Y-18178333D01*
X7312857Y-18178333D02*
X7312857Y-18130714D01*
X7312857Y-18130714D02*
X7322381Y-18092619D01*
X7322381Y-18092619D02*
X7331905Y-18073571D01*
X7331905Y-18073571D02*
X7341429Y-18064048D01*
X7341429Y-18064048D02*
X7360476Y-18054524D01*
X7512857Y-18235476D02*
X7522381Y-18245000D01*
X7522381Y-18245000D02*
X7512857Y-18254524D01*
X7512857Y-18254524D02*
X7503333Y-18245000D01*
X7503333Y-18245000D02*
X7512857Y-18235476D01*
X7512857Y-18235476D02*
X7512857Y-18254524D01*
X7646191Y-18054524D02*
X7665238Y-18054524D01*
X7665238Y-18054524D02*
X7684286Y-18064048D01*
X7684286Y-18064048D02*
X7693810Y-18073571D01*
X7693810Y-18073571D02*
X7703333Y-18092619D01*
X7703333Y-18092619D02*
X7712857Y-18130714D01*
X7712857Y-18130714D02*
X7712857Y-18178333D01*
X7712857Y-18178333D02*
X7703333Y-18216429D01*
X7703333Y-18216429D02*
X7693810Y-18235476D01*
X7693810Y-18235476D02*
X7684286Y-18245000D01*
X7684286Y-18245000D02*
X7665238Y-18254524D01*
X7665238Y-18254524D02*
X7646191Y-18254524D01*
X7646191Y-18254524D02*
X7627143Y-18245000D01*
X7627143Y-18245000D02*
X7617619Y-18235476D01*
X7617619Y-18235476D02*
X7608095Y-18216429D01*
X7608095Y-18216429D02*
X7598572Y-18178333D01*
X7598572Y-18178333D02*
X7598572Y-18130714D01*
X7598572Y-18130714D02*
X7608095Y-18092619D01*
X7608095Y-18092619D02*
X7617619Y-18073571D01*
X7617619Y-18073571D02*
X7627143Y-18064048D01*
X7627143Y-18064048D02*
X7646191Y-18054524D01*
X7789048Y-18073571D02*
X7798572Y-18064048D01*
X7798572Y-18064048D02*
X7817619Y-18054524D01*
X7817619Y-18054524D02*
X7865238Y-18054524D01*
X7865238Y-18054524D02*
X7884286Y-18064048D01*
X7884286Y-18064048D02*
X7893810Y-18073571D01*
X7893810Y-18073571D02*
X7903333Y-18092619D01*
X7903333Y-18092619D02*
X7903333Y-18111667D01*
X7903333Y-18111667D02*
X7893810Y-18140238D01*
X7893810Y-18140238D02*
X7779524Y-18254524D01*
X7779524Y-18254524D02*
X7903333Y-18254524D01*
X7970000Y-18054524D02*
X8103333Y-18054524D01*
X8103333Y-18054524D02*
X8017619Y-18254524D01*
X8265238Y-18054524D02*
X8227143Y-18054524D01*
X8227143Y-18054524D02*
X8208095Y-18064048D01*
X8208095Y-18064048D02*
X8198572Y-18073571D01*
X8198572Y-18073571D02*
X8179524Y-18102143D01*
X8179524Y-18102143D02*
X8170000Y-18140238D01*
X8170000Y-18140238D02*
X8170000Y-18216429D01*
X8170000Y-18216429D02*
X8179524Y-18235476D01*
X8179524Y-18235476D02*
X8189048Y-18245000D01*
X8189048Y-18245000D02*
X8208095Y-18254524D01*
X8208095Y-18254524D02*
X8246191Y-18254524D01*
X8246191Y-18254524D02*
X8265238Y-18245000D01*
X8265238Y-18245000D02*
X8274762Y-18235476D01*
X8274762Y-18235476D02*
X8284286Y-18216429D01*
X8284286Y-18216429D02*
X8284286Y-18168810D01*
X8284286Y-18168810D02*
X8274762Y-18149762D01*
X8274762Y-18149762D02*
X8265238Y-18140238D01*
X8265238Y-18140238D02*
X8246191Y-18130714D01*
X8246191Y-18130714D02*
X8208095Y-18130714D01*
X8208095Y-18130714D02*
X8189048Y-18140238D01*
X8189048Y-18140238D02*
X8179524Y-18149762D01*
X8179524Y-18149762D02*
X8170000Y-18168810D01*
X8360476Y-18054524D02*
X8360476Y-18092619D01*
X8436667Y-18054524D02*
X8436667Y-18092619D01*
X8731905Y-18330714D02*
X8722381Y-18321190D01*
X8722381Y-18321190D02*
X8703334Y-18292619D01*
X8703334Y-18292619D02*
X8693810Y-18273571D01*
X8693810Y-18273571D02*
X8684286Y-18245000D01*
X8684286Y-18245000D02*
X8674762Y-18197381D01*
X8674762Y-18197381D02*
X8674762Y-18159286D01*
X8674762Y-18159286D02*
X8684286Y-18111667D01*
X8684286Y-18111667D02*
X8693810Y-18083095D01*
X8693810Y-18083095D02*
X8703334Y-18064048D01*
X8703334Y-18064048D02*
X8722381Y-18035476D01*
X8722381Y-18035476D02*
X8731905Y-18025952D01*
X8912857Y-18254524D02*
X8798572Y-18254524D01*
X8855715Y-18254524D02*
X8855715Y-18054524D01*
X8855715Y-18054524D02*
X8836667Y-18083095D01*
X8836667Y-18083095D02*
X8817619Y-18102143D01*
X8817619Y-18102143D02*
X8798572Y-18111667D01*
X9036667Y-18054524D02*
X9055715Y-18054524D01*
X9055715Y-18054524D02*
X9074762Y-18064048D01*
X9074762Y-18064048D02*
X9084286Y-18073571D01*
X9084286Y-18073571D02*
X9093810Y-18092619D01*
X9093810Y-18092619D02*
X9103334Y-18130714D01*
X9103334Y-18130714D02*
X9103334Y-18178333D01*
X9103334Y-18178333D02*
X9093810Y-18216429D01*
X9093810Y-18216429D02*
X9084286Y-18235476D01*
X9084286Y-18235476D02*
X9074762Y-18245000D01*
X9074762Y-18245000D02*
X9055715Y-18254524D01*
X9055715Y-18254524D02*
X9036667Y-18254524D01*
X9036667Y-18254524D02*
X9017619Y-18245000D01*
X9017619Y-18245000D02*
X9008096Y-18235476D01*
X9008096Y-18235476D02*
X8998572Y-18216429D01*
X8998572Y-18216429D02*
X8989048Y-18178333D01*
X8989048Y-18178333D02*
X8989048Y-18130714D01*
X8989048Y-18130714D02*
X8998572Y-18092619D01*
X8998572Y-18092619D02*
X9008096Y-18073571D01*
X9008096Y-18073571D02*
X9017619Y-18064048D01*
X9017619Y-18064048D02*
X9036667Y-18054524D01*
X9341429Y-18254524D02*
X9341429Y-18054524D01*
X9427143Y-18254524D02*
X9427143Y-18149762D01*
X9427143Y-18149762D02*
X9417619Y-18130714D01*
X9417619Y-18130714D02*
X9398572Y-18121190D01*
X9398572Y-18121190D02*
X9370000Y-18121190D01*
X9370000Y-18121190D02*
X9350953Y-18130714D01*
X9350953Y-18130714D02*
X9341429Y-18140238D01*
X9550953Y-18254524D02*
X9531905Y-18245000D01*
X9531905Y-18245000D02*
X9522381Y-18235476D01*
X9522381Y-18235476D02*
X9512858Y-18216429D01*
X9512858Y-18216429D02*
X9512858Y-18159286D01*
X9512858Y-18159286D02*
X9522381Y-18140238D01*
X9522381Y-18140238D02*
X9531905Y-18130714D01*
X9531905Y-18130714D02*
X9550953Y-18121190D01*
X9550953Y-18121190D02*
X9579524Y-18121190D01*
X9579524Y-18121190D02*
X9598572Y-18130714D01*
X9598572Y-18130714D02*
X9608096Y-18140238D01*
X9608096Y-18140238D02*
X9617619Y-18159286D01*
X9617619Y-18159286D02*
X9617619Y-18216429D01*
X9617619Y-18216429D02*
X9608096Y-18235476D01*
X9608096Y-18235476D02*
X9598572Y-18245000D01*
X9598572Y-18245000D02*
X9579524Y-18254524D01*
X9579524Y-18254524D02*
X9550953Y-18254524D01*
X9731905Y-18254524D02*
X9712858Y-18245000D01*
X9712858Y-18245000D02*
X9703334Y-18225952D01*
X9703334Y-18225952D02*
X9703334Y-18054524D01*
X9884286Y-18245000D02*
X9865239Y-18254524D01*
X9865239Y-18254524D02*
X9827143Y-18254524D01*
X9827143Y-18254524D02*
X9808096Y-18245000D01*
X9808096Y-18245000D02*
X9798572Y-18225952D01*
X9798572Y-18225952D02*
X9798572Y-18149762D01*
X9798572Y-18149762D02*
X9808096Y-18130714D01*
X9808096Y-18130714D02*
X9827143Y-18121190D01*
X9827143Y-18121190D02*
X9865239Y-18121190D01*
X9865239Y-18121190D02*
X9884286Y-18130714D01*
X9884286Y-18130714D02*
X9893810Y-18149762D01*
X9893810Y-18149762D02*
X9893810Y-18168810D01*
X9893810Y-18168810D02*
X9798572Y-18187857D01*
X9970000Y-18245000D02*
X9989048Y-18254524D01*
X9989048Y-18254524D02*
X10027143Y-18254524D01*
X10027143Y-18254524D02*
X10046191Y-18245000D01*
X10046191Y-18245000D02*
X10055715Y-18225952D01*
X10055715Y-18225952D02*
X10055715Y-18216429D01*
X10055715Y-18216429D02*
X10046191Y-18197381D01*
X10046191Y-18197381D02*
X10027143Y-18187857D01*
X10027143Y-18187857D02*
X9998572Y-18187857D01*
X9998572Y-18187857D02*
X9979524Y-18178333D01*
X9979524Y-18178333D02*
X9970000Y-18159286D01*
X9970000Y-18159286D02*
X9970000Y-18149762D01*
X9970000Y-18149762D02*
X9979524Y-18130714D01*
X9979524Y-18130714D02*
X9998572Y-18121190D01*
X9998572Y-18121190D02*
X10027143Y-18121190D01*
X10027143Y-18121190D02*
X10046191Y-18130714D01*
X10122381Y-18330714D02*
X10131905Y-18321190D01*
X10131905Y-18321190D02*
X10150953Y-18292619D01*
X10150953Y-18292619D02*
X10160477Y-18273571D01*
X10160477Y-18273571D02*
X10170000Y-18245000D01*
X10170000Y-18245000D02*
X10179524Y-18197381D01*
X10179524Y-18197381D02*
X10179524Y-18159286D01*
X10179524Y-18159286D02*
X10170000Y-18111667D01*
X10170000Y-18111667D02*
X10160477Y-18083095D01*
X10160477Y-18083095D02*
X10150953Y-18064048D01*
X10150953Y-18064048D02*
X10131905Y-18035476D01*
X10131905Y-18035476D02*
X10122381Y-18025952D01*
D16*
X5125000Y-18471000D02*
X5170000Y-18426000D01*
X5125000Y-18381000D01*
X5080000Y-18426000D01*
X5125000Y-18471000D01*
D11*
X5455714Y-18318524D02*
X5474762Y-18318524D01*
X5474762Y-18318524D02*
X5493810Y-18328048D01*
X5493810Y-18328048D02*
X5503333Y-18337571D01*
X5503333Y-18337571D02*
X5512857Y-18356619D01*
X5512857Y-18356619D02*
X5522381Y-18394714D01*
X5522381Y-18394714D02*
X5522381Y-18442333D01*
X5522381Y-18442333D02*
X5512857Y-18480429D01*
X5512857Y-18480429D02*
X5503333Y-18499476D01*
X5503333Y-18499476D02*
X5493810Y-18509000D01*
X5493810Y-18509000D02*
X5474762Y-18518524D01*
X5474762Y-18518524D02*
X5455714Y-18518524D01*
X5455714Y-18518524D02*
X5436667Y-18509000D01*
X5436667Y-18509000D02*
X5427143Y-18499476D01*
X5427143Y-18499476D02*
X5417619Y-18480429D01*
X5417619Y-18480429D02*
X5408095Y-18442333D01*
X5408095Y-18442333D02*
X5408095Y-18394714D01*
X5408095Y-18394714D02*
X5417619Y-18356619D01*
X5417619Y-18356619D02*
X5427143Y-18337571D01*
X5427143Y-18337571D02*
X5436667Y-18328048D01*
X5436667Y-18328048D02*
X5455714Y-18318524D01*
X5608095Y-18499476D02*
X5617619Y-18509000D01*
X5617619Y-18509000D02*
X5608095Y-18518524D01*
X5608095Y-18518524D02*
X5598571Y-18509000D01*
X5598571Y-18509000D02*
X5608095Y-18499476D01*
X5608095Y-18499476D02*
X5608095Y-18518524D01*
X5712857Y-18518524D02*
X5750952Y-18518524D01*
X5750952Y-18518524D02*
X5770000Y-18509000D01*
X5770000Y-18509000D02*
X5779524Y-18499476D01*
X5779524Y-18499476D02*
X5798571Y-18470905D01*
X5798571Y-18470905D02*
X5808095Y-18432810D01*
X5808095Y-18432810D02*
X5808095Y-18356619D01*
X5808095Y-18356619D02*
X5798571Y-18337571D01*
X5798571Y-18337571D02*
X5789048Y-18328048D01*
X5789048Y-18328048D02*
X5770000Y-18318524D01*
X5770000Y-18318524D02*
X5731905Y-18318524D01*
X5731905Y-18318524D02*
X5712857Y-18328048D01*
X5712857Y-18328048D02*
X5703333Y-18337571D01*
X5703333Y-18337571D02*
X5693809Y-18356619D01*
X5693809Y-18356619D02*
X5693809Y-18404238D01*
X5693809Y-18404238D02*
X5703333Y-18423286D01*
X5703333Y-18423286D02*
X5712857Y-18432810D01*
X5712857Y-18432810D02*
X5731905Y-18442333D01*
X5731905Y-18442333D02*
X5770000Y-18442333D01*
X5770000Y-18442333D02*
X5789048Y-18432810D01*
X5789048Y-18432810D02*
X5798571Y-18423286D01*
X5798571Y-18423286D02*
X5808095Y-18404238D01*
X5931905Y-18318524D02*
X5950952Y-18318524D01*
X5950952Y-18318524D02*
X5970000Y-18328048D01*
X5970000Y-18328048D02*
X5979524Y-18337571D01*
X5979524Y-18337571D02*
X5989048Y-18356619D01*
X5989048Y-18356619D02*
X5998571Y-18394714D01*
X5998571Y-18394714D02*
X5998571Y-18442333D01*
X5998571Y-18442333D02*
X5989048Y-18480429D01*
X5989048Y-18480429D02*
X5979524Y-18499476D01*
X5979524Y-18499476D02*
X5970000Y-18509000D01*
X5970000Y-18509000D02*
X5950952Y-18518524D01*
X5950952Y-18518524D02*
X5931905Y-18518524D01*
X5931905Y-18518524D02*
X5912857Y-18509000D01*
X5912857Y-18509000D02*
X5903333Y-18499476D01*
X5903333Y-18499476D02*
X5893809Y-18480429D01*
X5893809Y-18480429D02*
X5884286Y-18442333D01*
X5884286Y-18442333D02*
X5884286Y-18394714D01*
X5884286Y-18394714D02*
X5893809Y-18356619D01*
X5893809Y-18356619D02*
X5903333Y-18337571D01*
X5903333Y-18337571D02*
X5912857Y-18328048D01*
X5912857Y-18328048D02*
X5931905Y-18318524D01*
X6122381Y-18318524D02*
X6141429Y-18318524D01*
X6141429Y-18318524D02*
X6160476Y-18328048D01*
X6160476Y-18328048D02*
X6170000Y-18337571D01*
X6170000Y-18337571D02*
X6179524Y-18356619D01*
X6179524Y-18356619D02*
X6189048Y-18394714D01*
X6189048Y-18394714D02*
X6189048Y-18442333D01*
X6189048Y-18442333D02*
X6179524Y-18480429D01*
X6179524Y-18480429D02*
X6170000Y-18499476D01*
X6170000Y-18499476D02*
X6160476Y-18509000D01*
X6160476Y-18509000D02*
X6141429Y-18518524D01*
X6141429Y-18518524D02*
X6122381Y-18518524D01*
X6122381Y-18518524D02*
X6103333Y-18509000D01*
X6103333Y-18509000D02*
X6093809Y-18499476D01*
X6093809Y-18499476D02*
X6084286Y-18480429D01*
X6084286Y-18480429D02*
X6074762Y-18442333D01*
X6074762Y-18442333D02*
X6074762Y-18394714D01*
X6074762Y-18394714D02*
X6084286Y-18356619D01*
X6084286Y-18356619D02*
X6093809Y-18337571D01*
X6093809Y-18337571D02*
X6103333Y-18328048D01*
X6103333Y-18328048D02*
X6122381Y-18318524D01*
X6274762Y-18518524D02*
X6274762Y-18385190D01*
X6274762Y-18404238D02*
X6284286Y-18394714D01*
X6284286Y-18394714D02*
X6303333Y-18385190D01*
X6303333Y-18385190D02*
X6331905Y-18385190D01*
X6331905Y-18385190D02*
X6350952Y-18394714D01*
X6350952Y-18394714D02*
X6360476Y-18413762D01*
X6360476Y-18413762D02*
X6360476Y-18518524D01*
X6360476Y-18413762D02*
X6370000Y-18394714D01*
X6370000Y-18394714D02*
X6389048Y-18385190D01*
X6389048Y-18385190D02*
X6417619Y-18385190D01*
X6417619Y-18385190D02*
X6436667Y-18394714D01*
X6436667Y-18394714D02*
X6446190Y-18413762D01*
X6446190Y-18413762D02*
X6446190Y-18518524D01*
X6541429Y-18518524D02*
X6541429Y-18385190D01*
X6541429Y-18404238D02*
X6550952Y-18394714D01*
X6550952Y-18394714D02*
X6570000Y-18385190D01*
X6570000Y-18385190D02*
X6598571Y-18385190D01*
X6598571Y-18385190D02*
X6617619Y-18394714D01*
X6617619Y-18394714D02*
X6627143Y-18413762D01*
X6627143Y-18413762D02*
X6627143Y-18518524D01*
X6627143Y-18413762D02*
X6636667Y-18394714D01*
X6636667Y-18394714D02*
X6655714Y-18385190D01*
X6655714Y-18385190D02*
X6684286Y-18385190D01*
X6684286Y-18385190D02*
X6703333Y-18394714D01*
X6703333Y-18394714D02*
X6712857Y-18413762D01*
X6712857Y-18413762D02*
X6712857Y-18518524D01*
X7103333Y-18309000D02*
X6931905Y-18566143D01*
X7360476Y-18318524D02*
X7379524Y-18318524D01*
X7379524Y-18318524D02*
X7398572Y-18328048D01*
X7398572Y-18328048D02*
X7408095Y-18337571D01*
X7408095Y-18337571D02*
X7417619Y-18356619D01*
X7417619Y-18356619D02*
X7427143Y-18394714D01*
X7427143Y-18394714D02*
X7427143Y-18442333D01*
X7427143Y-18442333D02*
X7417619Y-18480429D01*
X7417619Y-18480429D02*
X7408095Y-18499476D01*
X7408095Y-18499476D02*
X7398572Y-18509000D01*
X7398572Y-18509000D02*
X7379524Y-18518524D01*
X7379524Y-18518524D02*
X7360476Y-18518524D01*
X7360476Y-18518524D02*
X7341429Y-18509000D01*
X7341429Y-18509000D02*
X7331905Y-18499476D01*
X7331905Y-18499476D02*
X7322381Y-18480429D01*
X7322381Y-18480429D02*
X7312857Y-18442333D01*
X7312857Y-18442333D02*
X7312857Y-18394714D01*
X7312857Y-18394714D02*
X7322381Y-18356619D01*
X7322381Y-18356619D02*
X7331905Y-18337571D01*
X7331905Y-18337571D02*
X7341429Y-18328048D01*
X7341429Y-18328048D02*
X7360476Y-18318524D01*
X7512857Y-18499476D02*
X7522381Y-18509000D01*
X7522381Y-18509000D02*
X7512857Y-18518524D01*
X7512857Y-18518524D02*
X7503333Y-18509000D01*
X7503333Y-18509000D02*
X7512857Y-18499476D01*
X7512857Y-18499476D02*
X7512857Y-18518524D01*
X7646191Y-18318524D02*
X7665238Y-18318524D01*
X7665238Y-18318524D02*
X7684286Y-18328048D01*
X7684286Y-18328048D02*
X7693810Y-18337571D01*
X7693810Y-18337571D02*
X7703333Y-18356619D01*
X7703333Y-18356619D02*
X7712857Y-18394714D01*
X7712857Y-18394714D02*
X7712857Y-18442333D01*
X7712857Y-18442333D02*
X7703333Y-18480429D01*
X7703333Y-18480429D02*
X7693810Y-18499476D01*
X7693810Y-18499476D02*
X7684286Y-18509000D01*
X7684286Y-18509000D02*
X7665238Y-18518524D01*
X7665238Y-18518524D02*
X7646191Y-18518524D01*
X7646191Y-18518524D02*
X7627143Y-18509000D01*
X7627143Y-18509000D02*
X7617619Y-18499476D01*
X7617619Y-18499476D02*
X7608095Y-18480429D01*
X7608095Y-18480429D02*
X7598572Y-18442333D01*
X7598572Y-18442333D02*
X7598572Y-18394714D01*
X7598572Y-18394714D02*
X7608095Y-18356619D01*
X7608095Y-18356619D02*
X7617619Y-18337571D01*
X7617619Y-18337571D02*
X7627143Y-18328048D01*
X7627143Y-18328048D02*
X7646191Y-18318524D01*
X7779524Y-18318524D02*
X7903333Y-18318524D01*
X7903333Y-18318524D02*
X7836667Y-18394714D01*
X7836667Y-18394714D02*
X7865238Y-18394714D01*
X7865238Y-18394714D02*
X7884286Y-18404238D01*
X7884286Y-18404238D02*
X7893810Y-18413762D01*
X7893810Y-18413762D02*
X7903333Y-18432810D01*
X7903333Y-18432810D02*
X7903333Y-18480429D01*
X7903333Y-18480429D02*
X7893810Y-18499476D01*
X7893810Y-18499476D02*
X7884286Y-18509000D01*
X7884286Y-18509000D02*
X7865238Y-18518524D01*
X7865238Y-18518524D02*
X7808095Y-18518524D01*
X7808095Y-18518524D02*
X7789048Y-18509000D01*
X7789048Y-18509000D02*
X7779524Y-18499476D01*
X8084286Y-18318524D02*
X7989048Y-18318524D01*
X7989048Y-18318524D02*
X7979524Y-18413762D01*
X7979524Y-18413762D02*
X7989048Y-18404238D01*
X7989048Y-18404238D02*
X8008095Y-18394714D01*
X8008095Y-18394714D02*
X8055714Y-18394714D01*
X8055714Y-18394714D02*
X8074762Y-18404238D01*
X8074762Y-18404238D02*
X8084286Y-18413762D01*
X8084286Y-18413762D02*
X8093810Y-18432810D01*
X8093810Y-18432810D02*
X8093810Y-18480429D01*
X8093810Y-18480429D02*
X8084286Y-18499476D01*
X8084286Y-18499476D02*
X8074762Y-18509000D01*
X8074762Y-18509000D02*
X8055714Y-18518524D01*
X8055714Y-18518524D02*
X8008095Y-18518524D01*
X8008095Y-18518524D02*
X7989048Y-18509000D01*
X7989048Y-18509000D02*
X7979524Y-18499476D01*
X8265238Y-18385190D02*
X8265238Y-18518524D01*
X8217619Y-18309000D02*
X8170000Y-18451857D01*
X8170000Y-18451857D02*
X8293810Y-18451857D01*
X8360476Y-18318524D02*
X8360476Y-18356619D01*
X8436667Y-18318524D02*
X8436667Y-18356619D01*
X8731905Y-18594714D02*
X8722381Y-18585190D01*
X8722381Y-18585190D02*
X8703334Y-18556619D01*
X8703334Y-18556619D02*
X8693810Y-18537571D01*
X8693810Y-18537571D02*
X8684286Y-18509000D01*
X8684286Y-18509000D02*
X8674762Y-18461381D01*
X8674762Y-18461381D02*
X8674762Y-18423286D01*
X8674762Y-18423286D02*
X8684286Y-18375667D01*
X8684286Y-18375667D02*
X8693810Y-18347095D01*
X8693810Y-18347095D02*
X8703334Y-18328048D01*
X8703334Y-18328048D02*
X8722381Y-18299476D01*
X8722381Y-18299476D02*
X8731905Y-18289952D01*
X8912857Y-18518524D02*
X8798572Y-18518524D01*
X8855715Y-18518524D02*
X8855715Y-18318524D01*
X8855715Y-18318524D02*
X8836667Y-18347095D01*
X8836667Y-18347095D02*
X8817619Y-18366143D01*
X8817619Y-18366143D02*
X8798572Y-18375667D01*
X9084286Y-18318524D02*
X9046191Y-18318524D01*
X9046191Y-18318524D02*
X9027143Y-18328048D01*
X9027143Y-18328048D02*
X9017619Y-18337571D01*
X9017619Y-18337571D02*
X8998572Y-18366143D01*
X8998572Y-18366143D02*
X8989048Y-18404238D01*
X8989048Y-18404238D02*
X8989048Y-18480429D01*
X8989048Y-18480429D02*
X8998572Y-18499476D01*
X8998572Y-18499476D02*
X9008096Y-18509000D01*
X9008096Y-18509000D02*
X9027143Y-18518524D01*
X9027143Y-18518524D02*
X9065238Y-18518524D01*
X9065238Y-18518524D02*
X9084286Y-18509000D01*
X9084286Y-18509000D02*
X9093810Y-18499476D01*
X9093810Y-18499476D02*
X9103334Y-18480429D01*
X9103334Y-18480429D02*
X9103334Y-18432810D01*
X9103334Y-18432810D02*
X9093810Y-18413762D01*
X9093810Y-18413762D02*
X9084286Y-18404238D01*
X9084286Y-18404238D02*
X9065238Y-18394714D01*
X9065238Y-18394714D02*
X9027143Y-18394714D01*
X9027143Y-18394714D02*
X9008096Y-18404238D01*
X9008096Y-18404238D02*
X8998572Y-18413762D01*
X8998572Y-18413762D02*
X8989048Y-18432810D01*
X9341429Y-18518524D02*
X9341429Y-18318524D01*
X9427143Y-18518524D02*
X9427143Y-18413762D01*
X9427143Y-18413762D02*
X9417619Y-18394714D01*
X9417619Y-18394714D02*
X9398572Y-18385190D01*
X9398572Y-18385190D02*
X9370000Y-18385190D01*
X9370000Y-18385190D02*
X9350953Y-18394714D01*
X9350953Y-18394714D02*
X9341429Y-18404238D01*
X9550953Y-18518524D02*
X9531905Y-18509000D01*
X9531905Y-18509000D02*
X9522381Y-18499476D01*
X9522381Y-18499476D02*
X9512858Y-18480429D01*
X9512858Y-18480429D02*
X9512858Y-18423286D01*
X9512858Y-18423286D02*
X9522381Y-18404238D01*
X9522381Y-18404238D02*
X9531905Y-18394714D01*
X9531905Y-18394714D02*
X9550953Y-18385190D01*
X9550953Y-18385190D02*
X9579524Y-18385190D01*
X9579524Y-18385190D02*
X9598572Y-18394714D01*
X9598572Y-18394714D02*
X9608096Y-18404238D01*
X9608096Y-18404238D02*
X9617619Y-18423286D01*
X9617619Y-18423286D02*
X9617619Y-18480429D01*
X9617619Y-18480429D02*
X9608096Y-18499476D01*
X9608096Y-18499476D02*
X9598572Y-18509000D01*
X9598572Y-18509000D02*
X9579524Y-18518524D01*
X9579524Y-18518524D02*
X9550953Y-18518524D01*
X9731905Y-18518524D02*
X9712858Y-18509000D01*
X9712858Y-18509000D02*
X9703334Y-18489952D01*
X9703334Y-18489952D02*
X9703334Y-18318524D01*
X9884286Y-18509000D02*
X9865239Y-18518524D01*
X9865239Y-18518524D02*
X9827143Y-18518524D01*
X9827143Y-18518524D02*
X9808096Y-18509000D01*
X9808096Y-18509000D02*
X9798572Y-18489952D01*
X9798572Y-18489952D02*
X9798572Y-18413762D01*
X9798572Y-18413762D02*
X9808096Y-18394714D01*
X9808096Y-18394714D02*
X9827143Y-18385190D01*
X9827143Y-18385190D02*
X9865239Y-18385190D01*
X9865239Y-18385190D02*
X9884286Y-18394714D01*
X9884286Y-18394714D02*
X9893810Y-18413762D01*
X9893810Y-18413762D02*
X9893810Y-18432810D01*
X9893810Y-18432810D02*
X9798572Y-18451857D01*
X9970000Y-18509000D02*
X9989048Y-18518524D01*
X9989048Y-18518524D02*
X10027143Y-18518524D01*
X10027143Y-18518524D02*
X10046191Y-18509000D01*
X10046191Y-18509000D02*
X10055715Y-18489952D01*
X10055715Y-18489952D02*
X10055715Y-18480429D01*
X10055715Y-18480429D02*
X10046191Y-18461381D01*
X10046191Y-18461381D02*
X10027143Y-18451857D01*
X10027143Y-18451857D02*
X9998572Y-18451857D01*
X9998572Y-18451857D02*
X9979524Y-18442333D01*
X9979524Y-18442333D02*
X9970000Y-18423286D01*
X9970000Y-18423286D02*
X9970000Y-18413762D01*
X9970000Y-18413762D02*
X9979524Y-18394714D01*
X9979524Y-18394714D02*
X9998572Y-18385190D01*
X9998572Y-18385190D02*
X10027143Y-18385190D01*
X10027143Y-18385190D02*
X10046191Y-18394714D01*
X10122381Y-18594714D02*
X10131905Y-18585190D01*
X10131905Y-18585190D02*
X10150953Y-18556619D01*
X10150953Y-18556619D02*
X10160477Y-18537571D01*
X10160477Y-18537571D02*
X10170000Y-18509000D01*
X10170000Y-18509000D02*
X10179524Y-18461381D01*
X10179524Y-18461381D02*
X10179524Y-18423286D01*
X10179524Y-18423286D02*
X10170000Y-18375667D01*
X10170000Y-18375667D02*
X10160477Y-18347095D01*
X10160477Y-18347095D02*
X10150953Y-18328048D01*
X10150953Y-18328048D02*
X10131905Y-18299476D01*
X10131905Y-18299476D02*
X10122381Y-18289952D01*
D10*
X5070000Y-18640000D02*
X5170000Y-18740000D01*
X5170000Y-18640000D02*
X5070000Y-18740000D01*
X5170000Y-18690000D02*
G75*
G03*
X5170000Y-18690000I-50000J0D01*
G01*
D11*
X5522381Y-18782524D02*
X5408095Y-18782524D01*
X5465238Y-18782524D02*
X5465238Y-18582524D01*
X5465238Y-18582524D02*
X5446190Y-18611095D01*
X5446190Y-18611095D02*
X5427143Y-18630143D01*
X5427143Y-18630143D02*
X5408095Y-18639667D01*
X5608095Y-18763476D02*
X5617619Y-18773000D01*
X5617619Y-18773000D02*
X5608095Y-18782524D01*
X5608095Y-18782524D02*
X5598571Y-18773000D01*
X5598571Y-18773000D02*
X5608095Y-18763476D01*
X5608095Y-18763476D02*
X5608095Y-18782524D01*
X5741428Y-18582524D02*
X5760476Y-18582524D01*
X5760476Y-18582524D02*
X5779524Y-18592048D01*
X5779524Y-18592048D02*
X5789048Y-18601571D01*
X5789048Y-18601571D02*
X5798571Y-18620619D01*
X5798571Y-18620619D02*
X5808095Y-18658714D01*
X5808095Y-18658714D02*
X5808095Y-18706333D01*
X5808095Y-18706333D02*
X5798571Y-18744429D01*
X5798571Y-18744429D02*
X5789048Y-18763476D01*
X5789048Y-18763476D02*
X5779524Y-18773000D01*
X5779524Y-18773000D02*
X5760476Y-18782524D01*
X5760476Y-18782524D02*
X5741428Y-18782524D01*
X5741428Y-18782524D02*
X5722381Y-18773000D01*
X5722381Y-18773000D02*
X5712857Y-18763476D01*
X5712857Y-18763476D02*
X5703333Y-18744429D01*
X5703333Y-18744429D02*
X5693809Y-18706333D01*
X5693809Y-18706333D02*
X5693809Y-18658714D01*
X5693809Y-18658714D02*
X5703333Y-18620619D01*
X5703333Y-18620619D02*
X5712857Y-18601571D01*
X5712857Y-18601571D02*
X5722381Y-18592048D01*
X5722381Y-18592048D02*
X5741428Y-18582524D01*
X5931905Y-18582524D02*
X5950952Y-18582524D01*
X5950952Y-18582524D02*
X5970000Y-18592048D01*
X5970000Y-18592048D02*
X5979524Y-18601571D01*
X5979524Y-18601571D02*
X5989048Y-18620619D01*
X5989048Y-18620619D02*
X5998571Y-18658714D01*
X5998571Y-18658714D02*
X5998571Y-18706333D01*
X5998571Y-18706333D02*
X5989048Y-18744429D01*
X5989048Y-18744429D02*
X5979524Y-18763476D01*
X5979524Y-18763476D02*
X5970000Y-18773000D01*
X5970000Y-18773000D02*
X5950952Y-18782524D01*
X5950952Y-18782524D02*
X5931905Y-18782524D01*
X5931905Y-18782524D02*
X5912857Y-18773000D01*
X5912857Y-18773000D02*
X5903333Y-18763476D01*
X5903333Y-18763476D02*
X5893809Y-18744429D01*
X5893809Y-18744429D02*
X5884286Y-18706333D01*
X5884286Y-18706333D02*
X5884286Y-18658714D01*
X5884286Y-18658714D02*
X5893809Y-18620619D01*
X5893809Y-18620619D02*
X5903333Y-18601571D01*
X5903333Y-18601571D02*
X5912857Y-18592048D01*
X5912857Y-18592048D02*
X5931905Y-18582524D01*
X6122381Y-18582524D02*
X6141429Y-18582524D01*
X6141429Y-18582524D02*
X6160476Y-18592048D01*
X6160476Y-18592048D02*
X6170000Y-18601571D01*
X6170000Y-18601571D02*
X6179524Y-18620619D01*
X6179524Y-18620619D02*
X6189048Y-18658714D01*
X6189048Y-18658714D02*
X6189048Y-18706333D01*
X6189048Y-18706333D02*
X6179524Y-18744429D01*
X6179524Y-18744429D02*
X6170000Y-18763476D01*
X6170000Y-18763476D02*
X6160476Y-18773000D01*
X6160476Y-18773000D02*
X6141429Y-18782524D01*
X6141429Y-18782524D02*
X6122381Y-18782524D01*
X6122381Y-18782524D02*
X6103333Y-18773000D01*
X6103333Y-18773000D02*
X6093809Y-18763476D01*
X6093809Y-18763476D02*
X6084286Y-18744429D01*
X6084286Y-18744429D02*
X6074762Y-18706333D01*
X6074762Y-18706333D02*
X6074762Y-18658714D01*
X6074762Y-18658714D02*
X6084286Y-18620619D01*
X6084286Y-18620619D02*
X6093809Y-18601571D01*
X6093809Y-18601571D02*
X6103333Y-18592048D01*
X6103333Y-18592048D02*
X6122381Y-18582524D01*
X6274762Y-18782524D02*
X6274762Y-18649190D01*
X6274762Y-18668238D02*
X6284286Y-18658714D01*
X6284286Y-18658714D02*
X6303333Y-18649190D01*
X6303333Y-18649190D02*
X6331905Y-18649190D01*
X6331905Y-18649190D02*
X6350952Y-18658714D01*
X6350952Y-18658714D02*
X6360476Y-18677762D01*
X6360476Y-18677762D02*
X6360476Y-18782524D01*
X6360476Y-18677762D02*
X6370000Y-18658714D01*
X6370000Y-18658714D02*
X6389048Y-18649190D01*
X6389048Y-18649190D02*
X6417619Y-18649190D01*
X6417619Y-18649190D02*
X6436667Y-18658714D01*
X6436667Y-18658714D02*
X6446190Y-18677762D01*
X6446190Y-18677762D02*
X6446190Y-18782524D01*
X6541429Y-18782524D02*
X6541429Y-18649190D01*
X6541429Y-18668238D02*
X6550952Y-18658714D01*
X6550952Y-18658714D02*
X6570000Y-18649190D01*
X6570000Y-18649190D02*
X6598571Y-18649190D01*
X6598571Y-18649190D02*
X6617619Y-18658714D01*
X6617619Y-18658714D02*
X6627143Y-18677762D01*
X6627143Y-18677762D02*
X6627143Y-18782524D01*
X6627143Y-18677762D02*
X6636667Y-18658714D01*
X6636667Y-18658714D02*
X6655714Y-18649190D01*
X6655714Y-18649190D02*
X6684286Y-18649190D01*
X6684286Y-18649190D02*
X6703333Y-18658714D01*
X6703333Y-18658714D02*
X6712857Y-18677762D01*
X6712857Y-18677762D02*
X6712857Y-18782524D01*
X7103333Y-18573000D02*
X6931905Y-18830143D01*
X7360476Y-18582524D02*
X7379524Y-18582524D01*
X7379524Y-18582524D02*
X7398572Y-18592048D01*
X7398572Y-18592048D02*
X7408095Y-18601571D01*
X7408095Y-18601571D02*
X7417619Y-18620619D01*
X7417619Y-18620619D02*
X7427143Y-18658714D01*
X7427143Y-18658714D02*
X7427143Y-18706333D01*
X7427143Y-18706333D02*
X7417619Y-18744429D01*
X7417619Y-18744429D02*
X7408095Y-18763476D01*
X7408095Y-18763476D02*
X7398572Y-18773000D01*
X7398572Y-18773000D02*
X7379524Y-18782524D01*
X7379524Y-18782524D02*
X7360476Y-18782524D01*
X7360476Y-18782524D02*
X7341429Y-18773000D01*
X7341429Y-18773000D02*
X7331905Y-18763476D01*
X7331905Y-18763476D02*
X7322381Y-18744429D01*
X7322381Y-18744429D02*
X7312857Y-18706333D01*
X7312857Y-18706333D02*
X7312857Y-18658714D01*
X7312857Y-18658714D02*
X7322381Y-18620619D01*
X7322381Y-18620619D02*
X7331905Y-18601571D01*
X7331905Y-18601571D02*
X7341429Y-18592048D01*
X7341429Y-18592048D02*
X7360476Y-18582524D01*
X7512857Y-18763476D02*
X7522381Y-18773000D01*
X7522381Y-18773000D02*
X7512857Y-18782524D01*
X7512857Y-18782524D02*
X7503333Y-18773000D01*
X7503333Y-18773000D02*
X7512857Y-18763476D01*
X7512857Y-18763476D02*
X7512857Y-18782524D01*
X7646191Y-18582524D02*
X7665238Y-18582524D01*
X7665238Y-18582524D02*
X7684286Y-18592048D01*
X7684286Y-18592048D02*
X7693810Y-18601571D01*
X7693810Y-18601571D02*
X7703333Y-18620619D01*
X7703333Y-18620619D02*
X7712857Y-18658714D01*
X7712857Y-18658714D02*
X7712857Y-18706333D01*
X7712857Y-18706333D02*
X7703333Y-18744429D01*
X7703333Y-18744429D02*
X7693810Y-18763476D01*
X7693810Y-18763476D02*
X7684286Y-18773000D01*
X7684286Y-18773000D02*
X7665238Y-18782524D01*
X7665238Y-18782524D02*
X7646191Y-18782524D01*
X7646191Y-18782524D02*
X7627143Y-18773000D01*
X7627143Y-18773000D02*
X7617619Y-18763476D01*
X7617619Y-18763476D02*
X7608095Y-18744429D01*
X7608095Y-18744429D02*
X7598572Y-18706333D01*
X7598572Y-18706333D02*
X7598572Y-18658714D01*
X7598572Y-18658714D02*
X7608095Y-18620619D01*
X7608095Y-18620619D02*
X7617619Y-18601571D01*
X7617619Y-18601571D02*
X7627143Y-18592048D01*
X7627143Y-18592048D02*
X7646191Y-18582524D01*
X7779524Y-18582524D02*
X7903333Y-18582524D01*
X7903333Y-18582524D02*
X7836667Y-18658714D01*
X7836667Y-18658714D02*
X7865238Y-18658714D01*
X7865238Y-18658714D02*
X7884286Y-18668238D01*
X7884286Y-18668238D02*
X7893810Y-18677762D01*
X7893810Y-18677762D02*
X7903333Y-18696810D01*
X7903333Y-18696810D02*
X7903333Y-18744429D01*
X7903333Y-18744429D02*
X7893810Y-18763476D01*
X7893810Y-18763476D02*
X7884286Y-18773000D01*
X7884286Y-18773000D02*
X7865238Y-18782524D01*
X7865238Y-18782524D02*
X7808095Y-18782524D01*
X7808095Y-18782524D02*
X7789048Y-18773000D01*
X7789048Y-18773000D02*
X7779524Y-18763476D01*
X7998572Y-18782524D02*
X8036667Y-18782524D01*
X8036667Y-18782524D02*
X8055714Y-18773000D01*
X8055714Y-18773000D02*
X8065238Y-18763476D01*
X8065238Y-18763476D02*
X8084286Y-18734905D01*
X8084286Y-18734905D02*
X8093810Y-18696810D01*
X8093810Y-18696810D02*
X8093810Y-18620619D01*
X8093810Y-18620619D02*
X8084286Y-18601571D01*
X8084286Y-18601571D02*
X8074762Y-18592048D01*
X8074762Y-18592048D02*
X8055714Y-18582524D01*
X8055714Y-18582524D02*
X8017619Y-18582524D01*
X8017619Y-18582524D02*
X7998572Y-18592048D01*
X7998572Y-18592048D02*
X7989048Y-18601571D01*
X7989048Y-18601571D02*
X7979524Y-18620619D01*
X7979524Y-18620619D02*
X7979524Y-18668238D01*
X7979524Y-18668238D02*
X7989048Y-18687286D01*
X7989048Y-18687286D02*
X7998572Y-18696810D01*
X7998572Y-18696810D02*
X8017619Y-18706333D01*
X8017619Y-18706333D02*
X8055714Y-18706333D01*
X8055714Y-18706333D02*
X8074762Y-18696810D01*
X8074762Y-18696810D02*
X8084286Y-18687286D01*
X8084286Y-18687286D02*
X8093810Y-18668238D01*
X8265238Y-18649190D02*
X8265238Y-18782524D01*
X8217619Y-18573000D02*
X8170000Y-18715857D01*
X8170000Y-18715857D02*
X8293810Y-18715857D01*
X8360476Y-18582524D02*
X8360476Y-18620619D01*
X8436667Y-18582524D02*
X8436667Y-18620619D01*
X8731905Y-18858714D02*
X8722381Y-18849190D01*
X8722381Y-18849190D02*
X8703334Y-18820619D01*
X8703334Y-18820619D02*
X8693810Y-18801571D01*
X8693810Y-18801571D02*
X8684286Y-18773000D01*
X8684286Y-18773000D02*
X8674762Y-18725381D01*
X8674762Y-18725381D02*
X8674762Y-18687286D01*
X8674762Y-18687286D02*
X8684286Y-18639667D01*
X8684286Y-18639667D02*
X8693810Y-18611095D01*
X8693810Y-18611095D02*
X8703334Y-18592048D01*
X8703334Y-18592048D02*
X8722381Y-18563476D01*
X8722381Y-18563476D02*
X8731905Y-18553952D01*
X8912857Y-18782524D02*
X8798572Y-18782524D01*
X8855715Y-18782524D02*
X8855715Y-18582524D01*
X8855715Y-18582524D02*
X8836667Y-18611095D01*
X8836667Y-18611095D02*
X8817619Y-18630143D01*
X8817619Y-18630143D02*
X8798572Y-18639667D01*
X8979524Y-18582524D02*
X9112857Y-18582524D01*
X9112857Y-18582524D02*
X9027143Y-18782524D01*
X9341429Y-18782524D02*
X9341429Y-18582524D01*
X9427143Y-18782524D02*
X9427143Y-18677762D01*
X9427143Y-18677762D02*
X9417619Y-18658714D01*
X9417619Y-18658714D02*
X9398572Y-18649190D01*
X9398572Y-18649190D02*
X9370000Y-18649190D01*
X9370000Y-18649190D02*
X9350953Y-18658714D01*
X9350953Y-18658714D02*
X9341429Y-18668238D01*
X9550953Y-18782524D02*
X9531905Y-18773000D01*
X9531905Y-18773000D02*
X9522381Y-18763476D01*
X9522381Y-18763476D02*
X9512858Y-18744429D01*
X9512858Y-18744429D02*
X9512858Y-18687286D01*
X9512858Y-18687286D02*
X9522381Y-18668238D01*
X9522381Y-18668238D02*
X9531905Y-18658714D01*
X9531905Y-18658714D02*
X9550953Y-18649190D01*
X9550953Y-18649190D02*
X9579524Y-18649190D01*
X9579524Y-18649190D02*
X9598572Y-18658714D01*
X9598572Y-18658714D02*
X9608096Y-18668238D01*
X9608096Y-18668238D02*
X9617619Y-18687286D01*
X9617619Y-18687286D02*
X9617619Y-18744429D01*
X9617619Y-18744429D02*
X9608096Y-18763476D01*
X9608096Y-18763476D02*
X9598572Y-18773000D01*
X9598572Y-18773000D02*
X9579524Y-18782524D01*
X9579524Y-18782524D02*
X9550953Y-18782524D01*
X9731905Y-18782524D02*
X9712858Y-18773000D01*
X9712858Y-18773000D02*
X9703334Y-18753952D01*
X9703334Y-18753952D02*
X9703334Y-18582524D01*
X9884286Y-18773000D02*
X9865239Y-18782524D01*
X9865239Y-18782524D02*
X9827143Y-18782524D01*
X9827143Y-18782524D02*
X9808096Y-18773000D01*
X9808096Y-18773000D02*
X9798572Y-18753952D01*
X9798572Y-18753952D02*
X9798572Y-18677762D01*
X9798572Y-18677762D02*
X9808096Y-18658714D01*
X9808096Y-18658714D02*
X9827143Y-18649190D01*
X9827143Y-18649190D02*
X9865239Y-18649190D01*
X9865239Y-18649190D02*
X9884286Y-18658714D01*
X9884286Y-18658714D02*
X9893810Y-18677762D01*
X9893810Y-18677762D02*
X9893810Y-18696810D01*
X9893810Y-18696810D02*
X9798572Y-18715857D01*
X9970000Y-18773000D02*
X9989048Y-18782524D01*
X9989048Y-18782524D02*
X10027143Y-18782524D01*
X10027143Y-18782524D02*
X10046191Y-18773000D01*
X10046191Y-18773000D02*
X10055715Y-18753952D01*
X10055715Y-18753952D02*
X10055715Y-18744429D01*
X10055715Y-18744429D02*
X10046191Y-18725381D01*
X10046191Y-18725381D02*
X10027143Y-18715857D01*
X10027143Y-18715857D02*
X9998572Y-18715857D01*
X9998572Y-18715857D02*
X9979524Y-18706333D01*
X9979524Y-18706333D02*
X9970000Y-18687286D01*
X9970000Y-18687286D02*
X9970000Y-18677762D01*
X9970000Y-18677762D02*
X9979524Y-18658714D01*
X9979524Y-18658714D02*
X9998572Y-18649190D01*
X9998572Y-18649190D02*
X10027143Y-18649190D01*
X10027143Y-18649190D02*
X10046191Y-18658714D01*
X10122381Y-18858714D02*
X10131905Y-18849190D01*
X10131905Y-18849190D02*
X10150953Y-18820619D01*
X10150953Y-18820619D02*
X10160477Y-18801571D01*
X10160477Y-18801571D02*
X10170000Y-18773000D01*
X10170000Y-18773000D02*
X10179524Y-18725381D01*
X10179524Y-18725381D02*
X10179524Y-18687286D01*
X10179524Y-18687286D02*
X10170000Y-18639667D01*
X10170000Y-18639667D02*
X10160477Y-18611095D01*
X10160477Y-18611095D02*
X10150953Y-18592048D01*
X10150953Y-18592048D02*
X10131905Y-18563476D01*
X10131905Y-18563476D02*
X10122381Y-18553952D01*
D17*
X5060000Y-18899000D02*
X5170000Y-19009000D01*
X5170000Y-18899000D02*
X5060000Y-19009000D01*
X5115000Y-18899000D02*
X5115000Y-19009000D01*
X5060000Y-18954000D02*
X5170000Y-18954000D01*
D11*
X5522381Y-19046524D02*
X5408095Y-19046524D01*
X5465238Y-19046524D02*
X5465238Y-18846524D01*
X5465238Y-18846524D02*
X5446190Y-18875095D01*
X5446190Y-18875095D02*
X5427143Y-18894143D01*
X5427143Y-18894143D02*
X5408095Y-18903667D01*
X5608095Y-19027476D02*
X5617619Y-19037000D01*
X5617619Y-19037000D02*
X5608095Y-19046524D01*
X5608095Y-19046524D02*
X5598571Y-19037000D01*
X5598571Y-19037000D02*
X5608095Y-19027476D01*
X5608095Y-19027476D02*
X5608095Y-19046524D01*
X5808095Y-19046524D02*
X5693809Y-19046524D01*
X5750952Y-19046524D02*
X5750952Y-18846524D01*
X5750952Y-18846524D02*
X5731905Y-18875095D01*
X5731905Y-18875095D02*
X5712857Y-18894143D01*
X5712857Y-18894143D02*
X5693809Y-18903667D01*
X5931905Y-18846524D02*
X5950952Y-18846524D01*
X5950952Y-18846524D02*
X5970000Y-18856048D01*
X5970000Y-18856048D02*
X5979524Y-18865571D01*
X5979524Y-18865571D02*
X5989048Y-18884619D01*
X5989048Y-18884619D02*
X5998571Y-18922714D01*
X5998571Y-18922714D02*
X5998571Y-18970333D01*
X5998571Y-18970333D02*
X5989048Y-19008429D01*
X5989048Y-19008429D02*
X5979524Y-19027476D01*
X5979524Y-19027476D02*
X5970000Y-19037000D01*
X5970000Y-19037000D02*
X5950952Y-19046524D01*
X5950952Y-19046524D02*
X5931905Y-19046524D01*
X5931905Y-19046524D02*
X5912857Y-19037000D01*
X5912857Y-19037000D02*
X5903333Y-19027476D01*
X5903333Y-19027476D02*
X5893809Y-19008429D01*
X5893809Y-19008429D02*
X5884286Y-18970333D01*
X5884286Y-18970333D02*
X5884286Y-18922714D01*
X5884286Y-18922714D02*
X5893809Y-18884619D01*
X5893809Y-18884619D02*
X5903333Y-18865571D01*
X5903333Y-18865571D02*
X5912857Y-18856048D01*
X5912857Y-18856048D02*
X5931905Y-18846524D01*
X6122381Y-18846524D02*
X6141429Y-18846524D01*
X6141429Y-18846524D02*
X6160476Y-18856048D01*
X6160476Y-18856048D02*
X6170000Y-18865571D01*
X6170000Y-18865571D02*
X6179524Y-18884619D01*
X6179524Y-18884619D02*
X6189048Y-18922714D01*
X6189048Y-18922714D02*
X6189048Y-18970333D01*
X6189048Y-18970333D02*
X6179524Y-19008429D01*
X6179524Y-19008429D02*
X6170000Y-19027476D01*
X6170000Y-19027476D02*
X6160476Y-19037000D01*
X6160476Y-19037000D02*
X6141429Y-19046524D01*
X6141429Y-19046524D02*
X6122381Y-19046524D01*
X6122381Y-19046524D02*
X6103333Y-19037000D01*
X6103333Y-19037000D02*
X6093809Y-19027476D01*
X6093809Y-19027476D02*
X6084286Y-19008429D01*
X6084286Y-19008429D02*
X6074762Y-18970333D01*
X6074762Y-18970333D02*
X6074762Y-18922714D01*
X6074762Y-18922714D02*
X6084286Y-18884619D01*
X6084286Y-18884619D02*
X6093809Y-18865571D01*
X6093809Y-18865571D02*
X6103333Y-18856048D01*
X6103333Y-18856048D02*
X6122381Y-18846524D01*
X6274762Y-19046524D02*
X6274762Y-18913190D01*
X6274762Y-18932238D02*
X6284286Y-18922714D01*
X6284286Y-18922714D02*
X6303333Y-18913190D01*
X6303333Y-18913190D02*
X6331905Y-18913190D01*
X6331905Y-18913190D02*
X6350952Y-18922714D01*
X6350952Y-18922714D02*
X6360476Y-18941762D01*
X6360476Y-18941762D02*
X6360476Y-19046524D01*
X6360476Y-18941762D02*
X6370000Y-18922714D01*
X6370000Y-18922714D02*
X6389048Y-18913190D01*
X6389048Y-18913190D02*
X6417619Y-18913190D01*
X6417619Y-18913190D02*
X6436667Y-18922714D01*
X6436667Y-18922714D02*
X6446190Y-18941762D01*
X6446190Y-18941762D02*
X6446190Y-19046524D01*
X6541429Y-19046524D02*
X6541429Y-18913190D01*
X6541429Y-18932238D02*
X6550952Y-18922714D01*
X6550952Y-18922714D02*
X6570000Y-18913190D01*
X6570000Y-18913190D02*
X6598571Y-18913190D01*
X6598571Y-18913190D02*
X6617619Y-18922714D01*
X6617619Y-18922714D02*
X6627143Y-18941762D01*
X6627143Y-18941762D02*
X6627143Y-19046524D01*
X6627143Y-18941762D02*
X6636667Y-18922714D01*
X6636667Y-18922714D02*
X6655714Y-18913190D01*
X6655714Y-18913190D02*
X6684286Y-18913190D01*
X6684286Y-18913190D02*
X6703333Y-18922714D01*
X6703333Y-18922714D02*
X6712857Y-18941762D01*
X6712857Y-18941762D02*
X6712857Y-19046524D01*
X7103333Y-18837000D02*
X6931905Y-19094143D01*
X7360476Y-18846524D02*
X7379524Y-18846524D01*
X7379524Y-18846524D02*
X7398572Y-18856048D01*
X7398572Y-18856048D02*
X7408095Y-18865571D01*
X7408095Y-18865571D02*
X7417619Y-18884619D01*
X7417619Y-18884619D02*
X7427143Y-18922714D01*
X7427143Y-18922714D02*
X7427143Y-18970333D01*
X7427143Y-18970333D02*
X7417619Y-19008429D01*
X7417619Y-19008429D02*
X7408095Y-19027476D01*
X7408095Y-19027476D02*
X7398572Y-19037000D01*
X7398572Y-19037000D02*
X7379524Y-19046524D01*
X7379524Y-19046524D02*
X7360476Y-19046524D01*
X7360476Y-19046524D02*
X7341429Y-19037000D01*
X7341429Y-19037000D02*
X7331905Y-19027476D01*
X7331905Y-19027476D02*
X7322381Y-19008429D01*
X7322381Y-19008429D02*
X7312857Y-18970333D01*
X7312857Y-18970333D02*
X7312857Y-18922714D01*
X7312857Y-18922714D02*
X7322381Y-18884619D01*
X7322381Y-18884619D02*
X7331905Y-18865571D01*
X7331905Y-18865571D02*
X7341429Y-18856048D01*
X7341429Y-18856048D02*
X7360476Y-18846524D01*
X7512857Y-19027476D02*
X7522381Y-19037000D01*
X7522381Y-19037000D02*
X7512857Y-19046524D01*
X7512857Y-19046524D02*
X7503333Y-19037000D01*
X7503333Y-19037000D02*
X7512857Y-19027476D01*
X7512857Y-19027476D02*
X7512857Y-19046524D01*
X7646191Y-18846524D02*
X7665238Y-18846524D01*
X7665238Y-18846524D02*
X7684286Y-18856048D01*
X7684286Y-18856048D02*
X7693810Y-18865571D01*
X7693810Y-18865571D02*
X7703333Y-18884619D01*
X7703333Y-18884619D02*
X7712857Y-18922714D01*
X7712857Y-18922714D02*
X7712857Y-18970333D01*
X7712857Y-18970333D02*
X7703333Y-19008429D01*
X7703333Y-19008429D02*
X7693810Y-19027476D01*
X7693810Y-19027476D02*
X7684286Y-19037000D01*
X7684286Y-19037000D02*
X7665238Y-19046524D01*
X7665238Y-19046524D02*
X7646191Y-19046524D01*
X7646191Y-19046524D02*
X7627143Y-19037000D01*
X7627143Y-19037000D02*
X7617619Y-19027476D01*
X7617619Y-19027476D02*
X7608095Y-19008429D01*
X7608095Y-19008429D02*
X7598572Y-18970333D01*
X7598572Y-18970333D02*
X7598572Y-18922714D01*
X7598572Y-18922714D02*
X7608095Y-18884619D01*
X7608095Y-18884619D02*
X7617619Y-18865571D01*
X7617619Y-18865571D02*
X7627143Y-18856048D01*
X7627143Y-18856048D02*
X7646191Y-18846524D01*
X7884286Y-18913190D02*
X7884286Y-19046524D01*
X7836667Y-18837000D02*
X7789048Y-18979857D01*
X7789048Y-18979857D02*
X7912857Y-18979857D01*
X7970000Y-18846524D02*
X8093810Y-18846524D01*
X8093810Y-18846524D02*
X8027143Y-18922714D01*
X8027143Y-18922714D02*
X8055714Y-18922714D01*
X8055714Y-18922714D02*
X8074762Y-18932238D01*
X8074762Y-18932238D02*
X8084286Y-18941762D01*
X8084286Y-18941762D02*
X8093810Y-18960810D01*
X8093810Y-18960810D02*
X8093810Y-19008429D01*
X8093810Y-19008429D02*
X8084286Y-19027476D01*
X8084286Y-19027476D02*
X8074762Y-19037000D01*
X8074762Y-19037000D02*
X8055714Y-19046524D01*
X8055714Y-19046524D02*
X7998572Y-19046524D01*
X7998572Y-19046524D02*
X7979524Y-19037000D01*
X7979524Y-19037000D02*
X7970000Y-19027476D01*
X8160476Y-18846524D02*
X8284286Y-18846524D01*
X8284286Y-18846524D02*
X8217619Y-18922714D01*
X8217619Y-18922714D02*
X8246191Y-18922714D01*
X8246191Y-18922714D02*
X8265238Y-18932238D01*
X8265238Y-18932238D02*
X8274762Y-18941762D01*
X8274762Y-18941762D02*
X8284286Y-18960810D01*
X8284286Y-18960810D02*
X8284286Y-19008429D01*
X8284286Y-19008429D02*
X8274762Y-19027476D01*
X8274762Y-19027476D02*
X8265238Y-19037000D01*
X8265238Y-19037000D02*
X8246191Y-19046524D01*
X8246191Y-19046524D02*
X8189048Y-19046524D01*
X8189048Y-19046524D02*
X8170000Y-19037000D01*
X8170000Y-19037000D02*
X8160476Y-19027476D01*
X8360476Y-18846524D02*
X8360476Y-18884619D01*
X8436667Y-18846524D02*
X8436667Y-18884619D01*
X8731905Y-19122714D02*
X8722381Y-19113190D01*
X8722381Y-19113190D02*
X8703334Y-19084619D01*
X8703334Y-19084619D02*
X8693810Y-19065571D01*
X8693810Y-19065571D02*
X8684286Y-19037000D01*
X8684286Y-19037000D02*
X8674762Y-18989381D01*
X8674762Y-18989381D02*
X8674762Y-18951286D01*
X8674762Y-18951286D02*
X8684286Y-18903667D01*
X8684286Y-18903667D02*
X8693810Y-18875095D01*
X8693810Y-18875095D02*
X8703334Y-18856048D01*
X8703334Y-18856048D02*
X8722381Y-18827476D01*
X8722381Y-18827476D02*
X8731905Y-18817952D01*
X8789048Y-18846524D02*
X8912857Y-18846524D01*
X8912857Y-18846524D02*
X8846191Y-18922714D01*
X8846191Y-18922714D02*
X8874762Y-18922714D01*
X8874762Y-18922714D02*
X8893810Y-18932238D01*
X8893810Y-18932238D02*
X8903334Y-18941762D01*
X8903334Y-18941762D02*
X8912857Y-18960810D01*
X8912857Y-18960810D02*
X8912857Y-19008429D01*
X8912857Y-19008429D02*
X8903334Y-19027476D01*
X8903334Y-19027476D02*
X8893810Y-19037000D01*
X8893810Y-19037000D02*
X8874762Y-19046524D01*
X8874762Y-19046524D02*
X8817619Y-19046524D01*
X8817619Y-19046524D02*
X8798572Y-19037000D01*
X8798572Y-19037000D02*
X8789048Y-19027476D01*
X9008096Y-19046524D02*
X9046191Y-19046524D01*
X9046191Y-19046524D02*
X9065238Y-19037000D01*
X9065238Y-19037000D02*
X9074762Y-19027476D01*
X9074762Y-19027476D02*
X9093810Y-18998905D01*
X9093810Y-18998905D02*
X9103334Y-18960810D01*
X9103334Y-18960810D02*
X9103334Y-18884619D01*
X9103334Y-18884619D02*
X9093810Y-18865571D01*
X9093810Y-18865571D02*
X9084286Y-18856048D01*
X9084286Y-18856048D02*
X9065238Y-18846524D01*
X9065238Y-18846524D02*
X9027143Y-18846524D01*
X9027143Y-18846524D02*
X9008096Y-18856048D01*
X9008096Y-18856048D02*
X8998572Y-18865571D01*
X8998572Y-18865571D02*
X8989048Y-18884619D01*
X8989048Y-18884619D02*
X8989048Y-18932238D01*
X8989048Y-18932238D02*
X8998572Y-18951286D01*
X8998572Y-18951286D02*
X9008096Y-18960810D01*
X9008096Y-18960810D02*
X9027143Y-18970333D01*
X9027143Y-18970333D02*
X9065238Y-18970333D01*
X9065238Y-18970333D02*
X9084286Y-18960810D01*
X9084286Y-18960810D02*
X9093810Y-18951286D01*
X9093810Y-18951286D02*
X9103334Y-18932238D01*
X9341429Y-19046524D02*
X9341429Y-18846524D01*
X9427143Y-19046524D02*
X9427143Y-18941762D01*
X9427143Y-18941762D02*
X9417619Y-18922714D01*
X9417619Y-18922714D02*
X9398572Y-18913190D01*
X9398572Y-18913190D02*
X9370000Y-18913190D01*
X9370000Y-18913190D02*
X9350953Y-18922714D01*
X9350953Y-18922714D02*
X9341429Y-18932238D01*
X9550953Y-19046524D02*
X9531905Y-19037000D01*
X9531905Y-19037000D02*
X9522381Y-19027476D01*
X9522381Y-19027476D02*
X9512858Y-19008429D01*
X9512858Y-19008429D02*
X9512858Y-18951286D01*
X9512858Y-18951286D02*
X9522381Y-18932238D01*
X9522381Y-18932238D02*
X9531905Y-18922714D01*
X9531905Y-18922714D02*
X9550953Y-18913190D01*
X9550953Y-18913190D02*
X9579524Y-18913190D01*
X9579524Y-18913190D02*
X9598572Y-18922714D01*
X9598572Y-18922714D02*
X9608096Y-18932238D01*
X9608096Y-18932238D02*
X9617619Y-18951286D01*
X9617619Y-18951286D02*
X9617619Y-19008429D01*
X9617619Y-19008429D02*
X9608096Y-19027476D01*
X9608096Y-19027476D02*
X9598572Y-19037000D01*
X9598572Y-19037000D02*
X9579524Y-19046524D01*
X9579524Y-19046524D02*
X9550953Y-19046524D01*
X9731905Y-19046524D02*
X9712858Y-19037000D01*
X9712858Y-19037000D02*
X9703334Y-19017952D01*
X9703334Y-19017952D02*
X9703334Y-18846524D01*
X9884286Y-19037000D02*
X9865239Y-19046524D01*
X9865239Y-19046524D02*
X9827143Y-19046524D01*
X9827143Y-19046524D02*
X9808096Y-19037000D01*
X9808096Y-19037000D02*
X9798572Y-19017952D01*
X9798572Y-19017952D02*
X9798572Y-18941762D01*
X9798572Y-18941762D02*
X9808096Y-18922714D01*
X9808096Y-18922714D02*
X9827143Y-18913190D01*
X9827143Y-18913190D02*
X9865239Y-18913190D01*
X9865239Y-18913190D02*
X9884286Y-18922714D01*
X9884286Y-18922714D02*
X9893810Y-18941762D01*
X9893810Y-18941762D02*
X9893810Y-18960810D01*
X9893810Y-18960810D02*
X9798572Y-18979857D01*
X9970000Y-19037000D02*
X9989048Y-19046524D01*
X9989048Y-19046524D02*
X10027143Y-19046524D01*
X10027143Y-19046524D02*
X10046191Y-19037000D01*
X10046191Y-19037000D02*
X10055715Y-19017952D01*
X10055715Y-19017952D02*
X10055715Y-19008429D01*
X10055715Y-19008429D02*
X10046191Y-18989381D01*
X10046191Y-18989381D02*
X10027143Y-18979857D01*
X10027143Y-18979857D02*
X9998572Y-18979857D01*
X9998572Y-18979857D02*
X9979524Y-18970333D01*
X9979524Y-18970333D02*
X9970000Y-18951286D01*
X9970000Y-18951286D02*
X9970000Y-18941762D01*
X9970000Y-18941762D02*
X9979524Y-18922714D01*
X9979524Y-18922714D02*
X9998572Y-18913190D01*
X9998572Y-18913190D02*
X10027143Y-18913190D01*
X10027143Y-18913190D02*
X10046191Y-18922714D01*
X10122381Y-19122714D02*
X10131905Y-19113190D01*
X10131905Y-19113190D02*
X10150953Y-19084619D01*
X10150953Y-19084619D02*
X10160477Y-19065571D01*
X10160477Y-19065571D02*
X10170000Y-19037000D01*
X10170000Y-19037000D02*
X10179524Y-18989381D01*
X10179524Y-18989381D02*
X10179524Y-18951286D01*
X10179524Y-18951286D02*
X10170000Y-18903667D01*
X10170000Y-18903667D02*
X10160477Y-18875095D01*
X10160477Y-18875095D02*
X10150953Y-18856048D01*
X10150953Y-18856048D02*
X10131905Y-18827476D01*
X10131905Y-18827476D02*
X10122381Y-18817952D01*
X4970000Y-19118000D02*
X5170000Y-19318000D01*
X5170000Y-19118000D02*
X4970000Y-19318000D01*
X5140711Y-19288711D02*
X5140711Y-19147289D01*
X4999289Y-19147289D01*
X4999289Y-19288711D01*
X5140711Y-19288711D01*
X5398571Y-19110524D02*
X5522381Y-19110524D01*
X5522381Y-19110524D02*
X5455714Y-19186714D01*
X5455714Y-19186714D02*
X5484286Y-19186714D01*
X5484286Y-19186714D02*
X5503333Y-19196238D01*
X5503333Y-19196238D02*
X5512857Y-19205762D01*
X5512857Y-19205762D02*
X5522381Y-19224810D01*
X5522381Y-19224810D02*
X5522381Y-19272429D01*
X5522381Y-19272429D02*
X5512857Y-19291476D01*
X5512857Y-19291476D02*
X5503333Y-19301000D01*
X5503333Y-19301000D02*
X5484286Y-19310524D01*
X5484286Y-19310524D02*
X5427143Y-19310524D01*
X5427143Y-19310524D02*
X5408095Y-19301000D01*
X5408095Y-19301000D02*
X5398571Y-19291476D01*
X5608095Y-19291476D02*
X5617619Y-19301000D01*
X5617619Y-19301000D02*
X5608095Y-19310524D01*
X5608095Y-19310524D02*
X5598571Y-19301000D01*
X5598571Y-19301000D02*
X5608095Y-19291476D01*
X5608095Y-19291476D02*
X5608095Y-19310524D01*
X5789048Y-19177190D02*
X5789048Y-19310524D01*
X5741428Y-19101000D02*
X5693809Y-19243857D01*
X5693809Y-19243857D02*
X5817619Y-19243857D01*
X5979524Y-19177190D02*
X5979524Y-19310524D01*
X5931905Y-19101000D02*
X5884286Y-19243857D01*
X5884286Y-19243857D02*
X6008095Y-19243857D01*
X6189048Y-19310524D02*
X6074762Y-19310524D01*
X6131905Y-19310524D02*
X6131905Y-19110524D01*
X6131905Y-19110524D02*
X6112857Y-19139095D01*
X6112857Y-19139095D02*
X6093809Y-19158143D01*
X6093809Y-19158143D02*
X6074762Y-19167667D01*
X6274762Y-19310524D02*
X6274762Y-19177190D01*
X6274762Y-19196238D02*
X6284286Y-19186714D01*
X6284286Y-19186714D02*
X6303333Y-19177190D01*
X6303333Y-19177190D02*
X6331905Y-19177190D01*
X6331905Y-19177190D02*
X6350952Y-19186714D01*
X6350952Y-19186714D02*
X6360476Y-19205762D01*
X6360476Y-19205762D02*
X6360476Y-19310524D01*
X6360476Y-19205762D02*
X6370000Y-19186714D01*
X6370000Y-19186714D02*
X6389048Y-19177190D01*
X6389048Y-19177190D02*
X6417619Y-19177190D01*
X6417619Y-19177190D02*
X6436667Y-19186714D01*
X6436667Y-19186714D02*
X6446190Y-19205762D01*
X6446190Y-19205762D02*
X6446190Y-19310524D01*
X6541429Y-19310524D02*
X6541429Y-19177190D01*
X6541429Y-19196238D02*
X6550952Y-19186714D01*
X6550952Y-19186714D02*
X6570000Y-19177190D01*
X6570000Y-19177190D02*
X6598571Y-19177190D01*
X6598571Y-19177190D02*
X6617619Y-19186714D01*
X6617619Y-19186714D02*
X6627143Y-19205762D01*
X6627143Y-19205762D02*
X6627143Y-19310524D01*
X6627143Y-19205762D02*
X6636667Y-19186714D01*
X6636667Y-19186714D02*
X6655714Y-19177190D01*
X6655714Y-19177190D02*
X6684286Y-19177190D01*
X6684286Y-19177190D02*
X6703333Y-19186714D01*
X6703333Y-19186714D02*
X6712857Y-19205762D01*
X6712857Y-19205762D02*
X6712857Y-19310524D01*
X7103333Y-19101000D02*
X6931905Y-19358143D01*
X7360476Y-19110524D02*
X7379524Y-19110524D01*
X7379524Y-19110524D02*
X7398572Y-19120048D01*
X7398572Y-19120048D02*
X7408095Y-19129571D01*
X7408095Y-19129571D02*
X7417619Y-19148619D01*
X7417619Y-19148619D02*
X7427143Y-19186714D01*
X7427143Y-19186714D02*
X7427143Y-19234333D01*
X7427143Y-19234333D02*
X7417619Y-19272429D01*
X7417619Y-19272429D02*
X7408095Y-19291476D01*
X7408095Y-19291476D02*
X7398572Y-19301000D01*
X7398572Y-19301000D02*
X7379524Y-19310524D01*
X7379524Y-19310524D02*
X7360476Y-19310524D01*
X7360476Y-19310524D02*
X7341429Y-19301000D01*
X7341429Y-19301000D02*
X7331905Y-19291476D01*
X7331905Y-19291476D02*
X7322381Y-19272429D01*
X7322381Y-19272429D02*
X7312857Y-19234333D01*
X7312857Y-19234333D02*
X7312857Y-19186714D01*
X7312857Y-19186714D02*
X7322381Y-19148619D01*
X7322381Y-19148619D02*
X7331905Y-19129571D01*
X7331905Y-19129571D02*
X7341429Y-19120048D01*
X7341429Y-19120048D02*
X7360476Y-19110524D01*
X7512857Y-19291476D02*
X7522381Y-19301000D01*
X7522381Y-19301000D02*
X7512857Y-19310524D01*
X7512857Y-19310524D02*
X7503333Y-19301000D01*
X7503333Y-19301000D02*
X7512857Y-19291476D01*
X7512857Y-19291476D02*
X7512857Y-19310524D01*
X7712857Y-19310524D02*
X7598572Y-19310524D01*
X7655714Y-19310524D02*
X7655714Y-19110524D01*
X7655714Y-19110524D02*
X7636667Y-19139095D01*
X7636667Y-19139095D02*
X7617619Y-19158143D01*
X7617619Y-19158143D02*
X7598572Y-19167667D01*
X7779524Y-19110524D02*
X7903333Y-19110524D01*
X7903333Y-19110524D02*
X7836667Y-19186714D01*
X7836667Y-19186714D02*
X7865238Y-19186714D01*
X7865238Y-19186714D02*
X7884286Y-19196238D01*
X7884286Y-19196238D02*
X7893810Y-19205762D01*
X7893810Y-19205762D02*
X7903333Y-19224810D01*
X7903333Y-19224810D02*
X7903333Y-19272429D01*
X7903333Y-19272429D02*
X7893810Y-19291476D01*
X7893810Y-19291476D02*
X7884286Y-19301000D01*
X7884286Y-19301000D02*
X7865238Y-19310524D01*
X7865238Y-19310524D02*
X7808095Y-19310524D01*
X7808095Y-19310524D02*
X7789048Y-19301000D01*
X7789048Y-19301000D02*
X7779524Y-19291476D01*
X8084286Y-19110524D02*
X7989048Y-19110524D01*
X7989048Y-19110524D02*
X7979524Y-19205762D01*
X7979524Y-19205762D02*
X7989048Y-19196238D01*
X7989048Y-19196238D02*
X8008095Y-19186714D01*
X8008095Y-19186714D02*
X8055714Y-19186714D01*
X8055714Y-19186714D02*
X8074762Y-19196238D01*
X8074762Y-19196238D02*
X8084286Y-19205762D01*
X8084286Y-19205762D02*
X8093810Y-19224810D01*
X8093810Y-19224810D02*
X8093810Y-19272429D01*
X8093810Y-19272429D02*
X8084286Y-19291476D01*
X8084286Y-19291476D02*
X8074762Y-19301000D01*
X8074762Y-19301000D02*
X8055714Y-19310524D01*
X8055714Y-19310524D02*
X8008095Y-19310524D01*
X8008095Y-19310524D02*
X7989048Y-19301000D01*
X7989048Y-19301000D02*
X7979524Y-19291476D01*
X8274762Y-19110524D02*
X8179524Y-19110524D01*
X8179524Y-19110524D02*
X8170000Y-19205762D01*
X8170000Y-19205762D02*
X8179524Y-19196238D01*
X8179524Y-19196238D02*
X8198572Y-19186714D01*
X8198572Y-19186714D02*
X8246191Y-19186714D01*
X8246191Y-19186714D02*
X8265238Y-19196238D01*
X8265238Y-19196238D02*
X8274762Y-19205762D01*
X8274762Y-19205762D02*
X8284286Y-19224810D01*
X8284286Y-19224810D02*
X8284286Y-19272429D01*
X8284286Y-19272429D02*
X8274762Y-19291476D01*
X8274762Y-19291476D02*
X8265238Y-19301000D01*
X8265238Y-19301000D02*
X8246191Y-19310524D01*
X8246191Y-19310524D02*
X8198572Y-19310524D01*
X8198572Y-19310524D02*
X8179524Y-19301000D01*
X8179524Y-19301000D02*
X8170000Y-19291476D01*
X8360476Y-19110524D02*
X8360476Y-19148619D01*
X8436667Y-19110524D02*
X8436667Y-19148619D01*
X8731905Y-19386714D02*
X8722381Y-19377190D01*
X8722381Y-19377190D02*
X8703334Y-19348619D01*
X8703334Y-19348619D02*
X8693810Y-19329571D01*
X8693810Y-19329571D02*
X8684286Y-19301000D01*
X8684286Y-19301000D02*
X8674762Y-19253381D01*
X8674762Y-19253381D02*
X8674762Y-19215286D01*
X8674762Y-19215286D02*
X8684286Y-19167667D01*
X8684286Y-19167667D02*
X8693810Y-19139095D01*
X8693810Y-19139095D02*
X8703334Y-19120048D01*
X8703334Y-19120048D02*
X8722381Y-19091476D01*
X8722381Y-19091476D02*
X8731905Y-19081952D01*
X8798572Y-19129571D02*
X8808096Y-19120048D01*
X8808096Y-19120048D02*
X8827143Y-19110524D01*
X8827143Y-19110524D02*
X8874762Y-19110524D01*
X8874762Y-19110524D02*
X8893810Y-19120048D01*
X8893810Y-19120048D02*
X8903334Y-19129571D01*
X8903334Y-19129571D02*
X8912857Y-19148619D01*
X8912857Y-19148619D02*
X8912857Y-19167667D01*
X8912857Y-19167667D02*
X8903334Y-19196238D01*
X8903334Y-19196238D02*
X8789048Y-19310524D01*
X8789048Y-19310524D02*
X8912857Y-19310524D01*
X9150953Y-19310524D02*
X9150953Y-19110524D01*
X9236667Y-19310524D02*
X9236667Y-19205762D01*
X9236667Y-19205762D02*
X9227143Y-19186714D01*
X9227143Y-19186714D02*
X9208096Y-19177190D01*
X9208096Y-19177190D02*
X9179524Y-19177190D01*
X9179524Y-19177190D02*
X9160477Y-19186714D01*
X9160477Y-19186714D02*
X9150953Y-19196238D01*
X9360477Y-19310524D02*
X9341429Y-19301000D01*
X9341429Y-19301000D02*
X9331905Y-19291476D01*
X9331905Y-19291476D02*
X9322381Y-19272429D01*
X9322381Y-19272429D02*
X9322381Y-19215286D01*
X9322381Y-19215286D02*
X9331905Y-19196238D01*
X9331905Y-19196238D02*
X9341429Y-19186714D01*
X9341429Y-19186714D02*
X9360477Y-19177190D01*
X9360477Y-19177190D02*
X9389048Y-19177190D01*
X9389048Y-19177190D02*
X9408096Y-19186714D01*
X9408096Y-19186714D02*
X9417619Y-19196238D01*
X9417619Y-19196238D02*
X9427143Y-19215286D01*
X9427143Y-19215286D02*
X9427143Y-19272429D01*
X9427143Y-19272429D02*
X9417619Y-19291476D01*
X9417619Y-19291476D02*
X9408096Y-19301000D01*
X9408096Y-19301000D02*
X9389048Y-19310524D01*
X9389048Y-19310524D02*
X9360477Y-19310524D01*
X9541429Y-19310524D02*
X9522381Y-19301000D01*
X9522381Y-19301000D02*
X9512858Y-19281952D01*
X9512858Y-19281952D02*
X9512858Y-19110524D01*
X9693810Y-19301000D02*
X9674762Y-19310524D01*
X9674762Y-19310524D02*
X9636667Y-19310524D01*
X9636667Y-19310524D02*
X9617619Y-19301000D01*
X9617619Y-19301000D02*
X9608096Y-19281952D01*
X9608096Y-19281952D02*
X9608096Y-19205762D01*
X9608096Y-19205762D02*
X9617619Y-19186714D01*
X9617619Y-19186714D02*
X9636667Y-19177190D01*
X9636667Y-19177190D02*
X9674762Y-19177190D01*
X9674762Y-19177190D02*
X9693810Y-19186714D01*
X9693810Y-19186714D02*
X9703334Y-19205762D01*
X9703334Y-19205762D02*
X9703334Y-19224810D01*
X9703334Y-19224810D02*
X9608096Y-19243857D01*
X9779524Y-19301000D02*
X9798572Y-19310524D01*
X9798572Y-19310524D02*
X9836667Y-19310524D01*
X9836667Y-19310524D02*
X9855715Y-19301000D01*
X9855715Y-19301000D02*
X9865239Y-19281952D01*
X9865239Y-19281952D02*
X9865239Y-19272429D01*
X9865239Y-19272429D02*
X9855715Y-19253381D01*
X9855715Y-19253381D02*
X9836667Y-19243857D01*
X9836667Y-19243857D02*
X9808096Y-19243857D01*
X9808096Y-19243857D02*
X9789048Y-19234333D01*
X9789048Y-19234333D02*
X9779524Y-19215286D01*
X9779524Y-19215286D02*
X9779524Y-19205762D01*
X9779524Y-19205762D02*
X9789048Y-19186714D01*
X9789048Y-19186714D02*
X9808096Y-19177190D01*
X9808096Y-19177190D02*
X9836667Y-19177190D01*
X9836667Y-19177190D02*
X9855715Y-19186714D01*
X9931905Y-19386714D02*
X9941429Y-19377190D01*
X9941429Y-19377190D02*
X9960477Y-19348619D01*
X9960477Y-19348619D02*
X9970000Y-19329571D01*
X9970000Y-19329571D02*
X9979524Y-19301000D01*
X9979524Y-19301000D02*
X9989048Y-19253381D01*
X9989048Y-19253381D02*
X9989048Y-19215286D01*
X9989048Y-19215286D02*
X9979524Y-19167667D01*
X9979524Y-19167667D02*
X9970000Y-19139095D01*
X9970000Y-19139095D02*
X9960477Y-19120048D01*
X9960477Y-19120048D02*
X9941429Y-19091476D01*
X9941429Y-19091476D02*
X9931905Y-19081952D01*
M02*
