%TF.GenerationSoftware,KiCad,Pcbnew,7.0.2*%
%TF.CreationDate,2025-01-10T16:25:51-06:00*%
%TF.ProjectId,gateDr_mainboard,67617465-4472-45f6-9d61-696e626f6172,rev?*%
%TF.SameCoordinates,Original*%
%TF.FileFunction,Legend,Bot*%
%TF.FilePolarity,Positive*%
%FSLAX46Y46*%
G04 Gerber Fmt 4.6, Leading zero omitted, Abs format (unit mm)*
G04 Created by KiCad (PCBNEW 7.0.2) date 2025-01-10 16:25:51*
%MOMM*%
%LPD*%
G01*
G04 APERTURE LIST*
%ADD10C,0.125000*%
%ADD11C,0.150000*%
%ADD12C,0.120000*%
G04 APERTURE END LIST*
D10*
%TO.C,R19*%
X69910095Y-125725714D02*
X69529142Y-125459047D01*
X69910095Y-125268571D02*
X69110095Y-125268571D01*
X69110095Y-125268571D02*
X69110095Y-125573333D01*
X69110095Y-125573333D02*
X69148190Y-125649523D01*
X69148190Y-125649523D02*
X69186285Y-125687618D01*
X69186285Y-125687618D02*
X69262476Y-125725714D01*
X69262476Y-125725714D02*
X69376761Y-125725714D01*
X69376761Y-125725714D02*
X69452952Y-125687618D01*
X69452952Y-125687618D02*
X69491047Y-125649523D01*
X69491047Y-125649523D02*
X69529142Y-125573333D01*
X69529142Y-125573333D02*
X69529142Y-125268571D01*
X69910095Y-126487618D02*
X69910095Y-126030475D01*
X69910095Y-126259047D02*
X69110095Y-126259047D01*
X69110095Y-126259047D02*
X69224380Y-126182856D01*
X69224380Y-126182856D02*
X69300571Y-126106666D01*
X69300571Y-126106666D02*
X69338666Y-126030475D01*
X69910095Y-126868571D02*
X69910095Y-127020952D01*
X69910095Y-127020952D02*
X69872000Y-127097142D01*
X69872000Y-127097142D02*
X69833904Y-127135238D01*
X69833904Y-127135238D02*
X69719619Y-127211428D01*
X69719619Y-127211428D02*
X69567238Y-127249523D01*
X69567238Y-127249523D02*
X69262476Y-127249523D01*
X69262476Y-127249523D02*
X69186285Y-127211428D01*
X69186285Y-127211428D02*
X69148190Y-127173333D01*
X69148190Y-127173333D02*
X69110095Y-127097142D01*
X69110095Y-127097142D02*
X69110095Y-126944761D01*
X69110095Y-126944761D02*
X69148190Y-126868571D01*
X69148190Y-126868571D02*
X69186285Y-126830476D01*
X69186285Y-126830476D02*
X69262476Y-126792380D01*
X69262476Y-126792380D02*
X69452952Y-126792380D01*
X69452952Y-126792380D02*
X69529142Y-126830476D01*
X69529142Y-126830476D02*
X69567238Y-126868571D01*
X69567238Y-126868571D02*
X69605333Y-126944761D01*
X69605333Y-126944761D02*
X69605333Y-127097142D01*
X69605333Y-127097142D02*
X69567238Y-127173333D01*
X69567238Y-127173333D02*
X69529142Y-127211428D01*
X69529142Y-127211428D02*
X69452952Y-127249523D01*
D11*
%TO.C,R32*%
X93970095Y-161585714D02*
X93589142Y-161319047D01*
X93970095Y-161128571D02*
X93170095Y-161128571D01*
X93170095Y-161128571D02*
X93170095Y-161433333D01*
X93170095Y-161433333D02*
X93208190Y-161509523D01*
X93208190Y-161509523D02*
X93246285Y-161547618D01*
X93246285Y-161547618D02*
X93322476Y-161585714D01*
X93322476Y-161585714D02*
X93436761Y-161585714D01*
X93436761Y-161585714D02*
X93512952Y-161547618D01*
X93512952Y-161547618D02*
X93551047Y-161509523D01*
X93551047Y-161509523D02*
X93589142Y-161433333D01*
X93589142Y-161433333D02*
X93589142Y-161128571D01*
X93170095Y-161852380D02*
X93170095Y-162347618D01*
X93170095Y-162347618D02*
X93474857Y-162080952D01*
X93474857Y-162080952D02*
X93474857Y-162195237D01*
X93474857Y-162195237D02*
X93512952Y-162271428D01*
X93512952Y-162271428D02*
X93551047Y-162309523D01*
X93551047Y-162309523D02*
X93627238Y-162347618D01*
X93627238Y-162347618D02*
X93817714Y-162347618D01*
X93817714Y-162347618D02*
X93893904Y-162309523D01*
X93893904Y-162309523D02*
X93932000Y-162271428D01*
X93932000Y-162271428D02*
X93970095Y-162195237D01*
X93970095Y-162195237D02*
X93970095Y-161966666D01*
X93970095Y-161966666D02*
X93932000Y-161890475D01*
X93932000Y-161890475D02*
X93893904Y-161852380D01*
X93246285Y-162652380D02*
X93208190Y-162690476D01*
X93208190Y-162690476D02*
X93170095Y-162766666D01*
X93170095Y-162766666D02*
X93170095Y-162957142D01*
X93170095Y-162957142D02*
X93208190Y-163033333D01*
X93208190Y-163033333D02*
X93246285Y-163071428D01*
X93246285Y-163071428D02*
X93322476Y-163109523D01*
X93322476Y-163109523D02*
X93398666Y-163109523D01*
X93398666Y-163109523D02*
X93512952Y-163071428D01*
X93512952Y-163071428D02*
X93970095Y-162614285D01*
X93970095Y-162614285D02*
X93970095Y-163109523D01*
%TO.C,C22*%
X62192857Y-131667380D02*
X62240476Y-131715000D01*
X62240476Y-131715000D02*
X62383333Y-131762619D01*
X62383333Y-131762619D02*
X62478571Y-131762619D01*
X62478571Y-131762619D02*
X62621428Y-131715000D01*
X62621428Y-131715000D02*
X62716666Y-131619761D01*
X62716666Y-131619761D02*
X62764285Y-131524523D01*
X62764285Y-131524523D02*
X62811904Y-131334047D01*
X62811904Y-131334047D02*
X62811904Y-131191190D01*
X62811904Y-131191190D02*
X62764285Y-131000714D01*
X62764285Y-131000714D02*
X62716666Y-130905476D01*
X62716666Y-130905476D02*
X62621428Y-130810238D01*
X62621428Y-130810238D02*
X62478571Y-130762619D01*
X62478571Y-130762619D02*
X62383333Y-130762619D01*
X62383333Y-130762619D02*
X62240476Y-130810238D01*
X62240476Y-130810238D02*
X62192857Y-130857857D01*
X61811904Y-130857857D02*
X61764285Y-130810238D01*
X61764285Y-130810238D02*
X61669047Y-130762619D01*
X61669047Y-130762619D02*
X61430952Y-130762619D01*
X61430952Y-130762619D02*
X61335714Y-130810238D01*
X61335714Y-130810238D02*
X61288095Y-130857857D01*
X61288095Y-130857857D02*
X61240476Y-130953095D01*
X61240476Y-130953095D02*
X61240476Y-131048333D01*
X61240476Y-131048333D02*
X61288095Y-131191190D01*
X61288095Y-131191190D02*
X61859523Y-131762619D01*
X61859523Y-131762619D02*
X61240476Y-131762619D01*
X60859523Y-130857857D02*
X60811904Y-130810238D01*
X60811904Y-130810238D02*
X60716666Y-130762619D01*
X60716666Y-130762619D02*
X60478571Y-130762619D01*
X60478571Y-130762619D02*
X60383333Y-130810238D01*
X60383333Y-130810238D02*
X60335714Y-130857857D01*
X60335714Y-130857857D02*
X60288095Y-130953095D01*
X60288095Y-130953095D02*
X60288095Y-131048333D01*
X60288095Y-131048333D02*
X60335714Y-131191190D01*
X60335714Y-131191190D02*
X60907142Y-131762619D01*
X60907142Y-131762619D02*
X60288095Y-131762619D01*
%TO.C,R37*%
X79170095Y-69975714D02*
X78789142Y-69709047D01*
X79170095Y-69518571D02*
X78370095Y-69518571D01*
X78370095Y-69518571D02*
X78370095Y-69823333D01*
X78370095Y-69823333D02*
X78408190Y-69899523D01*
X78408190Y-69899523D02*
X78446285Y-69937618D01*
X78446285Y-69937618D02*
X78522476Y-69975714D01*
X78522476Y-69975714D02*
X78636761Y-69975714D01*
X78636761Y-69975714D02*
X78712952Y-69937618D01*
X78712952Y-69937618D02*
X78751047Y-69899523D01*
X78751047Y-69899523D02*
X78789142Y-69823333D01*
X78789142Y-69823333D02*
X78789142Y-69518571D01*
X78370095Y-70242380D02*
X78370095Y-70737618D01*
X78370095Y-70737618D02*
X78674857Y-70470952D01*
X78674857Y-70470952D02*
X78674857Y-70585237D01*
X78674857Y-70585237D02*
X78712952Y-70661428D01*
X78712952Y-70661428D02*
X78751047Y-70699523D01*
X78751047Y-70699523D02*
X78827238Y-70737618D01*
X78827238Y-70737618D02*
X79017714Y-70737618D01*
X79017714Y-70737618D02*
X79093904Y-70699523D01*
X79093904Y-70699523D02*
X79132000Y-70661428D01*
X79132000Y-70661428D02*
X79170095Y-70585237D01*
X79170095Y-70585237D02*
X79170095Y-70356666D01*
X79170095Y-70356666D02*
X79132000Y-70280475D01*
X79132000Y-70280475D02*
X79093904Y-70242380D01*
X78370095Y-71004285D02*
X78370095Y-71537619D01*
X78370095Y-71537619D02*
X79170095Y-71194761D01*
%TO.C,R4*%
X64910095Y-139116667D02*
X64529142Y-138850000D01*
X64910095Y-138659524D02*
X64110095Y-138659524D01*
X64110095Y-138659524D02*
X64110095Y-138964286D01*
X64110095Y-138964286D02*
X64148190Y-139040476D01*
X64148190Y-139040476D02*
X64186285Y-139078571D01*
X64186285Y-139078571D02*
X64262476Y-139116667D01*
X64262476Y-139116667D02*
X64376761Y-139116667D01*
X64376761Y-139116667D02*
X64452952Y-139078571D01*
X64452952Y-139078571D02*
X64491047Y-139040476D01*
X64491047Y-139040476D02*
X64529142Y-138964286D01*
X64529142Y-138964286D02*
X64529142Y-138659524D01*
X64376761Y-139802381D02*
X64910095Y-139802381D01*
X64072000Y-139611905D02*
X64643428Y-139421428D01*
X64643428Y-139421428D02*
X64643428Y-139916667D01*
%TO.C,R9*%
X83410095Y-141606667D02*
X83029142Y-141340000D01*
X83410095Y-141149524D02*
X82610095Y-141149524D01*
X82610095Y-141149524D02*
X82610095Y-141454286D01*
X82610095Y-141454286D02*
X82648190Y-141530476D01*
X82648190Y-141530476D02*
X82686285Y-141568571D01*
X82686285Y-141568571D02*
X82762476Y-141606667D01*
X82762476Y-141606667D02*
X82876761Y-141606667D01*
X82876761Y-141606667D02*
X82952952Y-141568571D01*
X82952952Y-141568571D02*
X82991047Y-141530476D01*
X82991047Y-141530476D02*
X83029142Y-141454286D01*
X83029142Y-141454286D02*
X83029142Y-141149524D01*
X83410095Y-141987619D02*
X83410095Y-142140000D01*
X83410095Y-142140000D02*
X83372000Y-142216190D01*
X83372000Y-142216190D02*
X83333904Y-142254286D01*
X83333904Y-142254286D02*
X83219619Y-142330476D01*
X83219619Y-142330476D02*
X83067238Y-142368571D01*
X83067238Y-142368571D02*
X82762476Y-142368571D01*
X82762476Y-142368571D02*
X82686285Y-142330476D01*
X82686285Y-142330476D02*
X82648190Y-142292381D01*
X82648190Y-142292381D02*
X82610095Y-142216190D01*
X82610095Y-142216190D02*
X82610095Y-142063809D01*
X82610095Y-142063809D02*
X82648190Y-141987619D01*
X82648190Y-141987619D02*
X82686285Y-141949524D01*
X82686285Y-141949524D02*
X82762476Y-141911428D01*
X82762476Y-141911428D02*
X82952952Y-141911428D01*
X82952952Y-141911428D02*
X83029142Y-141949524D01*
X83029142Y-141949524D02*
X83067238Y-141987619D01*
X83067238Y-141987619D02*
X83105333Y-142063809D01*
X83105333Y-142063809D02*
X83105333Y-142216190D01*
X83105333Y-142216190D02*
X83067238Y-142292381D01*
X83067238Y-142292381D02*
X83029142Y-142330476D01*
X83029142Y-142330476D02*
X82952952Y-142368571D01*
%TO.C,R35*%
X97410095Y-164205714D02*
X97029142Y-163939047D01*
X97410095Y-163748571D02*
X96610095Y-163748571D01*
X96610095Y-163748571D02*
X96610095Y-164053333D01*
X96610095Y-164053333D02*
X96648190Y-164129523D01*
X96648190Y-164129523D02*
X96686285Y-164167618D01*
X96686285Y-164167618D02*
X96762476Y-164205714D01*
X96762476Y-164205714D02*
X96876761Y-164205714D01*
X96876761Y-164205714D02*
X96952952Y-164167618D01*
X96952952Y-164167618D02*
X96991047Y-164129523D01*
X96991047Y-164129523D02*
X97029142Y-164053333D01*
X97029142Y-164053333D02*
X97029142Y-163748571D01*
X96610095Y-164472380D02*
X96610095Y-164967618D01*
X96610095Y-164967618D02*
X96914857Y-164700952D01*
X96914857Y-164700952D02*
X96914857Y-164815237D01*
X96914857Y-164815237D02*
X96952952Y-164891428D01*
X96952952Y-164891428D02*
X96991047Y-164929523D01*
X96991047Y-164929523D02*
X97067238Y-164967618D01*
X97067238Y-164967618D02*
X97257714Y-164967618D01*
X97257714Y-164967618D02*
X97333904Y-164929523D01*
X97333904Y-164929523D02*
X97372000Y-164891428D01*
X97372000Y-164891428D02*
X97410095Y-164815237D01*
X97410095Y-164815237D02*
X97410095Y-164586666D01*
X97410095Y-164586666D02*
X97372000Y-164510475D01*
X97372000Y-164510475D02*
X97333904Y-164472380D01*
X96610095Y-165691428D02*
X96610095Y-165310476D01*
X96610095Y-165310476D02*
X96991047Y-165272380D01*
X96991047Y-165272380D02*
X96952952Y-165310476D01*
X96952952Y-165310476D02*
X96914857Y-165386666D01*
X96914857Y-165386666D02*
X96914857Y-165577142D01*
X96914857Y-165577142D02*
X96952952Y-165653333D01*
X96952952Y-165653333D02*
X96991047Y-165691428D01*
X96991047Y-165691428D02*
X97067238Y-165729523D01*
X97067238Y-165729523D02*
X97257714Y-165729523D01*
X97257714Y-165729523D02*
X97333904Y-165691428D01*
X97333904Y-165691428D02*
X97372000Y-165653333D01*
X97372000Y-165653333D02*
X97410095Y-165577142D01*
X97410095Y-165577142D02*
X97410095Y-165386666D01*
X97410095Y-165386666D02*
X97372000Y-165310476D01*
X97372000Y-165310476D02*
X97333904Y-165272380D01*
D10*
%TO.C,R16*%
X58910095Y-127195714D02*
X58529142Y-126929047D01*
X58910095Y-126738571D02*
X58110095Y-126738571D01*
X58110095Y-126738571D02*
X58110095Y-127043333D01*
X58110095Y-127043333D02*
X58148190Y-127119523D01*
X58148190Y-127119523D02*
X58186285Y-127157618D01*
X58186285Y-127157618D02*
X58262476Y-127195714D01*
X58262476Y-127195714D02*
X58376761Y-127195714D01*
X58376761Y-127195714D02*
X58452952Y-127157618D01*
X58452952Y-127157618D02*
X58491047Y-127119523D01*
X58491047Y-127119523D02*
X58529142Y-127043333D01*
X58529142Y-127043333D02*
X58529142Y-126738571D01*
X58910095Y-127957618D02*
X58910095Y-127500475D01*
X58910095Y-127729047D02*
X58110095Y-127729047D01*
X58110095Y-127729047D02*
X58224380Y-127652856D01*
X58224380Y-127652856D02*
X58300571Y-127576666D01*
X58300571Y-127576666D02*
X58338666Y-127500475D01*
X58110095Y-128643333D02*
X58110095Y-128490952D01*
X58110095Y-128490952D02*
X58148190Y-128414761D01*
X58148190Y-128414761D02*
X58186285Y-128376666D01*
X58186285Y-128376666D02*
X58300571Y-128300476D01*
X58300571Y-128300476D02*
X58452952Y-128262380D01*
X58452952Y-128262380D02*
X58757714Y-128262380D01*
X58757714Y-128262380D02*
X58833904Y-128300476D01*
X58833904Y-128300476D02*
X58872000Y-128338571D01*
X58872000Y-128338571D02*
X58910095Y-128414761D01*
X58910095Y-128414761D02*
X58910095Y-128567142D01*
X58910095Y-128567142D02*
X58872000Y-128643333D01*
X58872000Y-128643333D02*
X58833904Y-128681428D01*
X58833904Y-128681428D02*
X58757714Y-128719523D01*
X58757714Y-128719523D02*
X58567238Y-128719523D01*
X58567238Y-128719523D02*
X58491047Y-128681428D01*
X58491047Y-128681428D02*
X58452952Y-128643333D01*
X58452952Y-128643333D02*
X58414857Y-128567142D01*
X58414857Y-128567142D02*
X58414857Y-128414761D01*
X58414857Y-128414761D02*
X58452952Y-128338571D01*
X58452952Y-128338571D02*
X58491047Y-128300476D01*
X58491047Y-128300476D02*
X58567238Y-128262380D01*
D11*
%TO.C,C35*%
X79764285Y-160293904D02*
X79802381Y-160332000D01*
X79802381Y-160332000D02*
X79916666Y-160370095D01*
X79916666Y-160370095D02*
X79992857Y-160370095D01*
X79992857Y-160370095D02*
X80107143Y-160332000D01*
X80107143Y-160332000D02*
X80183333Y-160255809D01*
X80183333Y-160255809D02*
X80221428Y-160179619D01*
X80221428Y-160179619D02*
X80259524Y-160027238D01*
X80259524Y-160027238D02*
X80259524Y-159912952D01*
X80259524Y-159912952D02*
X80221428Y-159760571D01*
X80221428Y-159760571D02*
X80183333Y-159684380D01*
X80183333Y-159684380D02*
X80107143Y-159608190D01*
X80107143Y-159608190D02*
X79992857Y-159570095D01*
X79992857Y-159570095D02*
X79916666Y-159570095D01*
X79916666Y-159570095D02*
X79802381Y-159608190D01*
X79802381Y-159608190D02*
X79764285Y-159646285D01*
X79497619Y-159570095D02*
X79002381Y-159570095D01*
X79002381Y-159570095D02*
X79269047Y-159874857D01*
X79269047Y-159874857D02*
X79154762Y-159874857D01*
X79154762Y-159874857D02*
X79078571Y-159912952D01*
X79078571Y-159912952D02*
X79040476Y-159951047D01*
X79040476Y-159951047D02*
X79002381Y-160027238D01*
X79002381Y-160027238D02*
X79002381Y-160217714D01*
X79002381Y-160217714D02*
X79040476Y-160293904D01*
X79040476Y-160293904D02*
X79078571Y-160332000D01*
X79078571Y-160332000D02*
X79154762Y-160370095D01*
X79154762Y-160370095D02*
X79383333Y-160370095D01*
X79383333Y-160370095D02*
X79459524Y-160332000D01*
X79459524Y-160332000D02*
X79497619Y-160293904D01*
X78278571Y-159570095D02*
X78659523Y-159570095D01*
X78659523Y-159570095D02*
X78697619Y-159951047D01*
X78697619Y-159951047D02*
X78659523Y-159912952D01*
X78659523Y-159912952D02*
X78583333Y-159874857D01*
X78583333Y-159874857D02*
X78392857Y-159874857D01*
X78392857Y-159874857D02*
X78316666Y-159912952D01*
X78316666Y-159912952D02*
X78278571Y-159951047D01*
X78278571Y-159951047D02*
X78240476Y-160027238D01*
X78240476Y-160027238D02*
X78240476Y-160217714D01*
X78240476Y-160217714D02*
X78278571Y-160293904D01*
X78278571Y-160293904D02*
X78316666Y-160332000D01*
X78316666Y-160332000D02*
X78392857Y-160370095D01*
X78392857Y-160370095D02*
X78583333Y-160370095D01*
X78583333Y-160370095D02*
X78659523Y-160332000D01*
X78659523Y-160332000D02*
X78697619Y-160293904D01*
%TO.C,R5*%
X64910095Y-141086667D02*
X64529142Y-140820000D01*
X64910095Y-140629524D02*
X64110095Y-140629524D01*
X64110095Y-140629524D02*
X64110095Y-140934286D01*
X64110095Y-140934286D02*
X64148190Y-141010476D01*
X64148190Y-141010476D02*
X64186285Y-141048571D01*
X64186285Y-141048571D02*
X64262476Y-141086667D01*
X64262476Y-141086667D02*
X64376761Y-141086667D01*
X64376761Y-141086667D02*
X64452952Y-141048571D01*
X64452952Y-141048571D02*
X64491047Y-141010476D01*
X64491047Y-141010476D02*
X64529142Y-140934286D01*
X64529142Y-140934286D02*
X64529142Y-140629524D01*
X64110095Y-141810476D02*
X64110095Y-141429524D01*
X64110095Y-141429524D02*
X64491047Y-141391428D01*
X64491047Y-141391428D02*
X64452952Y-141429524D01*
X64452952Y-141429524D02*
X64414857Y-141505714D01*
X64414857Y-141505714D02*
X64414857Y-141696190D01*
X64414857Y-141696190D02*
X64452952Y-141772381D01*
X64452952Y-141772381D02*
X64491047Y-141810476D01*
X64491047Y-141810476D02*
X64567238Y-141848571D01*
X64567238Y-141848571D02*
X64757714Y-141848571D01*
X64757714Y-141848571D02*
X64833904Y-141810476D01*
X64833904Y-141810476D02*
X64872000Y-141772381D01*
X64872000Y-141772381D02*
X64910095Y-141696190D01*
X64910095Y-141696190D02*
X64910095Y-141505714D01*
X64910095Y-141505714D02*
X64872000Y-141429524D01*
X64872000Y-141429524D02*
X64833904Y-141391428D01*
%TO.C,J1*%
X54002619Y-82536666D02*
X54716904Y-82536666D01*
X54716904Y-82536666D02*
X54859761Y-82489047D01*
X54859761Y-82489047D02*
X54955000Y-82393809D01*
X54955000Y-82393809D02*
X55002619Y-82250952D01*
X55002619Y-82250952D02*
X55002619Y-82155714D01*
X55002619Y-83536666D02*
X55002619Y-82965238D01*
X55002619Y-83250952D02*
X54002619Y-83250952D01*
X54002619Y-83250952D02*
X54145476Y-83155714D01*
X54145476Y-83155714D02*
X54240714Y-83060476D01*
X54240714Y-83060476D02*
X54288333Y-82965238D01*
%TO.C,J14*%
X96959523Y-99462619D02*
X96959523Y-100176904D01*
X96959523Y-100176904D02*
X97007142Y-100319761D01*
X97007142Y-100319761D02*
X97102380Y-100415000D01*
X97102380Y-100415000D02*
X97245237Y-100462619D01*
X97245237Y-100462619D02*
X97340475Y-100462619D01*
X95959523Y-100462619D02*
X96530951Y-100462619D01*
X96245237Y-100462619D02*
X96245237Y-99462619D01*
X96245237Y-99462619D02*
X96340475Y-99605476D01*
X96340475Y-99605476D02*
X96435713Y-99700714D01*
X96435713Y-99700714D02*
X96530951Y-99748333D01*
X95102380Y-99795952D02*
X95102380Y-100462619D01*
X95340475Y-99415000D02*
X95578570Y-100129285D01*
X95578570Y-100129285D02*
X94959523Y-100129285D01*
%TO.C,R7*%
X65910095Y-144586667D02*
X65529142Y-144320000D01*
X65910095Y-144129524D02*
X65110095Y-144129524D01*
X65110095Y-144129524D02*
X65110095Y-144434286D01*
X65110095Y-144434286D02*
X65148190Y-144510476D01*
X65148190Y-144510476D02*
X65186285Y-144548571D01*
X65186285Y-144548571D02*
X65262476Y-144586667D01*
X65262476Y-144586667D02*
X65376761Y-144586667D01*
X65376761Y-144586667D02*
X65452952Y-144548571D01*
X65452952Y-144548571D02*
X65491047Y-144510476D01*
X65491047Y-144510476D02*
X65529142Y-144434286D01*
X65529142Y-144434286D02*
X65529142Y-144129524D01*
X65110095Y-144853333D02*
X65110095Y-145386667D01*
X65110095Y-145386667D02*
X65910095Y-145043809D01*
%TO.C,C20*%
X80214285Y-139543904D02*
X80252381Y-139582000D01*
X80252381Y-139582000D02*
X80366666Y-139620095D01*
X80366666Y-139620095D02*
X80442857Y-139620095D01*
X80442857Y-139620095D02*
X80557143Y-139582000D01*
X80557143Y-139582000D02*
X80633333Y-139505809D01*
X80633333Y-139505809D02*
X80671428Y-139429619D01*
X80671428Y-139429619D02*
X80709524Y-139277238D01*
X80709524Y-139277238D02*
X80709524Y-139162952D01*
X80709524Y-139162952D02*
X80671428Y-139010571D01*
X80671428Y-139010571D02*
X80633333Y-138934380D01*
X80633333Y-138934380D02*
X80557143Y-138858190D01*
X80557143Y-138858190D02*
X80442857Y-138820095D01*
X80442857Y-138820095D02*
X80366666Y-138820095D01*
X80366666Y-138820095D02*
X80252381Y-138858190D01*
X80252381Y-138858190D02*
X80214285Y-138896285D01*
X79909524Y-138896285D02*
X79871428Y-138858190D01*
X79871428Y-138858190D02*
X79795238Y-138820095D01*
X79795238Y-138820095D02*
X79604762Y-138820095D01*
X79604762Y-138820095D02*
X79528571Y-138858190D01*
X79528571Y-138858190D02*
X79490476Y-138896285D01*
X79490476Y-138896285D02*
X79452381Y-138972476D01*
X79452381Y-138972476D02*
X79452381Y-139048666D01*
X79452381Y-139048666D02*
X79490476Y-139162952D01*
X79490476Y-139162952D02*
X79947619Y-139620095D01*
X79947619Y-139620095D02*
X79452381Y-139620095D01*
X78957142Y-138820095D02*
X78880952Y-138820095D01*
X78880952Y-138820095D02*
X78804761Y-138858190D01*
X78804761Y-138858190D02*
X78766666Y-138896285D01*
X78766666Y-138896285D02*
X78728571Y-138972476D01*
X78728571Y-138972476D02*
X78690476Y-139124857D01*
X78690476Y-139124857D02*
X78690476Y-139315333D01*
X78690476Y-139315333D02*
X78728571Y-139467714D01*
X78728571Y-139467714D02*
X78766666Y-139543904D01*
X78766666Y-139543904D02*
X78804761Y-139582000D01*
X78804761Y-139582000D02*
X78880952Y-139620095D01*
X78880952Y-139620095D02*
X78957142Y-139620095D01*
X78957142Y-139620095D02*
X79033333Y-139582000D01*
X79033333Y-139582000D02*
X79071428Y-139543904D01*
X79071428Y-139543904D02*
X79109523Y-139467714D01*
X79109523Y-139467714D02*
X79147619Y-139315333D01*
X79147619Y-139315333D02*
X79147619Y-139124857D01*
X79147619Y-139124857D02*
X79109523Y-138972476D01*
X79109523Y-138972476D02*
X79071428Y-138896285D01*
X79071428Y-138896285D02*
X79033333Y-138858190D01*
X79033333Y-138858190D02*
X78957142Y-138820095D01*
%TO.C,R39*%
X74070095Y-69985714D02*
X73689142Y-69719047D01*
X74070095Y-69528571D02*
X73270095Y-69528571D01*
X73270095Y-69528571D02*
X73270095Y-69833333D01*
X73270095Y-69833333D02*
X73308190Y-69909523D01*
X73308190Y-69909523D02*
X73346285Y-69947618D01*
X73346285Y-69947618D02*
X73422476Y-69985714D01*
X73422476Y-69985714D02*
X73536761Y-69985714D01*
X73536761Y-69985714D02*
X73612952Y-69947618D01*
X73612952Y-69947618D02*
X73651047Y-69909523D01*
X73651047Y-69909523D02*
X73689142Y-69833333D01*
X73689142Y-69833333D02*
X73689142Y-69528571D01*
X73270095Y-70252380D02*
X73270095Y-70747618D01*
X73270095Y-70747618D02*
X73574857Y-70480952D01*
X73574857Y-70480952D02*
X73574857Y-70595237D01*
X73574857Y-70595237D02*
X73612952Y-70671428D01*
X73612952Y-70671428D02*
X73651047Y-70709523D01*
X73651047Y-70709523D02*
X73727238Y-70747618D01*
X73727238Y-70747618D02*
X73917714Y-70747618D01*
X73917714Y-70747618D02*
X73993904Y-70709523D01*
X73993904Y-70709523D02*
X74032000Y-70671428D01*
X74032000Y-70671428D02*
X74070095Y-70595237D01*
X74070095Y-70595237D02*
X74070095Y-70366666D01*
X74070095Y-70366666D02*
X74032000Y-70290475D01*
X74032000Y-70290475D02*
X73993904Y-70252380D01*
X74070095Y-71128571D02*
X74070095Y-71280952D01*
X74070095Y-71280952D02*
X74032000Y-71357142D01*
X74032000Y-71357142D02*
X73993904Y-71395238D01*
X73993904Y-71395238D02*
X73879619Y-71471428D01*
X73879619Y-71471428D02*
X73727238Y-71509523D01*
X73727238Y-71509523D02*
X73422476Y-71509523D01*
X73422476Y-71509523D02*
X73346285Y-71471428D01*
X73346285Y-71471428D02*
X73308190Y-71433333D01*
X73308190Y-71433333D02*
X73270095Y-71357142D01*
X73270095Y-71357142D02*
X73270095Y-71204761D01*
X73270095Y-71204761D02*
X73308190Y-71128571D01*
X73308190Y-71128571D02*
X73346285Y-71090476D01*
X73346285Y-71090476D02*
X73422476Y-71052380D01*
X73422476Y-71052380D02*
X73612952Y-71052380D01*
X73612952Y-71052380D02*
X73689142Y-71090476D01*
X73689142Y-71090476D02*
X73727238Y-71128571D01*
X73727238Y-71128571D02*
X73765333Y-71204761D01*
X73765333Y-71204761D02*
X73765333Y-71357142D01*
X73765333Y-71357142D02*
X73727238Y-71433333D01*
X73727238Y-71433333D02*
X73689142Y-71471428D01*
X73689142Y-71471428D02*
X73612952Y-71509523D01*
%TO.C,C16*%
X83682857Y-147087380D02*
X83730476Y-147135000D01*
X83730476Y-147135000D02*
X83873333Y-147182619D01*
X83873333Y-147182619D02*
X83968571Y-147182619D01*
X83968571Y-147182619D02*
X84111428Y-147135000D01*
X84111428Y-147135000D02*
X84206666Y-147039761D01*
X84206666Y-147039761D02*
X84254285Y-146944523D01*
X84254285Y-146944523D02*
X84301904Y-146754047D01*
X84301904Y-146754047D02*
X84301904Y-146611190D01*
X84301904Y-146611190D02*
X84254285Y-146420714D01*
X84254285Y-146420714D02*
X84206666Y-146325476D01*
X84206666Y-146325476D02*
X84111428Y-146230238D01*
X84111428Y-146230238D02*
X83968571Y-146182619D01*
X83968571Y-146182619D02*
X83873333Y-146182619D01*
X83873333Y-146182619D02*
X83730476Y-146230238D01*
X83730476Y-146230238D02*
X83682857Y-146277857D01*
X82730476Y-147182619D02*
X83301904Y-147182619D01*
X83016190Y-147182619D02*
X83016190Y-146182619D01*
X83016190Y-146182619D02*
X83111428Y-146325476D01*
X83111428Y-146325476D02*
X83206666Y-146420714D01*
X83206666Y-146420714D02*
X83301904Y-146468333D01*
X81873333Y-146182619D02*
X82063809Y-146182619D01*
X82063809Y-146182619D02*
X82159047Y-146230238D01*
X82159047Y-146230238D02*
X82206666Y-146277857D01*
X82206666Y-146277857D02*
X82301904Y-146420714D01*
X82301904Y-146420714D02*
X82349523Y-146611190D01*
X82349523Y-146611190D02*
X82349523Y-146992142D01*
X82349523Y-146992142D02*
X82301904Y-147087380D01*
X82301904Y-147087380D02*
X82254285Y-147135000D01*
X82254285Y-147135000D02*
X82159047Y-147182619D01*
X82159047Y-147182619D02*
X81968571Y-147182619D01*
X81968571Y-147182619D02*
X81873333Y-147135000D01*
X81873333Y-147135000D02*
X81825714Y-147087380D01*
X81825714Y-147087380D02*
X81778095Y-146992142D01*
X81778095Y-146992142D02*
X81778095Y-146754047D01*
X81778095Y-146754047D02*
X81825714Y-146658809D01*
X81825714Y-146658809D02*
X81873333Y-146611190D01*
X81873333Y-146611190D02*
X81968571Y-146563571D01*
X81968571Y-146563571D02*
X82159047Y-146563571D01*
X82159047Y-146563571D02*
X82254285Y-146611190D01*
X82254285Y-146611190D02*
X82301904Y-146658809D01*
X82301904Y-146658809D02*
X82349523Y-146754047D01*
%TO.C,C19*%
X82964285Y-137693904D02*
X83002381Y-137732000D01*
X83002381Y-137732000D02*
X83116666Y-137770095D01*
X83116666Y-137770095D02*
X83192857Y-137770095D01*
X83192857Y-137770095D02*
X83307143Y-137732000D01*
X83307143Y-137732000D02*
X83383333Y-137655809D01*
X83383333Y-137655809D02*
X83421428Y-137579619D01*
X83421428Y-137579619D02*
X83459524Y-137427238D01*
X83459524Y-137427238D02*
X83459524Y-137312952D01*
X83459524Y-137312952D02*
X83421428Y-137160571D01*
X83421428Y-137160571D02*
X83383333Y-137084380D01*
X83383333Y-137084380D02*
X83307143Y-137008190D01*
X83307143Y-137008190D02*
X83192857Y-136970095D01*
X83192857Y-136970095D02*
X83116666Y-136970095D01*
X83116666Y-136970095D02*
X83002381Y-137008190D01*
X83002381Y-137008190D02*
X82964285Y-137046285D01*
X82202381Y-137770095D02*
X82659524Y-137770095D01*
X82430952Y-137770095D02*
X82430952Y-136970095D01*
X82430952Y-136970095D02*
X82507143Y-137084380D01*
X82507143Y-137084380D02*
X82583333Y-137160571D01*
X82583333Y-137160571D02*
X82659524Y-137198666D01*
X81821428Y-137770095D02*
X81669047Y-137770095D01*
X81669047Y-137770095D02*
X81592857Y-137732000D01*
X81592857Y-137732000D02*
X81554761Y-137693904D01*
X81554761Y-137693904D02*
X81478571Y-137579619D01*
X81478571Y-137579619D02*
X81440476Y-137427238D01*
X81440476Y-137427238D02*
X81440476Y-137122476D01*
X81440476Y-137122476D02*
X81478571Y-137046285D01*
X81478571Y-137046285D02*
X81516666Y-137008190D01*
X81516666Y-137008190D02*
X81592857Y-136970095D01*
X81592857Y-136970095D02*
X81745238Y-136970095D01*
X81745238Y-136970095D02*
X81821428Y-137008190D01*
X81821428Y-137008190D02*
X81859523Y-137046285D01*
X81859523Y-137046285D02*
X81897619Y-137122476D01*
X81897619Y-137122476D02*
X81897619Y-137312952D01*
X81897619Y-137312952D02*
X81859523Y-137389142D01*
X81859523Y-137389142D02*
X81821428Y-137427238D01*
X81821428Y-137427238D02*
X81745238Y-137465333D01*
X81745238Y-137465333D02*
X81592857Y-137465333D01*
X81592857Y-137465333D02*
X81516666Y-137427238D01*
X81516666Y-137427238D02*
X81478571Y-137389142D01*
X81478571Y-137389142D02*
X81440476Y-137312952D01*
%TO.C,C31*%
X57364285Y-160293904D02*
X57402381Y-160332000D01*
X57402381Y-160332000D02*
X57516666Y-160370095D01*
X57516666Y-160370095D02*
X57592857Y-160370095D01*
X57592857Y-160370095D02*
X57707143Y-160332000D01*
X57707143Y-160332000D02*
X57783333Y-160255809D01*
X57783333Y-160255809D02*
X57821428Y-160179619D01*
X57821428Y-160179619D02*
X57859524Y-160027238D01*
X57859524Y-160027238D02*
X57859524Y-159912952D01*
X57859524Y-159912952D02*
X57821428Y-159760571D01*
X57821428Y-159760571D02*
X57783333Y-159684380D01*
X57783333Y-159684380D02*
X57707143Y-159608190D01*
X57707143Y-159608190D02*
X57592857Y-159570095D01*
X57592857Y-159570095D02*
X57516666Y-159570095D01*
X57516666Y-159570095D02*
X57402381Y-159608190D01*
X57402381Y-159608190D02*
X57364285Y-159646285D01*
X57097619Y-159570095D02*
X56602381Y-159570095D01*
X56602381Y-159570095D02*
X56869047Y-159874857D01*
X56869047Y-159874857D02*
X56754762Y-159874857D01*
X56754762Y-159874857D02*
X56678571Y-159912952D01*
X56678571Y-159912952D02*
X56640476Y-159951047D01*
X56640476Y-159951047D02*
X56602381Y-160027238D01*
X56602381Y-160027238D02*
X56602381Y-160217714D01*
X56602381Y-160217714D02*
X56640476Y-160293904D01*
X56640476Y-160293904D02*
X56678571Y-160332000D01*
X56678571Y-160332000D02*
X56754762Y-160370095D01*
X56754762Y-160370095D02*
X56983333Y-160370095D01*
X56983333Y-160370095D02*
X57059524Y-160332000D01*
X57059524Y-160332000D02*
X57097619Y-160293904D01*
X55840476Y-160370095D02*
X56297619Y-160370095D01*
X56069047Y-160370095D02*
X56069047Y-159570095D01*
X56069047Y-159570095D02*
X56145238Y-159684380D01*
X56145238Y-159684380D02*
X56221428Y-159760571D01*
X56221428Y-159760571D02*
X56297619Y-159798666D01*
%TO.C,C15*%
X66833904Y-140705714D02*
X66872000Y-140667618D01*
X66872000Y-140667618D02*
X66910095Y-140553333D01*
X66910095Y-140553333D02*
X66910095Y-140477142D01*
X66910095Y-140477142D02*
X66872000Y-140362856D01*
X66872000Y-140362856D02*
X66795809Y-140286666D01*
X66795809Y-140286666D02*
X66719619Y-140248571D01*
X66719619Y-140248571D02*
X66567238Y-140210475D01*
X66567238Y-140210475D02*
X66452952Y-140210475D01*
X66452952Y-140210475D02*
X66300571Y-140248571D01*
X66300571Y-140248571D02*
X66224380Y-140286666D01*
X66224380Y-140286666D02*
X66148190Y-140362856D01*
X66148190Y-140362856D02*
X66110095Y-140477142D01*
X66110095Y-140477142D02*
X66110095Y-140553333D01*
X66110095Y-140553333D02*
X66148190Y-140667618D01*
X66148190Y-140667618D02*
X66186285Y-140705714D01*
X66910095Y-141467618D02*
X66910095Y-141010475D01*
X66910095Y-141239047D02*
X66110095Y-141239047D01*
X66110095Y-141239047D02*
X66224380Y-141162856D01*
X66224380Y-141162856D02*
X66300571Y-141086666D01*
X66300571Y-141086666D02*
X66338666Y-141010475D01*
X66110095Y-142191428D02*
X66110095Y-141810476D01*
X66110095Y-141810476D02*
X66491047Y-141772380D01*
X66491047Y-141772380D02*
X66452952Y-141810476D01*
X66452952Y-141810476D02*
X66414857Y-141886666D01*
X66414857Y-141886666D02*
X66414857Y-142077142D01*
X66414857Y-142077142D02*
X66452952Y-142153333D01*
X66452952Y-142153333D02*
X66491047Y-142191428D01*
X66491047Y-142191428D02*
X66567238Y-142229523D01*
X66567238Y-142229523D02*
X66757714Y-142229523D01*
X66757714Y-142229523D02*
X66833904Y-142191428D01*
X66833904Y-142191428D02*
X66872000Y-142153333D01*
X66872000Y-142153333D02*
X66910095Y-142077142D01*
X66910095Y-142077142D02*
X66910095Y-141886666D01*
X66910095Y-141886666D02*
X66872000Y-141810476D01*
X66872000Y-141810476D02*
X66833904Y-141772380D01*
%TO.C,R27*%
X75410095Y-164205714D02*
X75029142Y-163939047D01*
X75410095Y-163748571D02*
X74610095Y-163748571D01*
X74610095Y-163748571D02*
X74610095Y-164053333D01*
X74610095Y-164053333D02*
X74648190Y-164129523D01*
X74648190Y-164129523D02*
X74686285Y-164167618D01*
X74686285Y-164167618D02*
X74762476Y-164205714D01*
X74762476Y-164205714D02*
X74876761Y-164205714D01*
X74876761Y-164205714D02*
X74952952Y-164167618D01*
X74952952Y-164167618D02*
X74991047Y-164129523D01*
X74991047Y-164129523D02*
X75029142Y-164053333D01*
X75029142Y-164053333D02*
X75029142Y-163748571D01*
X74686285Y-164510475D02*
X74648190Y-164548571D01*
X74648190Y-164548571D02*
X74610095Y-164624761D01*
X74610095Y-164624761D02*
X74610095Y-164815237D01*
X74610095Y-164815237D02*
X74648190Y-164891428D01*
X74648190Y-164891428D02*
X74686285Y-164929523D01*
X74686285Y-164929523D02*
X74762476Y-164967618D01*
X74762476Y-164967618D02*
X74838666Y-164967618D01*
X74838666Y-164967618D02*
X74952952Y-164929523D01*
X74952952Y-164929523D02*
X75410095Y-164472380D01*
X75410095Y-164472380D02*
X75410095Y-164967618D01*
X74610095Y-165234285D02*
X74610095Y-165767619D01*
X74610095Y-165767619D02*
X75410095Y-165424761D01*
D10*
%TO.C,R17*%
X71900095Y-123705714D02*
X71519142Y-123439047D01*
X71900095Y-123248571D02*
X71100095Y-123248571D01*
X71100095Y-123248571D02*
X71100095Y-123553333D01*
X71100095Y-123553333D02*
X71138190Y-123629523D01*
X71138190Y-123629523D02*
X71176285Y-123667618D01*
X71176285Y-123667618D02*
X71252476Y-123705714D01*
X71252476Y-123705714D02*
X71366761Y-123705714D01*
X71366761Y-123705714D02*
X71442952Y-123667618D01*
X71442952Y-123667618D02*
X71481047Y-123629523D01*
X71481047Y-123629523D02*
X71519142Y-123553333D01*
X71519142Y-123553333D02*
X71519142Y-123248571D01*
X71900095Y-124467618D02*
X71900095Y-124010475D01*
X71900095Y-124239047D02*
X71100095Y-124239047D01*
X71100095Y-124239047D02*
X71214380Y-124162856D01*
X71214380Y-124162856D02*
X71290571Y-124086666D01*
X71290571Y-124086666D02*
X71328666Y-124010475D01*
X71100095Y-124734285D02*
X71100095Y-125267619D01*
X71100095Y-125267619D02*
X71900095Y-124924761D01*
%TO.C,C25*%
X68833904Y-125725714D02*
X68872000Y-125687618D01*
X68872000Y-125687618D02*
X68910095Y-125573333D01*
X68910095Y-125573333D02*
X68910095Y-125497142D01*
X68910095Y-125497142D02*
X68872000Y-125382856D01*
X68872000Y-125382856D02*
X68795809Y-125306666D01*
X68795809Y-125306666D02*
X68719619Y-125268571D01*
X68719619Y-125268571D02*
X68567238Y-125230475D01*
X68567238Y-125230475D02*
X68452952Y-125230475D01*
X68452952Y-125230475D02*
X68300571Y-125268571D01*
X68300571Y-125268571D02*
X68224380Y-125306666D01*
X68224380Y-125306666D02*
X68148190Y-125382856D01*
X68148190Y-125382856D02*
X68110095Y-125497142D01*
X68110095Y-125497142D02*
X68110095Y-125573333D01*
X68110095Y-125573333D02*
X68148190Y-125687618D01*
X68148190Y-125687618D02*
X68186285Y-125725714D01*
X68186285Y-126030475D02*
X68148190Y-126068571D01*
X68148190Y-126068571D02*
X68110095Y-126144761D01*
X68110095Y-126144761D02*
X68110095Y-126335237D01*
X68110095Y-126335237D02*
X68148190Y-126411428D01*
X68148190Y-126411428D02*
X68186285Y-126449523D01*
X68186285Y-126449523D02*
X68262476Y-126487618D01*
X68262476Y-126487618D02*
X68338666Y-126487618D01*
X68338666Y-126487618D02*
X68452952Y-126449523D01*
X68452952Y-126449523D02*
X68910095Y-125992380D01*
X68910095Y-125992380D02*
X68910095Y-126487618D01*
X68110095Y-127211428D02*
X68110095Y-126830476D01*
X68110095Y-126830476D02*
X68491047Y-126792380D01*
X68491047Y-126792380D02*
X68452952Y-126830476D01*
X68452952Y-126830476D02*
X68414857Y-126906666D01*
X68414857Y-126906666D02*
X68414857Y-127097142D01*
X68414857Y-127097142D02*
X68452952Y-127173333D01*
X68452952Y-127173333D02*
X68491047Y-127211428D01*
X68491047Y-127211428D02*
X68567238Y-127249523D01*
X68567238Y-127249523D02*
X68757714Y-127249523D01*
X68757714Y-127249523D02*
X68833904Y-127211428D01*
X68833904Y-127211428D02*
X68872000Y-127173333D01*
X68872000Y-127173333D02*
X68910095Y-127097142D01*
X68910095Y-127097142D02*
X68910095Y-126906666D01*
X68910095Y-126906666D02*
X68872000Y-126830476D01*
X68872000Y-126830476D02*
X68833904Y-126792380D01*
D11*
%TO.C,C12*%
X67764285Y-138943904D02*
X67802381Y-138982000D01*
X67802381Y-138982000D02*
X67916666Y-139020095D01*
X67916666Y-139020095D02*
X67992857Y-139020095D01*
X67992857Y-139020095D02*
X68107143Y-138982000D01*
X68107143Y-138982000D02*
X68183333Y-138905809D01*
X68183333Y-138905809D02*
X68221428Y-138829619D01*
X68221428Y-138829619D02*
X68259524Y-138677238D01*
X68259524Y-138677238D02*
X68259524Y-138562952D01*
X68259524Y-138562952D02*
X68221428Y-138410571D01*
X68221428Y-138410571D02*
X68183333Y-138334380D01*
X68183333Y-138334380D02*
X68107143Y-138258190D01*
X68107143Y-138258190D02*
X67992857Y-138220095D01*
X67992857Y-138220095D02*
X67916666Y-138220095D01*
X67916666Y-138220095D02*
X67802381Y-138258190D01*
X67802381Y-138258190D02*
X67764285Y-138296285D01*
X67002381Y-139020095D02*
X67459524Y-139020095D01*
X67230952Y-139020095D02*
X67230952Y-138220095D01*
X67230952Y-138220095D02*
X67307143Y-138334380D01*
X67307143Y-138334380D02*
X67383333Y-138410571D01*
X67383333Y-138410571D02*
X67459524Y-138448666D01*
X66697619Y-138296285D02*
X66659523Y-138258190D01*
X66659523Y-138258190D02*
X66583333Y-138220095D01*
X66583333Y-138220095D02*
X66392857Y-138220095D01*
X66392857Y-138220095D02*
X66316666Y-138258190D01*
X66316666Y-138258190D02*
X66278571Y-138296285D01*
X66278571Y-138296285D02*
X66240476Y-138372476D01*
X66240476Y-138372476D02*
X66240476Y-138448666D01*
X66240476Y-138448666D02*
X66278571Y-138562952D01*
X66278571Y-138562952D02*
X66735714Y-139020095D01*
X66735714Y-139020095D02*
X66240476Y-139020095D01*
%TO.C,J13*%
X95444523Y-88637619D02*
X95444523Y-89351904D01*
X95444523Y-89351904D02*
X95492142Y-89494761D01*
X95492142Y-89494761D02*
X95587380Y-89590000D01*
X95587380Y-89590000D02*
X95730237Y-89637619D01*
X95730237Y-89637619D02*
X95825475Y-89637619D01*
X94444523Y-89637619D02*
X95015951Y-89637619D01*
X94730237Y-89637619D02*
X94730237Y-88637619D01*
X94730237Y-88637619D02*
X94825475Y-88780476D01*
X94825475Y-88780476D02*
X94920713Y-88875714D01*
X94920713Y-88875714D02*
X95015951Y-88923333D01*
X94111189Y-88637619D02*
X93492142Y-88637619D01*
X93492142Y-88637619D02*
X93825475Y-89018571D01*
X93825475Y-89018571D02*
X93682618Y-89018571D01*
X93682618Y-89018571D02*
X93587380Y-89066190D01*
X93587380Y-89066190D02*
X93539761Y-89113809D01*
X93539761Y-89113809D02*
X93492142Y-89209047D01*
X93492142Y-89209047D02*
X93492142Y-89447142D01*
X93492142Y-89447142D02*
X93539761Y-89542380D01*
X93539761Y-89542380D02*
X93587380Y-89590000D01*
X93587380Y-89590000D02*
X93682618Y-89637619D01*
X93682618Y-89637619D02*
X93968332Y-89637619D01*
X93968332Y-89637619D02*
X94063570Y-89590000D01*
X94063570Y-89590000D02*
X94111189Y-89542380D01*
%TO.C,C28*%
X69264285Y-160143904D02*
X69302381Y-160182000D01*
X69302381Y-160182000D02*
X69416666Y-160220095D01*
X69416666Y-160220095D02*
X69492857Y-160220095D01*
X69492857Y-160220095D02*
X69607143Y-160182000D01*
X69607143Y-160182000D02*
X69683333Y-160105809D01*
X69683333Y-160105809D02*
X69721428Y-160029619D01*
X69721428Y-160029619D02*
X69759524Y-159877238D01*
X69759524Y-159877238D02*
X69759524Y-159762952D01*
X69759524Y-159762952D02*
X69721428Y-159610571D01*
X69721428Y-159610571D02*
X69683333Y-159534380D01*
X69683333Y-159534380D02*
X69607143Y-159458190D01*
X69607143Y-159458190D02*
X69492857Y-159420095D01*
X69492857Y-159420095D02*
X69416666Y-159420095D01*
X69416666Y-159420095D02*
X69302381Y-159458190D01*
X69302381Y-159458190D02*
X69264285Y-159496285D01*
X68959524Y-159496285D02*
X68921428Y-159458190D01*
X68921428Y-159458190D02*
X68845238Y-159420095D01*
X68845238Y-159420095D02*
X68654762Y-159420095D01*
X68654762Y-159420095D02*
X68578571Y-159458190D01*
X68578571Y-159458190D02*
X68540476Y-159496285D01*
X68540476Y-159496285D02*
X68502381Y-159572476D01*
X68502381Y-159572476D02*
X68502381Y-159648666D01*
X68502381Y-159648666D02*
X68540476Y-159762952D01*
X68540476Y-159762952D02*
X68997619Y-160220095D01*
X68997619Y-160220095D02*
X68502381Y-160220095D01*
X68045238Y-159762952D02*
X68121428Y-159724857D01*
X68121428Y-159724857D02*
X68159523Y-159686761D01*
X68159523Y-159686761D02*
X68197619Y-159610571D01*
X68197619Y-159610571D02*
X68197619Y-159572476D01*
X68197619Y-159572476D02*
X68159523Y-159496285D01*
X68159523Y-159496285D02*
X68121428Y-159458190D01*
X68121428Y-159458190D02*
X68045238Y-159420095D01*
X68045238Y-159420095D02*
X67892857Y-159420095D01*
X67892857Y-159420095D02*
X67816666Y-159458190D01*
X67816666Y-159458190D02*
X67778571Y-159496285D01*
X67778571Y-159496285D02*
X67740476Y-159572476D01*
X67740476Y-159572476D02*
X67740476Y-159610571D01*
X67740476Y-159610571D02*
X67778571Y-159686761D01*
X67778571Y-159686761D02*
X67816666Y-159724857D01*
X67816666Y-159724857D02*
X67892857Y-159762952D01*
X67892857Y-159762952D02*
X68045238Y-159762952D01*
X68045238Y-159762952D02*
X68121428Y-159801047D01*
X68121428Y-159801047D02*
X68159523Y-159839142D01*
X68159523Y-159839142D02*
X68197619Y-159915333D01*
X68197619Y-159915333D02*
X68197619Y-160067714D01*
X68197619Y-160067714D02*
X68159523Y-160143904D01*
X68159523Y-160143904D02*
X68121428Y-160182000D01*
X68121428Y-160182000D02*
X68045238Y-160220095D01*
X68045238Y-160220095D02*
X67892857Y-160220095D01*
X67892857Y-160220095D02*
X67816666Y-160182000D01*
X67816666Y-160182000D02*
X67778571Y-160143904D01*
X67778571Y-160143904D02*
X67740476Y-160067714D01*
X67740476Y-160067714D02*
X67740476Y-159915333D01*
X67740476Y-159915333D02*
X67778571Y-159839142D01*
X67778571Y-159839142D02*
X67816666Y-159801047D01*
X67816666Y-159801047D02*
X67892857Y-159762952D01*
D10*
%TO.C,C23*%
X59833904Y-127205714D02*
X59872000Y-127167618D01*
X59872000Y-127167618D02*
X59910095Y-127053333D01*
X59910095Y-127053333D02*
X59910095Y-126977142D01*
X59910095Y-126977142D02*
X59872000Y-126862856D01*
X59872000Y-126862856D02*
X59795809Y-126786666D01*
X59795809Y-126786666D02*
X59719619Y-126748571D01*
X59719619Y-126748571D02*
X59567238Y-126710475D01*
X59567238Y-126710475D02*
X59452952Y-126710475D01*
X59452952Y-126710475D02*
X59300571Y-126748571D01*
X59300571Y-126748571D02*
X59224380Y-126786666D01*
X59224380Y-126786666D02*
X59148190Y-126862856D01*
X59148190Y-126862856D02*
X59110095Y-126977142D01*
X59110095Y-126977142D02*
X59110095Y-127053333D01*
X59110095Y-127053333D02*
X59148190Y-127167618D01*
X59148190Y-127167618D02*
X59186285Y-127205714D01*
X59186285Y-127510475D02*
X59148190Y-127548571D01*
X59148190Y-127548571D02*
X59110095Y-127624761D01*
X59110095Y-127624761D02*
X59110095Y-127815237D01*
X59110095Y-127815237D02*
X59148190Y-127891428D01*
X59148190Y-127891428D02*
X59186285Y-127929523D01*
X59186285Y-127929523D02*
X59262476Y-127967618D01*
X59262476Y-127967618D02*
X59338666Y-127967618D01*
X59338666Y-127967618D02*
X59452952Y-127929523D01*
X59452952Y-127929523D02*
X59910095Y-127472380D01*
X59910095Y-127472380D02*
X59910095Y-127967618D01*
X59110095Y-128234285D02*
X59110095Y-128729523D01*
X59110095Y-128729523D02*
X59414857Y-128462857D01*
X59414857Y-128462857D02*
X59414857Y-128577142D01*
X59414857Y-128577142D02*
X59452952Y-128653333D01*
X59452952Y-128653333D02*
X59491047Y-128691428D01*
X59491047Y-128691428D02*
X59567238Y-128729523D01*
X59567238Y-128729523D02*
X59757714Y-128729523D01*
X59757714Y-128729523D02*
X59833904Y-128691428D01*
X59833904Y-128691428D02*
X59872000Y-128653333D01*
X59872000Y-128653333D02*
X59910095Y-128577142D01*
X59910095Y-128577142D02*
X59910095Y-128348571D01*
X59910095Y-128348571D02*
X59872000Y-128272380D01*
X59872000Y-128272380D02*
X59833904Y-128234285D01*
D11*
%TO.C,R2*%
X65910095Y-135616667D02*
X65529142Y-135350000D01*
X65910095Y-135159524D02*
X65110095Y-135159524D01*
X65110095Y-135159524D02*
X65110095Y-135464286D01*
X65110095Y-135464286D02*
X65148190Y-135540476D01*
X65148190Y-135540476D02*
X65186285Y-135578571D01*
X65186285Y-135578571D02*
X65262476Y-135616667D01*
X65262476Y-135616667D02*
X65376761Y-135616667D01*
X65376761Y-135616667D02*
X65452952Y-135578571D01*
X65452952Y-135578571D02*
X65491047Y-135540476D01*
X65491047Y-135540476D02*
X65529142Y-135464286D01*
X65529142Y-135464286D02*
X65529142Y-135159524D01*
X65186285Y-135921428D02*
X65148190Y-135959524D01*
X65148190Y-135959524D02*
X65110095Y-136035714D01*
X65110095Y-136035714D02*
X65110095Y-136226190D01*
X65110095Y-136226190D02*
X65148190Y-136302381D01*
X65148190Y-136302381D02*
X65186285Y-136340476D01*
X65186285Y-136340476D02*
X65262476Y-136378571D01*
X65262476Y-136378571D02*
X65338666Y-136378571D01*
X65338666Y-136378571D02*
X65452952Y-136340476D01*
X65452952Y-136340476D02*
X65910095Y-135883333D01*
X65910095Y-135883333D02*
X65910095Y-136378571D01*
%TO.C,R26*%
X74554285Y-158590095D02*
X74820952Y-158209142D01*
X75011428Y-158590095D02*
X75011428Y-157790095D01*
X75011428Y-157790095D02*
X74706666Y-157790095D01*
X74706666Y-157790095D02*
X74630476Y-157828190D01*
X74630476Y-157828190D02*
X74592381Y-157866285D01*
X74592381Y-157866285D02*
X74554285Y-157942476D01*
X74554285Y-157942476D02*
X74554285Y-158056761D01*
X74554285Y-158056761D02*
X74592381Y-158132952D01*
X74592381Y-158132952D02*
X74630476Y-158171047D01*
X74630476Y-158171047D02*
X74706666Y-158209142D01*
X74706666Y-158209142D02*
X75011428Y-158209142D01*
X74249524Y-157866285D02*
X74211428Y-157828190D01*
X74211428Y-157828190D02*
X74135238Y-157790095D01*
X74135238Y-157790095D02*
X73944762Y-157790095D01*
X73944762Y-157790095D02*
X73868571Y-157828190D01*
X73868571Y-157828190D02*
X73830476Y-157866285D01*
X73830476Y-157866285D02*
X73792381Y-157942476D01*
X73792381Y-157942476D02*
X73792381Y-158018666D01*
X73792381Y-158018666D02*
X73830476Y-158132952D01*
X73830476Y-158132952D02*
X74287619Y-158590095D01*
X74287619Y-158590095D02*
X73792381Y-158590095D01*
X73106666Y-157790095D02*
X73259047Y-157790095D01*
X73259047Y-157790095D02*
X73335238Y-157828190D01*
X73335238Y-157828190D02*
X73373333Y-157866285D01*
X73373333Y-157866285D02*
X73449523Y-157980571D01*
X73449523Y-157980571D02*
X73487619Y-158132952D01*
X73487619Y-158132952D02*
X73487619Y-158437714D01*
X73487619Y-158437714D02*
X73449523Y-158513904D01*
X73449523Y-158513904D02*
X73411428Y-158552000D01*
X73411428Y-158552000D02*
X73335238Y-158590095D01*
X73335238Y-158590095D02*
X73182857Y-158590095D01*
X73182857Y-158590095D02*
X73106666Y-158552000D01*
X73106666Y-158552000D02*
X73068571Y-158513904D01*
X73068571Y-158513904D02*
X73030476Y-158437714D01*
X73030476Y-158437714D02*
X73030476Y-158247238D01*
X73030476Y-158247238D02*
X73068571Y-158171047D01*
X73068571Y-158171047D02*
X73106666Y-158132952D01*
X73106666Y-158132952D02*
X73182857Y-158094857D01*
X73182857Y-158094857D02*
X73335238Y-158094857D01*
X73335238Y-158094857D02*
X73411428Y-158132952D01*
X73411428Y-158132952D02*
X73449523Y-158171047D01*
X73449523Y-158171047D02*
X73487619Y-158247238D01*
%TO.C,R21*%
X56870095Y-161735714D02*
X56489142Y-161469047D01*
X56870095Y-161278571D02*
X56070095Y-161278571D01*
X56070095Y-161278571D02*
X56070095Y-161583333D01*
X56070095Y-161583333D02*
X56108190Y-161659523D01*
X56108190Y-161659523D02*
X56146285Y-161697618D01*
X56146285Y-161697618D02*
X56222476Y-161735714D01*
X56222476Y-161735714D02*
X56336761Y-161735714D01*
X56336761Y-161735714D02*
X56412952Y-161697618D01*
X56412952Y-161697618D02*
X56451047Y-161659523D01*
X56451047Y-161659523D02*
X56489142Y-161583333D01*
X56489142Y-161583333D02*
X56489142Y-161278571D01*
X56146285Y-162040475D02*
X56108190Y-162078571D01*
X56108190Y-162078571D02*
X56070095Y-162154761D01*
X56070095Y-162154761D02*
X56070095Y-162345237D01*
X56070095Y-162345237D02*
X56108190Y-162421428D01*
X56108190Y-162421428D02*
X56146285Y-162459523D01*
X56146285Y-162459523D02*
X56222476Y-162497618D01*
X56222476Y-162497618D02*
X56298666Y-162497618D01*
X56298666Y-162497618D02*
X56412952Y-162459523D01*
X56412952Y-162459523D02*
X56870095Y-162002380D01*
X56870095Y-162002380D02*
X56870095Y-162497618D01*
X56870095Y-163259523D02*
X56870095Y-162802380D01*
X56870095Y-163030952D02*
X56070095Y-163030952D01*
X56070095Y-163030952D02*
X56184380Y-162954761D01*
X56184380Y-162954761D02*
X56260571Y-162878571D01*
X56260571Y-162878571D02*
X56298666Y-162802380D01*
%TO.C,C14*%
X68162857Y-147087380D02*
X68210476Y-147135000D01*
X68210476Y-147135000D02*
X68353333Y-147182619D01*
X68353333Y-147182619D02*
X68448571Y-147182619D01*
X68448571Y-147182619D02*
X68591428Y-147135000D01*
X68591428Y-147135000D02*
X68686666Y-147039761D01*
X68686666Y-147039761D02*
X68734285Y-146944523D01*
X68734285Y-146944523D02*
X68781904Y-146754047D01*
X68781904Y-146754047D02*
X68781904Y-146611190D01*
X68781904Y-146611190D02*
X68734285Y-146420714D01*
X68734285Y-146420714D02*
X68686666Y-146325476D01*
X68686666Y-146325476D02*
X68591428Y-146230238D01*
X68591428Y-146230238D02*
X68448571Y-146182619D01*
X68448571Y-146182619D02*
X68353333Y-146182619D01*
X68353333Y-146182619D02*
X68210476Y-146230238D01*
X68210476Y-146230238D02*
X68162857Y-146277857D01*
X67210476Y-147182619D02*
X67781904Y-147182619D01*
X67496190Y-147182619D02*
X67496190Y-146182619D01*
X67496190Y-146182619D02*
X67591428Y-146325476D01*
X67591428Y-146325476D02*
X67686666Y-146420714D01*
X67686666Y-146420714D02*
X67781904Y-146468333D01*
X66353333Y-146515952D02*
X66353333Y-147182619D01*
X66591428Y-146135000D02*
X66829523Y-146849285D01*
X66829523Y-146849285D02*
X66210476Y-146849285D01*
%TO.C,C33*%
X82214285Y-160193904D02*
X82252381Y-160232000D01*
X82252381Y-160232000D02*
X82366666Y-160270095D01*
X82366666Y-160270095D02*
X82442857Y-160270095D01*
X82442857Y-160270095D02*
X82557143Y-160232000D01*
X82557143Y-160232000D02*
X82633333Y-160155809D01*
X82633333Y-160155809D02*
X82671428Y-160079619D01*
X82671428Y-160079619D02*
X82709524Y-159927238D01*
X82709524Y-159927238D02*
X82709524Y-159812952D01*
X82709524Y-159812952D02*
X82671428Y-159660571D01*
X82671428Y-159660571D02*
X82633333Y-159584380D01*
X82633333Y-159584380D02*
X82557143Y-159508190D01*
X82557143Y-159508190D02*
X82442857Y-159470095D01*
X82442857Y-159470095D02*
X82366666Y-159470095D01*
X82366666Y-159470095D02*
X82252381Y-159508190D01*
X82252381Y-159508190D02*
X82214285Y-159546285D01*
X81947619Y-159470095D02*
X81452381Y-159470095D01*
X81452381Y-159470095D02*
X81719047Y-159774857D01*
X81719047Y-159774857D02*
X81604762Y-159774857D01*
X81604762Y-159774857D02*
X81528571Y-159812952D01*
X81528571Y-159812952D02*
X81490476Y-159851047D01*
X81490476Y-159851047D02*
X81452381Y-159927238D01*
X81452381Y-159927238D02*
X81452381Y-160117714D01*
X81452381Y-160117714D02*
X81490476Y-160193904D01*
X81490476Y-160193904D02*
X81528571Y-160232000D01*
X81528571Y-160232000D02*
X81604762Y-160270095D01*
X81604762Y-160270095D02*
X81833333Y-160270095D01*
X81833333Y-160270095D02*
X81909524Y-160232000D01*
X81909524Y-160232000D02*
X81947619Y-160193904D01*
X81185714Y-159470095D02*
X80690476Y-159470095D01*
X80690476Y-159470095D02*
X80957142Y-159774857D01*
X80957142Y-159774857D02*
X80842857Y-159774857D01*
X80842857Y-159774857D02*
X80766666Y-159812952D01*
X80766666Y-159812952D02*
X80728571Y-159851047D01*
X80728571Y-159851047D02*
X80690476Y-159927238D01*
X80690476Y-159927238D02*
X80690476Y-160117714D01*
X80690476Y-160117714D02*
X80728571Y-160193904D01*
X80728571Y-160193904D02*
X80766666Y-160232000D01*
X80766666Y-160232000D02*
X80842857Y-160270095D01*
X80842857Y-160270095D02*
X81071428Y-160270095D01*
X81071428Y-160270095D02*
X81147619Y-160232000D01*
X81147619Y-160232000D02*
X81185714Y-160193904D01*
D10*
%TO.C,C26*%
X57554285Y-124013904D02*
X57592381Y-124052000D01*
X57592381Y-124052000D02*
X57706666Y-124090095D01*
X57706666Y-124090095D02*
X57782857Y-124090095D01*
X57782857Y-124090095D02*
X57897143Y-124052000D01*
X57897143Y-124052000D02*
X57973333Y-123975809D01*
X57973333Y-123975809D02*
X58011428Y-123899619D01*
X58011428Y-123899619D02*
X58049524Y-123747238D01*
X58049524Y-123747238D02*
X58049524Y-123632952D01*
X58049524Y-123632952D02*
X58011428Y-123480571D01*
X58011428Y-123480571D02*
X57973333Y-123404380D01*
X57973333Y-123404380D02*
X57897143Y-123328190D01*
X57897143Y-123328190D02*
X57782857Y-123290095D01*
X57782857Y-123290095D02*
X57706666Y-123290095D01*
X57706666Y-123290095D02*
X57592381Y-123328190D01*
X57592381Y-123328190D02*
X57554285Y-123366285D01*
X57249524Y-123366285D02*
X57211428Y-123328190D01*
X57211428Y-123328190D02*
X57135238Y-123290095D01*
X57135238Y-123290095D02*
X56944762Y-123290095D01*
X56944762Y-123290095D02*
X56868571Y-123328190D01*
X56868571Y-123328190D02*
X56830476Y-123366285D01*
X56830476Y-123366285D02*
X56792381Y-123442476D01*
X56792381Y-123442476D02*
X56792381Y-123518666D01*
X56792381Y-123518666D02*
X56830476Y-123632952D01*
X56830476Y-123632952D02*
X57287619Y-124090095D01*
X57287619Y-124090095D02*
X56792381Y-124090095D01*
X56106666Y-123290095D02*
X56259047Y-123290095D01*
X56259047Y-123290095D02*
X56335238Y-123328190D01*
X56335238Y-123328190D02*
X56373333Y-123366285D01*
X56373333Y-123366285D02*
X56449523Y-123480571D01*
X56449523Y-123480571D02*
X56487619Y-123632952D01*
X56487619Y-123632952D02*
X56487619Y-123937714D01*
X56487619Y-123937714D02*
X56449523Y-124013904D01*
X56449523Y-124013904D02*
X56411428Y-124052000D01*
X56411428Y-124052000D02*
X56335238Y-124090095D01*
X56335238Y-124090095D02*
X56182857Y-124090095D01*
X56182857Y-124090095D02*
X56106666Y-124052000D01*
X56106666Y-124052000D02*
X56068571Y-124013904D01*
X56068571Y-124013904D02*
X56030476Y-123937714D01*
X56030476Y-123937714D02*
X56030476Y-123747238D01*
X56030476Y-123747238D02*
X56068571Y-123671047D01*
X56068571Y-123671047D02*
X56106666Y-123632952D01*
X56106666Y-123632952D02*
X56182857Y-123594857D01*
X56182857Y-123594857D02*
X56335238Y-123594857D01*
X56335238Y-123594857D02*
X56411428Y-123632952D01*
X56411428Y-123632952D02*
X56449523Y-123671047D01*
X56449523Y-123671047D02*
X56487619Y-123747238D01*
D11*
%TO.C,U5*%
X64801904Y-121782619D02*
X64801904Y-122592142D01*
X64801904Y-122592142D02*
X64754285Y-122687380D01*
X64754285Y-122687380D02*
X64706666Y-122735000D01*
X64706666Y-122735000D02*
X64611428Y-122782619D01*
X64611428Y-122782619D02*
X64420952Y-122782619D01*
X64420952Y-122782619D02*
X64325714Y-122735000D01*
X64325714Y-122735000D02*
X64278095Y-122687380D01*
X64278095Y-122687380D02*
X64230476Y-122592142D01*
X64230476Y-122592142D02*
X64230476Y-121782619D01*
X63278095Y-121782619D02*
X63754285Y-121782619D01*
X63754285Y-121782619D02*
X63801904Y-122258809D01*
X63801904Y-122258809D02*
X63754285Y-122211190D01*
X63754285Y-122211190D02*
X63659047Y-122163571D01*
X63659047Y-122163571D02*
X63420952Y-122163571D01*
X63420952Y-122163571D02*
X63325714Y-122211190D01*
X63325714Y-122211190D02*
X63278095Y-122258809D01*
X63278095Y-122258809D02*
X63230476Y-122354047D01*
X63230476Y-122354047D02*
X63230476Y-122592142D01*
X63230476Y-122592142D02*
X63278095Y-122687380D01*
X63278095Y-122687380D02*
X63325714Y-122735000D01*
X63325714Y-122735000D02*
X63420952Y-122782619D01*
X63420952Y-122782619D02*
X63659047Y-122782619D01*
X63659047Y-122782619D02*
X63754285Y-122735000D01*
X63754285Y-122735000D02*
X63801904Y-122687380D01*
%TO.C,C1*%
X86191666Y-83192380D02*
X86239285Y-83240000D01*
X86239285Y-83240000D02*
X86382142Y-83287619D01*
X86382142Y-83287619D02*
X86477380Y-83287619D01*
X86477380Y-83287619D02*
X86620237Y-83240000D01*
X86620237Y-83240000D02*
X86715475Y-83144761D01*
X86715475Y-83144761D02*
X86763094Y-83049523D01*
X86763094Y-83049523D02*
X86810713Y-82859047D01*
X86810713Y-82859047D02*
X86810713Y-82716190D01*
X86810713Y-82716190D02*
X86763094Y-82525714D01*
X86763094Y-82525714D02*
X86715475Y-82430476D01*
X86715475Y-82430476D02*
X86620237Y-82335238D01*
X86620237Y-82335238D02*
X86477380Y-82287619D01*
X86477380Y-82287619D02*
X86382142Y-82287619D01*
X86382142Y-82287619D02*
X86239285Y-82335238D01*
X86239285Y-82335238D02*
X86191666Y-82382857D01*
X85239285Y-83287619D02*
X85810713Y-83287619D01*
X85524999Y-83287619D02*
X85524999Y-82287619D01*
X85524999Y-82287619D02*
X85620237Y-82430476D01*
X85620237Y-82430476D02*
X85715475Y-82525714D01*
X85715475Y-82525714D02*
X85810713Y-82573333D01*
%TO.C,C13*%
X62182857Y-143587380D02*
X62230476Y-143635000D01*
X62230476Y-143635000D02*
X62373333Y-143682619D01*
X62373333Y-143682619D02*
X62468571Y-143682619D01*
X62468571Y-143682619D02*
X62611428Y-143635000D01*
X62611428Y-143635000D02*
X62706666Y-143539761D01*
X62706666Y-143539761D02*
X62754285Y-143444523D01*
X62754285Y-143444523D02*
X62801904Y-143254047D01*
X62801904Y-143254047D02*
X62801904Y-143111190D01*
X62801904Y-143111190D02*
X62754285Y-142920714D01*
X62754285Y-142920714D02*
X62706666Y-142825476D01*
X62706666Y-142825476D02*
X62611428Y-142730238D01*
X62611428Y-142730238D02*
X62468571Y-142682619D01*
X62468571Y-142682619D02*
X62373333Y-142682619D01*
X62373333Y-142682619D02*
X62230476Y-142730238D01*
X62230476Y-142730238D02*
X62182857Y-142777857D01*
X61230476Y-143682619D02*
X61801904Y-143682619D01*
X61516190Y-143682619D02*
X61516190Y-142682619D01*
X61516190Y-142682619D02*
X61611428Y-142825476D01*
X61611428Y-142825476D02*
X61706666Y-142920714D01*
X61706666Y-142920714D02*
X61801904Y-142968333D01*
X60897142Y-142682619D02*
X60278095Y-142682619D01*
X60278095Y-142682619D02*
X60611428Y-143063571D01*
X60611428Y-143063571D02*
X60468571Y-143063571D01*
X60468571Y-143063571D02*
X60373333Y-143111190D01*
X60373333Y-143111190D02*
X60325714Y-143158809D01*
X60325714Y-143158809D02*
X60278095Y-143254047D01*
X60278095Y-143254047D02*
X60278095Y-143492142D01*
X60278095Y-143492142D02*
X60325714Y-143587380D01*
X60325714Y-143587380D02*
X60373333Y-143635000D01*
X60373333Y-143635000D02*
X60468571Y-143682619D01*
X60468571Y-143682619D02*
X60754285Y-143682619D01*
X60754285Y-143682619D02*
X60849523Y-143635000D01*
X60849523Y-143635000D02*
X60897142Y-143587380D01*
%TO.C,R20*%
X54910095Y-160705714D02*
X54529142Y-160439047D01*
X54910095Y-160248571D02*
X54110095Y-160248571D01*
X54110095Y-160248571D02*
X54110095Y-160553333D01*
X54110095Y-160553333D02*
X54148190Y-160629523D01*
X54148190Y-160629523D02*
X54186285Y-160667618D01*
X54186285Y-160667618D02*
X54262476Y-160705714D01*
X54262476Y-160705714D02*
X54376761Y-160705714D01*
X54376761Y-160705714D02*
X54452952Y-160667618D01*
X54452952Y-160667618D02*
X54491047Y-160629523D01*
X54491047Y-160629523D02*
X54529142Y-160553333D01*
X54529142Y-160553333D02*
X54529142Y-160248571D01*
X54186285Y-161010475D02*
X54148190Y-161048571D01*
X54148190Y-161048571D02*
X54110095Y-161124761D01*
X54110095Y-161124761D02*
X54110095Y-161315237D01*
X54110095Y-161315237D02*
X54148190Y-161391428D01*
X54148190Y-161391428D02*
X54186285Y-161429523D01*
X54186285Y-161429523D02*
X54262476Y-161467618D01*
X54262476Y-161467618D02*
X54338666Y-161467618D01*
X54338666Y-161467618D02*
X54452952Y-161429523D01*
X54452952Y-161429523D02*
X54910095Y-160972380D01*
X54910095Y-160972380D02*
X54910095Y-161467618D01*
X54110095Y-161962857D02*
X54110095Y-162039047D01*
X54110095Y-162039047D02*
X54148190Y-162115238D01*
X54148190Y-162115238D02*
X54186285Y-162153333D01*
X54186285Y-162153333D02*
X54262476Y-162191428D01*
X54262476Y-162191428D02*
X54414857Y-162229523D01*
X54414857Y-162229523D02*
X54605333Y-162229523D01*
X54605333Y-162229523D02*
X54757714Y-162191428D01*
X54757714Y-162191428D02*
X54833904Y-162153333D01*
X54833904Y-162153333D02*
X54872000Y-162115238D01*
X54872000Y-162115238D02*
X54910095Y-162039047D01*
X54910095Y-162039047D02*
X54910095Y-161962857D01*
X54910095Y-161962857D02*
X54872000Y-161886666D01*
X54872000Y-161886666D02*
X54833904Y-161848571D01*
X54833904Y-161848571D02*
X54757714Y-161810476D01*
X54757714Y-161810476D02*
X54605333Y-161772380D01*
X54605333Y-161772380D02*
X54414857Y-161772380D01*
X54414857Y-161772380D02*
X54262476Y-161810476D01*
X54262476Y-161810476D02*
X54186285Y-161848571D01*
X54186285Y-161848571D02*
X54148190Y-161886666D01*
X54148190Y-161886666D02*
X54110095Y-161962857D01*
%TO.C,C30*%
X59714285Y-160193904D02*
X59752381Y-160232000D01*
X59752381Y-160232000D02*
X59866666Y-160270095D01*
X59866666Y-160270095D02*
X59942857Y-160270095D01*
X59942857Y-160270095D02*
X60057143Y-160232000D01*
X60057143Y-160232000D02*
X60133333Y-160155809D01*
X60133333Y-160155809D02*
X60171428Y-160079619D01*
X60171428Y-160079619D02*
X60209524Y-159927238D01*
X60209524Y-159927238D02*
X60209524Y-159812952D01*
X60209524Y-159812952D02*
X60171428Y-159660571D01*
X60171428Y-159660571D02*
X60133333Y-159584380D01*
X60133333Y-159584380D02*
X60057143Y-159508190D01*
X60057143Y-159508190D02*
X59942857Y-159470095D01*
X59942857Y-159470095D02*
X59866666Y-159470095D01*
X59866666Y-159470095D02*
X59752381Y-159508190D01*
X59752381Y-159508190D02*
X59714285Y-159546285D01*
X59447619Y-159470095D02*
X58952381Y-159470095D01*
X58952381Y-159470095D02*
X59219047Y-159774857D01*
X59219047Y-159774857D02*
X59104762Y-159774857D01*
X59104762Y-159774857D02*
X59028571Y-159812952D01*
X59028571Y-159812952D02*
X58990476Y-159851047D01*
X58990476Y-159851047D02*
X58952381Y-159927238D01*
X58952381Y-159927238D02*
X58952381Y-160117714D01*
X58952381Y-160117714D02*
X58990476Y-160193904D01*
X58990476Y-160193904D02*
X59028571Y-160232000D01*
X59028571Y-160232000D02*
X59104762Y-160270095D01*
X59104762Y-160270095D02*
X59333333Y-160270095D01*
X59333333Y-160270095D02*
X59409524Y-160232000D01*
X59409524Y-160232000D02*
X59447619Y-160193904D01*
X58457142Y-159470095D02*
X58380952Y-159470095D01*
X58380952Y-159470095D02*
X58304761Y-159508190D01*
X58304761Y-159508190D02*
X58266666Y-159546285D01*
X58266666Y-159546285D02*
X58228571Y-159622476D01*
X58228571Y-159622476D02*
X58190476Y-159774857D01*
X58190476Y-159774857D02*
X58190476Y-159965333D01*
X58190476Y-159965333D02*
X58228571Y-160117714D01*
X58228571Y-160117714D02*
X58266666Y-160193904D01*
X58266666Y-160193904D02*
X58304761Y-160232000D01*
X58304761Y-160232000D02*
X58380952Y-160270095D01*
X58380952Y-160270095D02*
X58457142Y-160270095D01*
X58457142Y-160270095D02*
X58533333Y-160232000D01*
X58533333Y-160232000D02*
X58571428Y-160193904D01*
X58571428Y-160193904D02*
X58609523Y-160117714D01*
X58609523Y-160117714D02*
X58647619Y-159965333D01*
X58647619Y-159965333D02*
X58647619Y-159774857D01*
X58647619Y-159774857D02*
X58609523Y-159622476D01*
X58609523Y-159622476D02*
X58571428Y-159546285D01*
X58571428Y-159546285D02*
X58533333Y-159508190D01*
X58533333Y-159508190D02*
X58457142Y-159470095D01*
%TO.C,R30*%
X77554285Y-158590095D02*
X77820952Y-158209142D01*
X78011428Y-158590095D02*
X78011428Y-157790095D01*
X78011428Y-157790095D02*
X77706666Y-157790095D01*
X77706666Y-157790095D02*
X77630476Y-157828190D01*
X77630476Y-157828190D02*
X77592381Y-157866285D01*
X77592381Y-157866285D02*
X77554285Y-157942476D01*
X77554285Y-157942476D02*
X77554285Y-158056761D01*
X77554285Y-158056761D02*
X77592381Y-158132952D01*
X77592381Y-158132952D02*
X77630476Y-158171047D01*
X77630476Y-158171047D02*
X77706666Y-158209142D01*
X77706666Y-158209142D02*
X78011428Y-158209142D01*
X77287619Y-157790095D02*
X76792381Y-157790095D01*
X76792381Y-157790095D02*
X77059047Y-158094857D01*
X77059047Y-158094857D02*
X76944762Y-158094857D01*
X76944762Y-158094857D02*
X76868571Y-158132952D01*
X76868571Y-158132952D02*
X76830476Y-158171047D01*
X76830476Y-158171047D02*
X76792381Y-158247238D01*
X76792381Y-158247238D02*
X76792381Y-158437714D01*
X76792381Y-158437714D02*
X76830476Y-158513904D01*
X76830476Y-158513904D02*
X76868571Y-158552000D01*
X76868571Y-158552000D02*
X76944762Y-158590095D01*
X76944762Y-158590095D02*
X77173333Y-158590095D01*
X77173333Y-158590095D02*
X77249524Y-158552000D01*
X77249524Y-158552000D02*
X77287619Y-158513904D01*
X76297142Y-157790095D02*
X76220952Y-157790095D01*
X76220952Y-157790095D02*
X76144761Y-157828190D01*
X76144761Y-157828190D02*
X76106666Y-157866285D01*
X76106666Y-157866285D02*
X76068571Y-157942476D01*
X76068571Y-157942476D02*
X76030476Y-158094857D01*
X76030476Y-158094857D02*
X76030476Y-158285333D01*
X76030476Y-158285333D02*
X76068571Y-158437714D01*
X76068571Y-158437714D02*
X76106666Y-158513904D01*
X76106666Y-158513904D02*
X76144761Y-158552000D01*
X76144761Y-158552000D02*
X76220952Y-158590095D01*
X76220952Y-158590095D02*
X76297142Y-158590095D01*
X76297142Y-158590095D02*
X76373333Y-158552000D01*
X76373333Y-158552000D02*
X76411428Y-158513904D01*
X76411428Y-158513904D02*
X76449523Y-158437714D01*
X76449523Y-158437714D02*
X76487619Y-158285333D01*
X76487619Y-158285333D02*
X76487619Y-158094857D01*
X76487619Y-158094857D02*
X76449523Y-157942476D01*
X76449523Y-157942476D02*
X76411428Y-157866285D01*
X76411428Y-157866285D02*
X76373333Y-157828190D01*
X76373333Y-157828190D02*
X76297142Y-157790095D01*
%TO.C,C36*%
X88817380Y-80457142D02*
X88865000Y-80409523D01*
X88865000Y-80409523D02*
X88912619Y-80266666D01*
X88912619Y-80266666D02*
X88912619Y-80171428D01*
X88912619Y-80171428D02*
X88865000Y-80028571D01*
X88865000Y-80028571D02*
X88769761Y-79933333D01*
X88769761Y-79933333D02*
X88674523Y-79885714D01*
X88674523Y-79885714D02*
X88484047Y-79838095D01*
X88484047Y-79838095D02*
X88341190Y-79838095D01*
X88341190Y-79838095D02*
X88150714Y-79885714D01*
X88150714Y-79885714D02*
X88055476Y-79933333D01*
X88055476Y-79933333D02*
X87960238Y-80028571D01*
X87960238Y-80028571D02*
X87912619Y-80171428D01*
X87912619Y-80171428D02*
X87912619Y-80266666D01*
X87912619Y-80266666D02*
X87960238Y-80409523D01*
X87960238Y-80409523D02*
X88007857Y-80457142D01*
X87912619Y-80790476D02*
X87912619Y-81409523D01*
X87912619Y-81409523D02*
X88293571Y-81076190D01*
X88293571Y-81076190D02*
X88293571Y-81219047D01*
X88293571Y-81219047D02*
X88341190Y-81314285D01*
X88341190Y-81314285D02*
X88388809Y-81361904D01*
X88388809Y-81361904D02*
X88484047Y-81409523D01*
X88484047Y-81409523D02*
X88722142Y-81409523D01*
X88722142Y-81409523D02*
X88817380Y-81361904D01*
X88817380Y-81361904D02*
X88865000Y-81314285D01*
X88865000Y-81314285D02*
X88912619Y-81219047D01*
X88912619Y-81219047D02*
X88912619Y-80933333D01*
X88912619Y-80933333D02*
X88865000Y-80838095D01*
X88865000Y-80838095D02*
X88817380Y-80790476D01*
X87912619Y-82266666D02*
X87912619Y-82076190D01*
X87912619Y-82076190D02*
X87960238Y-81980952D01*
X87960238Y-81980952D02*
X88007857Y-81933333D01*
X88007857Y-81933333D02*
X88150714Y-81838095D01*
X88150714Y-81838095D02*
X88341190Y-81790476D01*
X88341190Y-81790476D02*
X88722142Y-81790476D01*
X88722142Y-81790476D02*
X88817380Y-81838095D01*
X88817380Y-81838095D02*
X88865000Y-81885714D01*
X88865000Y-81885714D02*
X88912619Y-81980952D01*
X88912619Y-81980952D02*
X88912619Y-82171428D01*
X88912619Y-82171428D02*
X88865000Y-82266666D01*
X88865000Y-82266666D02*
X88817380Y-82314285D01*
X88817380Y-82314285D02*
X88722142Y-82361904D01*
X88722142Y-82361904D02*
X88484047Y-82361904D01*
X88484047Y-82361904D02*
X88388809Y-82314285D01*
X88388809Y-82314285D02*
X88341190Y-82266666D01*
X88341190Y-82266666D02*
X88293571Y-82171428D01*
X88293571Y-82171428D02*
X88293571Y-81980952D01*
X88293571Y-81980952D02*
X88341190Y-81885714D01*
X88341190Y-81885714D02*
X88388809Y-81838095D01*
X88388809Y-81838095D02*
X88484047Y-81790476D01*
%TO.C,R13*%
X85410095Y-134705714D02*
X85029142Y-134439047D01*
X85410095Y-134248571D02*
X84610095Y-134248571D01*
X84610095Y-134248571D02*
X84610095Y-134553333D01*
X84610095Y-134553333D02*
X84648190Y-134629523D01*
X84648190Y-134629523D02*
X84686285Y-134667618D01*
X84686285Y-134667618D02*
X84762476Y-134705714D01*
X84762476Y-134705714D02*
X84876761Y-134705714D01*
X84876761Y-134705714D02*
X84952952Y-134667618D01*
X84952952Y-134667618D02*
X84991047Y-134629523D01*
X84991047Y-134629523D02*
X85029142Y-134553333D01*
X85029142Y-134553333D02*
X85029142Y-134248571D01*
X85410095Y-135467618D02*
X85410095Y-135010475D01*
X85410095Y-135239047D02*
X84610095Y-135239047D01*
X84610095Y-135239047D02*
X84724380Y-135162856D01*
X84724380Y-135162856D02*
X84800571Y-135086666D01*
X84800571Y-135086666D02*
X84838666Y-135010475D01*
X84610095Y-135734285D02*
X84610095Y-136229523D01*
X84610095Y-136229523D02*
X84914857Y-135962857D01*
X84914857Y-135962857D02*
X84914857Y-136077142D01*
X84914857Y-136077142D02*
X84952952Y-136153333D01*
X84952952Y-136153333D02*
X84991047Y-136191428D01*
X84991047Y-136191428D02*
X85067238Y-136229523D01*
X85067238Y-136229523D02*
X85257714Y-136229523D01*
X85257714Y-136229523D02*
X85333904Y-136191428D01*
X85333904Y-136191428D02*
X85372000Y-136153333D01*
X85372000Y-136153333D02*
X85410095Y-136077142D01*
X85410095Y-136077142D02*
X85410095Y-135848571D01*
X85410095Y-135848571D02*
X85372000Y-135772380D01*
X85372000Y-135772380D02*
X85333904Y-135734285D01*
%TO.C,R31*%
X76410095Y-164205714D02*
X76029142Y-163939047D01*
X76410095Y-163748571D02*
X75610095Y-163748571D01*
X75610095Y-163748571D02*
X75610095Y-164053333D01*
X75610095Y-164053333D02*
X75648190Y-164129523D01*
X75648190Y-164129523D02*
X75686285Y-164167618D01*
X75686285Y-164167618D02*
X75762476Y-164205714D01*
X75762476Y-164205714D02*
X75876761Y-164205714D01*
X75876761Y-164205714D02*
X75952952Y-164167618D01*
X75952952Y-164167618D02*
X75991047Y-164129523D01*
X75991047Y-164129523D02*
X76029142Y-164053333D01*
X76029142Y-164053333D02*
X76029142Y-163748571D01*
X75610095Y-164472380D02*
X75610095Y-164967618D01*
X75610095Y-164967618D02*
X75914857Y-164700952D01*
X75914857Y-164700952D02*
X75914857Y-164815237D01*
X75914857Y-164815237D02*
X75952952Y-164891428D01*
X75952952Y-164891428D02*
X75991047Y-164929523D01*
X75991047Y-164929523D02*
X76067238Y-164967618D01*
X76067238Y-164967618D02*
X76257714Y-164967618D01*
X76257714Y-164967618D02*
X76333904Y-164929523D01*
X76333904Y-164929523D02*
X76372000Y-164891428D01*
X76372000Y-164891428D02*
X76410095Y-164815237D01*
X76410095Y-164815237D02*
X76410095Y-164586666D01*
X76410095Y-164586666D02*
X76372000Y-164510475D01*
X76372000Y-164510475D02*
X76333904Y-164472380D01*
X76410095Y-165729523D02*
X76410095Y-165272380D01*
X76410095Y-165500952D02*
X75610095Y-165500952D01*
X75610095Y-165500952D02*
X75724380Y-165424761D01*
X75724380Y-165424761D02*
X75800571Y-165348571D01*
X75800571Y-165348571D02*
X75838666Y-165272380D01*
%TO.C,U7*%
X87301904Y-154902619D02*
X87301904Y-155712142D01*
X87301904Y-155712142D02*
X87254285Y-155807380D01*
X87254285Y-155807380D02*
X87206666Y-155855000D01*
X87206666Y-155855000D02*
X87111428Y-155902619D01*
X87111428Y-155902619D02*
X86920952Y-155902619D01*
X86920952Y-155902619D02*
X86825714Y-155855000D01*
X86825714Y-155855000D02*
X86778095Y-155807380D01*
X86778095Y-155807380D02*
X86730476Y-155712142D01*
X86730476Y-155712142D02*
X86730476Y-154902619D01*
X86349523Y-154902619D02*
X85682857Y-154902619D01*
X85682857Y-154902619D02*
X86111428Y-155902619D01*
D10*
%TO.C,R14*%
X56910095Y-125205714D02*
X56529142Y-124939047D01*
X56910095Y-124748571D02*
X56110095Y-124748571D01*
X56110095Y-124748571D02*
X56110095Y-125053333D01*
X56110095Y-125053333D02*
X56148190Y-125129523D01*
X56148190Y-125129523D02*
X56186285Y-125167618D01*
X56186285Y-125167618D02*
X56262476Y-125205714D01*
X56262476Y-125205714D02*
X56376761Y-125205714D01*
X56376761Y-125205714D02*
X56452952Y-125167618D01*
X56452952Y-125167618D02*
X56491047Y-125129523D01*
X56491047Y-125129523D02*
X56529142Y-125053333D01*
X56529142Y-125053333D02*
X56529142Y-124748571D01*
X56910095Y-125967618D02*
X56910095Y-125510475D01*
X56910095Y-125739047D02*
X56110095Y-125739047D01*
X56110095Y-125739047D02*
X56224380Y-125662856D01*
X56224380Y-125662856D02*
X56300571Y-125586666D01*
X56300571Y-125586666D02*
X56338666Y-125510475D01*
X56376761Y-126653333D02*
X56910095Y-126653333D01*
X56072000Y-126462857D02*
X56643428Y-126272380D01*
X56643428Y-126272380D02*
X56643428Y-126767619D01*
D11*
%TO.C,R12*%
X87410095Y-136705714D02*
X87029142Y-136439047D01*
X87410095Y-136248571D02*
X86610095Y-136248571D01*
X86610095Y-136248571D02*
X86610095Y-136553333D01*
X86610095Y-136553333D02*
X86648190Y-136629523D01*
X86648190Y-136629523D02*
X86686285Y-136667618D01*
X86686285Y-136667618D02*
X86762476Y-136705714D01*
X86762476Y-136705714D02*
X86876761Y-136705714D01*
X86876761Y-136705714D02*
X86952952Y-136667618D01*
X86952952Y-136667618D02*
X86991047Y-136629523D01*
X86991047Y-136629523D02*
X87029142Y-136553333D01*
X87029142Y-136553333D02*
X87029142Y-136248571D01*
X87410095Y-137467618D02*
X87410095Y-137010475D01*
X87410095Y-137239047D02*
X86610095Y-137239047D01*
X86610095Y-137239047D02*
X86724380Y-137162856D01*
X86724380Y-137162856D02*
X86800571Y-137086666D01*
X86800571Y-137086666D02*
X86838666Y-137010475D01*
X86686285Y-137772380D02*
X86648190Y-137810476D01*
X86648190Y-137810476D02*
X86610095Y-137886666D01*
X86610095Y-137886666D02*
X86610095Y-138077142D01*
X86610095Y-138077142D02*
X86648190Y-138153333D01*
X86648190Y-138153333D02*
X86686285Y-138191428D01*
X86686285Y-138191428D02*
X86762476Y-138229523D01*
X86762476Y-138229523D02*
X86838666Y-138229523D01*
X86838666Y-138229523D02*
X86952952Y-138191428D01*
X86952952Y-138191428D02*
X87410095Y-137734285D01*
X87410095Y-137734285D02*
X87410095Y-138229523D01*
%TO.C,R22*%
X54544285Y-158590095D02*
X54810952Y-158209142D01*
X55001428Y-158590095D02*
X55001428Y-157790095D01*
X55001428Y-157790095D02*
X54696666Y-157790095D01*
X54696666Y-157790095D02*
X54620476Y-157828190D01*
X54620476Y-157828190D02*
X54582381Y-157866285D01*
X54582381Y-157866285D02*
X54544285Y-157942476D01*
X54544285Y-157942476D02*
X54544285Y-158056761D01*
X54544285Y-158056761D02*
X54582381Y-158132952D01*
X54582381Y-158132952D02*
X54620476Y-158171047D01*
X54620476Y-158171047D02*
X54696666Y-158209142D01*
X54696666Y-158209142D02*
X55001428Y-158209142D01*
X54239524Y-157866285D02*
X54201428Y-157828190D01*
X54201428Y-157828190D02*
X54125238Y-157790095D01*
X54125238Y-157790095D02*
X53934762Y-157790095D01*
X53934762Y-157790095D02*
X53858571Y-157828190D01*
X53858571Y-157828190D02*
X53820476Y-157866285D01*
X53820476Y-157866285D02*
X53782381Y-157942476D01*
X53782381Y-157942476D02*
X53782381Y-158018666D01*
X53782381Y-158018666D02*
X53820476Y-158132952D01*
X53820476Y-158132952D02*
X54277619Y-158590095D01*
X54277619Y-158590095D02*
X53782381Y-158590095D01*
X53477619Y-157866285D02*
X53439523Y-157828190D01*
X53439523Y-157828190D02*
X53363333Y-157790095D01*
X53363333Y-157790095D02*
X53172857Y-157790095D01*
X53172857Y-157790095D02*
X53096666Y-157828190D01*
X53096666Y-157828190D02*
X53058571Y-157866285D01*
X53058571Y-157866285D02*
X53020476Y-157942476D01*
X53020476Y-157942476D02*
X53020476Y-158018666D01*
X53020476Y-158018666D02*
X53058571Y-158132952D01*
X53058571Y-158132952D02*
X53515714Y-158590095D01*
X53515714Y-158590095D02*
X53020476Y-158590095D01*
%TO.C,C3*%
X85266666Y-84467380D02*
X85314285Y-84515000D01*
X85314285Y-84515000D02*
X85457142Y-84562619D01*
X85457142Y-84562619D02*
X85552380Y-84562619D01*
X85552380Y-84562619D02*
X85695237Y-84515000D01*
X85695237Y-84515000D02*
X85790475Y-84419761D01*
X85790475Y-84419761D02*
X85838094Y-84324523D01*
X85838094Y-84324523D02*
X85885713Y-84134047D01*
X85885713Y-84134047D02*
X85885713Y-83991190D01*
X85885713Y-83991190D02*
X85838094Y-83800714D01*
X85838094Y-83800714D02*
X85790475Y-83705476D01*
X85790475Y-83705476D02*
X85695237Y-83610238D01*
X85695237Y-83610238D02*
X85552380Y-83562619D01*
X85552380Y-83562619D02*
X85457142Y-83562619D01*
X85457142Y-83562619D02*
X85314285Y-83610238D01*
X85314285Y-83610238D02*
X85266666Y-83657857D01*
X84933332Y-83562619D02*
X84314285Y-83562619D01*
X84314285Y-83562619D02*
X84647618Y-83943571D01*
X84647618Y-83943571D02*
X84504761Y-83943571D01*
X84504761Y-83943571D02*
X84409523Y-83991190D01*
X84409523Y-83991190D02*
X84361904Y-84038809D01*
X84361904Y-84038809D02*
X84314285Y-84134047D01*
X84314285Y-84134047D02*
X84314285Y-84372142D01*
X84314285Y-84372142D02*
X84361904Y-84467380D01*
X84361904Y-84467380D02*
X84409523Y-84515000D01*
X84409523Y-84515000D02*
X84504761Y-84562619D01*
X84504761Y-84562619D02*
X84790475Y-84562619D01*
X84790475Y-84562619D02*
X84885713Y-84515000D01*
X84885713Y-84515000D02*
X84933332Y-84467380D01*
%TO.C,R34*%
X96554285Y-158590095D02*
X96820952Y-158209142D01*
X97011428Y-158590095D02*
X97011428Y-157790095D01*
X97011428Y-157790095D02*
X96706666Y-157790095D01*
X96706666Y-157790095D02*
X96630476Y-157828190D01*
X96630476Y-157828190D02*
X96592381Y-157866285D01*
X96592381Y-157866285D02*
X96554285Y-157942476D01*
X96554285Y-157942476D02*
X96554285Y-158056761D01*
X96554285Y-158056761D02*
X96592381Y-158132952D01*
X96592381Y-158132952D02*
X96630476Y-158171047D01*
X96630476Y-158171047D02*
X96706666Y-158209142D01*
X96706666Y-158209142D02*
X97011428Y-158209142D01*
X96287619Y-157790095D02*
X95792381Y-157790095D01*
X95792381Y-157790095D02*
X96059047Y-158094857D01*
X96059047Y-158094857D02*
X95944762Y-158094857D01*
X95944762Y-158094857D02*
X95868571Y-158132952D01*
X95868571Y-158132952D02*
X95830476Y-158171047D01*
X95830476Y-158171047D02*
X95792381Y-158247238D01*
X95792381Y-158247238D02*
X95792381Y-158437714D01*
X95792381Y-158437714D02*
X95830476Y-158513904D01*
X95830476Y-158513904D02*
X95868571Y-158552000D01*
X95868571Y-158552000D02*
X95944762Y-158590095D01*
X95944762Y-158590095D02*
X96173333Y-158590095D01*
X96173333Y-158590095D02*
X96249524Y-158552000D01*
X96249524Y-158552000D02*
X96287619Y-158513904D01*
X95106666Y-158056761D02*
X95106666Y-158590095D01*
X95297142Y-157752000D02*
X95487619Y-158323428D01*
X95487619Y-158323428D02*
X94992380Y-158323428D01*
%TO.C,R10*%
X85410095Y-144705714D02*
X85029142Y-144439047D01*
X85410095Y-144248571D02*
X84610095Y-144248571D01*
X84610095Y-144248571D02*
X84610095Y-144553333D01*
X84610095Y-144553333D02*
X84648190Y-144629523D01*
X84648190Y-144629523D02*
X84686285Y-144667618D01*
X84686285Y-144667618D02*
X84762476Y-144705714D01*
X84762476Y-144705714D02*
X84876761Y-144705714D01*
X84876761Y-144705714D02*
X84952952Y-144667618D01*
X84952952Y-144667618D02*
X84991047Y-144629523D01*
X84991047Y-144629523D02*
X85029142Y-144553333D01*
X85029142Y-144553333D02*
X85029142Y-144248571D01*
X85410095Y-145467618D02*
X85410095Y-145010475D01*
X85410095Y-145239047D02*
X84610095Y-145239047D01*
X84610095Y-145239047D02*
X84724380Y-145162856D01*
X84724380Y-145162856D02*
X84800571Y-145086666D01*
X84800571Y-145086666D02*
X84838666Y-145010475D01*
X84610095Y-145962857D02*
X84610095Y-146039047D01*
X84610095Y-146039047D02*
X84648190Y-146115238D01*
X84648190Y-146115238D02*
X84686285Y-146153333D01*
X84686285Y-146153333D02*
X84762476Y-146191428D01*
X84762476Y-146191428D02*
X84914857Y-146229523D01*
X84914857Y-146229523D02*
X85105333Y-146229523D01*
X85105333Y-146229523D02*
X85257714Y-146191428D01*
X85257714Y-146191428D02*
X85333904Y-146153333D01*
X85333904Y-146153333D02*
X85372000Y-146115238D01*
X85372000Y-146115238D02*
X85410095Y-146039047D01*
X85410095Y-146039047D02*
X85410095Y-145962857D01*
X85410095Y-145962857D02*
X85372000Y-145886666D01*
X85372000Y-145886666D02*
X85333904Y-145848571D01*
X85333904Y-145848571D02*
X85257714Y-145810476D01*
X85257714Y-145810476D02*
X85105333Y-145772380D01*
X85105333Y-145772380D02*
X84914857Y-145772380D01*
X84914857Y-145772380D02*
X84762476Y-145810476D01*
X84762476Y-145810476D02*
X84686285Y-145848571D01*
X84686285Y-145848571D02*
X84648190Y-145886666D01*
X84648190Y-145886666D02*
X84610095Y-145962857D01*
%TO.C,C18*%
X89662857Y-143427380D02*
X89710476Y-143475000D01*
X89710476Y-143475000D02*
X89853333Y-143522619D01*
X89853333Y-143522619D02*
X89948571Y-143522619D01*
X89948571Y-143522619D02*
X90091428Y-143475000D01*
X90091428Y-143475000D02*
X90186666Y-143379761D01*
X90186666Y-143379761D02*
X90234285Y-143284523D01*
X90234285Y-143284523D02*
X90281904Y-143094047D01*
X90281904Y-143094047D02*
X90281904Y-142951190D01*
X90281904Y-142951190D02*
X90234285Y-142760714D01*
X90234285Y-142760714D02*
X90186666Y-142665476D01*
X90186666Y-142665476D02*
X90091428Y-142570238D01*
X90091428Y-142570238D02*
X89948571Y-142522619D01*
X89948571Y-142522619D02*
X89853333Y-142522619D01*
X89853333Y-142522619D02*
X89710476Y-142570238D01*
X89710476Y-142570238D02*
X89662857Y-142617857D01*
X88710476Y-143522619D02*
X89281904Y-143522619D01*
X88996190Y-143522619D02*
X88996190Y-142522619D01*
X88996190Y-142522619D02*
X89091428Y-142665476D01*
X89091428Y-142665476D02*
X89186666Y-142760714D01*
X89186666Y-142760714D02*
X89281904Y-142808333D01*
X88139047Y-142951190D02*
X88234285Y-142903571D01*
X88234285Y-142903571D02*
X88281904Y-142855952D01*
X88281904Y-142855952D02*
X88329523Y-142760714D01*
X88329523Y-142760714D02*
X88329523Y-142713095D01*
X88329523Y-142713095D02*
X88281904Y-142617857D01*
X88281904Y-142617857D02*
X88234285Y-142570238D01*
X88234285Y-142570238D02*
X88139047Y-142522619D01*
X88139047Y-142522619D02*
X87948571Y-142522619D01*
X87948571Y-142522619D02*
X87853333Y-142570238D01*
X87853333Y-142570238D02*
X87805714Y-142617857D01*
X87805714Y-142617857D02*
X87758095Y-142713095D01*
X87758095Y-142713095D02*
X87758095Y-142760714D01*
X87758095Y-142760714D02*
X87805714Y-142855952D01*
X87805714Y-142855952D02*
X87853333Y-142903571D01*
X87853333Y-142903571D02*
X87948571Y-142951190D01*
X87948571Y-142951190D02*
X88139047Y-142951190D01*
X88139047Y-142951190D02*
X88234285Y-142998809D01*
X88234285Y-142998809D02*
X88281904Y-143046428D01*
X88281904Y-143046428D02*
X88329523Y-143141666D01*
X88329523Y-143141666D02*
X88329523Y-143332142D01*
X88329523Y-143332142D02*
X88281904Y-143427380D01*
X88281904Y-143427380D02*
X88234285Y-143475000D01*
X88234285Y-143475000D02*
X88139047Y-143522619D01*
X88139047Y-143522619D02*
X87948571Y-143522619D01*
X87948571Y-143522619D02*
X87853333Y-143475000D01*
X87853333Y-143475000D02*
X87805714Y-143427380D01*
X87805714Y-143427380D02*
X87758095Y-143332142D01*
X87758095Y-143332142D02*
X87758095Y-143141666D01*
X87758095Y-143141666D02*
X87805714Y-143046428D01*
X87805714Y-143046428D02*
X87853333Y-142998809D01*
X87853333Y-142998809D02*
X87948571Y-142951190D01*
%TO.C,U4*%
X75801904Y-134402619D02*
X75801904Y-135212142D01*
X75801904Y-135212142D02*
X75754285Y-135307380D01*
X75754285Y-135307380D02*
X75706666Y-135355000D01*
X75706666Y-135355000D02*
X75611428Y-135402619D01*
X75611428Y-135402619D02*
X75420952Y-135402619D01*
X75420952Y-135402619D02*
X75325714Y-135355000D01*
X75325714Y-135355000D02*
X75278095Y-135307380D01*
X75278095Y-135307380D02*
X75230476Y-135212142D01*
X75230476Y-135212142D02*
X75230476Y-134402619D01*
X74325714Y-134735952D02*
X74325714Y-135402619D01*
X74563809Y-134355000D02*
X74801904Y-135069285D01*
X74801904Y-135069285D02*
X74182857Y-135069285D01*
%TO.C,C17*%
X84333904Y-140725714D02*
X84372000Y-140687618D01*
X84372000Y-140687618D02*
X84410095Y-140573333D01*
X84410095Y-140573333D02*
X84410095Y-140497142D01*
X84410095Y-140497142D02*
X84372000Y-140382856D01*
X84372000Y-140382856D02*
X84295809Y-140306666D01*
X84295809Y-140306666D02*
X84219619Y-140268571D01*
X84219619Y-140268571D02*
X84067238Y-140230475D01*
X84067238Y-140230475D02*
X83952952Y-140230475D01*
X83952952Y-140230475D02*
X83800571Y-140268571D01*
X83800571Y-140268571D02*
X83724380Y-140306666D01*
X83724380Y-140306666D02*
X83648190Y-140382856D01*
X83648190Y-140382856D02*
X83610095Y-140497142D01*
X83610095Y-140497142D02*
X83610095Y-140573333D01*
X83610095Y-140573333D02*
X83648190Y-140687618D01*
X83648190Y-140687618D02*
X83686285Y-140725714D01*
X84410095Y-141487618D02*
X84410095Y-141030475D01*
X84410095Y-141259047D02*
X83610095Y-141259047D01*
X83610095Y-141259047D02*
X83724380Y-141182856D01*
X83724380Y-141182856D02*
X83800571Y-141106666D01*
X83800571Y-141106666D02*
X83838666Y-141030475D01*
X83610095Y-141754285D02*
X83610095Y-142287619D01*
X83610095Y-142287619D02*
X84410095Y-141944761D01*
%TO.C,C32*%
X91764285Y-160343904D02*
X91802381Y-160382000D01*
X91802381Y-160382000D02*
X91916666Y-160420095D01*
X91916666Y-160420095D02*
X91992857Y-160420095D01*
X91992857Y-160420095D02*
X92107143Y-160382000D01*
X92107143Y-160382000D02*
X92183333Y-160305809D01*
X92183333Y-160305809D02*
X92221428Y-160229619D01*
X92221428Y-160229619D02*
X92259524Y-160077238D01*
X92259524Y-160077238D02*
X92259524Y-159962952D01*
X92259524Y-159962952D02*
X92221428Y-159810571D01*
X92221428Y-159810571D02*
X92183333Y-159734380D01*
X92183333Y-159734380D02*
X92107143Y-159658190D01*
X92107143Y-159658190D02*
X91992857Y-159620095D01*
X91992857Y-159620095D02*
X91916666Y-159620095D01*
X91916666Y-159620095D02*
X91802381Y-159658190D01*
X91802381Y-159658190D02*
X91764285Y-159696285D01*
X91497619Y-159620095D02*
X91002381Y-159620095D01*
X91002381Y-159620095D02*
X91269047Y-159924857D01*
X91269047Y-159924857D02*
X91154762Y-159924857D01*
X91154762Y-159924857D02*
X91078571Y-159962952D01*
X91078571Y-159962952D02*
X91040476Y-160001047D01*
X91040476Y-160001047D02*
X91002381Y-160077238D01*
X91002381Y-160077238D02*
X91002381Y-160267714D01*
X91002381Y-160267714D02*
X91040476Y-160343904D01*
X91040476Y-160343904D02*
X91078571Y-160382000D01*
X91078571Y-160382000D02*
X91154762Y-160420095D01*
X91154762Y-160420095D02*
X91383333Y-160420095D01*
X91383333Y-160420095D02*
X91459524Y-160382000D01*
X91459524Y-160382000D02*
X91497619Y-160343904D01*
X90697619Y-159696285D02*
X90659523Y-159658190D01*
X90659523Y-159658190D02*
X90583333Y-159620095D01*
X90583333Y-159620095D02*
X90392857Y-159620095D01*
X90392857Y-159620095D02*
X90316666Y-159658190D01*
X90316666Y-159658190D02*
X90278571Y-159696285D01*
X90278571Y-159696285D02*
X90240476Y-159772476D01*
X90240476Y-159772476D02*
X90240476Y-159848666D01*
X90240476Y-159848666D02*
X90278571Y-159962952D01*
X90278571Y-159962952D02*
X90735714Y-160420095D01*
X90735714Y-160420095D02*
X90240476Y-160420095D01*
D10*
%TO.C,R15*%
X56910095Y-127705714D02*
X56529142Y-127439047D01*
X56910095Y-127248571D02*
X56110095Y-127248571D01*
X56110095Y-127248571D02*
X56110095Y-127553333D01*
X56110095Y-127553333D02*
X56148190Y-127629523D01*
X56148190Y-127629523D02*
X56186285Y-127667618D01*
X56186285Y-127667618D02*
X56262476Y-127705714D01*
X56262476Y-127705714D02*
X56376761Y-127705714D01*
X56376761Y-127705714D02*
X56452952Y-127667618D01*
X56452952Y-127667618D02*
X56491047Y-127629523D01*
X56491047Y-127629523D02*
X56529142Y-127553333D01*
X56529142Y-127553333D02*
X56529142Y-127248571D01*
X56910095Y-128467618D02*
X56910095Y-128010475D01*
X56910095Y-128239047D02*
X56110095Y-128239047D01*
X56110095Y-128239047D02*
X56224380Y-128162856D01*
X56224380Y-128162856D02*
X56300571Y-128086666D01*
X56300571Y-128086666D02*
X56338666Y-128010475D01*
X56110095Y-129191428D02*
X56110095Y-128810476D01*
X56110095Y-128810476D02*
X56491047Y-128772380D01*
X56491047Y-128772380D02*
X56452952Y-128810476D01*
X56452952Y-128810476D02*
X56414857Y-128886666D01*
X56414857Y-128886666D02*
X56414857Y-129077142D01*
X56414857Y-129077142D02*
X56452952Y-129153333D01*
X56452952Y-129153333D02*
X56491047Y-129191428D01*
X56491047Y-129191428D02*
X56567238Y-129229523D01*
X56567238Y-129229523D02*
X56757714Y-129229523D01*
X56757714Y-129229523D02*
X56833904Y-129191428D01*
X56833904Y-129191428D02*
X56872000Y-129153333D01*
X56872000Y-129153333D02*
X56910095Y-129077142D01*
X56910095Y-129077142D02*
X56910095Y-128886666D01*
X56910095Y-128886666D02*
X56872000Y-128810476D01*
X56872000Y-128810476D02*
X56833904Y-128772380D01*
D11*
%TO.C,R33*%
X95910095Y-160705714D02*
X95529142Y-160439047D01*
X95910095Y-160248571D02*
X95110095Y-160248571D01*
X95110095Y-160248571D02*
X95110095Y-160553333D01*
X95110095Y-160553333D02*
X95148190Y-160629523D01*
X95148190Y-160629523D02*
X95186285Y-160667618D01*
X95186285Y-160667618D02*
X95262476Y-160705714D01*
X95262476Y-160705714D02*
X95376761Y-160705714D01*
X95376761Y-160705714D02*
X95452952Y-160667618D01*
X95452952Y-160667618D02*
X95491047Y-160629523D01*
X95491047Y-160629523D02*
X95529142Y-160553333D01*
X95529142Y-160553333D02*
X95529142Y-160248571D01*
X95110095Y-160972380D02*
X95110095Y-161467618D01*
X95110095Y-161467618D02*
X95414857Y-161200952D01*
X95414857Y-161200952D02*
X95414857Y-161315237D01*
X95414857Y-161315237D02*
X95452952Y-161391428D01*
X95452952Y-161391428D02*
X95491047Y-161429523D01*
X95491047Y-161429523D02*
X95567238Y-161467618D01*
X95567238Y-161467618D02*
X95757714Y-161467618D01*
X95757714Y-161467618D02*
X95833904Y-161429523D01*
X95833904Y-161429523D02*
X95872000Y-161391428D01*
X95872000Y-161391428D02*
X95910095Y-161315237D01*
X95910095Y-161315237D02*
X95910095Y-161086666D01*
X95910095Y-161086666D02*
X95872000Y-161010475D01*
X95872000Y-161010475D02*
X95833904Y-160972380D01*
X95110095Y-161734285D02*
X95110095Y-162229523D01*
X95110095Y-162229523D02*
X95414857Y-161962857D01*
X95414857Y-161962857D02*
X95414857Y-162077142D01*
X95414857Y-162077142D02*
X95452952Y-162153333D01*
X95452952Y-162153333D02*
X95491047Y-162191428D01*
X95491047Y-162191428D02*
X95567238Y-162229523D01*
X95567238Y-162229523D02*
X95757714Y-162229523D01*
X95757714Y-162229523D02*
X95833904Y-162191428D01*
X95833904Y-162191428D02*
X95872000Y-162153333D01*
X95872000Y-162153333D02*
X95910095Y-162077142D01*
X95910095Y-162077142D02*
X95910095Y-161848571D01*
X95910095Y-161848571D02*
X95872000Y-161772380D01*
X95872000Y-161772380D02*
X95833904Y-161734285D01*
%TO.C,R28*%
X79870095Y-161535714D02*
X79489142Y-161269047D01*
X79870095Y-161078571D02*
X79070095Y-161078571D01*
X79070095Y-161078571D02*
X79070095Y-161383333D01*
X79070095Y-161383333D02*
X79108190Y-161459523D01*
X79108190Y-161459523D02*
X79146285Y-161497618D01*
X79146285Y-161497618D02*
X79222476Y-161535714D01*
X79222476Y-161535714D02*
X79336761Y-161535714D01*
X79336761Y-161535714D02*
X79412952Y-161497618D01*
X79412952Y-161497618D02*
X79451047Y-161459523D01*
X79451047Y-161459523D02*
X79489142Y-161383333D01*
X79489142Y-161383333D02*
X79489142Y-161078571D01*
X79146285Y-161840475D02*
X79108190Y-161878571D01*
X79108190Y-161878571D02*
X79070095Y-161954761D01*
X79070095Y-161954761D02*
X79070095Y-162145237D01*
X79070095Y-162145237D02*
X79108190Y-162221428D01*
X79108190Y-162221428D02*
X79146285Y-162259523D01*
X79146285Y-162259523D02*
X79222476Y-162297618D01*
X79222476Y-162297618D02*
X79298666Y-162297618D01*
X79298666Y-162297618D02*
X79412952Y-162259523D01*
X79412952Y-162259523D02*
X79870095Y-161802380D01*
X79870095Y-161802380D02*
X79870095Y-162297618D01*
X79412952Y-162754761D02*
X79374857Y-162678571D01*
X79374857Y-162678571D02*
X79336761Y-162640476D01*
X79336761Y-162640476D02*
X79260571Y-162602380D01*
X79260571Y-162602380D02*
X79222476Y-162602380D01*
X79222476Y-162602380D02*
X79146285Y-162640476D01*
X79146285Y-162640476D02*
X79108190Y-162678571D01*
X79108190Y-162678571D02*
X79070095Y-162754761D01*
X79070095Y-162754761D02*
X79070095Y-162907142D01*
X79070095Y-162907142D02*
X79108190Y-162983333D01*
X79108190Y-162983333D02*
X79146285Y-163021428D01*
X79146285Y-163021428D02*
X79222476Y-163059523D01*
X79222476Y-163059523D02*
X79260571Y-163059523D01*
X79260571Y-163059523D02*
X79336761Y-163021428D01*
X79336761Y-163021428D02*
X79374857Y-162983333D01*
X79374857Y-162983333D02*
X79412952Y-162907142D01*
X79412952Y-162907142D02*
X79412952Y-162754761D01*
X79412952Y-162754761D02*
X79451047Y-162678571D01*
X79451047Y-162678571D02*
X79489142Y-162640476D01*
X79489142Y-162640476D02*
X79565333Y-162602380D01*
X79565333Y-162602380D02*
X79717714Y-162602380D01*
X79717714Y-162602380D02*
X79793904Y-162640476D01*
X79793904Y-162640476D02*
X79832000Y-162678571D01*
X79832000Y-162678571D02*
X79870095Y-162754761D01*
X79870095Y-162754761D02*
X79870095Y-162907142D01*
X79870095Y-162907142D02*
X79832000Y-162983333D01*
X79832000Y-162983333D02*
X79793904Y-163021428D01*
X79793904Y-163021428D02*
X79717714Y-163059523D01*
X79717714Y-163059523D02*
X79565333Y-163059523D01*
X79565333Y-163059523D02*
X79489142Y-163021428D01*
X79489142Y-163021428D02*
X79451047Y-162983333D01*
X79451047Y-162983333D02*
X79412952Y-162907142D01*
%TO.C,C24*%
X67142857Y-131667380D02*
X67190476Y-131715000D01*
X67190476Y-131715000D02*
X67333333Y-131762619D01*
X67333333Y-131762619D02*
X67428571Y-131762619D01*
X67428571Y-131762619D02*
X67571428Y-131715000D01*
X67571428Y-131715000D02*
X67666666Y-131619761D01*
X67666666Y-131619761D02*
X67714285Y-131524523D01*
X67714285Y-131524523D02*
X67761904Y-131334047D01*
X67761904Y-131334047D02*
X67761904Y-131191190D01*
X67761904Y-131191190D02*
X67714285Y-131000714D01*
X67714285Y-131000714D02*
X67666666Y-130905476D01*
X67666666Y-130905476D02*
X67571428Y-130810238D01*
X67571428Y-130810238D02*
X67428571Y-130762619D01*
X67428571Y-130762619D02*
X67333333Y-130762619D01*
X67333333Y-130762619D02*
X67190476Y-130810238D01*
X67190476Y-130810238D02*
X67142857Y-130857857D01*
X66761904Y-130857857D02*
X66714285Y-130810238D01*
X66714285Y-130810238D02*
X66619047Y-130762619D01*
X66619047Y-130762619D02*
X66380952Y-130762619D01*
X66380952Y-130762619D02*
X66285714Y-130810238D01*
X66285714Y-130810238D02*
X66238095Y-130857857D01*
X66238095Y-130857857D02*
X66190476Y-130953095D01*
X66190476Y-130953095D02*
X66190476Y-131048333D01*
X66190476Y-131048333D02*
X66238095Y-131191190D01*
X66238095Y-131191190D02*
X66809523Y-131762619D01*
X66809523Y-131762619D02*
X66190476Y-131762619D01*
X65333333Y-131095952D02*
X65333333Y-131762619D01*
X65571428Y-130715000D02*
X65809523Y-131429285D01*
X65809523Y-131429285D02*
X65190476Y-131429285D01*
%TO.C,C27*%
X62192857Y-119617380D02*
X62240476Y-119665000D01*
X62240476Y-119665000D02*
X62383333Y-119712619D01*
X62383333Y-119712619D02*
X62478571Y-119712619D01*
X62478571Y-119712619D02*
X62621428Y-119665000D01*
X62621428Y-119665000D02*
X62716666Y-119569761D01*
X62716666Y-119569761D02*
X62764285Y-119474523D01*
X62764285Y-119474523D02*
X62811904Y-119284047D01*
X62811904Y-119284047D02*
X62811904Y-119141190D01*
X62811904Y-119141190D02*
X62764285Y-118950714D01*
X62764285Y-118950714D02*
X62716666Y-118855476D01*
X62716666Y-118855476D02*
X62621428Y-118760238D01*
X62621428Y-118760238D02*
X62478571Y-118712619D01*
X62478571Y-118712619D02*
X62383333Y-118712619D01*
X62383333Y-118712619D02*
X62240476Y-118760238D01*
X62240476Y-118760238D02*
X62192857Y-118807857D01*
X61811904Y-118807857D02*
X61764285Y-118760238D01*
X61764285Y-118760238D02*
X61669047Y-118712619D01*
X61669047Y-118712619D02*
X61430952Y-118712619D01*
X61430952Y-118712619D02*
X61335714Y-118760238D01*
X61335714Y-118760238D02*
X61288095Y-118807857D01*
X61288095Y-118807857D02*
X61240476Y-118903095D01*
X61240476Y-118903095D02*
X61240476Y-118998333D01*
X61240476Y-118998333D02*
X61288095Y-119141190D01*
X61288095Y-119141190D02*
X61859523Y-119712619D01*
X61859523Y-119712619D02*
X61240476Y-119712619D01*
X60907142Y-118712619D02*
X60240476Y-118712619D01*
X60240476Y-118712619D02*
X60669047Y-119712619D01*
%TO.C,R24*%
X72020095Y-161535714D02*
X71639142Y-161269047D01*
X72020095Y-161078571D02*
X71220095Y-161078571D01*
X71220095Y-161078571D02*
X71220095Y-161383333D01*
X71220095Y-161383333D02*
X71258190Y-161459523D01*
X71258190Y-161459523D02*
X71296285Y-161497618D01*
X71296285Y-161497618D02*
X71372476Y-161535714D01*
X71372476Y-161535714D02*
X71486761Y-161535714D01*
X71486761Y-161535714D02*
X71562952Y-161497618D01*
X71562952Y-161497618D02*
X71601047Y-161459523D01*
X71601047Y-161459523D02*
X71639142Y-161383333D01*
X71639142Y-161383333D02*
X71639142Y-161078571D01*
X71296285Y-161840475D02*
X71258190Y-161878571D01*
X71258190Y-161878571D02*
X71220095Y-161954761D01*
X71220095Y-161954761D02*
X71220095Y-162145237D01*
X71220095Y-162145237D02*
X71258190Y-162221428D01*
X71258190Y-162221428D02*
X71296285Y-162259523D01*
X71296285Y-162259523D02*
X71372476Y-162297618D01*
X71372476Y-162297618D02*
X71448666Y-162297618D01*
X71448666Y-162297618D02*
X71562952Y-162259523D01*
X71562952Y-162259523D02*
X72020095Y-161802380D01*
X72020095Y-161802380D02*
X72020095Y-162297618D01*
X71486761Y-162983333D02*
X72020095Y-162983333D01*
X71182000Y-162792857D02*
X71753428Y-162602380D01*
X71753428Y-162602380D02*
X71753428Y-163097619D01*
D10*
%TO.C,R18*%
X71910095Y-126205714D02*
X71529142Y-125939047D01*
X71910095Y-125748571D02*
X71110095Y-125748571D01*
X71110095Y-125748571D02*
X71110095Y-126053333D01*
X71110095Y-126053333D02*
X71148190Y-126129523D01*
X71148190Y-126129523D02*
X71186285Y-126167618D01*
X71186285Y-126167618D02*
X71262476Y-126205714D01*
X71262476Y-126205714D02*
X71376761Y-126205714D01*
X71376761Y-126205714D02*
X71452952Y-126167618D01*
X71452952Y-126167618D02*
X71491047Y-126129523D01*
X71491047Y-126129523D02*
X71529142Y-126053333D01*
X71529142Y-126053333D02*
X71529142Y-125748571D01*
X71910095Y-126967618D02*
X71910095Y-126510475D01*
X71910095Y-126739047D02*
X71110095Y-126739047D01*
X71110095Y-126739047D02*
X71224380Y-126662856D01*
X71224380Y-126662856D02*
X71300571Y-126586666D01*
X71300571Y-126586666D02*
X71338666Y-126510475D01*
X71452952Y-127424761D02*
X71414857Y-127348571D01*
X71414857Y-127348571D02*
X71376761Y-127310476D01*
X71376761Y-127310476D02*
X71300571Y-127272380D01*
X71300571Y-127272380D02*
X71262476Y-127272380D01*
X71262476Y-127272380D02*
X71186285Y-127310476D01*
X71186285Y-127310476D02*
X71148190Y-127348571D01*
X71148190Y-127348571D02*
X71110095Y-127424761D01*
X71110095Y-127424761D02*
X71110095Y-127577142D01*
X71110095Y-127577142D02*
X71148190Y-127653333D01*
X71148190Y-127653333D02*
X71186285Y-127691428D01*
X71186285Y-127691428D02*
X71262476Y-127729523D01*
X71262476Y-127729523D02*
X71300571Y-127729523D01*
X71300571Y-127729523D02*
X71376761Y-127691428D01*
X71376761Y-127691428D02*
X71414857Y-127653333D01*
X71414857Y-127653333D02*
X71452952Y-127577142D01*
X71452952Y-127577142D02*
X71452952Y-127424761D01*
X71452952Y-127424761D02*
X71491047Y-127348571D01*
X71491047Y-127348571D02*
X71529142Y-127310476D01*
X71529142Y-127310476D02*
X71605333Y-127272380D01*
X71605333Y-127272380D02*
X71757714Y-127272380D01*
X71757714Y-127272380D02*
X71833904Y-127310476D01*
X71833904Y-127310476D02*
X71872000Y-127348571D01*
X71872000Y-127348571D02*
X71910095Y-127424761D01*
X71910095Y-127424761D02*
X71910095Y-127577142D01*
X71910095Y-127577142D02*
X71872000Y-127653333D01*
X71872000Y-127653333D02*
X71833904Y-127691428D01*
X71833904Y-127691428D02*
X71757714Y-127729523D01*
X71757714Y-127729523D02*
X71605333Y-127729523D01*
X71605333Y-127729523D02*
X71529142Y-127691428D01*
X71529142Y-127691428D02*
X71491047Y-127653333D01*
X71491047Y-127653333D02*
X71452952Y-127577142D01*
D11*
%TO.C,R38*%
X76620095Y-69985714D02*
X76239142Y-69719047D01*
X76620095Y-69528571D02*
X75820095Y-69528571D01*
X75820095Y-69528571D02*
X75820095Y-69833333D01*
X75820095Y-69833333D02*
X75858190Y-69909523D01*
X75858190Y-69909523D02*
X75896285Y-69947618D01*
X75896285Y-69947618D02*
X75972476Y-69985714D01*
X75972476Y-69985714D02*
X76086761Y-69985714D01*
X76086761Y-69985714D02*
X76162952Y-69947618D01*
X76162952Y-69947618D02*
X76201047Y-69909523D01*
X76201047Y-69909523D02*
X76239142Y-69833333D01*
X76239142Y-69833333D02*
X76239142Y-69528571D01*
X75820095Y-70252380D02*
X75820095Y-70747618D01*
X75820095Y-70747618D02*
X76124857Y-70480952D01*
X76124857Y-70480952D02*
X76124857Y-70595237D01*
X76124857Y-70595237D02*
X76162952Y-70671428D01*
X76162952Y-70671428D02*
X76201047Y-70709523D01*
X76201047Y-70709523D02*
X76277238Y-70747618D01*
X76277238Y-70747618D02*
X76467714Y-70747618D01*
X76467714Y-70747618D02*
X76543904Y-70709523D01*
X76543904Y-70709523D02*
X76582000Y-70671428D01*
X76582000Y-70671428D02*
X76620095Y-70595237D01*
X76620095Y-70595237D02*
X76620095Y-70366666D01*
X76620095Y-70366666D02*
X76582000Y-70290475D01*
X76582000Y-70290475D02*
X76543904Y-70252380D01*
X76162952Y-71204761D02*
X76124857Y-71128571D01*
X76124857Y-71128571D02*
X76086761Y-71090476D01*
X76086761Y-71090476D02*
X76010571Y-71052380D01*
X76010571Y-71052380D02*
X75972476Y-71052380D01*
X75972476Y-71052380D02*
X75896285Y-71090476D01*
X75896285Y-71090476D02*
X75858190Y-71128571D01*
X75858190Y-71128571D02*
X75820095Y-71204761D01*
X75820095Y-71204761D02*
X75820095Y-71357142D01*
X75820095Y-71357142D02*
X75858190Y-71433333D01*
X75858190Y-71433333D02*
X75896285Y-71471428D01*
X75896285Y-71471428D02*
X75972476Y-71509523D01*
X75972476Y-71509523D02*
X76010571Y-71509523D01*
X76010571Y-71509523D02*
X76086761Y-71471428D01*
X76086761Y-71471428D02*
X76124857Y-71433333D01*
X76124857Y-71433333D02*
X76162952Y-71357142D01*
X76162952Y-71357142D02*
X76162952Y-71204761D01*
X76162952Y-71204761D02*
X76201047Y-71128571D01*
X76201047Y-71128571D02*
X76239142Y-71090476D01*
X76239142Y-71090476D02*
X76315333Y-71052380D01*
X76315333Y-71052380D02*
X76467714Y-71052380D01*
X76467714Y-71052380D02*
X76543904Y-71090476D01*
X76543904Y-71090476D02*
X76582000Y-71128571D01*
X76582000Y-71128571D02*
X76620095Y-71204761D01*
X76620095Y-71204761D02*
X76620095Y-71357142D01*
X76620095Y-71357142D02*
X76582000Y-71433333D01*
X76582000Y-71433333D02*
X76543904Y-71471428D01*
X76543904Y-71471428D02*
X76467714Y-71509523D01*
X76467714Y-71509523D02*
X76315333Y-71509523D01*
X76315333Y-71509523D02*
X76239142Y-71471428D01*
X76239142Y-71471428D02*
X76201047Y-71433333D01*
X76201047Y-71433333D02*
X76162952Y-71357142D01*
%TO.C,R6*%
X67910095Y-141586667D02*
X67529142Y-141320000D01*
X67910095Y-141129524D02*
X67110095Y-141129524D01*
X67110095Y-141129524D02*
X67110095Y-141434286D01*
X67110095Y-141434286D02*
X67148190Y-141510476D01*
X67148190Y-141510476D02*
X67186285Y-141548571D01*
X67186285Y-141548571D02*
X67262476Y-141586667D01*
X67262476Y-141586667D02*
X67376761Y-141586667D01*
X67376761Y-141586667D02*
X67452952Y-141548571D01*
X67452952Y-141548571D02*
X67491047Y-141510476D01*
X67491047Y-141510476D02*
X67529142Y-141434286D01*
X67529142Y-141434286D02*
X67529142Y-141129524D01*
X67110095Y-142272381D02*
X67110095Y-142120000D01*
X67110095Y-142120000D02*
X67148190Y-142043809D01*
X67148190Y-142043809D02*
X67186285Y-142005714D01*
X67186285Y-142005714D02*
X67300571Y-141929524D01*
X67300571Y-141929524D02*
X67452952Y-141891428D01*
X67452952Y-141891428D02*
X67757714Y-141891428D01*
X67757714Y-141891428D02*
X67833904Y-141929524D01*
X67833904Y-141929524D02*
X67872000Y-141967619D01*
X67872000Y-141967619D02*
X67910095Y-142043809D01*
X67910095Y-142043809D02*
X67910095Y-142196190D01*
X67910095Y-142196190D02*
X67872000Y-142272381D01*
X67872000Y-142272381D02*
X67833904Y-142310476D01*
X67833904Y-142310476D02*
X67757714Y-142348571D01*
X67757714Y-142348571D02*
X67567238Y-142348571D01*
X67567238Y-142348571D02*
X67491047Y-142310476D01*
X67491047Y-142310476D02*
X67452952Y-142272381D01*
X67452952Y-142272381D02*
X67414857Y-142196190D01*
X67414857Y-142196190D02*
X67414857Y-142043809D01*
X67414857Y-142043809D02*
X67452952Y-141967619D01*
X67452952Y-141967619D02*
X67491047Y-141929524D01*
X67491047Y-141929524D02*
X67567238Y-141891428D01*
%TO.C,R36*%
X91672857Y-80012619D02*
X92006190Y-79536428D01*
X92244285Y-80012619D02*
X92244285Y-79012619D01*
X92244285Y-79012619D02*
X91863333Y-79012619D01*
X91863333Y-79012619D02*
X91768095Y-79060238D01*
X91768095Y-79060238D02*
X91720476Y-79107857D01*
X91720476Y-79107857D02*
X91672857Y-79203095D01*
X91672857Y-79203095D02*
X91672857Y-79345952D01*
X91672857Y-79345952D02*
X91720476Y-79441190D01*
X91720476Y-79441190D02*
X91768095Y-79488809D01*
X91768095Y-79488809D02*
X91863333Y-79536428D01*
X91863333Y-79536428D02*
X92244285Y-79536428D01*
X91339523Y-79012619D02*
X90720476Y-79012619D01*
X90720476Y-79012619D02*
X91053809Y-79393571D01*
X91053809Y-79393571D02*
X90910952Y-79393571D01*
X90910952Y-79393571D02*
X90815714Y-79441190D01*
X90815714Y-79441190D02*
X90768095Y-79488809D01*
X90768095Y-79488809D02*
X90720476Y-79584047D01*
X90720476Y-79584047D02*
X90720476Y-79822142D01*
X90720476Y-79822142D02*
X90768095Y-79917380D01*
X90768095Y-79917380D02*
X90815714Y-79965000D01*
X90815714Y-79965000D02*
X90910952Y-80012619D01*
X90910952Y-80012619D02*
X91196666Y-80012619D01*
X91196666Y-80012619D02*
X91291904Y-79965000D01*
X91291904Y-79965000D02*
X91339523Y-79917380D01*
X89863333Y-79012619D02*
X90053809Y-79012619D01*
X90053809Y-79012619D02*
X90149047Y-79060238D01*
X90149047Y-79060238D02*
X90196666Y-79107857D01*
X90196666Y-79107857D02*
X90291904Y-79250714D01*
X90291904Y-79250714D02*
X90339523Y-79441190D01*
X90339523Y-79441190D02*
X90339523Y-79822142D01*
X90339523Y-79822142D02*
X90291904Y-79917380D01*
X90291904Y-79917380D02*
X90244285Y-79965000D01*
X90244285Y-79965000D02*
X90149047Y-80012619D01*
X90149047Y-80012619D02*
X89958571Y-80012619D01*
X89958571Y-80012619D02*
X89863333Y-79965000D01*
X89863333Y-79965000D02*
X89815714Y-79917380D01*
X89815714Y-79917380D02*
X89768095Y-79822142D01*
X89768095Y-79822142D02*
X89768095Y-79584047D01*
X89768095Y-79584047D02*
X89815714Y-79488809D01*
X89815714Y-79488809D02*
X89863333Y-79441190D01*
X89863333Y-79441190D02*
X89958571Y-79393571D01*
X89958571Y-79393571D02*
X90149047Y-79393571D01*
X90149047Y-79393571D02*
X90244285Y-79441190D01*
X90244285Y-79441190D02*
X90291904Y-79488809D01*
X90291904Y-79488809D02*
X90339523Y-79584047D01*
%TO.C,C29*%
X71664285Y-160593904D02*
X71702381Y-160632000D01*
X71702381Y-160632000D02*
X71816666Y-160670095D01*
X71816666Y-160670095D02*
X71892857Y-160670095D01*
X71892857Y-160670095D02*
X72007143Y-160632000D01*
X72007143Y-160632000D02*
X72083333Y-160555809D01*
X72083333Y-160555809D02*
X72121428Y-160479619D01*
X72121428Y-160479619D02*
X72159524Y-160327238D01*
X72159524Y-160327238D02*
X72159524Y-160212952D01*
X72159524Y-160212952D02*
X72121428Y-160060571D01*
X72121428Y-160060571D02*
X72083333Y-159984380D01*
X72083333Y-159984380D02*
X72007143Y-159908190D01*
X72007143Y-159908190D02*
X71892857Y-159870095D01*
X71892857Y-159870095D02*
X71816666Y-159870095D01*
X71816666Y-159870095D02*
X71702381Y-159908190D01*
X71702381Y-159908190D02*
X71664285Y-159946285D01*
X71359524Y-159946285D02*
X71321428Y-159908190D01*
X71321428Y-159908190D02*
X71245238Y-159870095D01*
X71245238Y-159870095D02*
X71054762Y-159870095D01*
X71054762Y-159870095D02*
X70978571Y-159908190D01*
X70978571Y-159908190D02*
X70940476Y-159946285D01*
X70940476Y-159946285D02*
X70902381Y-160022476D01*
X70902381Y-160022476D02*
X70902381Y-160098666D01*
X70902381Y-160098666D02*
X70940476Y-160212952D01*
X70940476Y-160212952D02*
X71397619Y-160670095D01*
X71397619Y-160670095D02*
X70902381Y-160670095D01*
X70521428Y-160670095D02*
X70369047Y-160670095D01*
X70369047Y-160670095D02*
X70292857Y-160632000D01*
X70292857Y-160632000D02*
X70254761Y-160593904D01*
X70254761Y-160593904D02*
X70178571Y-160479619D01*
X70178571Y-160479619D02*
X70140476Y-160327238D01*
X70140476Y-160327238D02*
X70140476Y-160022476D01*
X70140476Y-160022476D02*
X70178571Y-159946285D01*
X70178571Y-159946285D02*
X70216666Y-159908190D01*
X70216666Y-159908190D02*
X70292857Y-159870095D01*
X70292857Y-159870095D02*
X70445238Y-159870095D01*
X70445238Y-159870095D02*
X70521428Y-159908190D01*
X70521428Y-159908190D02*
X70559523Y-159946285D01*
X70559523Y-159946285D02*
X70597619Y-160022476D01*
X70597619Y-160022476D02*
X70597619Y-160212952D01*
X70597619Y-160212952D02*
X70559523Y-160289142D01*
X70559523Y-160289142D02*
X70521428Y-160327238D01*
X70521428Y-160327238D02*
X70445238Y-160365333D01*
X70445238Y-160365333D02*
X70292857Y-160365333D01*
X70292857Y-160365333D02*
X70216666Y-160327238D01*
X70216666Y-160327238D02*
X70178571Y-160289142D01*
X70178571Y-160289142D02*
X70140476Y-160212952D01*
%TO.C,R25*%
X73910095Y-160705714D02*
X73529142Y-160439047D01*
X73910095Y-160248571D02*
X73110095Y-160248571D01*
X73110095Y-160248571D02*
X73110095Y-160553333D01*
X73110095Y-160553333D02*
X73148190Y-160629523D01*
X73148190Y-160629523D02*
X73186285Y-160667618D01*
X73186285Y-160667618D02*
X73262476Y-160705714D01*
X73262476Y-160705714D02*
X73376761Y-160705714D01*
X73376761Y-160705714D02*
X73452952Y-160667618D01*
X73452952Y-160667618D02*
X73491047Y-160629523D01*
X73491047Y-160629523D02*
X73529142Y-160553333D01*
X73529142Y-160553333D02*
X73529142Y-160248571D01*
X73186285Y-161010475D02*
X73148190Y-161048571D01*
X73148190Y-161048571D02*
X73110095Y-161124761D01*
X73110095Y-161124761D02*
X73110095Y-161315237D01*
X73110095Y-161315237D02*
X73148190Y-161391428D01*
X73148190Y-161391428D02*
X73186285Y-161429523D01*
X73186285Y-161429523D02*
X73262476Y-161467618D01*
X73262476Y-161467618D02*
X73338666Y-161467618D01*
X73338666Y-161467618D02*
X73452952Y-161429523D01*
X73452952Y-161429523D02*
X73910095Y-160972380D01*
X73910095Y-160972380D02*
X73910095Y-161467618D01*
X73110095Y-162191428D02*
X73110095Y-161810476D01*
X73110095Y-161810476D02*
X73491047Y-161772380D01*
X73491047Y-161772380D02*
X73452952Y-161810476D01*
X73452952Y-161810476D02*
X73414857Y-161886666D01*
X73414857Y-161886666D02*
X73414857Y-162077142D01*
X73414857Y-162077142D02*
X73452952Y-162153333D01*
X73452952Y-162153333D02*
X73491047Y-162191428D01*
X73491047Y-162191428D02*
X73567238Y-162229523D01*
X73567238Y-162229523D02*
X73757714Y-162229523D01*
X73757714Y-162229523D02*
X73833904Y-162191428D01*
X73833904Y-162191428D02*
X73872000Y-162153333D01*
X73872000Y-162153333D02*
X73910095Y-162077142D01*
X73910095Y-162077142D02*
X73910095Y-161886666D01*
X73910095Y-161886666D02*
X73872000Y-161810476D01*
X73872000Y-161810476D02*
X73833904Y-161772380D01*
%TO.C,SW4*%
X89715000Y-68366667D02*
X89762619Y-68509524D01*
X89762619Y-68509524D02*
X89762619Y-68747619D01*
X89762619Y-68747619D02*
X89715000Y-68842857D01*
X89715000Y-68842857D02*
X89667380Y-68890476D01*
X89667380Y-68890476D02*
X89572142Y-68938095D01*
X89572142Y-68938095D02*
X89476904Y-68938095D01*
X89476904Y-68938095D02*
X89381666Y-68890476D01*
X89381666Y-68890476D02*
X89334047Y-68842857D01*
X89334047Y-68842857D02*
X89286428Y-68747619D01*
X89286428Y-68747619D02*
X89238809Y-68557143D01*
X89238809Y-68557143D02*
X89191190Y-68461905D01*
X89191190Y-68461905D02*
X89143571Y-68414286D01*
X89143571Y-68414286D02*
X89048333Y-68366667D01*
X89048333Y-68366667D02*
X88953095Y-68366667D01*
X88953095Y-68366667D02*
X88857857Y-68414286D01*
X88857857Y-68414286D02*
X88810238Y-68461905D01*
X88810238Y-68461905D02*
X88762619Y-68557143D01*
X88762619Y-68557143D02*
X88762619Y-68795238D01*
X88762619Y-68795238D02*
X88810238Y-68938095D01*
X88762619Y-69271429D02*
X89762619Y-69509524D01*
X89762619Y-69509524D02*
X89048333Y-69700000D01*
X89048333Y-69700000D02*
X89762619Y-69890476D01*
X89762619Y-69890476D02*
X88762619Y-70128572D01*
X89095952Y-70938095D02*
X89762619Y-70938095D01*
X88715000Y-70700000D02*
X89429285Y-70461905D01*
X89429285Y-70461905D02*
X89429285Y-71080952D01*
%TO.C,R3*%
X63910095Y-137116667D02*
X63529142Y-136850000D01*
X63910095Y-136659524D02*
X63110095Y-136659524D01*
X63110095Y-136659524D02*
X63110095Y-136964286D01*
X63110095Y-136964286D02*
X63148190Y-137040476D01*
X63148190Y-137040476D02*
X63186285Y-137078571D01*
X63186285Y-137078571D02*
X63262476Y-137116667D01*
X63262476Y-137116667D02*
X63376761Y-137116667D01*
X63376761Y-137116667D02*
X63452952Y-137078571D01*
X63452952Y-137078571D02*
X63491047Y-137040476D01*
X63491047Y-137040476D02*
X63529142Y-136964286D01*
X63529142Y-136964286D02*
X63529142Y-136659524D01*
X63110095Y-137383333D02*
X63110095Y-137878571D01*
X63110095Y-137878571D02*
X63414857Y-137611905D01*
X63414857Y-137611905D02*
X63414857Y-137726190D01*
X63414857Y-137726190D02*
X63452952Y-137802381D01*
X63452952Y-137802381D02*
X63491047Y-137840476D01*
X63491047Y-137840476D02*
X63567238Y-137878571D01*
X63567238Y-137878571D02*
X63757714Y-137878571D01*
X63757714Y-137878571D02*
X63833904Y-137840476D01*
X63833904Y-137840476D02*
X63872000Y-137802381D01*
X63872000Y-137802381D02*
X63910095Y-137726190D01*
X63910095Y-137726190D02*
X63910095Y-137497619D01*
X63910095Y-137497619D02*
X63872000Y-137421428D01*
X63872000Y-137421428D02*
X63833904Y-137383333D01*
%TO.C,R29*%
X77910095Y-160705714D02*
X77529142Y-160439047D01*
X77910095Y-160248571D02*
X77110095Y-160248571D01*
X77110095Y-160248571D02*
X77110095Y-160553333D01*
X77110095Y-160553333D02*
X77148190Y-160629523D01*
X77148190Y-160629523D02*
X77186285Y-160667618D01*
X77186285Y-160667618D02*
X77262476Y-160705714D01*
X77262476Y-160705714D02*
X77376761Y-160705714D01*
X77376761Y-160705714D02*
X77452952Y-160667618D01*
X77452952Y-160667618D02*
X77491047Y-160629523D01*
X77491047Y-160629523D02*
X77529142Y-160553333D01*
X77529142Y-160553333D02*
X77529142Y-160248571D01*
X77186285Y-161010475D02*
X77148190Y-161048571D01*
X77148190Y-161048571D02*
X77110095Y-161124761D01*
X77110095Y-161124761D02*
X77110095Y-161315237D01*
X77110095Y-161315237D02*
X77148190Y-161391428D01*
X77148190Y-161391428D02*
X77186285Y-161429523D01*
X77186285Y-161429523D02*
X77262476Y-161467618D01*
X77262476Y-161467618D02*
X77338666Y-161467618D01*
X77338666Y-161467618D02*
X77452952Y-161429523D01*
X77452952Y-161429523D02*
X77910095Y-160972380D01*
X77910095Y-160972380D02*
X77910095Y-161467618D01*
X77910095Y-161848571D02*
X77910095Y-162000952D01*
X77910095Y-162000952D02*
X77872000Y-162077142D01*
X77872000Y-162077142D02*
X77833904Y-162115238D01*
X77833904Y-162115238D02*
X77719619Y-162191428D01*
X77719619Y-162191428D02*
X77567238Y-162229523D01*
X77567238Y-162229523D02*
X77262476Y-162229523D01*
X77262476Y-162229523D02*
X77186285Y-162191428D01*
X77186285Y-162191428D02*
X77148190Y-162153333D01*
X77148190Y-162153333D02*
X77110095Y-162077142D01*
X77110095Y-162077142D02*
X77110095Y-161924761D01*
X77110095Y-161924761D02*
X77148190Y-161848571D01*
X77148190Y-161848571D02*
X77186285Y-161810476D01*
X77186285Y-161810476D02*
X77262476Y-161772380D01*
X77262476Y-161772380D02*
X77452952Y-161772380D01*
X77452952Y-161772380D02*
X77529142Y-161810476D01*
X77529142Y-161810476D02*
X77567238Y-161848571D01*
X77567238Y-161848571D02*
X77605333Y-161924761D01*
X77605333Y-161924761D02*
X77605333Y-162077142D01*
X77605333Y-162077142D02*
X77567238Y-162153333D01*
X77567238Y-162153333D02*
X77529142Y-162191428D01*
X77529142Y-162191428D02*
X77452952Y-162229523D01*
%TO.C,C34*%
X94114285Y-160393904D02*
X94152381Y-160432000D01*
X94152381Y-160432000D02*
X94266666Y-160470095D01*
X94266666Y-160470095D02*
X94342857Y-160470095D01*
X94342857Y-160470095D02*
X94457143Y-160432000D01*
X94457143Y-160432000D02*
X94533333Y-160355809D01*
X94533333Y-160355809D02*
X94571428Y-160279619D01*
X94571428Y-160279619D02*
X94609524Y-160127238D01*
X94609524Y-160127238D02*
X94609524Y-160012952D01*
X94609524Y-160012952D02*
X94571428Y-159860571D01*
X94571428Y-159860571D02*
X94533333Y-159784380D01*
X94533333Y-159784380D02*
X94457143Y-159708190D01*
X94457143Y-159708190D02*
X94342857Y-159670095D01*
X94342857Y-159670095D02*
X94266666Y-159670095D01*
X94266666Y-159670095D02*
X94152381Y-159708190D01*
X94152381Y-159708190D02*
X94114285Y-159746285D01*
X93847619Y-159670095D02*
X93352381Y-159670095D01*
X93352381Y-159670095D02*
X93619047Y-159974857D01*
X93619047Y-159974857D02*
X93504762Y-159974857D01*
X93504762Y-159974857D02*
X93428571Y-160012952D01*
X93428571Y-160012952D02*
X93390476Y-160051047D01*
X93390476Y-160051047D02*
X93352381Y-160127238D01*
X93352381Y-160127238D02*
X93352381Y-160317714D01*
X93352381Y-160317714D02*
X93390476Y-160393904D01*
X93390476Y-160393904D02*
X93428571Y-160432000D01*
X93428571Y-160432000D02*
X93504762Y-160470095D01*
X93504762Y-160470095D02*
X93733333Y-160470095D01*
X93733333Y-160470095D02*
X93809524Y-160432000D01*
X93809524Y-160432000D02*
X93847619Y-160393904D01*
X92666666Y-159936761D02*
X92666666Y-160470095D01*
X92857142Y-159632000D02*
X93047619Y-160203428D01*
X93047619Y-160203428D02*
X92552380Y-160203428D01*
%TO.C,D7*%
X90488094Y-96212619D02*
X90488094Y-95212619D01*
X90488094Y-95212619D02*
X90249999Y-95212619D01*
X90249999Y-95212619D02*
X90107142Y-95260238D01*
X90107142Y-95260238D02*
X90011904Y-95355476D01*
X90011904Y-95355476D02*
X89964285Y-95450714D01*
X89964285Y-95450714D02*
X89916666Y-95641190D01*
X89916666Y-95641190D02*
X89916666Y-95784047D01*
X89916666Y-95784047D02*
X89964285Y-95974523D01*
X89964285Y-95974523D02*
X90011904Y-96069761D01*
X90011904Y-96069761D02*
X90107142Y-96165000D01*
X90107142Y-96165000D02*
X90249999Y-96212619D01*
X90249999Y-96212619D02*
X90488094Y-96212619D01*
X89583332Y-95212619D02*
X88916666Y-95212619D01*
X88916666Y-95212619D02*
X89345237Y-96212619D01*
%TO.C,U6*%
X64801904Y-154902619D02*
X64801904Y-155712142D01*
X64801904Y-155712142D02*
X64754285Y-155807380D01*
X64754285Y-155807380D02*
X64706666Y-155855000D01*
X64706666Y-155855000D02*
X64611428Y-155902619D01*
X64611428Y-155902619D02*
X64420952Y-155902619D01*
X64420952Y-155902619D02*
X64325714Y-155855000D01*
X64325714Y-155855000D02*
X64278095Y-155807380D01*
X64278095Y-155807380D02*
X64230476Y-155712142D01*
X64230476Y-155712142D02*
X64230476Y-154902619D01*
X63325714Y-154902619D02*
X63516190Y-154902619D01*
X63516190Y-154902619D02*
X63611428Y-154950238D01*
X63611428Y-154950238D02*
X63659047Y-154997857D01*
X63659047Y-154997857D02*
X63754285Y-155140714D01*
X63754285Y-155140714D02*
X63801904Y-155331190D01*
X63801904Y-155331190D02*
X63801904Y-155712142D01*
X63801904Y-155712142D02*
X63754285Y-155807380D01*
X63754285Y-155807380D02*
X63706666Y-155855000D01*
X63706666Y-155855000D02*
X63611428Y-155902619D01*
X63611428Y-155902619D02*
X63420952Y-155902619D01*
X63420952Y-155902619D02*
X63325714Y-155855000D01*
X63325714Y-155855000D02*
X63278095Y-155807380D01*
X63278095Y-155807380D02*
X63230476Y-155712142D01*
X63230476Y-155712142D02*
X63230476Y-155474047D01*
X63230476Y-155474047D02*
X63278095Y-155378809D01*
X63278095Y-155378809D02*
X63325714Y-155331190D01*
X63325714Y-155331190D02*
X63420952Y-155283571D01*
X63420952Y-155283571D02*
X63611428Y-155283571D01*
X63611428Y-155283571D02*
X63706666Y-155331190D01*
X63706666Y-155331190D02*
X63754285Y-155378809D01*
X63754285Y-155378809D02*
X63801904Y-155474047D01*
%TO.C,D8*%
X69238094Y-78462619D02*
X69238094Y-77462619D01*
X69238094Y-77462619D02*
X68999999Y-77462619D01*
X68999999Y-77462619D02*
X68857142Y-77510238D01*
X68857142Y-77510238D02*
X68761904Y-77605476D01*
X68761904Y-77605476D02*
X68714285Y-77700714D01*
X68714285Y-77700714D02*
X68666666Y-77891190D01*
X68666666Y-77891190D02*
X68666666Y-78034047D01*
X68666666Y-78034047D02*
X68714285Y-78224523D01*
X68714285Y-78224523D02*
X68761904Y-78319761D01*
X68761904Y-78319761D02*
X68857142Y-78415000D01*
X68857142Y-78415000D02*
X68999999Y-78462619D01*
X68999999Y-78462619D02*
X69238094Y-78462619D01*
X68095237Y-77891190D02*
X68190475Y-77843571D01*
X68190475Y-77843571D02*
X68238094Y-77795952D01*
X68238094Y-77795952D02*
X68285713Y-77700714D01*
X68285713Y-77700714D02*
X68285713Y-77653095D01*
X68285713Y-77653095D02*
X68238094Y-77557857D01*
X68238094Y-77557857D02*
X68190475Y-77510238D01*
X68190475Y-77510238D02*
X68095237Y-77462619D01*
X68095237Y-77462619D02*
X67904761Y-77462619D01*
X67904761Y-77462619D02*
X67809523Y-77510238D01*
X67809523Y-77510238D02*
X67761904Y-77557857D01*
X67761904Y-77557857D02*
X67714285Y-77653095D01*
X67714285Y-77653095D02*
X67714285Y-77700714D01*
X67714285Y-77700714D02*
X67761904Y-77795952D01*
X67761904Y-77795952D02*
X67809523Y-77843571D01*
X67809523Y-77843571D02*
X67904761Y-77891190D01*
X67904761Y-77891190D02*
X68095237Y-77891190D01*
X68095237Y-77891190D02*
X68190475Y-77938809D01*
X68190475Y-77938809D02*
X68238094Y-77986428D01*
X68238094Y-77986428D02*
X68285713Y-78081666D01*
X68285713Y-78081666D02*
X68285713Y-78272142D01*
X68285713Y-78272142D02*
X68238094Y-78367380D01*
X68238094Y-78367380D02*
X68190475Y-78415000D01*
X68190475Y-78415000D02*
X68095237Y-78462619D01*
X68095237Y-78462619D02*
X67904761Y-78462619D01*
X67904761Y-78462619D02*
X67809523Y-78415000D01*
X67809523Y-78415000D02*
X67761904Y-78367380D01*
X67761904Y-78367380D02*
X67714285Y-78272142D01*
X67714285Y-78272142D02*
X67714285Y-78081666D01*
X67714285Y-78081666D02*
X67761904Y-77986428D01*
X67761904Y-77986428D02*
X67809523Y-77938809D01*
X67809523Y-77938809D02*
X67904761Y-77891190D01*
%TO.C,R8*%
X86410095Y-141086667D02*
X86029142Y-140820000D01*
X86410095Y-140629524D02*
X85610095Y-140629524D01*
X85610095Y-140629524D02*
X85610095Y-140934286D01*
X85610095Y-140934286D02*
X85648190Y-141010476D01*
X85648190Y-141010476D02*
X85686285Y-141048571D01*
X85686285Y-141048571D02*
X85762476Y-141086667D01*
X85762476Y-141086667D02*
X85876761Y-141086667D01*
X85876761Y-141086667D02*
X85952952Y-141048571D01*
X85952952Y-141048571D02*
X85991047Y-141010476D01*
X85991047Y-141010476D02*
X86029142Y-140934286D01*
X86029142Y-140934286D02*
X86029142Y-140629524D01*
X85952952Y-141543809D02*
X85914857Y-141467619D01*
X85914857Y-141467619D02*
X85876761Y-141429524D01*
X85876761Y-141429524D02*
X85800571Y-141391428D01*
X85800571Y-141391428D02*
X85762476Y-141391428D01*
X85762476Y-141391428D02*
X85686285Y-141429524D01*
X85686285Y-141429524D02*
X85648190Y-141467619D01*
X85648190Y-141467619D02*
X85610095Y-141543809D01*
X85610095Y-141543809D02*
X85610095Y-141696190D01*
X85610095Y-141696190D02*
X85648190Y-141772381D01*
X85648190Y-141772381D02*
X85686285Y-141810476D01*
X85686285Y-141810476D02*
X85762476Y-141848571D01*
X85762476Y-141848571D02*
X85800571Y-141848571D01*
X85800571Y-141848571D02*
X85876761Y-141810476D01*
X85876761Y-141810476D02*
X85914857Y-141772381D01*
X85914857Y-141772381D02*
X85952952Y-141696190D01*
X85952952Y-141696190D02*
X85952952Y-141543809D01*
X85952952Y-141543809D02*
X85991047Y-141467619D01*
X85991047Y-141467619D02*
X86029142Y-141429524D01*
X86029142Y-141429524D02*
X86105333Y-141391428D01*
X86105333Y-141391428D02*
X86257714Y-141391428D01*
X86257714Y-141391428D02*
X86333904Y-141429524D01*
X86333904Y-141429524D02*
X86372000Y-141467619D01*
X86372000Y-141467619D02*
X86410095Y-141543809D01*
X86410095Y-141543809D02*
X86410095Y-141696190D01*
X86410095Y-141696190D02*
X86372000Y-141772381D01*
X86372000Y-141772381D02*
X86333904Y-141810476D01*
X86333904Y-141810476D02*
X86257714Y-141848571D01*
X86257714Y-141848571D02*
X86105333Y-141848571D01*
X86105333Y-141848571D02*
X86029142Y-141810476D01*
X86029142Y-141810476D02*
X85991047Y-141772381D01*
X85991047Y-141772381D02*
X85952952Y-141696190D01*
%TO.C,R23*%
X53497595Y-164205714D02*
X53116642Y-163939047D01*
X53497595Y-163748571D02*
X52697595Y-163748571D01*
X52697595Y-163748571D02*
X52697595Y-164053333D01*
X52697595Y-164053333D02*
X52735690Y-164129523D01*
X52735690Y-164129523D02*
X52773785Y-164167618D01*
X52773785Y-164167618D02*
X52849976Y-164205714D01*
X52849976Y-164205714D02*
X52964261Y-164205714D01*
X52964261Y-164205714D02*
X53040452Y-164167618D01*
X53040452Y-164167618D02*
X53078547Y-164129523D01*
X53078547Y-164129523D02*
X53116642Y-164053333D01*
X53116642Y-164053333D02*
X53116642Y-163748571D01*
X52773785Y-164510475D02*
X52735690Y-164548571D01*
X52735690Y-164548571D02*
X52697595Y-164624761D01*
X52697595Y-164624761D02*
X52697595Y-164815237D01*
X52697595Y-164815237D02*
X52735690Y-164891428D01*
X52735690Y-164891428D02*
X52773785Y-164929523D01*
X52773785Y-164929523D02*
X52849976Y-164967618D01*
X52849976Y-164967618D02*
X52926166Y-164967618D01*
X52926166Y-164967618D02*
X53040452Y-164929523D01*
X53040452Y-164929523D02*
X53497595Y-164472380D01*
X53497595Y-164472380D02*
X53497595Y-164967618D01*
X52697595Y-165234285D02*
X52697595Y-165729523D01*
X52697595Y-165729523D02*
X53002357Y-165462857D01*
X53002357Y-165462857D02*
X53002357Y-165577142D01*
X53002357Y-165577142D02*
X53040452Y-165653333D01*
X53040452Y-165653333D02*
X53078547Y-165691428D01*
X53078547Y-165691428D02*
X53154738Y-165729523D01*
X53154738Y-165729523D02*
X53345214Y-165729523D01*
X53345214Y-165729523D02*
X53421404Y-165691428D01*
X53421404Y-165691428D02*
X53459500Y-165653333D01*
X53459500Y-165653333D02*
X53497595Y-165577142D01*
X53497595Y-165577142D02*
X53497595Y-165348571D01*
X53497595Y-165348571D02*
X53459500Y-165272380D01*
X53459500Y-165272380D02*
X53421404Y-165234285D01*
%TO.C,R11*%
X86410095Y-138705714D02*
X86029142Y-138439047D01*
X86410095Y-138248571D02*
X85610095Y-138248571D01*
X85610095Y-138248571D02*
X85610095Y-138553333D01*
X85610095Y-138553333D02*
X85648190Y-138629523D01*
X85648190Y-138629523D02*
X85686285Y-138667618D01*
X85686285Y-138667618D02*
X85762476Y-138705714D01*
X85762476Y-138705714D02*
X85876761Y-138705714D01*
X85876761Y-138705714D02*
X85952952Y-138667618D01*
X85952952Y-138667618D02*
X85991047Y-138629523D01*
X85991047Y-138629523D02*
X86029142Y-138553333D01*
X86029142Y-138553333D02*
X86029142Y-138248571D01*
X86410095Y-139467618D02*
X86410095Y-139010475D01*
X86410095Y-139239047D02*
X85610095Y-139239047D01*
X85610095Y-139239047D02*
X85724380Y-139162856D01*
X85724380Y-139162856D02*
X85800571Y-139086666D01*
X85800571Y-139086666D02*
X85838666Y-139010475D01*
X86410095Y-140229523D02*
X86410095Y-139772380D01*
X86410095Y-140000952D02*
X85610095Y-140000952D01*
X85610095Y-140000952D02*
X85724380Y-139924761D01*
X85724380Y-139924761D02*
X85800571Y-139848571D01*
X85800571Y-139848571D02*
X85838666Y-139772380D01*
%TO.C,U8*%
X74261904Y-76212619D02*
X74261904Y-77022142D01*
X74261904Y-77022142D02*
X74214285Y-77117380D01*
X74214285Y-77117380D02*
X74166666Y-77165000D01*
X74166666Y-77165000D02*
X74071428Y-77212619D01*
X74071428Y-77212619D02*
X73880952Y-77212619D01*
X73880952Y-77212619D02*
X73785714Y-77165000D01*
X73785714Y-77165000D02*
X73738095Y-77117380D01*
X73738095Y-77117380D02*
X73690476Y-77022142D01*
X73690476Y-77022142D02*
X73690476Y-76212619D01*
X73071428Y-76641190D02*
X73166666Y-76593571D01*
X73166666Y-76593571D02*
X73214285Y-76545952D01*
X73214285Y-76545952D02*
X73261904Y-76450714D01*
X73261904Y-76450714D02*
X73261904Y-76403095D01*
X73261904Y-76403095D02*
X73214285Y-76307857D01*
X73214285Y-76307857D02*
X73166666Y-76260238D01*
X73166666Y-76260238D02*
X73071428Y-76212619D01*
X73071428Y-76212619D02*
X72880952Y-76212619D01*
X72880952Y-76212619D02*
X72785714Y-76260238D01*
X72785714Y-76260238D02*
X72738095Y-76307857D01*
X72738095Y-76307857D02*
X72690476Y-76403095D01*
X72690476Y-76403095D02*
X72690476Y-76450714D01*
X72690476Y-76450714D02*
X72738095Y-76545952D01*
X72738095Y-76545952D02*
X72785714Y-76593571D01*
X72785714Y-76593571D02*
X72880952Y-76641190D01*
X72880952Y-76641190D02*
X73071428Y-76641190D01*
X73071428Y-76641190D02*
X73166666Y-76688809D01*
X73166666Y-76688809D02*
X73214285Y-76736428D01*
X73214285Y-76736428D02*
X73261904Y-76831666D01*
X73261904Y-76831666D02*
X73261904Y-77022142D01*
X73261904Y-77022142D02*
X73214285Y-77117380D01*
X73214285Y-77117380D02*
X73166666Y-77165000D01*
X73166666Y-77165000D02*
X73071428Y-77212619D01*
X73071428Y-77212619D02*
X72880952Y-77212619D01*
X72880952Y-77212619D02*
X72785714Y-77165000D01*
X72785714Y-77165000D02*
X72738095Y-77117380D01*
X72738095Y-77117380D02*
X72690476Y-77022142D01*
X72690476Y-77022142D02*
X72690476Y-76831666D01*
X72690476Y-76831666D02*
X72738095Y-76736428D01*
X72738095Y-76736428D02*
X72785714Y-76688809D01*
X72785714Y-76688809D02*
X72880952Y-76641190D01*
%TO.C,C21*%
X82742857Y-139567380D02*
X82790476Y-139615000D01*
X82790476Y-139615000D02*
X82933333Y-139662619D01*
X82933333Y-139662619D02*
X83028571Y-139662619D01*
X83028571Y-139662619D02*
X83171428Y-139615000D01*
X83171428Y-139615000D02*
X83266666Y-139519761D01*
X83266666Y-139519761D02*
X83314285Y-139424523D01*
X83314285Y-139424523D02*
X83361904Y-139234047D01*
X83361904Y-139234047D02*
X83361904Y-139091190D01*
X83361904Y-139091190D02*
X83314285Y-138900714D01*
X83314285Y-138900714D02*
X83266666Y-138805476D01*
X83266666Y-138805476D02*
X83171428Y-138710238D01*
X83171428Y-138710238D02*
X83028571Y-138662619D01*
X83028571Y-138662619D02*
X82933333Y-138662619D01*
X82933333Y-138662619D02*
X82790476Y-138710238D01*
X82790476Y-138710238D02*
X82742857Y-138757857D01*
X82361904Y-138757857D02*
X82314285Y-138710238D01*
X82314285Y-138710238D02*
X82219047Y-138662619D01*
X82219047Y-138662619D02*
X81980952Y-138662619D01*
X81980952Y-138662619D02*
X81885714Y-138710238D01*
X81885714Y-138710238D02*
X81838095Y-138757857D01*
X81838095Y-138757857D02*
X81790476Y-138853095D01*
X81790476Y-138853095D02*
X81790476Y-138948333D01*
X81790476Y-138948333D02*
X81838095Y-139091190D01*
X81838095Y-139091190D02*
X82409523Y-139662619D01*
X82409523Y-139662619D02*
X81790476Y-139662619D01*
X80838095Y-139662619D02*
X81409523Y-139662619D01*
X81123809Y-139662619D02*
X81123809Y-138662619D01*
X81123809Y-138662619D02*
X81219047Y-138805476D01*
X81219047Y-138805476D02*
X81314285Y-138900714D01*
X81314285Y-138900714D02*
X81409523Y-138948333D01*
D12*
%TO.C,R19*%
X69160000Y-124373641D02*
X69160000Y-124066359D01*
X69920000Y-124373641D02*
X69920000Y-124066359D01*
%TO.C,R32*%
X94920000Y-162066359D02*
X94920000Y-162373641D01*
X94160000Y-162066359D02*
X94160000Y-162373641D01*
%TO.C,C22*%
X61432164Y-129860000D02*
X61647836Y-129860000D01*
X61432164Y-130580000D02*
X61647836Y-130580000D01*
%TO.C,R37*%
X78370000Y-72653641D02*
X78370000Y-72346359D01*
X79130000Y-72653641D02*
X79130000Y-72346359D01*
%TO.C,R4*%
X65160000Y-139403641D02*
X65160000Y-139096359D01*
X65920000Y-139403641D02*
X65920000Y-139096359D01*
%TO.C,R9*%
X82660000Y-143393641D02*
X82660000Y-143086359D01*
X83420000Y-143393641D02*
X83420000Y-143086359D01*
%TO.C,R35*%
X95267064Y-165955000D02*
X94812936Y-165955000D01*
X95267064Y-164485000D02*
X94812936Y-164485000D01*
%TO.C,R16*%
X58160000Y-125873641D02*
X58160000Y-125566359D01*
X58920000Y-125873641D02*
X58920000Y-125566359D01*
%TO.C,C35*%
X80540000Y-161665580D02*
X80540000Y-161384420D01*
X81560000Y-161665580D02*
X81560000Y-161384420D01*
%TO.C,R5*%
X65920000Y-141066359D02*
X65920000Y-141373641D01*
X65160000Y-141066359D02*
X65160000Y-141373641D01*
%TO.C,C2*%
X70890000Y-85177836D02*
X70890000Y-84962164D01*
X71610000Y-85177836D02*
X71610000Y-84962164D01*
%TO.C,J1*%
X53820000Y-87340000D02*
X54820000Y-87840000D01*
X53820000Y-88340000D02*
X53820000Y-87340000D01*
X54820000Y-87840000D02*
X53820000Y-88340000D01*
X55210000Y-72470000D02*
X55210000Y-93050000D01*
X55210000Y-84810000D02*
X56520000Y-84810000D01*
X55210000Y-93050000D02*
X64330000Y-93050000D01*
X56520000Y-73770000D02*
X56520000Y-80710000D01*
X56520000Y-80710000D02*
X55210000Y-80710000D01*
X56520000Y-80710000D02*
X56520000Y-80710000D01*
X56520000Y-84810000D02*
X56520000Y-91750000D01*
X56520000Y-91750000D02*
X63020000Y-91750000D01*
X63020000Y-73770000D02*
X56520000Y-73770000D01*
X63020000Y-91750000D02*
X63020000Y-73770000D01*
X64330000Y-72470000D02*
X55210000Y-72470000D01*
X64330000Y-93050000D02*
X64330000Y-72470000D01*
%TO.C,J14*%
X98340000Y-90990000D02*
X97940000Y-90990000D01*
X95970000Y-90990000D02*
X93990000Y-90990000D01*
X93990000Y-90990000D02*
X93990000Y-91410000D01*
X93760000Y-92990000D02*
X93310000Y-92990000D01*
X93310000Y-93440000D02*
X93310000Y-92990000D01*
X97940000Y-98510000D02*
X98340000Y-98510000D01*
X95970000Y-98510000D02*
X93990000Y-98510000D01*
X93990000Y-98510000D02*
X93990000Y-98090000D01*
%TO.C,R7*%
X65920000Y-143076359D02*
X65920000Y-143383641D01*
X65160000Y-143076359D02*
X65160000Y-143383641D01*
%TO.C,C20*%
X79900000Y-140612164D02*
X79900000Y-140827836D01*
X79180000Y-140612164D02*
X79180000Y-140827836D01*
%TO.C,R39*%
X73370000Y-72653641D02*
X73370000Y-72346359D01*
X74130000Y-72653641D02*
X74130000Y-72346359D01*
%TO.C,C16*%
X83400000Y-145112164D02*
X83400000Y-145327836D01*
X82680000Y-145112164D02*
X82680000Y-145327836D01*
%TO.C,C19*%
X83680000Y-137327836D02*
X83680000Y-137112164D01*
X84400000Y-137327836D02*
X84400000Y-137112164D01*
%TO.C,C31*%
X58040000Y-161640580D02*
X58040000Y-161359420D01*
X59060000Y-161640580D02*
X59060000Y-161359420D01*
%TO.C,C15*%
X66900000Y-143092164D02*
X66900000Y-143307836D01*
X66180000Y-143092164D02*
X66180000Y-143307836D01*
%TO.C,R27*%
X73267064Y-165955000D02*
X72812936Y-165955000D01*
X73267064Y-164485000D02*
X72812936Y-164485000D01*
%TO.C,R17*%
X70920000Y-124066359D02*
X70920000Y-124373641D01*
X70160000Y-124066359D02*
X70160000Y-124373641D01*
%TO.C,C25*%
X68180000Y-124327836D02*
X68180000Y-124112164D01*
X68900000Y-124327836D02*
X68900000Y-124112164D01*
%TO.C,C12*%
X66180000Y-137357836D02*
X66180000Y-137142164D01*
X66900000Y-137357836D02*
X66900000Y-137142164D01*
%TO.C,J13*%
X93050000Y-81265000D02*
X93692470Y-81265000D01*
X93050000Y-87735000D02*
X93050000Y-81265000D01*
X93050000Y-87735000D02*
X93692470Y-87735000D01*
X94307530Y-81265000D02*
X94962470Y-81265000D01*
X94307530Y-87735000D02*
X94510000Y-87735000D01*
X95270000Y-87800000D02*
X96220000Y-87800000D01*
X95577530Y-81265000D02*
X96220000Y-81265000D01*
X96030000Y-86405000D02*
X96220000Y-86405000D01*
X96220000Y-86405000D02*
X96220000Y-81265000D01*
X96220000Y-87800000D02*
X96220000Y-87040000D01*
%TO.C,C28*%
X68610000Y-161092164D02*
X68610000Y-161307836D01*
X67890000Y-161092164D02*
X67890000Y-161307836D01*
%TO.C,C23*%
X59180000Y-125827836D02*
X59180000Y-125612164D01*
X59900000Y-125827836D02*
X59900000Y-125612164D01*
%TO.C,R2*%
X65160000Y-137403641D02*
X65160000Y-137096359D01*
X65920000Y-137403641D02*
X65920000Y-137096359D01*
%TO.C,R26*%
X72193641Y-158600000D02*
X71886359Y-158600000D01*
X72193641Y-157840000D02*
X71886359Y-157840000D01*
%TO.C,R21*%
X55920000Y-162056359D02*
X55920000Y-162363641D01*
X55160000Y-162056359D02*
X55160000Y-162363641D01*
%TO.C,C14*%
X67900000Y-145112164D02*
X67900000Y-145327836D01*
X67180000Y-145112164D02*
X67180000Y-145327836D01*
%TO.C,C33*%
X81990000Y-161307836D02*
X81990000Y-161092164D01*
X82710000Y-161307836D02*
X82710000Y-161092164D01*
%TO.C,C26*%
X59167836Y-124080000D02*
X58952164Y-124080000D01*
X59167836Y-123360000D02*
X58952164Y-123360000D01*
%TO.C,U5*%
X64040000Y-128280000D02*
X65990000Y-128280000D01*
X64040000Y-128280000D02*
X62090000Y-128280000D01*
X64040000Y-123160000D02*
X67490000Y-123160000D01*
X64040000Y-123160000D02*
X62090000Y-123160000D01*
%TO.C,C1*%
X83734420Y-82340000D02*
X84015580Y-82340000D01*
X83734420Y-83360000D02*
X84015580Y-83360000D01*
%TO.C,C13*%
X61432164Y-143860000D02*
X61647836Y-143860000D01*
X61432164Y-144580000D02*
X61647836Y-144580000D01*
%TO.C,R20*%
X54920000Y-163066359D02*
X54920000Y-163373641D01*
X54160000Y-163066359D02*
X54160000Y-163373641D01*
%TO.C,C30*%
X59440000Y-161307836D02*
X59440000Y-161092164D01*
X60160000Y-161307836D02*
X60160000Y-161092164D01*
%TO.C,R30*%
X78886359Y-157840000D02*
X79193641Y-157840000D01*
X78886359Y-158600000D02*
X79193641Y-158600000D01*
%TO.C,C36*%
X89910000Y-81092164D02*
X89910000Y-81307836D01*
X89190000Y-81092164D02*
X89190000Y-81307836D01*
%TO.C,R13*%
X84660000Y-137373641D02*
X84660000Y-137066359D01*
X85420000Y-137373641D02*
X85420000Y-137066359D01*
%TO.C,R31*%
X77725436Y-164485000D02*
X78179564Y-164485000D01*
X77725436Y-165955000D02*
X78179564Y-165955000D01*
%TO.C,U7*%
X86540000Y-165155000D02*
X88490000Y-165155000D01*
X86540000Y-165155000D02*
X84590000Y-165155000D01*
X86540000Y-156285000D02*
X89990000Y-156285000D01*
X86540000Y-156285000D02*
X84590000Y-156285000D01*
%TO.C,R14*%
X57920000Y-125566359D02*
X57920000Y-125873641D01*
X57160000Y-125566359D02*
X57160000Y-125873641D01*
%TO.C,R12*%
X86420000Y-137066359D02*
X86420000Y-137373641D01*
X85660000Y-137066359D02*
X85660000Y-137373641D01*
%TO.C,R22*%
X55876359Y-157840000D02*
X56183641Y-157840000D01*
X55876359Y-158600000D02*
X56183641Y-158600000D01*
%TO.C,C3*%
X83212164Y-83740000D02*
X83427836Y-83740000D01*
X83212164Y-84460000D02*
X83427836Y-84460000D01*
%TO.C,R34*%
X94193641Y-158600000D02*
X93886359Y-158600000D01*
X94193641Y-157840000D02*
X93886359Y-157840000D01*
%TO.C,R10*%
X85420000Y-143066359D02*
X85420000Y-143373641D01*
X84660000Y-143066359D02*
X84660000Y-143373641D01*
%TO.C,C18*%
X89127836Y-144580000D02*
X88912164Y-144580000D01*
X89127836Y-143860000D02*
X88912164Y-143860000D01*
%TO.C,U4*%
X75040000Y-144655000D02*
X76990000Y-144655000D01*
X75040000Y-144655000D02*
X73090000Y-144655000D01*
X75040000Y-135785000D02*
X78490000Y-135785000D01*
X75040000Y-135785000D02*
X73090000Y-135785000D01*
%TO.C,C17*%
X84400000Y-143112164D02*
X84400000Y-143327836D01*
X83680000Y-143112164D02*
X83680000Y-143327836D01*
%TO.C,C32*%
X91160000Y-161092164D02*
X91160000Y-161307836D01*
X90440000Y-161092164D02*
X90440000Y-161307836D01*
%TO.C,R15*%
X57160000Y-127873641D02*
X57160000Y-127566359D01*
X57920000Y-127873641D02*
X57920000Y-127566359D01*
%TO.C,R33*%
X95920000Y-163066359D02*
X95920000Y-163373641D01*
X95160000Y-163066359D02*
X95160000Y-163373641D01*
%TO.C,R28*%
X78920000Y-162066359D02*
X78920000Y-162373641D01*
X78160000Y-162066359D02*
X78160000Y-162373641D01*
%TO.C,C24*%
X66647836Y-130580000D02*
X66432164Y-130580000D01*
X66647836Y-129860000D02*
X66432164Y-129860000D01*
%TO.C,C27*%
X61040000Y-121315580D02*
X61040000Y-121034420D01*
X62060000Y-121315580D02*
X62060000Y-121034420D01*
%TO.C,R24*%
X72920000Y-162056359D02*
X72920000Y-162363641D01*
X72160000Y-162056359D02*
X72160000Y-162363641D01*
%TO.C,R18*%
X70160000Y-126373641D02*
X70160000Y-126066359D01*
X70920000Y-126373641D02*
X70920000Y-126066359D01*
%TO.C,R38*%
X75870000Y-72653641D02*
X75870000Y-72346359D01*
X76630000Y-72653641D02*
X76630000Y-72346359D01*
%TO.C,R6*%
X67160000Y-143363641D02*
X67160000Y-143056359D01*
X67920000Y-143363641D02*
X67920000Y-143056359D01*
%TO.C,R36*%
X91183641Y-81100000D02*
X90876359Y-81100000D01*
X91183641Y-80340000D02*
X90876359Y-80340000D01*
%TO.C,C29*%
X69960000Y-161334420D02*
X69960000Y-161615580D01*
X68940000Y-161334420D02*
X68940000Y-161615580D01*
%TO.C,R25*%
X73920000Y-163066359D02*
X73920000Y-163373641D01*
X73160000Y-163066359D02*
X73160000Y-163373641D01*
%TO.C,SW4*%
X94550000Y-75700000D02*
X93050000Y-75700000D01*
X90550000Y-74450000D02*
X90550000Y-69950000D01*
X97050000Y-69950000D02*
X97050000Y-74450000D01*
X93050000Y-68700000D02*
X94550000Y-68700000D01*
%TO.C,R3*%
X64920000Y-137096359D02*
X64920000Y-137403641D01*
X64160000Y-137096359D02*
X64160000Y-137403641D01*
%TO.C,R29*%
X77920000Y-163066359D02*
X77920000Y-163373641D01*
X77160000Y-163066359D02*
X77160000Y-163373641D01*
%TO.C,C34*%
X92660000Y-161459420D02*
X92660000Y-161740580D01*
X91640000Y-161459420D02*
X91640000Y-161740580D01*
%TO.C,D7*%
X90400000Y-94810000D02*
X89100000Y-94810000D01*
X89100000Y-91690000D02*
X91100000Y-91690000D01*
%TO.C,U6*%
X64040000Y-165155000D02*
X65990000Y-165155000D01*
X64040000Y-165155000D02*
X62090000Y-165155000D01*
X64040000Y-156285000D02*
X67490000Y-156285000D01*
X64040000Y-156285000D02*
X62090000Y-156285000D01*
%TO.C,D8*%
X66140000Y-75000000D02*
X70150000Y-75000000D01*
X66140000Y-77000000D02*
X66140000Y-75000000D01*
X66140000Y-77000000D02*
X70150000Y-77000000D01*
%TO.C,R8*%
X85420000Y-141056359D02*
X85420000Y-141363641D01*
X84660000Y-141056359D02*
X84660000Y-141363641D01*
%TO.C,R23*%
X54900436Y-164485000D02*
X55354564Y-164485000D01*
X54900436Y-165955000D02*
X55354564Y-165955000D01*
%TO.C,R11*%
X84660000Y-139373641D02*
X84660000Y-139066359D01*
X85420000Y-139373641D02*
X85420000Y-139066359D01*
D11*
%TO.C,U8*%
X73415000Y-86345000D02*
X73740000Y-86345000D01*
X73415000Y-86345000D02*
X73415000Y-86020000D01*
X80440000Y-86345000D02*
X80440000Y-87770000D01*
X80665000Y-86345000D02*
X80440000Y-86345000D01*
X80665000Y-86345000D02*
X80665000Y-86020000D01*
X73415000Y-79095000D02*
X73415000Y-79420000D01*
X73415000Y-79095000D02*
X73740000Y-79095000D01*
X80665000Y-79095000D02*
X80665000Y-79420000D01*
X80665000Y-79095000D02*
X80340000Y-79095000D01*
D12*
%TO.C,C21*%
X81310000Y-140859420D02*
X81310000Y-141140580D01*
X80290000Y-140859420D02*
X80290000Y-141140580D01*
%TD*%
M02*
