%TF.GenerationSoftware,KiCad,Pcbnew,7.0.2*%
%TF.CreationDate,2025-01-10T16:25:51-06:00*%
%TF.ProjectId,gateDr_mainboard,67617465-4472-45f6-9d61-696e626f6172,rev?*%
%TF.SameCoordinates,Original*%
%TF.FileFunction,Copper,L3,Inr*%
%TF.FilePolarity,Positive*%
%FSLAX46Y46*%
G04 Gerber Fmt 4.6, Leading zero omitted, Abs format (unit mm)*
G04 Created by KiCad (PCBNEW 7.0.2) date 2025-01-10 16:25:51*
%MOMM*%
%LPD*%
G01*
G04 APERTURE LIST*
G04 Aperture macros list*
%AMRoundRect*
0 Rectangle with rounded corners*
0 $1 Rounding radius*
0 $2 $3 $4 $5 $6 $7 $8 $9 X,Y pos of 4 corners*
0 Add a 4 corners polygon primitive as box body*
4,1,4,$2,$3,$4,$5,$6,$7,$8,$9,$2,$3,0*
0 Add four circle primitives for the rounded corners*
1,1,$1+$1,$2,$3*
1,1,$1+$1,$4,$5*
1,1,$1+$1,$6,$7*
1,1,$1+$1,$8,$9*
0 Add four rect primitives between the rounded corners*
20,1,$1+$1,$2,$3,$4,$5,0*
20,1,$1+$1,$4,$5,$6,$7,0*
20,1,$1+$1,$6,$7,$8,$9,0*
20,1,$1+$1,$8,$9,$2,$3,0*%
G04 Aperture macros list end*
%TA.AperFunction,ComponentPad*%
%ADD10R,1.800000X1.800000*%
%TD*%
%TA.AperFunction,ComponentPad*%
%ADD11C,1.800000*%
%TD*%
%TA.AperFunction,ComponentPad*%
%ADD12C,1.400000*%
%TD*%
%TA.AperFunction,ComponentPad*%
%ADD13R,1.700000X1.700000*%
%TD*%
%TA.AperFunction,ComponentPad*%
%ADD14O,1.700000X1.700000*%
%TD*%
%TA.AperFunction,ComponentPad*%
%ADD15C,2.000000*%
%TD*%
%TA.AperFunction,ComponentPad*%
%ADD16C,1.650000*%
%TD*%
%TA.AperFunction,ComponentPad*%
%ADD17C,5.161000*%
%TD*%
%TA.AperFunction,ComponentPad*%
%ADD18RoundRect,0.250000X-0.600000X-0.600000X0.600000X-0.600000X0.600000X0.600000X-0.600000X0.600000X0*%
%TD*%
%TA.AperFunction,ComponentPad*%
%ADD19C,1.700000*%
%TD*%
%TA.AperFunction,ComponentPad*%
%ADD20O,1.550000X0.890000*%
%TD*%
%TA.AperFunction,ComponentPad*%
%ADD21O,0.950000X1.250000*%
%TD*%
%TA.AperFunction,ComponentPad*%
%ADD22R,1.000000X1.000000*%
%TD*%
%TA.AperFunction,ComponentPad*%
%ADD23O,1.000000X1.000000*%
%TD*%
%TA.AperFunction,ViaPad*%
%ADD24C,0.800000*%
%TD*%
G04 APERTURE END LIST*
D10*
%TO.N,Net-(D6-K)*%
%TO.C,D6*%
X93540000Y-149220000D03*
D11*
%TO.N,Net-(D6-A)*%
X91000000Y-149220000D03*
%TD*%
D12*
%TO.N,GND*%
%TO.C,SW2*%
X81460000Y-126030000D03*
X91620000Y-126030000D03*
%TO.N,/MCU/sw_CH2*%
X81460000Y-118410000D03*
%TO.N,unconnected-(SW2-A-Pad4)*%
X91620000Y-118410000D03*
%TD*%
%TO.N,GND*%
%TO.C,SW1*%
X81420000Y-112410000D03*
X91580000Y-112410000D03*
%TO.N,/MCU/sw_CH1*%
X81420000Y-104790000D03*
%TO.N,unconnected-(SW1-A-Pad4)*%
X91580000Y-104790000D03*
%TD*%
D13*
%TO.N,/MCU/display_SPI_SCK*%
%TO.C,J12*%
X83040000Y-64220000D03*
D14*
%TO.N,/MCU/display_SPI_DO*%
X80500000Y-64220000D03*
%TO.N,/MCU/display_RST*%
X77960000Y-64220000D03*
%TO.N,/MCU/display_CS*%
X75420000Y-64220000D03*
%TO.N,/MCU/display_DC*%
X72880000Y-64220000D03*
%TO.N,+3.3V*%
X70340000Y-64220000D03*
%TO.N,GND*%
X67800000Y-64220000D03*
%TD*%
D10*
%TO.N,Net-(D5-K)*%
%TO.C,D5*%
X79765000Y-149220000D03*
D11*
%TO.N,Net-(D5-A)*%
X82305000Y-149220000D03*
%TD*%
D15*
%TO.N,GND*%
%TO.C,J10*%
X81040000Y-153720000D03*
%TO.N,Net-(J10-Pad2)*%
X81040000Y-165220000D03*
%TO.N,unconnected-(J10-Pad3)*%
X81040000Y-156720000D03*
%TD*%
%TO.N,GND*%
%TO.C,J11*%
X92040000Y-153720000D03*
%TO.N,Net-(J11-Pad2)*%
X92040000Y-165220000D03*
%TO.N,unconnected-(J11-Pad3)*%
X92040000Y-156720000D03*
%TD*%
%TO.N,GND*%
%TO.C,J2*%
X58540000Y-132720000D03*
%TO.N,Net-(C13-Pad1)*%
X58540000Y-144220000D03*
%TO.N,GND*%
X58540000Y-135720000D03*
%TD*%
D10*
%TO.N,Net-(D3-K)*%
%TO.C,D3*%
X57500000Y-149220000D03*
D11*
%TO.N,Net-(D3-A)*%
X60040000Y-149220000D03*
%TD*%
D15*
%TO.N,GND*%
%TO.C,J9*%
X69890000Y-153720000D03*
%TO.N,Net-(J9-Pad2)*%
X69890000Y-165220000D03*
%TO.N,unconnected-(J9-Pad3)*%
X69890000Y-156720000D03*
%TD*%
D16*
%TO.N,/MCU/sw_ROT*%
%TO.C,SW3*%
X61540000Y-100970000D03*
%TO.N,GND*%
X66540000Y-100970000D03*
%TO.N,/MCU/rot_A*%
X61540000Y-115470000D03*
%TO.N,/MCU/rot_B*%
X66540000Y-115470000D03*
%TO.N,GND*%
X64040000Y-115470000D03*
D17*
%TO.N,unconnected-(SW3-PadMH1)*%
X58340000Y-107970000D03*
%TO.N,unconnected-(SW3-PadMH2)*%
X69740000Y-107970000D03*
%TD*%
D15*
%TO.N,GND*%
%TO.C,J6*%
X58540000Y-118720000D03*
%TO.N,Net-(C22-Pad1)*%
X58540000Y-130220000D03*
%TO.N,GND*%
X58540000Y-121720000D03*
%TD*%
%TO.N,GND*%
%TO.C,J3*%
X69540000Y-132720000D03*
%TO.N,Net-(C14-Pad1)*%
X69540000Y-144220000D03*
%TO.N,GND*%
X69540000Y-135720000D03*
%TD*%
D10*
%TO.N,Net-(D4-K)*%
%TO.C,D4*%
X71040000Y-149220000D03*
D11*
%TO.N,Net-(D4-A)*%
X68500000Y-149220000D03*
%TD*%
D15*
%TO.N,GND*%
%TO.C,J7*%
X69540000Y-118720000D03*
%TO.N,Net-(C24-Pad1)*%
X69540000Y-130220000D03*
%TO.N,GND*%
X69540000Y-121720000D03*
%TD*%
%TO.N,GND*%
%TO.C,J4*%
X81040000Y-132720000D03*
%TO.N,Net-(C16-Pad1)*%
X81040000Y-144220000D03*
%TO.N,GND*%
X81040000Y-135720000D03*
%TD*%
%TO.N,GND*%
%TO.C,J8*%
X58540000Y-153720000D03*
%TO.N,Net-(J8-Pad2)*%
X58540000Y-165220000D03*
%TO.N,unconnected-(J8-Pad3)*%
X58540000Y-156720000D03*
%TD*%
%TO.N,GND*%
%TO.C,J5*%
X92040000Y-132720000D03*
%TO.N,Net-(C18-Pad1)*%
X92040000Y-144220000D03*
%TO.N,GND*%
X92040000Y-135720000D03*
%TD*%
D18*
%TO.N,Net-(D1-K)*%
%TO.C,J1*%
X58500000Y-87840000D03*
D19*
X61040000Y-87840000D03*
%TO.N,GND*%
X58500000Y-85300000D03*
X61040000Y-85300000D03*
X58500000Y-82760000D03*
X61040000Y-82760000D03*
X58500000Y-80220000D03*
X61040000Y-80220000D03*
%TO.N,Net-(D2-A)*%
X58500000Y-77680000D03*
X61040000Y-77680000D03*
%TD*%
D20*
%TO.N,GND*%
%TO.C,J14*%
X96950000Y-91250000D03*
D21*
X94250000Y-92250000D03*
X94250000Y-97250000D03*
D20*
X96950000Y-98250000D03*
%TD*%
D22*
%TO.N,/MCU/SWDIO*%
%TO.C,J13*%
X95270000Y-87040000D03*
D23*
%TO.N,+3.3V*%
X94000000Y-87040000D03*
%TO.N,/MCU/SWCLK*%
X95270000Y-85770000D03*
%TO.N,GND*%
X94000000Y-85770000D03*
%TO.N,unconnected-(J13-Pin_5-Pad5)*%
X95270000Y-84500000D03*
%TO.N,GND*%
X94000000Y-84500000D03*
%TO.N,unconnected-(J13-Pin_7-Pad7)*%
X95270000Y-83230000D03*
%TO.N,unconnected-(J13-Pin_8-Pad8)*%
X94000000Y-83230000D03*
%TO.N,/MCU/nRESET*%
X95270000Y-81960000D03*
%TO.N,GND*%
X94000000Y-81960000D03*
%TD*%
D15*
%TO.N,GND*%
%TO.C,SW4*%
X96050000Y-75450000D03*
X96050000Y-68950000D03*
%TO.N,/MCU/nRESET*%
X91550000Y-75450000D03*
X91550000Y-68950000D03*
%TD*%
D24*
%TO.N,GND*%
X97900000Y-143150000D03*
X97900000Y-83200000D03*
X72600000Y-157300000D03*
X53450000Y-158900000D03*
X56900000Y-81500000D03*
X88550000Y-145150000D03*
X97900000Y-72050000D03*
X62900000Y-144200000D03*
X63150000Y-104150000D03*
X53450000Y-143150000D03*
X89700000Y-165750000D03*
X53450000Y-99550000D03*
X82700000Y-113700000D03*
X62450000Y-84050000D03*
X82100000Y-145800000D03*
X56931844Y-161990274D03*
X53450000Y-109400000D03*
X71100000Y-161700000D03*
X79700000Y-162050000D03*
X62000000Y-129050000D03*
X97900000Y-129950000D03*
X56900000Y-62200000D03*
X97900000Y-165750000D03*
X91700201Y-92549799D03*
X93450000Y-161750000D03*
X82750000Y-127400000D03*
X53450000Y-75750000D03*
X89550000Y-82450000D03*
X54150000Y-64350000D03*
X74450000Y-152700000D03*
X86000000Y-62200000D03*
X90650000Y-134250000D03*
X53450000Y-118650000D03*
X80200558Y-82320001D03*
X83550000Y-165750000D03*
X59850000Y-134200000D03*
X67800000Y-62200000D03*
X92350000Y-62200000D03*
X61250000Y-165750000D03*
X57830949Y-123386671D03*
X92500000Y-82000000D03*
X79048994Y-139179000D03*
X97900000Y-120500000D03*
X75450000Y-165750000D03*
X97900000Y-101750000D03*
X68400000Y-145900000D03*
X53450000Y-129950000D03*
X97900000Y-89000000D03*
X52700000Y-69800000D03*
X53450000Y-155900000D03*
X97900000Y-109400000D03*
X56850000Y-84000000D03*
X66950000Y-165750000D03*
X66250000Y-129000000D03*
X92750000Y-96000000D03*
X82550000Y-155200000D03*
X94550000Y-157300000D03*
X85950000Y-82850000D03*
X97900000Y-158900000D03*
X82980383Y-141430383D03*
X74150000Y-84720000D03*
X52700000Y-62200000D03*
X59150000Y-96050000D03*
X57150000Y-120200000D03*
X70600000Y-140200000D03*
X62500000Y-81500000D03*
X53450000Y-83400000D03*
X67450000Y-68800000D03*
X70900000Y-120200000D03*
X63950000Y-117600000D03*
X97900000Y-155900000D03*
X90750000Y-155200000D03*
X62150000Y-62200000D03*
X77500000Y-62200000D03*
X82450000Y-134250000D03*
X68150000Y-134250000D03*
X97900000Y-62200000D03*
X53450000Y-89900000D03*
%TO.N,+3.3VA*%
X80047883Y-138379500D03*
X66650000Y-109000000D03*
X70499500Y-85543953D03*
X60150000Y-117800000D03*
%TO.N,+12V*%
X52600000Y-71750000D03*
X58250000Y-70000000D03*
X87501410Y-160762166D03*
X65199500Y-160250000D03*
%TO.N,-12V*%
X55750000Y-160550000D03*
X79050000Y-160650000D03*
X55100000Y-93800000D03*
%TO.N,+3.3V*%
X82379442Y-83919999D03*
X78750000Y-73010000D03*
X65540000Y-74350000D03*
X73750000Y-73010000D03*
X76250000Y-73010000D03*
%TO.N,AREF-10*%
X57250000Y-124200000D03*
X71650000Y-123700000D03*
X66700000Y-139900000D03*
X83900000Y-139900000D03*
X57750000Y-100750000D03*
%TO.N,/MCU/display_SPI_DO*%
X75715997Y-76750000D03*
%TO.N,/MCU/display_SPI_SCK*%
X76715500Y-76750000D03*
%TO.N,/MCU/SWCLK*%
X89000000Y-87000000D03*
%TO.N,/MCU/sw_ROT*%
X77250000Y-84100000D03*
%TO.N,/MCU/mcu_out_W*%
X64150500Y-153171985D03*
X67701500Y-87508360D03*
%TO.N,/MCU/mcu_out_X*%
X68401000Y-88300000D03*
X64850000Y-154100000D03*
%TO.N,/MCU/mcu_out_Y*%
X86300500Y-152700000D03*
X69100500Y-89016893D03*
%TO.N,/MCU/mcu_out_Z*%
X70474647Y-89825353D03*
X87000000Y-154050000D03*
%TO.N,/MCU/USB_D+*%
X83750000Y-93000000D03*
X80565500Y-78470000D03*
%TO.N,/MCU/USB_D-*%
X79000000Y-77000000D03*
X85000000Y-89500000D03*
%TO.N,USB_5V*%
X71250000Y-76000000D03*
X88000000Y-91250000D03*
%TD*%
%TA.AperFunction,Conductor*%
%TO.N,GND*%
G36*
X60580507Y-85509844D02*
G01*
X60658239Y-85630798D01*
X60766900Y-85724952D01*
X60897685Y-85784680D01*
X60907466Y-85786086D01*
X60278625Y-86414925D01*
X60354594Y-86468119D01*
X60398219Y-86522696D01*
X60405413Y-86592194D01*
X60373890Y-86654549D01*
X60354595Y-86671269D01*
X60168595Y-86801508D01*
X59993834Y-86976270D01*
X59991128Y-86973564D01*
X59952151Y-87004671D01*
X59882647Y-87011809D01*
X59820317Y-86980237D01*
X59787539Y-86928890D01*
X59784814Y-86920666D01*
X59692712Y-86771344D01*
X59692711Y-86771342D01*
X59568657Y-86647288D01*
X59419334Y-86555186D01*
X59346967Y-86531206D01*
X59289522Y-86491433D01*
X59262699Y-86426917D01*
X59262585Y-86416137D01*
X58632533Y-85786086D01*
X58642315Y-85784680D01*
X58773100Y-85724952D01*
X58881761Y-85630798D01*
X58959493Y-85509844D01*
X58983076Y-85429524D01*
X59614925Y-86061373D01*
X59668424Y-85984969D01*
X59723001Y-85941344D01*
X59792499Y-85934150D01*
X59854854Y-85965673D01*
X59871574Y-85984969D01*
X59925072Y-86061373D01*
X59925073Y-86061373D01*
X60556922Y-85429523D01*
X60580507Y-85509844D01*
G37*
%TD.AperFunction*%
%TA.AperFunction,Conductor*%
G36*
X60580507Y-82969844D02*
G01*
X60658239Y-83090798D01*
X60766900Y-83184952D01*
X60897685Y-83244680D01*
X60907466Y-83246086D01*
X60278625Y-83874925D01*
X60355031Y-83928425D01*
X60398655Y-83983002D01*
X60405848Y-84052501D01*
X60374326Y-84114855D01*
X60355029Y-84131576D01*
X60278625Y-84185072D01*
X60907466Y-84813913D01*
X60897685Y-84815320D01*
X60766900Y-84875048D01*
X60658239Y-84969202D01*
X60580507Y-85090156D01*
X60556923Y-85170476D01*
X59925072Y-84538625D01*
X59871576Y-84615030D01*
X59817000Y-84658656D01*
X59747501Y-84665850D01*
X59685146Y-84634328D01*
X59668425Y-84615031D01*
X59614926Y-84538626D01*
X59614925Y-84538625D01*
X58983076Y-85170475D01*
X58959493Y-85090156D01*
X58881761Y-84969202D01*
X58773100Y-84875048D01*
X58642315Y-84815320D01*
X58632533Y-84813913D01*
X59261373Y-84185073D01*
X59261373Y-84185072D01*
X59184969Y-84131574D01*
X59141344Y-84076997D01*
X59134150Y-84007499D01*
X59165673Y-83945144D01*
X59184969Y-83928424D01*
X59261373Y-83874925D01*
X58632533Y-83246086D01*
X58642315Y-83244680D01*
X58773100Y-83184952D01*
X58881761Y-83090798D01*
X58959493Y-82969844D01*
X58983076Y-82889524D01*
X59614925Y-83521373D01*
X59668424Y-83444969D01*
X59723001Y-83401344D01*
X59792499Y-83394150D01*
X59854854Y-83425673D01*
X59871574Y-83444969D01*
X59925072Y-83521373D01*
X59925073Y-83521373D01*
X60556922Y-82889523D01*
X60580507Y-82969844D01*
G37*
%TD.AperFunction*%
%TA.AperFunction,Conductor*%
G36*
X60580507Y-80429844D02*
G01*
X60658239Y-80550798D01*
X60766900Y-80644952D01*
X60897685Y-80704680D01*
X60907466Y-80706086D01*
X60278625Y-81334925D01*
X60355031Y-81388425D01*
X60398655Y-81443002D01*
X60405848Y-81512501D01*
X60374326Y-81574855D01*
X60355029Y-81591576D01*
X60278625Y-81645072D01*
X60907466Y-82273913D01*
X60897685Y-82275320D01*
X60766900Y-82335048D01*
X60658239Y-82429202D01*
X60580507Y-82550156D01*
X60556923Y-82630476D01*
X59925072Y-81998625D01*
X59871576Y-82075030D01*
X59817000Y-82118656D01*
X59747501Y-82125850D01*
X59685146Y-82094328D01*
X59668425Y-82075031D01*
X59614926Y-81998626D01*
X59614925Y-81998625D01*
X58983076Y-82630475D01*
X58959493Y-82550156D01*
X58881761Y-82429202D01*
X58773100Y-82335048D01*
X58642315Y-82275320D01*
X58632533Y-82273913D01*
X59261373Y-81645073D01*
X59261373Y-81645072D01*
X59184969Y-81591574D01*
X59141344Y-81536997D01*
X59134150Y-81467499D01*
X59165673Y-81405144D01*
X59184969Y-81388424D01*
X59261373Y-81334925D01*
X58632533Y-80706086D01*
X58642315Y-80704680D01*
X58773100Y-80644952D01*
X58881761Y-80550798D01*
X58959493Y-80429844D01*
X58983076Y-80349524D01*
X59614925Y-80981373D01*
X59668424Y-80904969D01*
X59723001Y-80861344D01*
X59792499Y-80854150D01*
X59854854Y-80885673D01*
X59871574Y-80904969D01*
X59925072Y-80981373D01*
X59925073Y-80981373D01*
X60556922Y-80349523D01*
X60580507Y-80429844D01*
G37*
%TD.AperFunction*%
%TA.AperFunction,Conductor*%
G36*
X59854855Y-78346545D02*
G01*
X59871571Y-78365837D01*
X60001505Y-78551401D01*
X60168599Y-78718495D01*
X60354596Y-78848732D01*
X60398219Y-78903307D01*
X60405412Y-78972806D01*
X60373890Y-79035160D01*
X60354594Y-79051881D01*
X60278626Y-79105073D01*
X60907466Y-79733913D01*
X60897685Y-79735320D01*
X60766900Y-79795048D01*
X60658239Y-79889202D01*
X60580507Y-80010156D01*
X60556923Y-80090476D01*
X59925072Y-79458625D01*
X59925072Y-79458626D01*
X59871574Y-79535030D01*
X59816998Y-79578655D01*
X59747499Y-79585849D01*
X59685144Y-79554326D01*
X59668424Y-79535030D01*
X59614925Y-79458626D01*
X59614925Y-79458625D01*
X58983076Y-80090474D01*
X58959493Y-80010156D01*
X58881761Y-79889202D01*
X58773100Y-79795048D01*
X58642315Y-79735320D01*
X58632533Y-79733913D01*
X59261373Y-79105073D01*
X59261373Y-79105072D01*
X59185405Y-79051880D01*
X59141780Y-78997304D01*
X59134586Y-78927805D01*
X59166108Y-78865451D01*
X59185399Y-78848734D01*
X59371401Y-78718495D01*
X59538495Y-78551401D01*
X59668426Y-78365839D01*
X59723002Y-78322216D01*
X59792500Y-78315022D01*
X59854855Y-78346545D01*
G37*
%TD.AperFunction*%
%TA.AperFunction,Conductor*%
G36*
X98532539Y-61430185D02*
G01*
X98578294Y-61482989D01*
X98589500Y-61534500D01*
X98589500Y-166965500D01*
X98569815Y-167032539D01*
X98517011Y-167078294D01*
X98465500Y-167089500D01*
X52034500Y-167089500D01*
X51967461Y-167069815D01*
X51921706Y-167017011D01*
X51910500Y-166965500D01*
X51910500Y-165219999D01*
X57034356Y-165219999D01*
X57054891Y-165467816D01*
X57054891Y-165467819D01*
X57054892Y-165467821D01*
X57115937Y-165708881D01*
X57160960Y-165811523D01*
X57215825Y-165936604D01*
X57215827Y-165936607D01*
X57351836Y-166144785D01*
X57520256Y-166327738D01*
X57520259Y-166327740D01*
X57716485Y-166480470D01*
X57716487Y-166480471D01*
X57716491Y-166480474D01*
X57935190Y-166598828D01*
X58170386Y-166679571D01*
X58415665Y-166720500D01*
X58664335Y-166720500D01*
X58909614Y-166679571D01*
X59144810Y-166598828D01*
X59363509Y-166480474D01*
X59559744Y-166327738D01*
X59728164Y-166144785D01*
X59864173Y-165936607D01*
X59964063Y-165708881D01*
X60025108Y-165467821D01*
X60045643Y-165220000D01*
X68384356Y-165220000D01*
X68404891Y-165467816D01*
X68404891Y-165467819D01*
X68404892Y-165467821D01*
X68465937Y-165708881D01*
X68510960Y-165811523D01*
X68565825Y-165936604D01*
X68565827Y-165936607D01*
X68701836Y-166144785D01*
X68870256Y-166327738D01*
X68870259Y-166327740D01*
X69066485Y-166480470D01*
X69066487Y-166480471D01*
X69066491Y-166480474D01*
X69285190Y-166598828D01*
X69520386Y-166679571D01*
X69765665Y-166720500D01*
X70014335Y-166720500D01*
X70259614Y-166679571D01*
X70494810Y-166598828D01*
X70713509Y-166480474D01*
X70909744Y-166327738D01*
X71078164Y-166144785D01*
X71214173Y-165936607D01*
X71314063Y-165708881D01*
X71375108Y-165467821D01*
X71395643Y-165220000D01*
X71395643Y-165219999D01*
X79534356Y-165219999D01*
X79554891Y-165467816D01*
X79554891Y-165467819D01*
X79554892Y-165467821D01*
X79615937Y-165708881D01*
X79660960Y-165811523D01*
X79715825Y-165936604D01*
X79715827Y-165936607D01*
X79851836Y-166144785D01*
X80020256Y-166327738D01*
X80020259Y-166327740D01*
X80216485Y-166480470D01*
X80216487Y-166480471D01*
X80216491Y-166480474D01*
X80435190Y-166598828D01*
X80670386Y-166679571D01*
X80915665Y-166720500D01*
X81164335Y-166720500D01*
X81409614Y-166679571D01*
X81644810Y-166598828D01*
X81863509Y-166480474D01*
X82059744Y-166327738D01*
X82228164Y-166144785D01*
X82364173Y-165936607D01*
X82464063Y-165708881D01*
X82525108Y-165467821D01*
X82545643Y-165220000D01*
X82545643Y-165219999D01*
X90534356Y-165219999D01*
X90554891Y-165467816D01*
X90554891Y-165467819D01*
X90554892Y-165467821D01*
X90615937Y-165708881D01*
X90660960Y-165811523D01*
X90715825Y-165936604D01*
X90715827Y-165936607D01*
X90851836Y-166144785D01*
X91020256Y-166327738D01*
X91020259Y-166327740D01*
X91216485Y-166480470D01*
X91216487Y-166480471D01*
X91216491Y-166480474D01*
X91435190Y-166598828D01*
X91670386Y-166679571D01*
X91915665Y-166720500D01*
X92164335Y-166720500D01*
X92409614Y-166679571D01*
X92644810Y-166598828D01*
X92863509Y-166480474D01*
X93059744Y-166327738D01*
X93228164Y-166144785D01*
X93364173Y-165936607D01*
X93464063Y-165708881D01*
X93525108Y-165467821D01*
X93545643Y-165220000D01*
X93525108Y-164972179D01*
X93464063Y-164731119D01*
X93364173Y-164503393D01*
X93228164Y-164295215D01*
X93059744Y-164112262D01*
X93037612Y-164095036D01*
X92863514Y-163959529D01*
X92863510Y-163959526D01*
X92863509Y-163959526D01*
X92644810Y-163841172D01*
X92644806Y-163841170D01*
X92644805Y-163841170D01*
X92409615Y-163760429D01*
X92164335Y-163719500D01*
X91915665Y-163719500D01*
X91670384Y-163760429D01*
X91435194Y-163841170D01*
X91216485Y-163959529D01*
X91020259Y-164112259D01*
X90851837Y-164295214D01*
X90715825Y-164503395D01*
X90615938Y-164731117D01*
X90554891Y-164972183D01*
X90534356Y-165219999D01*
X82545643Y-165219999D01*
X82525108Y-164972179D01*
X82464063Y-164731119D01*
X82364173Y-164503393D01*
X82228164Y-164295215D01*
X82059744Y-164112262D01*
X82037612Y-164095036D01*
X81863514Y-163959529D01*
X81863510Y-163959526D01*
X81863509Y-163959526D01*
X81644810Y-163841172D01*
X81644806Y-163841170D01*
X81644805Y-163841170D01*
X81409615Y-163760429D01*
X81164335Y-163719500D01*
X80915665Y-163719500D01*
X80670384Y-163760429D01*
X80435194Y-163841170D01*
X80216485Y-163959529D01*
X80020259Y-164112259D01*
X79851837Y-164295214D01*
X79715825Y-164503395D01*
X79615938Y-164731117D01*
X79554891Y-164972183D01*
X79534356Y-165219999D01*
X71395643Y-165219999D01*
X71375108Y-164972179D01*
X71314063Y-164731119D01*
X71214173Y-164503393D01*
X71078164Y-164295215D01*
X70909744Y-164112262D01*
X70887612Y-164095036D01*
X70713514Y-163959529D01*
X70713510Y-163959526D01*
X70713509Y-163959526D01*
X70494810Y-163841172D01*
X70494806Y-163841170D01*
X70494805Y-163841170D01*
X70259615Y-163760429D01*
X70014335Y-163719500D01*
X69765665Y-163719500D01*
X69520384Y-163760429D01*
X69285194Y-163841170D01*
X69066485Y-163959529D01*
X68870259Y-164112259D01*
X68701837Y-164295214D01*
X68565825Y-164503395D01*
X68465938Y-164731117D01*
X68404891Y-164972183D01*
X68384356Y-165220000D01*
X60045643Y-165220000D01*
X60025108Y-164972179D01*
X59964063Y-164731119D01*
X59864173Y-164503393D01*
X59728164Y-164295215D01*
X59559744Y-164112262D01*
X59537612Y-164095036D01*
X59363514Y-163959529D01*
X59363510Y-163959526D01*
X59363509Y-163959526D01*
X59144810Y-163841172D01*
X59144806Y-163841170D01*
X59144805Y-163841170D01*
X58909615Y-163760429D01*
X58664335Y-163719500D01*
X58415665Y-163719500D01*
X58170384Y-163760429D01*
X57935194Y-163841170D01*
X57716485Y-163959529D01*
X57520259Y-164112259D01*
X57351837Y-164295214D01*
X57215825Y-164503395D01*
X57115938Y-164731117D01*
X57054891Y-164972183D01*
X57034356Y-165219999D01*
X51910500Y-165219999D01*
X51910500Y-160549999D01*
X54844540Y-160549999D01*
X54864326Y-160738257D01*
X54922820Y-160918284D01*
X55017466Y-161082216D01*
X55144129Y-161222889D01*
X55297269Y-161334151D01*
X55470197Y-161411144D01*
X55655352Y-161450500D01*
X55655354Y-161450500D01*
X55844648Y-161450500D01*
X55968084Y-161424262D01*
X56029803Y-161411144D01*
X56202730Y-161334151D01*
X56355871Y-161222888D01*
X56482533Y-161082216D01*
X56577179Y-160918284D01*
X56635674Y-160738256D01*
X56655460Y-160550000D01*
X56635674Y-160361744D01*
X56599366Y-160249999D01*
X64294040Y-160249999D01*
X64313826Y-160438257D01*
X64372320Y-160618284D01*
X64466966Y-160782216D01*
X64593629Y-160922889D01*
X64746769Y-161034151D01*
X64919697Y-161111144D01*
X65104852Y-161150500D01*
X65104854Y-161150500D01*
X65294148Y-161150500D01*
X65417584Y-161124262D01*
X65479303Y-161111144D01*
X65652230Y-161034151D01*
X65805371Y-160922888D01*
X65932033Y-160782216D01*
X66008368Y-160650000D01*
X78144540Y-160650000D01*
X78164326Y-160838257D01*
X78222820Y-161018284D01*
X78317466Y-161182216D01*
X78444129Y-161322889D01*
X78597269Y-161434151D01*
X78770197Y-161511144D01*
X78955352Y-161550500D01*
X78955354Y-161550500D01*
X79144648Y-161550500D01*
X79268083Y-161524262D01*
X79329803Y-161511144D01*
X79502730Y-161434151D01*
X79655871Y-161322888D01*
X79782533Y-161182216D01*
X79877179Y-161018284D01*
X79935674Y-160838256D01*
X79943671Y-160762165D01*
X86595950Y-160762165D01*
X86615736Y-160950423D01*
X86674230Y-161130450D01*
X86768876Y-161294382D01*
X86895539Y-161435055D01*
X87048679Y-161546317D01*
X87221607Y-161623310D01*
X87406762Y-161662666D01*
X87406764Y-161662666D01*
X87596058Y-161662666D01*
X87719493Y-161636428D01*
X87781213Y-161623310D01*
X87954140Y-161546317D01*
X88002552Y-161511144D01*
X88107280Y-161435055D01*
X88233943Y-161294382D01*
X88328589Y-161130450D01*
X88344261Y-161082216D01*
X88387084Y-160950422D01*
X88406870Y-160762166D01*
X88387084Y-160573910D01*
X88350638Y-160461742D01*
X88328589Y-160393881D01*
X88233943Y-160229949D01*
X88107280Y-160089276D01*
X87954140Y-159978014D01*
X87781212Y-159901021D01*
X87596058Y-159861666D01*
X87596056Y-159861666D01*
X87406764Y-159861666D01*
X87406762Y-159861666D01*
X87221607Y-159901021D01*
X87048679Y-159978014D01*
X86895539Y-160089276D01*
X86768876Y-160229949D01*
X86674230Y-160393881D01*
X86615736Y-160573908D01*
X86595950Y-160762165D01*
X79943671Y-160762165D01*
X79955460Y-160650000D01*
X79935674Y-160461744D01*
X79877179Y-160281716D01*
X79877179Y-160281715D01*
X79782533Y-160117783D01*
X79655870Y-159977110D01*
X79502730Y-159865848D01*
X79329802Y-159788855D01*
X79144648Y-159749500D01*
X79144646Y-159749500D01*
X78955354Y-159749500D01*
X78955352Y-159749500D01*
X78770197Y-159788855D01*
X78597269Y-159865848D01*
X78444129Y-159977110D01*
X78317466Y-160117783D01*
X78222820Y-160281715D01*
X78164326Y-160461742D01*
X78144540Y-160650000D01*
X66008368Y-160650000D01*
X66026679Y-160618284D01*
X66085174Y-160438256D01*
X66104960Y-160250000D01*
X66085174Y-160061744D01*
X66026679Y-159881716D01*
X66026679Y-159881715D01*
X65932033Y-159717783D01*
X65805370Y-159577110D01*
X65652230Y-159465848D01*
X65479302Y-159388855D01*
X65294148Y-159349500D01*
X65294146Y-159349500D01*
X65104854Y-159349500D01*
X65104852Y-159349500D01*
X64919697Y-159388855D01*
X64746769Y-159465848D01*
X64593629Y-159577110D01*
X64466966Y-159717783D01*
X64372320Y-159881715D01*
X64313826Y-160061742D01*
X64294040Y-160249999D01*
X56599366Y-160249999D01*
X56577179Y-160181716D01*
X56577179Y-160181715D01*
X56482533Y-160017783D01*
X56355870Y-159877110D01*
X56202730Y-159765848D01*
X56029802Y-159688855D01*
X55844648Y-159649500D01*
X55844646Y-159649500D01*
X55655354Y-159649500D01*
X55655352Y-159649500D01*
X55470197Y-159688855D01*
X55297269Y-159765848D01*
X55144129Y-159877110D01*
X55017466Y-160017783D01*
X54922820Y-160181715D01*
X54864326Y-160361742D01*
X54844540Y-160549999D01*
X51910500Y-160549999D01*
X51910500Y-156720000D01*
X57034356Y-156720000D01*
X57054891Y-156967816D01*
X57054891Y-156967819D01*
X57054892Y-156967821D01*
X57115937Y-157208881D01*
X57160960Y-157311523D01*
X57215825Y-157436604D01*
X57215827Y-157436607D01*
X57351836Y-157644785D01*
X57520256Y-157827738D01*
X57520259Y-157827740D01*
X57716485Y-157980470D01*
X57716487Y-157980471D01*
X57716491Y-157980474D01*
X57935190Y-158098828D01*
X58170386Y-158179571D01*
X58415665Y-158220500D01*
X58664335Y-158220500D01*
X58909614Y-158179571D01*
X59144810Y-158098828D01*
X59363509Y-157980474D01*
X59559744Y-157827738D01*
X59728164Y-157644785D01*
X59864173Y-157436607D01*
X59964063Y-157208881D01*
X60025108Y-156967821D01*
X60045643Y-156720000D01*
X68384356Y-156720000D01*
X68404891Y-156967816D01*
X68404891Y-156967819D01*
X68404892Y-156967821D01*
X68465937Y-157208881D01*
X68510960Y-157311523D01*
X68565825Y-157436604D01*
X68565827Y-157436607D01*
X68701836Y-157644785D01*
X68870256Y-157827738D01*
X68870259Y-157827740D01*
X69066485Y-157980470D01*
X69066487Y-157980471D01*
X69066491Y-157980474D01*
X69285190Y-158098828D01*
X69520386Y-158179571D01*
X69765665Y-158220500D01*
X70014335Y-158220500D01*
X70259614Y-158179571D01*
X70494810Y-158098828D01*
X70713509Y-157980474D01*
X70909744Y-157827738D01*
X71078164Y-157644785D01*
X71214173Y-157436607D01*
X71314063Y-157208881D01*
X71375108Y-156967821D01*
X71395643Y-156720000D01*
X79534356Y-156720000D01*
X79554891Y-156967816D01*
X79554891Y-156967819D01*
X79554892Y-156967821D01*
X79615937Y-157208881D01*
X79660960Y-157311523D01*
X79715825Y-157436604D01*
X79715827Y-157436607D01*
X79851836Y-157644785D01*
X80020256Y-157827738D01*
X80020259Y-157827740D01*
X80216485Y-157980470D01*
X80216487Y-157980471D01*
X80216491Y-157980474D01*
X80435190Y-158098828D01*
X80670386Y-158179571D01*
X80915665Y-158220500D01*
X81164335Y-158220500D01*
X81409614Y-158179571D01*
X81644810Y-158098828D01*
X81863509Y-157980474D01*
X82059744Y-157827738D01*
X82228164Y-157644785D01*
X82364173Y-157436607D01*
X82464063Y-157208881D01*
X82525108Y-156967821D01*
X82545643Y-156720000D01*
X90534356Y-156720000D01*
X90554891Y-156967816D01*
X90554891Y-156967819D01*
X90554892Y-156967821D01*
X90615937Y-157208881D01*
X90660960Y-157311523D01*
X90715825Y-157436604D01*
X90715827Y-157436607D01*
X90851836Y-157644785D01*
X91020256Y-157827738D01*
X91020259Y-157827740D01*
X91216485Y-157980470D01*
X91216487Y-157980471D01*
X91216491Y-157980474D01*
X91435190Y-158098828D01*
X91670386Y-158179571D01*
X91915665Y-158220500D01*
X92164335Y-158220500D01*
X92409614Y-158179571D01*
X92644810Y-158098828D01*
X92863509Y-157980474D01*
X93059744Y-157827738D01*
X93228164Y-157644785D01*
X93364173Y-157436607D01*
X93464063Y-157208881D01*
X93525108Y-156967821D01*
X93545643Y-156720000D01*
X93525108Y-156472179D01*
X93464063Y-156231119D01*
X93364173Y-156003393D01*
X93228164Y-155795215D01*
X93059744Y-155612262D01*
X93037612Y-155595036D01*
X92863514Y-155459529D01*
X92863510Y-155459526D01*
X92863509Y-155459526D01*
X92644810Y-155341172D01*
X92644806Y-155341170D01*
X92644805Y-155341170D01*
X92632705Y-155337016D01*
X92575689Y-155296630D01*
X92549559Y-155231830D01*
X92562611Y-155163191D01*
X92610700Y-155112503D01*
X92632708Y-155102453D01*
X92644607Y-155098368D01*
X92863233Y-154980053D01*
X92910056Y-154943609D01*
X92211568Y-154245121D01*
X92328458Y-154194349D01*
X92445739Y-154098934D01*
X92532928Y-153975415D01*
X92563354Y-153889802D01*
X93263434Y-154589882D01*
X93363730Y-154436369D01*
X93463586Y-154208721D01*
X93524613Y-153967732D01*
X93545141Y-153720000D01*
X93524613Y-153472267D01*
X93463586Y-153231278D01*
X93363730Y-153003630D01*
X93263434Y-152850116D01*
X92565928Y-153547621D01*
X92563116Y-153534085D01*
X92493558Y-153399844D01*
X92390362Y-153289348D01*
X92261181Y-153210791D01*
X92209997Y-153196450D01*
X92910057Y-152496390D01*
X92910056Y-152496388D01*
X92863235Y-152459947D01*
X92644606Y-152341631D01*
X92409493Y-152260916D01*
X92164293Y-152220000D01*
X91915707Y-152220000D01*
X91670506Y-152260916D01*
X91435393Y-152341631D01*
X91216764Y-152459946D01*
X91169942Y-152496388D01*
X91169942Y-152496390D01*
X91868431Y-153194878D01*
X91751542Y-153245651D01*
X91634261Y-153341066D01*
X91547072Y-153464585D01*
X91516645Y-153550197D01*
X90816564Y-152850116D01*
X90716266Y-153003634D01*
X90616413Y-153231278D01*
X90555386Y-153472267D01*
X90534858Y-153720000D01*
X90555386Y-153967732D01*
X90616413Y-154208721D01*
X90716268Y-154436370D01*
X90816563Y-154589882D01*
X90816564Y-154589882D01*
X91514070Y-153892376D01*
X91516884Y-153905915D01*
X91586442Y-154040156D01*
X91689638Y-154150652D01*
X91818819Y-154229209D01*
X91870002Y-154243549D01*
X91169942Y-154943609D01*
X91169942Y-154943610D01*
X91216766Y-154980055D01*
X91435389Y-155098366D01*
X91447293Y-155102453D01*
X91504309Y-155142839D01*
X91530440Y-155207638D01*
X91517389Y-155276278D01*
X91469301Y-155326966D01*
X91447296Y-155337016D01*
X91435191Y-155341171D01*
X91216485Y-155459529D01*
X91020259Y-155612259D01*
X90851837Y-155795214D01*
X90715825Y-156003395D01*
X90615938Y-156231117D01*
X90554891Y-156472183D01*
X90534356Y-156720000D01*
X82545643Y-156720000D01*
X82525108Y-156472179D01*
X82464063Y-156231119D01*
X82364173Y-156003393D01*
X82228164Y-155795215D01*
X82059744Y-155612262D01*
X82037612Y-155595036D01*
X81863514Y-155459529D01*
X81863510Y-155459526D01*
X81863509Y-155459526D01*
X81644810Y-155341172D01*
X81644806Y-155341170D01*
X81644805Y-155341170D01*
X81632705Y-155337016D01*
X81575689Y-155296630D01*
X81549559Y-155231830D01*
X81562611Y-155163191D01*
X81610700Y-155112503D01*
X81632708Y-155102453D01*
X81644607Y-155098368D01*
X81863233Y-154980053D01*
X81910056Y-154943609D01*
X81211568Y-154245121D01*
X81328458Y-154194349D01*
X81445739Y-154098934D01*
X81532928Y-153975415D01*
X81563354Y-153889802D01*
X82263434Y-154589882D01*
X82363730Y-154436369D01*
X82463586Y-154208721D01*
X82524613Y-153967732D01*
X82545141Y-153720000D01*
X82524613Y-153472267D01*
X82463586Y-153231278D01*
X82363730Y-153003630D01*
X82263434Y-152850116D01*
X81565929Y-153547622D01*
X81563116Y-153534085D01*
X81493558Y-153399844D01*
X81390362Y-153289348D01*
X81261181Y-153210791D01*
X81209997Y-153196450D01*
X81706447Y-152700000D01*
X85395040Y-152700000D01*
X85414826Y-152888257D01*
X85473320Y-153068284D01*
X85567966Y-153232216D01*
X85694629Y-153372889D01*
X85847769Y-153484151D01*
X86020693Y-153561143D01*
X86020696Y-153561143D01*
X86020697Y-153561144D01*
X86064931Y-153570546D01*
X86126412Y-153603737D01*
X86160189Y-153664900D01*
X86157081Y-153730153D01*
X86114326Y-153861740D01*
X86094540Y-154050000D01*
X86114326Y-154238257D01*
X86172820Y-154418284D01*
X86267466Y-154582216D01*
X86394129Y-154722889D01*
X86547269Y-154834151D01*
X86720197Y-154911144D01*
X86905352Y-154950500D01*
X86905354Y-154950500D01*
X87094648Y-154950500D01*
X87218083Y-154924262D01*
X87279803Y-154911144D01*
X87452730Y-154834151D01*
X87605871Y-154722888D01*
X87732533Y-154582216D01*
X87827179Y-154418284D01*
X87885674Y-154238256D01*
X87905460Y-154050000D01*
X87885674Y-153861744D01*
X87834485Y-153704201D01*
X87827179Y-153681715D01*
X87732533Y-153517783D01*
X87605870Y-153377110D01*
X87452730Y-153265848D01*
X87279802Y-153188855D01*
X87235568Y-153179453D01*
X87174086Y-153146261D01*
X87140310Y-153085098D01*
X87143418Y-153019845D01*
X87155153Y-152983727D01*
X87186174Y-152888256D01*
X87205960Y-152700000D01*
X87186174Y-152511744D01*
X87127679Y-152331716D01*
X87127679Y-152331715D01*
X87033033Y-152167783D01*
X86906370Y-152027110D01*
X86753230Y-151915848D01*
X86580302Y-151838855D01*
X86395148Y-151799500D01*
X86395146Y-151799500D01*
X86205854Y-151799500D01*
X86205852Y-151799500D01*
X86020697Y-151838855D01*
X85847769Y-151915848D01*
X85694629Y-152027110D01*
X85567966Y-152167783D01*
X85473320Y-152331715D01*
X85414826Y-152511742D01*
X85395040Y-152700000D01*
X81706447Y-152700000D01*
X81910057Y-152496390D01*
X81910056Y-152496388D01*
X81863235Y-152459947D01*
X81644606Y-152341631D01*
X81409493Y-152260916D01*
X81164293Y-152220000D01*
X80915707Y-152220000D01*
X80670506Y-152260916D01*
X80435393Y-152341631D01*
X80216764Y-152459946D01*
X80169942Y-152496388D01*
X80169942Y-152496390D01*
X80868431Y-153194878D01*
X80751542Y-153245651D01*
X80634261Y-153341066D01*
X80547072Y-153464585D01*
X80516645Y-153550197D01*
X79816564Y-152850116D01*
X79716266Y-153003634D01*
X79616413Y-153231278D01*
X79555386Y-153472267D01*
X79534858Y-153720000D01*
X79555386Y-153967732D01*
X79616413Y-154208721D01*
X79716268Y-154436370D01*
X79816563Y-154589882D01*
X79816564Y-154589882D01*
X80514070Y-153892376D01*
X80516884Y-153905915D01*
X80586442Y-154040156D01*
X80689638Y-154150652D01*
X80818819Y-154229209D01*
X80870002Y-154243549D01*
X80169942Y-154943609D01*
X80169942Y-154943610D01*
X80216766Y-154980055D01*
X80435389Y-155098366D01*
X80447293Y-155102453D01*
X80504309Y-155142839D01*
X80530440Y-155207638D01*
X80517389Y-155276278D01*
X80469301Y-155326966D01*
X80447296Y-155337016D01*
X80435191Y-155341171D01*
X80216485Y-155459529D01*
X80020259Y-155612259D01*
X79851837Y-155795214D01*
X79715825Y-156003395D01*
X79615938Y-156231117D01*
X79554891Y-156472183D01*
X79534356Y-156720000D01*
X71395643Y-156720000D01*
X71375108Y-156472179D01*
X71314063Y-156231119D01*
X71214173Y-156003393D01*
X71078164Y-155795215D01*
X70909744Y-155612262D01*
X70887612Y-155595036D01*
X70713514Y-155459529D01*
X70713510Y-155459526D01*
X70713509Y-155459526D01*
X70494810Y-155341172D01*
X70494806Y-155341170D01*
X70494805Y-155341170D01*
X70482705Y-155337016D01*
X70425689Y-155296630D01*
X70399559Y-155231830D01*
X70412611Y-155163191D01*
X70460700Y-155112503D01*
X70482708Y-155102453D01*
X70494607Y-155098368D01*
X70713233Y-154980053D01*
X70760056Y-154943609D01*
X70061568Y-154245121D01*
X70178458Y-154194349D01*
X70295739Y-154098934D01*
X70382928Y-153975415D01*
X70413354Y-153889802D01*
X71113434Y-154589882D01*
X71213730Y-154436369D01*
X71313586Y-154208721D01*
X71374613Y-153967732D01*
X71395141Y-153720000D01*
X71374613Y-153472267D01*
X71313586Y-153231278D01*
X71213730Y-153003630D01*
X71113434Y-152850116D01*
X70415929Y-153547622D01*
X70413116Y-153534085D01*
X70343558Y-153399844D01*
X70240362Y-153289348D01*
X70111181Y-153210791D01*
X70059997Y-153196450D01*
X70760057Y-152496390D01*
X70760056Y-152496388D01*
X70713235Y-152459947D01*
X70494606Y-152341631D01*
X70259493Y-152260916D01*
X70014293Y-152220000D01*
X69765707Y-152220000D01*
X69520506Y-152260916D01*
X69285393Y-152341631D01*
X69066764Y-152459946D01*
X69019942Y-152496388D01*
X69019942Y-152496390D01*
X69718431Y-153194878D01*
X69601542Y-153245651D01*
X69484261Y-153341066D01*
X69397072Y-153464585D01*
X69366645Y-153550197D01*
X68666564Y-152850116D01*
X68566266Y-153003634D01*
X68466413Y-153231278D01*
X68405386Y-153472267D01*
X68384858Y-153720000D01*
X68405386Y-153967732D01*
X68466413Y-154208721D01*
X68566268Y-154436370D01*
X68666563Y-154589882D01*
X68666564Y-154589882D01*
X69364070Y-153892376D01*
X69366884Y-153905915D01*
X69436442Y-154040156D01*
X69539638Y-154150652D01*
X69668819Y-154229209D01*
X69720002Y-154243549D01*
X69019942Y-154943609D01*
X69019942Y-154943610D01*
X69066766Y-154980055D01*
X69285389Y-155098366D01*
X69297293Y-155102453D01*
X69354309Y-155142839D01*
X69380440Y-155207638D01*
X69367389Y-155276278D01*
X69319301Y-155326966D01*
X69297296Y-155337016D01*
X69285191Y-155341171D01*
X69066485Y-155459529D01*
X68870259Y-155612259D01*
X68701837Y-155795214D01*
X68565825Y-156003395D01*
X68465938Y-156231117D01*
X68404891Y-156472183D01*
X68384356Y-156720000D01*
X60045643Y-156720000D01*
X60025108Y-156472179D01*
X59964063Y-156231119D01*
X59864173Y-156003393D01*
X59728164Y-155795215D01*
X59559744Y-155612262D01*
X59537612Y-155595036D01*
X59363514Y-155459529D01*
X59363510Y-155459526D01*
X59363509Y-155459526D01*
X59144810Y-155341172D01*
X59144806Y-155341170D01*
X59144805Y-155341170D01*
X59132705Y-155337016D01*
X59075689Y-155296630D01*
X59049559Y-155231830D01*
X59062611Y-155163191D01*
X59110700Y-155112503D01*
X59132708Y-155102453D01*
X59144607Y-155098368D01*
X59363233Y-154980053D01*
X59410056Y-154943609D01*
X58711568Y-154245121D01*
X58828458Y-154194349D01*
X58945739Y-154098934D01*
X59032928Y-153975415D01*
X59063354Y-153889802D01*
X59763434Y-154589882D01*
X59863730Y-154436369D01*
X59963586Y-154208721D01*
X60024613Y-153967732D01*
X60045141Y-153719999D01*
X60024613Y-153472267D01*
X59963586Y-153231278D01*
X59937578Y-153171985D01*
X63245040Y-153171985D01*
X63264826Y-153360242D01*
X63323320Y-153540269D01*
X63417966Y-153704201D01*
X63544629Y-153844874D01*
X63697765Y-153956134D01*
X63741071Y-153975415D01*
X63870697Y-154033129D01*
X63870698Y-154033129D01*
X63875390Y-154035218D01*
X63928627Y-154080469D01*
X63948275Y-154135536D01*
X63964326Y-154288257D01*
X64022820Y-154468284D01*
X64117466Y-154632216D01*
X64244129Y-154772889D01*
X64397269Y-154884151D01*
X64570197Y-154961144D01*
X64755352Y-155000500D01*
X64755354Y-155000500D01*
X64944648Y-155000500D01*
X65068084Y-154974262D01*
X65129803Y-154961144D01*
X65302730Y-154884151D01*
X65455870Y-154772889D01*
X65582533Y-154632216D01*
X65677179Y-154468284D01*
X65735674Y-154288256D01*
X65755460Y-154100000D01*
X65735674Y-153911744D01*
X65677179Y-153731716D01*
X65677179Y-153731715D01*
X65582533Y-153567783D01*
X65455870Y-153427110D01*
X65302730Y-153315848D01*
X65125109Y-153236765D01*
X65071872Y-153191515D01*
X65052225Y-153136450D01*
X65036174Y-152983729D01*
X64977679Y-152803701D01*
X64977679Y-152803700D01*
X64883033Y-152639768D01*
X64756370Y-152499095D01*
X64603230Y-152387833D01*
X64430302Y-152310840D01*
X64245148Y-152271485D01*
X64245146Y-152271485D01*
X64055854Y-152271485D01*
X64055852Y-152271485D01*
X63870697Y-152310840D01*
X63697769Y-152387833D01*
X63544629Y-152499095D01*
X63417966Y-152639768D01*
X63323320Y-152803700D01*
X63264826Y-152983727D01*
X63245040Y-153171985D01*
X59937578Y-153171985D01*
X59863730Y-153003630D01*
X59763434Y-152850116D01*
X59065929Y-153547622D01*
X59063116Y-153534085D01*
X58993558Y-153399844D01*
X58890362Y-153289348D01*
X58761181Y-153210791D01*
X58709996Y-153196449D01*
X59410056Y-152496389D01*
X59410056Y-152496387D01*
X59363235Y-152459947D01*
X59144606Y-152341631D01*
X58909493Y-152260916D01*
X58664293Y-152220000D01*
X58415707Y-152220000D01*
X58170506Y-152260916D01*
X57935393Y-152341631D01*
X57716764Y-152459946D01*
X57669942Y-152496388D01*
X57669942Y-152496390D01*
X58368430Y-153194879D01*
X58251542Y-153245651D01*
X58134261Y-153341066D01*
X58047072Y-153464585D01*
X58016644Y-153550198D01*
X57316564Y-152850116D01*
X57216266Y-153003634D01*
X57116413Y-153231278D01*
X57055386Y-153472267D01*
X57034858Y-153719999D01*
X57055386Y-153967732D01*
X57116413Y-154208721D01*
X57216268Y-154436370D01*
X57316563Y-154589882D01*
X57316564Y-154589882D01*
X58014070Y-153892374D01*
X58016884Y-153905915D01*
X58086442Y-154040156D01*
X58189638Y-154150652D01*
X58318819Y-154229209D01*
X58370002Y-154243549D01*
X57669942Y-154943609D01*
X57669942Y-154943610D01*
X57716766Y-154980055D01*
X57935389Y-155098366D01*
X57947293Y-155102453D01*
X58004309Y-155142839D01*
X58030440Y-155207638D01*
X58017389Y-155276278D01*
X57969301Y-155326966D01*
X57947296Y-155337016D01*
X57935191Y-155341171D01*
X57716485Y-155459529D01*
X57520259Y-155612259D01*
X57351837Y-155795214D01*
X57215825Y-156003395D01*
X57115938Y-156231117D01*
X57054891Y-156472183D01*
X57034356Y-156720000D01*
X51910500Y-156720000D01*
X51910500Y-150164578D01*
X56099500Y-150164578D01*
X56099501Y-150167872D01*
X56099853Y-150171152D01*
X56099854Y-150171159D01*
X56105909Y-150227484D01*
X56115766Y-150253911D01*
X56156204Y-150362331D01*
X56242454Y-150477546D01*
X56357669Y-150563796D01*
X56492517Y-150614091D01*
X56552127Y-150620500D01*
X58447872Y-150620499D01*
X58507483Y-150614091D01*
X58642331Y-150563796D01*
X58757546Y-150477546D01*
X58843796Y-150362331D01*
X58872455Y-150285491D01*
X58914325Y-150229559D01*
X58979789Y-150205141D01*
X59048062Y-150219992D01*
X59079864Y-150244840D01*
X59088216Y-150253913D01*
X59271374Y-150396470D01*
X59475497Y-150506936D01*
X59585258Y-150544617D01*
X59695015Y-150582297D01*
X59695017Y-150582297D01*
X59695019Y-150582298D01*
X59923951Y-150620500D01*
X59923952Y-150620500D01*
X60156048Y-150620500D01*
X60156049Y-150620500D01*
X60384981Y-150582298D01*
X60604503Y-150506936D01*
X60808626Y-150396470D01*
X60991784Y-150253913D01*
X61148979Y-150083153D01*
X61275924Y-149888849D01*
X61369157Y-149676300D01*
X61426134Y-149451305D01*
X61445300Y-149220000D01*
X67094699Y-149220000D01*
X67113865Y-149451299D01*
X67113865Y-149451301D01*
X67113866Y-149451305D01*
X67170843Y-149676300D01*
X67264076Y-149888849D01*
X67391021Y-150083153D01*
X67548216Y-150253913D01*
X67731374Y-150396470D01*
X67935497Y-150506936D01*
X68045257Y-150544617D01*
X68155015Y-150582297D01*
X68155017Y-150582297D01*
X68155019Y-150582298D01*
X68383951Y-150620500D01*
X68383952Y-150620500D01*
X68616048Y-150620500D01*
X68616049Y-150620500D01*
X68844981Y-150582298D01*
X69064503Y-150506936D01*
X69268626Y-150396470D01*
X69451784Y-150253913D01*
X69460132Y-150244844D01*
X69520016Y-150208853D01*
X69589855Y-150210950D01*
X69647472Y-150250473D01*
X69667544Y-150285491D01*
X69696204Y-150362331D01*
X69782454Y-150477546D01*
X69897669Y-150563796D01*
X70032517Y-150614091D01*
X70092127Y-150620500D01*
X71987872Y-150620499D01*
X72047483Y-150614091D01*
X72182331Y-150563796D01*
X72297546Y-150477546D01*
X72383796Y-150362331D01*
X72434091Y-150227483D01*
X72440500Y-150167873D01*
X72440500Y-150164578D01*
X78364500Y-150164578D01*
X78364501Y-150167872D01*
X78364853Y-150171152D01*
X78364854Y-150171159D01*
X78370909Y-150227484D01*
X78380766Y-150253911D01*
X78421204Y-150362331D01*
X78507454Y-150477546D01*
X78622669Y-150563796D01*
X78757517Y-150614091D01*
X78817127Y-150620500D01*
X80712872Y-150620499D01*
X80772483Y-150614091D01*
X80907331Y-150563796D01*
X81022546Y-150477546D01*
X81108796Y-150362331D01*
X81137455Y-150285491D01*
X81179325Y-150229559D01*
X81244789Y-150205141D01*
X81313062Y-150219992D01*
X81344864Y-150244840D01*
X81353216Y-150253913D01*
X81536374Y-150396470D01*
X81740497Y-150506936D01*
X81850258Y-150544617D01*
X81960015Y-150582297D01*
X81960017Y-150582297D01*
X81960019Y-150582298D01*
X82188951Y-150620500D01*
X82188952Y-150620500D01*
X82421048Y-150620500D01*
X82421049Y-150620500D01*
X82649981Y-150582298D01*
X82869503Y-150506936D01*
X83073626Y-150396470D01*
X83256784Y-150253913D01*
X83413979Y-150083153D01*
X83540924Y-149888849D01*
X83634157Y-149676300D01*
X83691134Y-149451305D01*
X83710300Y-149220000D01*
X83710300Y-149219999D01*
X89594699Y-149219999D01*
X89613865Y-149451299D01*
X89613865Y-149451301D01*
X89613866Y-149451305D01*
X89670843Y-149676300D01*
X89764076Y-149888849D01*
X89891021Y-150083153D01*
X90048216Y-150253913D01*
X90231374Y-150396470D01*
X90435497Y-150506936D01*
X90545257Y-150544617D01*
X90655015Y-150582297D01*
X90655017Y-150582297D01*
X90655019Y-150582298D01*
X90883951Y-150620500D01*
X90883952Y-150620500D01*
X91116048Y-150620500D01*
X91116049Y-150620500D01*
X91344981Y-150582298D01*
X91564503Y-150506936D01*
X91768626Y-150396470D01*
X91951784Y-150253913D01*
X91960132Y-150244844D01*
X92020016Y-150208853D01*
X92089855Y-150210950D01*
X92147472Y-150250473D01*
X92167544Y-150285491D01*
X92196204Y-150362331D01*
X92282454Y-150477546D01*
X92397669Y-150563796D01*
X92532517Y-150614091D01*
X92592127Y-150620500D01*
X94487872Y-150620499D01*
X94547483Y-150614091D01*
X94682331Y-150563796D01*
X94797546Y-150477546D01*
X94883796Y-150362331D01*
X94934091Y-150227483D01*
X94940500Y-150167873D01*
X94940499Y-148272128D01*
X94934091Y-148212517D01*
X94883796Y-148077669D01*
X94797546Y-147962454D01*
X94682331Y-147876204D01*
X94547483Y-147825909D01*
X94487873Y-147819500D01*
X94484550Y-147819500D01*
X92595439Y-147819500D01*
X92595420Y-147819500D01*
X92592128Y-147819501D01*
X92588848Y-147819853D01*
X92588840Y-147819854D01*
X92532515Y-147825909D01*
X92397669Y-147876204D01*
X92282454Y-147962454D01*
X92196204Y-148077669D01*
X92167545Y-148154508D01*
X92125673Y-148210441D01*
X92060209Y-148234858D01*
X91991936Y-148220006D01*
X91960133Y-148195157D01*
X91951784Y-148186087D01*
X91812488Y-148077669D01*
X91768626Y-148043530D01*
X91564503Y-147933064D01*
X91564499Y-147933062D01*
X91564498Y-147933062D01*
X91344984Y-147857702D01*
X91154456Y-147825909D01*
X91116049Y-147819500D01*
X90883951Y-147819500D01*
X90845544Y-147825909D01*
X90655015Y-147857702D01*
X90435501Y-147933062D01*
X90231372Y-148043531D01*
X90048215Y-148186087D01*
X89891020Y-148356848D01*
X89764076Y-148551150D01*
X89670844Y-148763696D01*
X89613865Y-148988700D01*
X89594699Y-149219999D01*
X83710300Y-149219999D01*
X83691134Y-148988695D01*
X83634157Y-148763700D01*
X83540924Y-148551151D01*
X83413979Y-148356847D01*
X83256784Y-148186087D01*
X83073626Y-148043530D01*
X82869503Y-147933064D01*
X82869499Y-147933062D01*
X82869498Y-147933062D01*
X82649984Y-147857702D01*
X82459456Y-147825909D01*
X82421049Y-147819500D01*
X82188951Y-147819500D01*
X82150544Y-147825909D01*
X81960015Y-147857702D01*
X81740501Y-147933062D01*
X81536372Y-148043531D01*
X81353213Y-148186089D01*
X81344863Y-148195160D01*
X81284975Y-148231148D01*
X81215137Y-148229046D01*
X81157522Y-148189520D01*
X81137455Y-148154508D01*
X81108796Y-148077669D01*
X81022546Y-147962454D01*
X80907331Y-147876204D01*
X80772483Y-147825909D01*
X80712873Y-147819500D01*
X80709550Y-147819500D01*
X78820439Y-147819500D01*
X78820420Y-147819500D01*
X78817128Y-147819501D01*
X78813848Y-147819853D01*
X78813840Y-147819854D01*
X78757515Y-147825909D01*
X78622669Y-147876204D01*
X78507454Y-147962454D01*
X78421204Y-148077668D01*
X78370910Y-148212515D01*
X78370909Y-148212517D01*
X78364500Y-148272127D01*
X78364500Y-148275448D01*
X78364500Y-148275449D01*
X78364500Y-150164560D01*
X78364500Y-150164578D01*
X72440500Y-150164578D01*
X72440499Y-148272128D01*
X72434091Y-148212517D01*
X72383796Y-148077669D01*
X72297546Y-147962454D01*
X72182331Y-147876204D01*
X72047483Y-147825909D01*
X71987873Y-147819500D01*
X71984550Y-147819500D01*
X70095439Y-147819500D01*
X70095420Y-147819500D01*
X70092128Y-147819501D01*
X70088848Y-147819853D01*
X70088840Y-147819854D01*
X70032515Y-147825909D01*
X69897669Y-147876204D01*
X69782454Y-147962454D01*
X69696204Y-148077669D01*
X69667545Y-148154508D01*
X69625673Y-148210441D01*
X69560209Y-148234858D01*
X69491936Y-148220006D01*
X69460133Y-148195157D01*
X69451784Y-148186087D01*
X69312488Y-148077669D01*
X69268626Y-148043530D01*
X69064503Y-147933064D01*
X69064499Y-147933062D01*
X69064498Y-147933062D01*
X68844984Y-147857702D01*
X68654456Y-147825909D01*
X68616049Y-147819500D01*
X68383951Y-147819500D01*
X68345544Y-147825909D01*
X68155015Y-147857702D01*
X67935501Y-147933062D01*
X67731372Y-148043531D01*
X67548215Y-148186087D01*
X67391020Y-148356848D01*
X67264076Y-148551150D01*
X67170844Y-148763696D01*
X67113865Y-148988700D01*
X67094699Y-149220000D01*
X61445300Y-149220000D01*
X61426134Y-148988695D01*
X61369157Y-148763700D01*
X61275924Y-148551151D01*
X61148979Y-148356847D01*
X60991784Y-148186087D01*
X60808626Y-148043530D01*
X60604503Y-147933064D01*
X60604499Y-147933062D01*
X60604498Y-147933062D01*
X60384984Y-147857702D01*
X60194456Y-147825909D01*
X60156049Y-147819500D01*
X59923951Y-147819500D01*
X59885544Y-147825909D01*
X59695015Y-147857702D01*
X59475501Y-147933062D01*
X59271372Y-148043531D01*
X59088213Y-148186089D01*
X59079863Y-148195160D01*
X59019975Y-148231148D01*
X58950137Y-148229046D01*
X58892522Y-148189520D01*
X58872455Y-148154508D01*
X58843796Y-148077669D01*
X58757546Y-147962454D01*
X58642331Y-147876204D01*
X58507483Y-147825909D01*
X58447873Y-147819500D01*
X58444550Y-147819500D01*
X56555439Y-147819500D01*
X56555420Y-147819500D01*
X56552128Y-147819501D01*
X56548848Y-147819853D01*
X56548840Y-147819854D01*
X56492515Y-147825909D01*
X56357669Y-147876204D01*
X56242454Y-147962454D01*
X56156204Y-148077668D01*
X56105910Y-148212515D01*
X56105909Y-148212517D01*
X56099500Y-148272127D01*
X56099500Y-148275448D01*
X56099500Y-148275449D01*
X56099500Y-150164560D01*
X56099500Y-150164578D01*
X51910500Y-150164578D01*
X51910500Y-144220000D01*
X57034356Y-144220000D01*
X57054891Y-144467816D01*
X57054891Y-144467819D01*
X57054892Y-144467821D01*
X57115937Y-144708881D01*
X57160960Y-144811523D01*
X57215825Y-144936604D01*
X57215827Y-144936607D01*
X57351836Y-145144785D01*
X57520256Y-145327738D01*
X57520259Y-145327740D01*
X57716485Y-145480470D01*
X57716487Y-145480471D01*
X57716491Y-145480474D01*
X57935190Y-145598828D01*
X58170386Y-145679571D01*
X58415665Y-145720500D01*
X58664335Y-145720500D01*
X58909614Y-145679571D01*
X59144810Y-145598828D01*
X59363509Y-145480474D01*
X59559744Y-145327738D01*
X59728164Y-145144785D01*
X59864173Y-144936607D01*
X59964063Y-144708881D01*
X60025108Y-144467821D01*
X60045643Y-144220000D01*
X68034356Y-144220000D01*
X68054891Y-144467816D01*
X68054891Y-144467819D01*
X68054892Y-144467821D01*
X68115937Y-144708881D01*
X68160960Y-144811523D01*
X68215825Y-144936604D01*
X68215827Y-144936607D01*
X68351836Y-145144785D01*
X68520256Y-145327738D01*
X68520259Y-145327740D01*
X68716485Y-145480470D01*
X68716487Y-145480471D01*
X68716491Y-145480474D01*
X68935190Y-145598828D01*
X69170386Y-145679571D01*
X69415665Y-145720500D01*
X69664335Y-145720500D01*
X69909614Y-145679571D01*
X70144810Y-145598828D01*
X70363509Y-145480474D01*
X70559744Y-145327738D01*
X70728164Y-145144785D01*
X70864173Y-144936607D01*
X70964063Y-144708881D01*
X71025108Y-144467821D01*
X71045643Y-144220000D01*
X79534356Y-144220000D01*
X79554891Y-144467816D01*
X79554891Y-144467819D01*
X79554892Y-144467821D01*
X79615937Y-144708881D01*
X79660960Y-144811523D01*
X79715825Y-144936604D01*
X79715827Y-144936607D01*
X79851836Y-145144785D01*
X80020256Y-145327738D01*
X80020259Y-145327740D01*
X80216485Y-145480470D01*
X80216487Y-145480471D01*
X80216491Y-145480474D01*
X80435190Y-145598828D01*
X80670386Y-145679571D01*
X80915665Y-145720500D01*
X81164335Y-145720500D01*
X81409614Y-145679571D01*
X81644810Y-145598828D01*
X81863509Y-145480474D01*
X82059744Y-145327738D01*
X82228164Y-145144785D01*
X82364173Y-144936607D01*
X82464063Y-144708881D01*
X82525108Y-144467821D01*
X82545643Y-144220000D01*
X90534356Y-144220000D01*
X90554891Y-144467816D01*
X90554891Y-144467819D01*
X90554892Y-144467821D01*
X90615937Y-144708881D01*
X90660960Y-144811523D01*
X90715825Y-144936604D01*
X90715827Y-144936607D01*
X90851836Y-145144785D01*
X91020256Y-145327738D01*
X91020259Y-145327740D01*
X91216485Y-145480470D01*
X91216487Y-145480471D01*
X91216491Y-145480474D01*
X91435190Y-145598828D01*
X91670386Y-145679571D01*
X91915665Y-145720500D01*
X92164335Y-145720500D01*
X92409614Y-145679571D01*
X92644810Y-145598828D01*
X92863509Y-145480474D01*
X93059744Y-145327738D01*
X93228164Y-145144785D01*
X93364173Y-144936607D01*
X93464063Y-144708881D01*
X93525108Y-144467821D01*
X93545643Y-144220000D01*
X93525108Y-143972179D01*
X93464063Y-143731119D01*
X93364173Y-143503393D01*
X93228164Y-143295215D01*
X93059744Y-143112262D01*
X93037612Y-143095036D01*
X92863514Y-142959529D01*
X92863510Y-142959526D01*
X92863509Y-142959526D01*
X92644810Y-142841172D01*
X92644806Y-142841170D01*
X92644805Y-142841170D01*
X92409615Y-142760429D01*
X92164335Y-142719500D01*
X91915665Y-142719500D01*
X91670384Y-142760429D01*
X91435194Y-142841170D01*
X91216485Y-142959529D01*
X91020259Y-143112259D01*
X90851837Y-143295214D01*
X90715825Y-143503395D01*
X90615938Y-143731117D01*
X90554891Y-143972183D01*
X90534356Y-144220000D01*
X82545643Y-144220000D01*
X82525108Y-143972179D01*
X82464063Y-143731119D01*
X82364173Y-143503393D01*
X82228164Y-143295215D01*
X82059744Y-143112262D01*
X82037612Y-143095036D01*
X81863514Y-142959529D01*
X81863510Y-142959526D01*
X81863509Y-142959526D01*
X81644810Y-142841172D01*
X81644806Y-142841170D01*
X81644805Y-142841170D01*
X81409615Y-142760429D01*
X81164335Y-142719500D01*
X80915665Y-142719500D01*
X80670384Y-142760429D01*
X80435194Y-142841170D01*
X80216485Y-142959529D01*
X80020259Y-143112259D01*
X79851837Y-143295214D01*
X79715825Y-143503395D01*
X79615938Y-143731117D01*
X79554891Y-143972183D01*
X79534356Y-144220000D01*
X71045643Y-144220000D01*
X71025108Y-143972179D01*
X70964063Y-143731119D01*
X70864173Y-143503393D01*
X70728164Y-143295215D01*
X70559744Y-143112262D01*
X70537612Y-143095036D01*
X70363514Y-142959529D01*
X70363510Y-142959526D01*
X70363509Y-142959526D01*
X70144810Y-142841172D01*
X70144806Y-142841170D01*
X70144805Y-142841170D01*
X69909615Y-142760429D01*
X69664335Y-142719500D01*
X69415665Y-142719500D01*
X69170384Y-142760429D01*
X68935194Y-142841170D01*
X68716485Y-142959529D01*
X68520259Y-143112259D01*
X68351837Y-143295214D01*
X68215825Y-143503395D01*
X68115938Y-143731117D01*
X68054891Y-143972183D01*
X68034356Y-144220000D01*
X60045643Y-144220000D01*
X60025108Y-143972179D01*
X59964063Y-143731119D01*
X59864173Y-143503393D01*
X59728164Y-143295215D01*
X59559744Y-143112262D01*
X59537612Y-143095036D01*
X59363514Y-142959529D01*
X59363510Y-142959526D01*
X59363509Y-142959526D01*
X59144810Y-142841172D01*
X59144806Y-142841170D01*
X59144805Y-142841170D01*
X58909615Y-142760429D01*
X58664335Y-142719500D01*
X58415665Y-142719500D01*
X58170384Y-142760429D01*
X57935194Y-142841170D01*
X57716485Y-142959529D01*
X57520259Y-143112259D01*
X57351837Y-143295214D01*
X57215825Y-143503395D01*
X57115938Y-143731117D01*
X57054891Y-143972183D01*
X57034356Y-144220000D01*
X51910500Y-144220000D01*
X51910500Y-139900000D01*
X65794540Y-139900000D01*
X65814326Y-140088257D01*
X65872820Y-140268284D01*
X65967466Y-140432216D01*
X66094129Y-140572889D01*
X66247269Y-140684151D01*
X66420197Y-140761144D01*
X66605352Y-140800500D01*
X66605354Y-140800500D01*
X66794648Y-140800500D01*
X66918084Y-140774262D01*
X66979803Y-140761144D01*
X67152730Y-140684151D01*
X67305871Y-140572888D01*
X67432533Y-140432216D01*
X67527179Y-140268284D01*
X67585674Y-140088256D01*
X67605460Y-139900000D01*
X82994540Y-139900000D01*
X83014326Y-140088257D01*
X83072820Y-140268284D01*
X83167466Y-140432216D01*
X83294129Y-140572889D01*
X83447269Y-140684151D01*
X83620197Y-140761144D01*
X83805352Y-140800500D01*
X83805354Y-140800500D01*
X83994648Y-140800500D01*
X84118084Y-140774262D01*
X84179803Y-140761144D01*
X84352730Y-140684151D01*
X84505871Y-140572888D01*
X84632533Y-140432216D01*
X84727179Y-140268284D01*
X84785674Y-140088256D01*
X84805460Y-139900000D01*
X84785674Y-139711744D01*
X84727179Y-139531716D01*
X84727179Y-139531715D01*
X84632533Y-139367783D01*
X84505870Y-139227110D01*
X84352730Y-139115848D01*
X84179802Y-139038855D01*
X83994648Y-138999500D01*
X83994646Y-138999500D01*
X83805354Y-138999500D01*
X83805352Y-138999500D01*
X83620197Y-139038855D01*
X83447269Y-139115848D01*
X83294129Y-139227110D01*
X83167466Y-139367783D01*
X83072820Y-139531715D01*
X83014326Y-139711742D01*
X82994540Y-139900000D01*
X67605460Y-139900000D01*
X67585674Y-139711744D01*
X67527179Y-139531716D01*
X67527179Y-139531715D01*
X67432533Y-139367783D01*
X67305870Y-139227110D01*
X67152730Y-139115848D01*
X66979802Y-139038855D01*
X66794648Y-138999500D01*
X66794646Y-138999500D01*
X66605354Y-138999500D01*
X66605352Y-138999500D01*
X66420197Y-139038855D01*
X66247269Y-139115848D01*
X66094129Y-139227110D01*
X65967466Y-139367783D01*
X65872820Y-139531715D01*
X65814326Y-139711742D01*
X65794540Y-139900000D01*
X51910500Y-139900000D01*
X51910500Y-138379499D01*
X79142423Y-138379499D01*
X79162209Y-138567757D01*
X79220703Y-138747784D01*
X79315349Y-138911716D01*
X79442012Y-139052389D01*
X79595152Y-139163651D01*
X79768080Y-139240644D01*
X79953235Y-139280000D01*
X79953237Y-139280000D01*
X80142531Y-139280000D01*
X80265967Y-139253762D01*
X80327686Y-139240644D01*
X80500613Y-139163651D01*
X80566407Y-139115849D01*
X80653753Y-139052389D01*
X80780416Y-138911716D01*
X80875062Y-138747784D01*
X80933557Y-138567756D01*
X80953343Y-138379500D01*
X80933557Y-138191244D01*
X80875062Y-138011216D01*
X80875062Y-138011215D01*
X80780416Y-137847283D01*
X80653753Y-137706610D01*
X80500613Y-137595348D01*
X80327685Y-137518355D01*
X80142531Y-137479000D01*
X80142529Y-137479000D01*
X79953237Y-137479000D01*
X79953235Y-137479000D01*
X79768080Y-137518355D01*
X79595152Y-137595348D01*
X79442012Y-137706610D01*
X79315349Y-137847283D01*
X79220703Y-138011215D01*
X79162209Y-138191242D01*
X79142423Y-138379499D01*
X51910500Y-138379499D01*
X51910500Y-130220000D01*
X57034356Y-130220000D01*
X57054891Y-130467816D01*
X57054891Y-130467819D01*
X57054892Y-130467821D01*
X57115937Y-130708881D01*
X57160960Y-130811523D01*
X57215825Y-130936604D01*
X57215827Y-130936607D01*
X57351836Y-131144785D01*
X57520255Y-131327737D01*
X57520259Y-131327741D01*
X57621374Y-131406442D01*
X57662187Y-131463152D01*
X57666300Y-131492748D01*
X58368430Y-132194879D01*
X58251542Y-132245651D01*
X58134261Y-132341066D01*
X58047072Y-132464585D01*
X58016644Y-132550198D01*
X57316564Y-131850116D01*
X57216266Y-132003634D01*
X57116413Y-132231278D01*
X57055386Y-132472267D01*
X57034858Y-132720000D01*
X57055386Y-132967732D01*
X57116413Y-133208721D01*
X57216268Y-133436370D01*
X57316563Y-133589882D01*
X57316564Y-133589882D01*
X58014070Y-132892374D01*
X58016884Y-132905915D01*
X58086442Y-133040156D01*
X58189638Y-133150652D01*
X58318819Y-133229209D01*
X58370002Y-133243549D01*
X57669942Y-133943609D01*
X57669942Y-133943610D01*
X57716766Y-133980055D01*
X57935393Y-134098368D01*
X57948065Y-134102719D01*
X58005081Y-134143105D01*
X58031211Y-134207905D01*
X58018159Y-134276544D01*
X57970070Y-134327232D01*
X57948065Y-134337281D01*
X57935393Y-134341631D01*
X57716764Y-134459946D01*
X57669942Y-134496388D01*
X57669942Y-134496390D01*
X58368431Y-135194878D01*
X58251542Y-135245651D01*
X58134261Y-135341066D01*
X58047072Y-135464585D01*
X58016645Y-135550197D01*
X57316564Y-134850116D01*
X57216266Y-135003634D01*
X57116413Y-135231278D01*
X57055386Y-135472267D01*
X57034858Y-135719999D01*
X57055386Y-135967732D01*
X57116413Y-136208721D01*
X57216268Y-136436370D01*
X57316563Y-136589882D01*
X57316564Y-136589882D01*
X58014070Y-135892375D01*
X58016884Y-135905915D01*
X58086442Y-136040156D01*
X58189638Y-136150652D01*
X58318819Y-136229209D01*
X58370002Y-136243549D01*
X57669942Y-136943609D01*
X57669942Y-136943610D01*
X57716766Y-136980055D01*
X57935393Y-137098368D01*
X58170506Y-137179083D01*
X58415707Y-137220000D01*
X58664293Y-137220000D01*
X58909493Y-137179083D01*
X59144606Y-137098368D01*
X59363233Y-136980053D01*
X59410056Y-136943609D01*
X58711568Y-136245121D01*
X58828458Y-136194349D01*
X58945739Y-136098934D01*
X59032928Y-135975415D01*
X59063354Y-135889802D01*
X59763434Y-136589882D01*
X59863730Y-136436369D01*
X59963586Y-136208721D01*
X60024613Y-135967732D01*
X60045141Y-135720000D01*
X60024613Y-135472267D01*
X59963586Y-135231278D01*
X59863730Y-135003630D01*
X59763434Y-134850116D01*
X59065928Y-135547621D01*
X59063116Y-135534085D01*
X58993558Y-135399844D01*
X58890362Y-135289348D01*
X58761181Y-135210791D01*
X58709997Y-135196450D01*
X59410057Y-134496390D01*
X59410056Y-134496388D01*
X59363235Y-134459947D01*
X59144610Y-134341633D01*
X59131935Y-134337282D01*
X59074919Y-134296896D01*
X59048788Y-134232097D01*
X59061839Y-134163457D01*
X59109927Y-134112769D01*
X59131935Y-134102718D01*
X59144610Y-134098366D01*
X59363233Y-133980053D01*
X59410056Y-133943609D01*
X58711568Y-133245121D01*
X58828458Y-133194349D01*
X58945739Y-133098934D01*
X59032928Y-132975415D01*
X59063354Y-132889802D01*
X59763434Y-133589882D01*
X59863730Y-133436369D01*
X59963586Y-133208721D01*
X60024613Y-132967732D01*
X60045141Y-132720000D01*
X60024613Y-132472267D01*
X59963586Y-132231278D01*
X59863730Y-132003630D01*
X59763434Y-131850116D01*
X59065929Y-132547622D01*
X59063116Y-132534085D01*
X58993558Y-132399844D01*
X58890362Y-132289348D01*
X58761181Y-132210791D01*
X58709996Y-132196449D01*
X59415898Y-131490548D01*
X59426515Y-131443852D01*
X59458618Y-131406446D01*
X59559744Y-131327738D01*
X59728164Y-131144785D01*
X59864173Y-130936607D01*
X59964063Y-130708881D01*
X60025108Y-130467821D01*
X60045643Y-130220000D01*
X68034356Y-130220000D01*
X68054891Y-130467816D01*
X68054891Y-130467819D01*
X68054892Y-130467821D01*
X68115937Y-130708881D01*
X68160960Y-130811523D01*
X68215825Y-130936604D01*
X68215827Y-130936607D01*
X68351836Y-131144785D01*
X68520255Y-131327737D01*
X68520259Y-131327741D01*
X68621374Y-131406442D01*
X68662187Y-131463152D01*
X68666300Y-131492748D01*
X69368431Y-132194878D01*
X69251542Y-132245651D01*
X69134261Y-132341066D01*
X69047072Y-132464585D01*
X69016645Y-132550197D01*
X68316564Y-131850116D01*
X68216266Y-132003634D01*
X68116413Y-132231278D01*
X68055386Y-132472267D01*
X68034858Y-132720000D01*
X68055386Y-132967732D01*
X68116413Y-133208721D01*
X68216268Y-133436370D01*
X68316563Y-133589882D01*
X68316564Y-133589882D01*
X69014070Y-132892375D01*
X69016884Y-132905915D01*
X69086442Y-133040156D01*
X69189638Y-133150652D01*
X69318819Y-133229209D01*
X69370002Y-133243549D01*
X68669942Y-133943609D01*
X68669942Y-133943610D01*
X68716766Y-133980055D01*
X68935393Y-134098368D01*
X68948065Y-134102719D01*
X69005081Y-134143105D01*
X69031211Y-134207905D01*
X69018159Y-134276544D01*
X68970070Y-134327232D01*
X68948065Y-134337281D01*
X68935393Y-134341631D01*
X68716764Y-134459946D01*
X68669942Y-134496388D01*
X68669942Y-134496390D01*
X69368431Y-135194878D01*
X69251542Y-135245651D01*
X69134261Y-135341066D01*
X69047072Y-135464585D01*
X69016645Y-135550197D01*
X68316564Y-134850116D01*
X68216266Y-135003634D01*
X68116413Y-135231278D01*
X68055386Y-135472267D01*
X68034858Y-135720000D01*
X68055386Y-135967732D01*
X68116413Y-136208721D01*
X68216268Y-136436370D01*
X68316563Y-136589882D01*
X68316564Y-136589882D01*
X69014070Y-135892376D01*
X69016884Y-135905915D01*
X69086442Y-136040156D01*
X69189638Y-136150652D01*
X69318819Y-136229209D01*
X69370002Y-136243549D01*
X68669942Y-136943609D01*
X68669942Y-136943610D01*
X68716766Y-136980055D01*
X68935393Y-137098368D01*
X69170506Y-137179083D01*
X69415707Y-137220000D01*
X69664293Y-137220000D01*
X69909493Y-137179083D01*
X70144606Y-137098368D01*
X70363233Y-136980053D01*
X70410056Y-136943609D01*
X69711568Y-136245121D01*
X69828458Y-136194349D01*
X69945739Y-136098934D01*
X70032928Y-135975415D01*
X70063354Y-135889802D01*
X70763434Y-136589882D01*
X70863730Y-136436369D01*
X70963586Y-136208721D01*
X71024613Y-135967732D01*
X71045141Y-135720000D01*
X79534858Y-135720000D01*
X79555386Y-135967732D01*
X79616413Y-136208721D01*
X79716268Y-136436370D01*
X79816563Y-136589882D01*
X79816564Y-136589882D01*
X80514070Y-135892376D01*
X80516884Y-135905915D01*
X80586442Y-136040156D01*
X80689638Y-136150652D01*
X80818819Y-136229209D01*
X80870002Y-136243549D01*
X80169942Y-136943609D01*
X80169942Y-136943610D01*
X80216766Y-136980055D01*
X80435393Y-137098368D01*
X80670506Y-137179083D01*
X80915707Y-137220000D01*
X81164293Y-137220000D01*
X81409493Y-137179083D01*
X81644606Y-137098368D01*
X81863233Y-136980053D01*
X81910056Y-136943609D01*
X81211568Y-136245121D01*
X81328458Y-136194349D01*
X81445739Y-136098934D01*
X81532928Y-135975415D01*
X81563354Y-135889802D01*
X82263434Y-136589882D01*
X82363730Y-136436369D01*
X82463586Y-136208721D01*
X82524613Y-135967732D01*
X82545141Y-135720000D01*
X82545141Y-135719999D01*
X90534858Y-135719999D01*
X90555386Y-135967732D01*
X90616413Y-136208721D01*
X90716268Y-136436370D01*
X90816563Y-136589882D01*
X90816564Y-136589882D01*
X91514070Y-135892376D01*
X91516884Y-135905915D01*
X91586442Y-136040156D01*
X91689638Y-136150652D01*
X91818819Y-136229209D01*
X91870002Y-136243549D01*
X91169942Y-136943609D01*
X91169942Y-136943610D01*
X91216766Y-136980055D01*
X91435393Y-137098368D01*
X91670506Y-137179083D01*
X91915707Y-137220000D01*
X92164293Y-137220000D01*
X92409493Y-137179083D01*
X92644606Y-137098368D01*
X92863233Y-136980053D01*
X92910056Y-136943609D01*
X92211568Y-136245121D01*
X92328458Y-136194349D01*
X92445739Y-136098934D01*
X92532928Y-135975415D01*
X92563354Y-135889802D01*
X93263434Y-136589882D01*
X93363730Y-136436369D01*
X93463586Y-136208721D01*
X93524613Y-135967732D01*
X93545141Y-135719999D01*
X93524613Y-135472267D01*
X93463586Y-135231278D01*
X93363730Y-135003630D01*
X93263434Y-134850116D01*
X92565929Y-135547622D01*
X92563116Y-135534085D01*
X92493558Y-135399844D01*
X92390362Y-135289348D01*
X92261181Y-135210791D01*
X92209997Y-135196450D01*
X92910057Y-134496390D01*
X92910056Y-134496388D01*
X92863235Y-134459947D01*
X92644610Y-134341633D01*
X92631935Y-134337282D01*
X92574919Y-134296896D01*
X92548788Y-134232097D01*
X92561839Y-134163457D01*
X92609927Y-134112769D01*
X92631935Y-134102718D01*
X92644610Y-134098366D01*
X92863233Y-133980053D01*
X92910056Y-133943609D01*
X92211568Y-133245121D01*
X92328458Y-133194349D01*
X92445739Y-133098934D01*
X92532928Y-132975415D01*
X92563354Y-132889802D01*
X93263434Y-133589882D01*
X93363730Y-133436369D01*
X93463586Y-133208721D01*
X93524613Y-132967732D01*
X93545141Y-132719999D01*
X93524613Y-132472267D01*
X93463586Y-132231278D01*
X93363730Y-132003630D01*
X93263434Y-131850116D01*
X92565928Y-132547621D01*
X92563116Y-132534085D01*
X92493558Y-132399844D01*
X92390362Y-132289348D01*
X92261181Y-132210791D01*
X92209997Y-132196450D01*
X92910057Y-131496390D01*
X92910056Y-131496388D01*
X92863235Y-131459947D01*
X92644606Y-131341631D01*
X92409493Y-131260916D01*
X92164293Y-131220000D01*
X91915707Y-131220000D01*
X91670506Y-131260916D01*
X91435393Y-131341631D01*
X91216764Y-131459946D01*
X91169942Y-131496388D01*
X91169942Y-131496390D01*
X91868431Y-132194878D01*
X91751542Y-132245651D01*
X91634261Y-132341066D01*
X91547072Y-132464585D01*
X91516645Y-132550197D01*
X90816564Y-131850116D01*
X90716266Y-132003634D01*
X90616413Y-132231278D01*
X90555386Y-132472267D01*
X90534858Y-132720000D01*
X90555386Y-132967732D01*
X90616413Y-133208721D01*
X90716268Y-133436370D01*
X90816563Y-133589882D01*
X90816564Y-133589882D01*
X91514070Y-132892376D01*
X91516884Y-132905915D01*
X91586442Y-133040156D01*
X91689638Y-133150652D01*
X91818819Y-133229209D01*
X91870002Y-133243549D01*
X91169942Y-133943609D01*
X91169942Y-133943610D01*
X91216766Y-133980055D01*
X91435393Y-134098368D01*
X91448065Y-134102719D01*
X91505081Y-134143105D01*
X91531211Y-134207905D01*
X91518159Y-134276544D01*
X91470070Y-134327232D01*
X91448065Y-134337281D01*
X91435393Y-134341631D01*
X91216764Y-134459946D01*
X91169942Y-134496388D01*
X91169942Y-134496390D01*
X91868431Y-135194878D01*
X91751542Y-135245651D01*
X91634261Y-135341066D01*
X91547072Y-135464585D01*
X91516645Y-135550197D01*
X90816564Y-134850116D01*
X90716266Y-135003634D01*
X90616413Y-135231278D01*
X90555386Y-135472267D01*
X90534858Y-135719999D01*
X82545141Y-135719999D01*
X82524613Y-135472267D01*
X82463586Y-135231278D01*
X82363730Y-135003630D01*
X82263434Y-134850116D01*
X81565929Y-135547622D01*
X81563116Y-135534085D01*
X81493558Y-135399844D01*
X81390362Y-135289348D01*
X81261181Y-135210791D01*
X81209996Y-135196449D01*
X81910056Y-134496389D01*
X81910056Y-134496387D01*
X81863235Y-134459947D01*
X81644610Y-134341633D01*
X81631935Y-134337282D01*
X81574919Y-134296896D01*
X81548788Y-134232097D01*
X81561839Y-134163457D01*
X81609927Y-134112769D01*
X81631935Y-134102718D01*
X81644610Y-134098366D01*
X81863233Y-133980053D01*
X81910056Y-133943609D01*
X81211568Y-133245121D01*
X81328458Y-133194349D01*
X81445739Y-133098934D01*
X81532928Y-132975415D01*
X81563354Y-132889802D01*
X82263434Y-133589882D01*
X82363730Y-133436369D01*
X82463586Y-133208721D01*
X82524613Y-132967732D01*
X82545141Y-132720000D01*
X82524613Y-132472267D01*
X82463586Y-132231278D01*
X82363730Y-132003630D01*
X82263434Y-131850116D01*
X81565929Y-132547622D01*
X81563116Y-132534085D01*
X81493558Y-132399844D01*
X81390362Y-132289348D01*
X81261181Y-132210791D01*
X81209997Y-132196450D01*
X81910057Y-131496390D01*
X81910056Y-131496388D01*
X81863235Y-131459947D01*
X81644606Y-131341631D01*
X81409493Y-131260916D01*
X81164293Y-131220000D01*
X80915707Y-131220000D01*
X80670506Y-131260916D01*
X80435393Y-131341631D01*
X80216764Y-131459946D01*
X80169942Y-131496388D01*
X80169942Y-131496390D01*
X80868431Y-132194878D01*
X80751542Y-132245651D01*
X80634261Y-132341066D01*
X80547072Y-132464585D01*
X80516645Y-132550197D01*
X79816564Y-131850116D01*
X79716266Y-132003634D01*
X79616413Y-132231278D01*
X79555386Y-132472267D01*
X79534858Y-132720000D01*
X79555386Y-132967732D01*
X79616413Y-133208721D01*
X79716268Y-133436370D01*
X79816563Y-133589882D01*
X79816564Y-133589882D01*
X80514070Y-132892376D01*
X80516884Y-132905915D01*
X80586442Y-133040156D01*
X80689638Y-133150652D01*
X80818819Y-133229209D01*
X80870002Y-133243549D01*
X80169942Y-133943609D01*
X80169942Y-133943610D01*
X80216766Y-133980055D01*
X80435393Y-134098368D01*
X80448065Y-134102719D01*
X80505081Y-134143105D01*
X80531211Y-134207905D01*
X80518159Y-134276544D01*
X80470070Y-134327232D01*
X80448065Y-134337281D01*
X80435393Y-134341631D01*
X80216764Y-134459946D01*
X80169942Y-134496388D01*
X80169942Y-134496390D01*
X80868430Y-135194879D01*
X80751542Y-135245651D01*
X80634261Y-135341066D01*
X80547072Y-135464585D01*
X80516645Y-135550197D01*
X79816564Y-134850116D01*
X79716266Y-135003634D01*
X79616413Y-135231278D01*
X79555386Y-135472267D01*
X79534858Y-135720000D01*
X71045141Y-135720000D01*
X71024613Y-135472267D01*
X70963586Y-135231278D01*
X70863730Y-135003630D01*
X70763434Y-134850116D01*
X70065929Y-135547622D01*
X70063116Y-135534085D01*
X69993558Y-135399844D01*
X69890362Y-135289348D01*
X69761181Y-135210791D01*
X69709997Y-135196450D01*
X70410057Y-134496390D01*
X70410056Y-134496388D01*
X70363235Y-134459947D01*
X70144610Y-134341633D01*
X70131935Y-134337282D01*
X70074919Y-134296896D01*
X70048788Y-134232097D01*
X70061839Y-134163457D01*
X70109927Y-134112769D01*
X70131935Y-134102718D01*
X70144610Y-134098366D01*
X70363233Y-133980053D01*
X70410056Y-133943609D01*
X69711568Y-133245121D01*
X69828458Y-133194349D01*
X69945739Y-133098934D01*
X70032928Y-132975415D01*
X70063354Y-132889802D01*
X70763434Y-133589882D01*
X70863730Y-133436369D01*
X70963586Y-133208721D01*
X71024613Y-132967732D01*
X71045141Y-132720000D01*
X71024613Y-132472267D01*
X70963586Y-132231278D01*
X70863730Y-132003630D01*
X70763434Y-131850116D01*
X70065929Y-132547622D01*
X70063116Y-132534085D01*
X69993558Y-132399844D01*
X69890362Y-132289348D01*
X69761181Y-132210791D01*
X69709997Y-132196450D01*
X70415898Y-131490548D01*
X70426515Y-131443852D01*
X70458618Y-131406446D01*
X70559744Y-131327738D01*
X70728164Y-131144785D01*
X70864173Y-130936607D01*
X70964063Y-130708881D01*
X71025108Y-130467821D01*
X71045643Y-130220000D01*
X71025108Y-129972179D01*
X70964063Y-129731119D01*
X70864173Y-129503393D01*
X70728164Y-129295215D01*
X70559744Y-129112262D01*
X70537612Y-129095036D01*
X70363514Y-128959529D01*
X70363510Y-128959526D01*
X70363509Y-128959526D01*
X70144810Y-128841172D01*
X70144806Y-128841170D01*
X70144805Y-128841170D01*
X69909615Y-128760429D01*
X69664335Y-128719500D01*
X69415665Y-128719500D01*
X69170384Y-128760429D01*
X68935194Y-128841170D01*
X68716485Y-128959529D01*
X68520259Y-129112259D01*
X68351837Y-129295214D01*
X68215825Y-129503395D01*
X68115938Y-129731117D01*
X68054891Y-129972183D01*
X68034356Y-130220000D01*
X60045643Y-130220000D01*
X60025108Y-129972179D01*
X59964063Y-129731119D01*
X59864173Y-129503393D01*
X59728164Y-129295215D01*
X59559744Y-129112262D01*
X59537612Y-129095036D01*
X59363514Y-128959529D01*
X59363510Y-128959526D01*
X59363509Y-128959526D01*
X59144810Y-128841172D01*
X59144806Y-128841170D01*
X59144805Y-128841170D01*
X58909615Y-128760429D01*
X58664335Y-128719500D01*
X58415665Y-128719500D01*
X58170384Y-128760429D01*
X57935194Y-128841170D01*
X57716485Y-128959529D01*
X57520259Y-129112259D01*
X57351837Y-129295214D01*
X57215825Y-129503395D01*
X57115938Y-129731117D01*
X57054891Y-129972183D01*
X57034356Y-130220000D01*
X51910500Y-130220000D01*
X51910500Y-126030000D01*
X80254859Y-126030000D01*
X80275378Y-126251445D01*
X80336238Y-126465347D01*
X80435367Y-126664425D01*
X80451137Y-126685308D01*
X80451138Y-126685308D01*
X81015550Y-126120896D01*
X81016327Y-126131265D01*
X81065887Y-126257541D01*
X81150465Y-126363599D01*
X81262547Y-126440016D01*
X81370299Y-126473253D01*
X80806672Y-127036879D01*
X80806672Y-127036881D01*
X80922816Y-127108795D01*
X81130198Y-127189135D01*
X81348806Y-127230000D01*
X81571194Y-127230000D01*
X81789801Y-127189135D01*
X81997180Y-127108797D01*
X82113326Y-127036880D01*
X82113326Y-127036879D01*
X81548232Y-126471784D01*
X81594138Y-126464865D01*
X81716357Y-126406007D01*
X81815798Y-126313740D01*
X81883625Y-126196260D01*
X81901499Y-126117946D01*
X82468861Y-126685308D01*
X82484632Y-126664424D01*
X82583761Y-126465347D01*
X82644621Y-126251445D01*
X82665140Y-126030000D01*
X90414859Y-126030000D01*
X90435378Y-126251445D01*
X90496238Y-126465347D01*
X90595367Y-126664425D01*
X90611137Y-126685308D01*
X90611138Y-126685308D01*
X91175550Y-126120896D01*
X91176327Y-126131265D01*
X91225887Y-126257541D01*
X91310465Y-126363599D01*
X91422547Y-126440016D01*
X91530299Y-126473253D01*
X90966672Y-127036879D01*
X90966672Y-127036881D01*
X91082816Y-127108795D01*
X91290198Y-127189135D01*
X91508806Y-127230000D01*
X91731194Y-127230000D01*
X91949801Y-127189135D01*
X92157180Y-127108797D01*
X92273326Y-127036880D01*
X92273326Y-127036879D01*
X91708232Y-126471784D01*
X91754138Y-126464865D01*
X91876357Y-126406007D01*
X91975798Y-126313740D01*
X92043625Y-126196260D01*
X92061499Y-126117946D01*
X92628861Y-126685308D01*
X92644632Y-126664424D01*
X92743761Y-126465347D01*
X92804621Y-126251445D01*
X92825140Y-126030000D01*
X92804621Y-125808554D01*
X92743762Y-125594654D01*
X92644630Y-125395572D01*
X92628860Y-125374690D01*
X92064449Y-125939101D01*
X92063673Y-125928735D01*
X92014113Y-125802459D01*
X91929535Y-125696401D01*
X91817453Y-125619984D01*
X91709700Y-125586747D01*
X92273327Y-125023119D01*
X92157179Y-124951202D01*
X91949801Y-124870864D01*
X91731194Y-124830000D01*
X91508806Y-124830000D01*
X91290198Y-124870864D01*
X91082821Y-124951202D01*
X90966671Y-125023119D01*
X91531768Y-125588215D01*
X91485862Y-125595135D01*
X91363643Y-125653993D01*
X91264202Y-125746260D01*
X91196375Y-125863740D01*
X91178500Y-125942053D01*
X90611138Y-125374691D01*
X90611137Y-125374691D01*
X90595368Y-125395574D01*
X90496237Y-125594654D01*
X90435378Y-125808554D01*
X90414859Y-126030000D01*
X82665140Y-126030000D01*
X82644621Y-125808554D01*
X82583762Y-125594654D01*
X82484630Y-125395572D01*
X82468860Y-125374690D01*
X81904449Y-125939101D01*
X81903673Y-125928735D01*
X81854113Y-125802459D01*
X81769535Y-125696401D01*
X81657453Y-125619984D01*
X81549700Y-125586747D01*
X82113327Y-125023119D01*
X81997179Y-124951202D01*
X81789801Y-124870864D01*
X81571194Y-124830000D01*
X81348806Y-124830000D01*
X81130198Y-124870864D01*
X80922821Y-124951202D01*
X80806671Y-125023119D01*
X81371768Y-125588215D01*
X81325862Y-125595135D01*
X81203643Y-125653993D01*
X81104202Y-125746260D01*
X81036375Y-125863740D01*
X81018500Y-125942053D01*
X80451138Y-125374691D01*
X80451137Y-125374691D01*
X80435368Y-125395574D01*
X80336237Y-125594654D01*
X80275378Y-125808554D01*
X80254859Y-126030000D01*
X51910500Y-126030000D01*
X51910500Y-124199999D01*
X56344540Y-124199999D01*
X56364326Y-124388257D01*
X56422820Y-124568284D01*
X56517466Y-124732216D01*
X56644129Y-124872889D01*
X56797269Y-124984151D01*
X56970197Y-125061144D01*
X57155352Y-125100500D01*
X57155354Y-125100500D01*
X57344648Y-125100500D01*
X57468083Y-125074262D01*
X57529803Y-125061144D01*
X57702730Y-124984151D01*
X57855871Y-124872888D01*
X57982533Y-124732216D01*
X58077179Y-124568284D01*
X58135674Y-124388256D01*
X58155460Y-124200000D01*
X58135674Y-124011744D01*
X58105332Y-123918363D01*
X58077179Y-123831715D01*
X58001133Y-123699999D01*
X70744540Y-123699999D01*
X70764326Y-123888257D01*
X70822820Y-124068284D01*
X70917466Y-124232216D01*
X71044129Y-124372889D01*
X71197269Y-124484151D01*
X71370197Y-124561144D01*
X71555352Y-124600500D01*
X71555354Y-124600500D01*
X71744648Y-124600500D01*
X71868083Y-124574262D01*
X71929803Y-124561144D01*
X72102730Y-124484151D01*
X72255870Y-124372889D01*
X72382533Y-124232216D01*
X72477179Y-124068284D01*
X72495551Y-124011742D01*
X72535674Y-123888256D01*
X72555460Y-123700000D01*
X72535674Y-123511744D01*
X72477179Y-123331716D01*
X72477179Y-123331715D01*
X72382533Y-123167783D01*
X72255870Y-123027110D01*
X72102730Y-122915848D01*
X71929802Y-122838855D01*
X71744648Y-122799500D01*
X71744646Y-122799500D01*
X71555354Y-122799500D01*
X71555352Y-122799500D01*
X71370197Y-122838855D01*
X71197269Y-122915848D01*
X71044129Y-123027110D01*
X70917466Y-123167783D01*
X70822820Y-123331715D01*
X70764326Y-123511742D01*
X70744540Y-123699999D01*
X58001133Y-123699999D01*
X57982533Y-123667783D01*
X57855870Y-123527110D01*
X57702730Y-123415848D01*
X57529802Y-123338855D01*
X57344648Y-123299500D01*
X57344646Y-123299500D01*
X57155354Y-123299500D01*
X57155352Y-123299500D01*
X56970197Y-123338855D01*
X56797269Y-123415848D01*
X56644129Y-123527110D01*
X56517466Y-123667783D01*
X56422820Y-123831715D01*
X56364326Y-124011742D01*
X56344540Y-124199999D01*
X51910500Y-124199999D01*
X51910500Y-121719999D01*
X57034858Y-121719999D01*
X57055386Y-121967732D01*
X57116413Y-122208721D01*
X57216268Y-122436370D01*
X57316563Y-122589882D01*
X57316564Y-122589882D01*
X58014070Y-121892375D01*
X58016884Y-121905915D01*
X58086442Y-122040156D01*
X58189638Y-122150652D01*
X58318819Y-122229209D01*
X58370002Y-122243549D01*
X57669942Y-122943609D01*
X57669942Y-122943610D01*
X57716766Y-122980055D01*
X57935393Y-123098368D01*
X58170506Y-123179083D01*
X58415707Y-123220000D01*
X58664293Y-123220000D01*
X58909493Y-123179083D01*
X59144606Y-123098368D01*
X59363233Y-122980053D01*
X59410056Y-122943609D01*
X58711568Y-122245121D01*
X58828458Y-122194349D01*
X58945739Y-122098934D01*
X59032928Y-121975415D01*
X59063354Y-121889802D01*
X59763434Y-122589882D01*
X59863730Y-122436369D01*
X59963586Y-122208721D01*
X60024613Y-121967732D01*
X60045141Y-121719999D01*
X68034858Y-121719999D01*
X68055386Y-121967732D01*
X68116413Y-122208721D01*
X68216268Y-122436370D01*
X68316563Y-122589882D01*
X68316564Y-122589882D01*
X69014070Y-121892375D01*
X69016884Y-121905915D01*
X69086442Y-122040156D01*
X69189638Y-122150652D01*
X69318819Y-122229209D01*
X69370002Y-122243549D01*
X68669942Y-122943609D01*
X68669942Y-122943610D01*
X68716766Y-122980055D01*
X68935393Y-123098368D01*
X69170506Y-123179083D01*
X69415707Y-123220000D01*
X69664293Y-123220000D01*
X69909493Y-123179083D01*
X70144606Y-123098368D01*
X70363233Y-122980053D01*
X70410056Y-122943609D01*
X69711568Y-122245121D01*
X69828458Y-122194349D01*
X69945739Y-122098934D01*
X70032928Y-121975415D01*
X70063354Y-121889802D01*
X70763434Y-122589882D01*
X70863730Y-122436369D01*
X70963586Y-122208721D01*
X71024613Y-121967732D01*
X71045141Y-121720000D01*
X71024613Y-121472267D01*
X70963586Y-121231278D01*
X70863730Y-121003630D01*
X70763434Y-120850116D01*
X70065929Y-121547622D01*
X70063116Y-121534085D01*
X69993558Y-121399844D01*
X69890362Y-121289348D01*
X69761181Y-121210791D01*
X69709995Y-121196449D01*
X70410056Y-120496389D01*
X70410056Y-120496387D01*
X70363235Y-120459947D01*
X70144607Y-120341631D01*
X70131930Y-120337279D01*
X70074916Y-120296891D01*
X70048788Y-120232091D01*
X70061841Y-120163452D01*
X70109932Y-120112765D01*
X70131940Y-120102716D01*
X70144609Y-120098367D01*
X70363233Y-119980053D01*
X70410056Y-119943609D01*
X69711568Y-119245121D01*
X69828458Y-119194349D01*
X69945739Y-119098934D01*
X70032928Y-118975415D01*
X70063354Y-118889802D01*
X70763434Y-119589882D01*
X70863730Y-119436369D01*
X70963586Y-119208721D01*
X71024613Y-118967732D01*
X71045141Y-118720000D01*
X71024613Y-118472267D01*
X71008845Y-118410000D01*
X80254357Y-118410000D01*
X80274885Y-118631537D01*
X80335769Y-118845526D01*
X80434941Y-119044688D01*
X80569019Y-119222237D01*
X80733437Y-119372124D01*
X80922595Y-119489245D01*
X80922597Y-119489245D01*
X80922599Y-119489247D01*
X81130060Y-119569618D01*
X81348757Y-119610500D01*
X81348759Y-119610500D01*
X81571241Y-119610500D01*
X81571243Y-119610500D01*
X81789940Y-119569618D01*
X81997401Y-119489247D01*
X82186562Y-119372124D01*
X82186561Y-119372123D01*
X82350980Y-119222237D01*
X82372040Y-119194349D01*
X82485058Y-119044689D01*
X82584229Y-118845528D01*
X82645115Y-118631536D01*
X82665643Y-118410000D01*
X82665643Y-118409999D01*
X90414357Y-118409999D01*
X90434885Y-118631537D01*
X90495769Y-118845526D01*
X90594941Y-119044688D01*
X90729019Y-119222237D01*
X90893437Y-119372124D01*
X91082595Y-119489245D01*
X91082597Y-119489245D01*
X91082599Y-119489247D01*
X91290060Y-119569618D01*
X91508757Y-119610500D01*
X91508759Y-119610500D01*
X91731241Y-119610500D01*
X91731243Y-119610500D01*
X91949940Y-119569618D01*
X92157401Y-119489247D01*
X92346562Y-119372124D01*
X92346562Y-119372123D01*
X92510980Y-119222237D01*
X92532040Y-119194349D01*
X92645058Y-119044689D01*
X92744229Y-118845528D01*
X92805115Y-118631536D01*
X92825643Y-118410000D01*
X92805115Y-118188464D01*
X92782227Y-118108021D01*
X92744230Y-117974473D01*
X92645058Y-117775311D01*
X92510980Y-117597762D01*
X92346562Y-117447875D01*
X92157404Y-117330754D01*
X92096174Y-117307033D01*
X91949940Y-117250382D01*
X91731243Y-117209500D01*
X91508757Y-117209500D01*
X91290060Y-117250382D01*
X91082595Y-117330754D01*
X90893437Y-117447875D01*
X90729019Y-117597762D01*
X90594941Y-117775311D01*
X90495769Y-117974473D01*
X90434885Y-118188462D01*
X90414357Y-118409999D01*
X82665643Y-118409999D01*
X82645115Y-118188464D01*
X82622227Y-118108021D01*
X82584230Y-117974473D01*
X82485058Y-117775311D01*
X82350980Y-117597762D01*
X82186562Y-117447875D01*
X81997404Y-117330754D01*
X81936174Y-117307033D01*
X81789940Y-117250382D01*
X81571243Y-117209500D01*
X81348757Y-117209500D01*
X81130060Y-117250382D01*
X80922595Y-117330754D01*
X80733437Y-117447875D01*
X80569019Y-117597762D01*
X80434941Y-117775311D01*
X80335769Y-117974473D01*
X80274885Y-118188462D01*
X80254357Y-118410000D01*
X71008845Y-118410000D01*
X70963586Y-118231278D01*
X70863730Y-118003630D01*
X70763434Y-117850116D01*
X70065928Y-118547621D01*
X70063116Y-118534085D01*
X69993558Y-118399844D01*
X69890362Y-118289348D01*
X69761181Y-118210791D01*
X69709997Y-118196450D01*
X70410057Y-117496390D01*
X70410056Y-117496388D01*
X70363235Y-117459947D01*
X70144606Y-117341631D01*
X69909493Y-117260916D01*
X69664293Y-117220000D01*
X69415707Y-117220000D01*
X69170506Y-117260916D01*
X68935393Y-117341631D01*
X68716764Y-117459946D01*
X68669942Y-117496388D01*
X68669942Y-117496390D01*
X69368431Y-118194878D01*
X69251542Y-118245651D01*
X69134261Y-118341066D01*
X69047072Y-118464585D01*
X69016645Y-118550197D01*
X68316564Y-117850116D01*
X68216266Y-118003634D01*
X68116413Y-118231278D01*
X68055386Y-118472267D01*
X68034858Y-118720000D01*
X68055386Y-118967732D01*
X68116413Y-119208721D01*
X68216268Y-119436370D01*
X68316563Y-119589882D01*
X68316564Y-119589882D01*
X69014070Y-118892376D01*
X69016884Y-118905915D01*
X69086442Y-119040156D01*
X69189638Y-119150652D01*
X69318819Y-119229209D01*
X69370002Y-119243549D01*
X68669942Y-119943609D01*
X68669942Y-119943610D01*
X68716766Y-119980055D01*
X68935387Y-120098365D01*
X68948061Y-120102716D01*
X69005078Y-120143100D01*
X69031210Y-120207899D01*
X69018161Y-120276539D01*
X68970074Y-120327228D01*
X68948070Y-120337278D01*
X68935397Y-120341629D01*
X68716764Y-120459946D01*
X68669942Y-120496388D01*
X68669941Y-120496389D01*
X69368431Y-121194878D01*
X69251542Y-121245651D01*
X69134261Y-121341066D01*
X69047072Y-121464585D01*
X69016645Y-121550197D01*
X68316564Y-120850116D01*
X68216266Y-121003634D01*
X68116413Y-121231278D01*
X68055386Y-121472267D01*
X68034858Y-121719999D01*
X60045141Y-121719999D01*
X60024613Y-121472267D01*
X59963586Y-121231278D01*
X59863730Y-121003630D01*
X59763434Y-120850116D01*
X59065929Y-121547622D01*
X59063116Y-121534085D01*
X58993558Y-121399844D01*
X58890362Y-121289348D01*
X58761181Y-121210791D01*
X58709997Y-121196450D01*
X59410057Y-120496390D01*
X59410056Y-120496388D01*
X59363235Y-120459947D01*
X59144607Y-120341631D01*
X59131930Y-120337279D01*
X59074916Y-120296891D01*
X59048788Y-120232091D01*
X59061841Y-120163452D01*
X59109932Y-120112765D01*
X59131940Y-120102716D01*
X59144609Y-120098367D01*
X59363233Y-119980053D01*
X59410056Y-119943609D01*
X58711567Y-119245121D01*
X58828458Y-119194349D01*
X58945739Y-119098934D01*
X59032928Y-118975415D01*
X59063354Y-118889802D01*
X59763434Y-119589882D01*
X59863730Y-119436369D01*
X59963586Y-119208721D01*
X60024613Y-118967732D01*
X60037331Y-118814260D01*
X60062484Y-118749075D01*
X60118886Y-118707837D01*
X60160907Y-118700500D01*
X60244648Y-118700500D01*
X60368083Y-118674262D01*
X60429803Y-118661144D01*
X60602730Y-118584151D01*
X60755871Y-118472888D01*
X60882533Y-118332216D01*
X60977179Y-118168284D01*
X61035674Y-117988256D01*
X61055460Y-117800000D01*
X61035674Y-117611744D01*
X60982430Y-117447876D01*
X60977179Y-117431715D01*
X60882533Y-117267783D01*
X60755870Y-117127110D01*
X60602730Y-117015848D01*
X60429802Y-116938855D01*
X60244648Y-116899500D01*
X60244646Y-116899500D01*
X60055354Y-116899500D01*
X60055352Y-116899500D01*
X59870197Y-116938855D01*
X59697269Y-117015848D01*
X59544129Y-117127110D01*
X59417467Y-117267782D01*
X59380337Y-117332094D01*
X59329769Y-117380309D01*
X59261162Y-117393531D01*
X59213933Y-117379148D01*
X59144607Y-117341631D01*
X58909493Y-117260916D01*
X58664293Y-117220000D01*
X58415707Y-117220000D01*
X58170506Y-117260916D01*
X57935393Y-117341631D01*
X57716764Y-117459946D01*
X57669942Y-117496388D01*
X57669942Y-117496390D01*
X58368431Y-118194878D01*
X58251542Y-118245651D01*
X58134261Y-118341066D01*
X58047072Y-118464585D01*
X58016645Y-118550197D01*
X57316564Y-117850116D01*
X57216266Y-118003634D01*
X57116413Y-118231278D01*
X57055386Y-118472267D01*
X57034858Y-118719999D01*
X57055386Y-118967732D01*
X57116413Y-119208721D01*
X57216268Y-119436370D01*
X57316563Y-119589882D01*
X57316564Y-119589882D01*
X58014070Y-118892375D01*
X58016884Y-118905915D01*
X58086442Y-119040156D01*
X58189638Y-119150652D01*
X58318819Y-119229209D01*
X58370002Y-119243549D01*
X57669942Y-119943609D01*
X57669942Y-119943610D01*
X57716766Y-119980055D01*
X57935387Y-120098365D01*
X57948061Y-120102716D01*
X58005078Y-120143100D01*
X58031210Y-120207899D01*
X58018161Y-120276539D01*
X57970074Y-120327228D01*
X57948070Y-120337278D01*
X57935397Y-120341629D01*
X57716764Y-120459946D01*
X57669942Y-120496388D01*
X57669942Y-120496390D01*
X58368431Y-121194878D01*
X58251542Y-121245651D01*
X58134261Y-121341066D01*
X58047072Y-121464585D01*
X58016645Y-121550197D01*
X57316564Y-120850116D01*
X57216266Y-121003634D01*
X57116413Y-121231278D01*
X57055386Y-121472267D01*
X57034858Y-121719999D01*
X51910500Y-121719999D01*
X51910500Y-115470000D01*
X60209436Y-115470000D01*
X60229650Y-115701047D01*
X60289680Y-115925080D01*
X60314921Y-115979209D01*
X60387699Y-116135282D01*
X60520730Y-116325269D01*
X60684731Y-116489270D01*
X60874718Y-116622301D01*
X61084921Y-116720320D01*
X61308950Y-116780349D01*
X61540000Y-116800563D01*
X61771050Y-116780349D01*
X61995079Y-116720320D01*
X62205282Y-116622301D01*
X62395269Y-116489270D01*
X62559270Y-116325269D01*
X62688731Y-116140380D01*
X62743306Y-116096757D01*
X62812804Y-116089564D01*
X62875159Y-116121086D01*
X62891879Y-116140382D01*
X62943022Y-116213422D01*
X62943024Y-116213423D01*
X63514070Y-115642376D01*
X63516884Y-115655915D01*
X63586442Y-115790156D01*
X63689638Y-115900652D01*
X63818819Y-115979209D01*
X63870002Y-115993549D01*
X63296575Y-116566975D01*
X63296575Y-116566976D01*
X63374967Y-116621866D01*
X63585092Y-116719848D01*
X63809038Y-116779854D01*
X64040000Y-116800061D01*
X64270961Y-116779854D01*
X64494907Y-116719848D01*
X64705028Y-116621867D01*
X64783423Y-116566975D01*
X64211568Y-115995121D01*
X64328458Y-115944349D01*
X64445739Y-115848934D01*
X64532928Y-115725415D01*
X64563354Y-115639802D01*
X65136975Y-116213423D01*
X65188120Y-116140381D01*
X65242697Y-116096756D01*
X65312195Y-116089562D01*
X65374550Y-116121085D01*
X65391263Y-116140372D01*
X65520730Y-116325269D01*
X65684731Y-116489270D01*
X65874718Y-116622301D01*
X66084921Y-116720320D01*
X66308950Y-116780349D01*
X66540000Y-116800563D01*
X66771050Y-116780349D01*
X66995079Y-116720320D01*
X67205282Y-116622301D01*
X67395269Y-116489270D01*
X67559270Y-116325269D01*
X67692301Y-116135282D01*
X67790320Y-115925079D01*
X67850349Y-115701050D01*
X67870563Y-115470000D01*
X67851316Y-115250000D01*
X93984562Y-115250000D01*
X94004280Y-115513122D01*
X94062996Y-115770372D01*
X94159396Y-116015994D01*
X94291326Y-116244505D01*
X94355734Y-116325269D01*
X94455843Y-116450802D01*
X94649268Y-116630274D01*
X94867282Y-116778913D01*
X95105013Y-116893399D01*
X95357153Y-116971174D01*
X95618069Y-117010500D01*
X95881931Y-117010500D01*
X96142847Y-116971174D01*
X96394987Y-116893399D01*
X96632719Y-116778913D01*
X96850732Y-116630274D01*
X97044157Y-116450802D01*
X97208673Y-116244506D01*
X97340604Y-116015994D01*
X97437004Y-115770372D01*
X97495719Y-115513125D01*
X97515437Y-115250000D01*
X97495719Y-114986875D01*
X97437004Y-114729628D01*
X97340604Y-114484006D01*
X97208673Y-114255494D01*
X97044157Y-114049198D01*
X96917572Y-113931744D01*
X96850734Y-113869727D01*
X96771075Y-113815417D01*
X96632719Y-113721087D01*
X96394987Y-113606601D01*
X96317210Y-113582610D01*
X96142846Y-113528825D01*
X95881931Y-113489500D01*
X95618069Y-113489500D01*
X95357153Y-113528825D01*
X95105013Y-113606601D01*
X94867284Y-113721085D01*
X94649266Y-113869727D01*
X94455842Y-114049198D01*
X94291326Y-114255494D01*
X94159396Y-114484005D01*
X94062996Y-114729627D01*
X94004280Y-114986877D01*
X93984562Y-115250000D01*
X67851316Y-115250000D01*
X67850349Y-115238950D01*
X67790320Y-115014921D01*
X67692301Y-114804719D01*
X67559270Y-114614731D01*
X67395269Y-114450730D01*
X67205282Y-114317699D01*
X67071883Y-114255494D01*
X66995080Y-114219680D01*
X66771047Y-114159650D01*
X66540000Y-114139436D01*
X66308952Y-114159650D01*
X66084919Y-114219680D01*
X65874721Y-114317698D01*
X65874719Y-114317699D01*
X65795707Y-114373024D01*
X65684727Y-114450733D01*
X65520733Y-114614727D01*
X65520730Y-114614730D01*
X65520730Y-114614731D01*
X65391268Y-114799621D01*
X65336693Y-114843244D01*
X65267194Y-114850437D01*
X65204840Y-114818915D01*
X65188120Y-114799620D01*
X65136974Y-114726576D01*
X64565928Y-115297621D01*
X64563116Y-115284085D01*
X64493558Y-115149844D01*
X64390362Y-115039348D01*
X64261181Y-114960791D01*
X64209997Y-114946450D01*
X64783423Y-114373024D01*
X64783422Y-114373023D01*
X64705032Y-114318133D01*
X64494907Y-114220151D01*
X64270961Y-114160145D01*
X64039999Y-114139938D01*
X63809038Y-114160145D01*
X63585092Y-114220151D01*
X63374968Y-114318133D01*
X63296577Y-114373023D01*
X63296576Y-114373024D01*
X63868431Y-114944878D01*
X63751542Y-114995651D01*
X63634261Y-115091066D01*
X63547072Y-115214585D01*
X63516645Y-115300197D01*
X62943024Y-114726576D01*
X62943024Y-114726577D01*
X62891879Y-114799619D01*
X62837301Y-114843244D01*
X62767803Y-114850436D01*
X62705448Y-114818914D01*
X62688729Y-114799618D01*
X62559270Y-114614731D01*
X62395269Y-114450730D01*
X62205282Y-114317699D01*
X62071883Y-114255494D01*
X61995080Y-114219680D01*
X61771047Y-114159650D01*
X61540000Y-114139436D01*
X61308952Y-114159650D01*
X61084919Y-114219680D01*
X60874721Y-114317698D01*
X60874719Y-114317699D01*
X60795707Y-114373024D01*
X60684727Y-114450733D01*
X60520733Y-114614727D01*
X60520730Y-114614730D01*
X60520730Y-114614731D01*
X60391270Y-114799620D01*
X60387698Y-114804721D01*
X60289680Y-115014919D01*
X60229650Y-115238952D01*
X60209436Y-115470000D01*
X51910500Y-115470000D01*
X51910500Y-112409999D01*
X80214859Y-112409999D01*
X80235378Y-112631445D01*
X80296238Y-112845347D01*
X80395367Y-113044425D01*
X80411137Y-113065308D01*
X80411138Y-113065308D01*
X80975550Y-112500896D01*
X80976327Y-112511265D01*
X81025887Y-112637541D01*
X81110465Y-112743599D01*
X81222547Y-112820016D01*
X81330299Y-112853253D01*
X80766672Y-113416879D01*
X80766672Y-113416881D01*
X80882816Y-113488795D01*
X81090198Y-113569135D01*
X81308806Y-113610000D01*
X81531194Y-113610000D01*
X81749801Y-113569135D01*
X81957180Y-113488797D01*
X82073326Y-113416880D01*
X82073326Y-113416879D01*
X81508232Y-112851784D01*
X81554138Y-112844865D01*
X81676357Y-112786007D01*
X81775798Y-112693740D01*
X81843625Y-112576260D01*
X81861499Y-112497946D01*
X82428861Y-113065308D01*
X82444632Y-113044424D01*
X82543761Y-112845347D01*
X82604621Y-112631445D01*
X82625140Y-112410000D01*
X90374859Y-112410000D01*
X90395378Y-112631445D01*
X90456238Y-112845347D01*
X90555367Y-113044425D01*
X90571137Y-113065308D01*
X90571138Y-113065308D01*
X91135550Y-112500896D01*
X91136327Y-112511265D01*
X91185887Y-112637541D01*
X91270465Y-112743599D01*
X91382547Y-112820016D01*
X91490299Y-112853253D01*
X90926672Y-113416879D01*
X90926672Y-113416881D01*
X91042816Y-113488795D01*
X91250198Y-113569135D01*
X91468806Y-113610000D01*
X91691194Y-113610000D01*
X91909801Y-113569135D01*
X92117180Y-113488797D01*
X92233326Y-113416880D01*
X92233326Y-113416879D01*
X91668232Y-112851784D01*
X91714138Y-112844865D01*
X91836357Y-112786007D01*
X91935798Y-112693740D01*
X92003625Y-112576260D01*
X92021499Y-112497946D01*
X92588861Y-113065308D01*
X92604632Y-113044424D01*
X92703761Y-112845347D01*
X92764621Y-112631445D01*
X92785140Y-112410000D01*
X92764621Y-112188554D01*
X92703762Y-111974654D01*
X92604630Y-111775572D01*
X92588860Y-111754690D01*
X92024449Y-112319101D01*
X92023673Y-112308735D01*
X91974113Y-112182459D01*
X91889535Y-112076401D01*
X91777453Y-111999984D01*
X91669700Y-111966747D01*
X92233327Y-111403119D01*
X92117179Y-111331202D01*
X91909801Y-111250864D01*
X91691194Y-111210000D01*
X91468806Y-111210000D01*
X91250198Y-111250864D01*
X91042821Y-111331202D01*
X90926671Y-111403119D01*
X91491768Y-111968215D01*
X91445862Y-111975135D01*
X91323643Y-112033993D01*
X91224202Y-112126260D01*
X91156375Y-112243740D01*
X91138500Y-112322053D01*
X90571137Y-111754691D01*
X90555368Y-111775574D01*
X90456237Y-111974654D01*
X90395378Y-112188554D01*
X90374859Y-112410000D01*
X82625140Y-112410000D01*
X82625140Y-112409999D01*
X82604621Y-112188554D01*
X82543762Y-111974654D01*
X82444630Y-111775572D01*
X82428860Y-111754690D01*
X81864449Y-112319101D01*
X81863673Y-112308735D01*
X81814113Y-112182459D01*
X81729535Y-112076401D01*
X81617453Y-111999984D01*
X81509700Y-111966747D01*
X82073327Y-111403119D01*
X81957179Y-111331202D01*
X81749801Y-111250864D01*
X81531194Y-111210000D01*
X81308806Y-111210000D01*
X81090198Y-111250864D01*
X80882821Y-111331202D01*
X80766671Y-111403119D01*
X81331768Y-111968215D01*
X81285862Y-111975135D01*
X81163643Y-112033993D01*
X81064202Y-112126260D01*
X80996375Y-112243740D01*
X80978500Y-112322053D01*
X80411137Y-111754691D01*
X80395368Y-111775574D01*
X80296237Y-111974654D01*
X80235378Y-112188554D01*
X80214859Y-112409999D01*
X51910500Y-112409999D01*
X51910500Y-107970000D01*
X55254145Y-107970000D01*
X55254340Y-107973472D01*
X55263627Y-108138855D01*
X55273548Y-108315506D01*
X55274127Y-108318916D01*
X55274129Y-108318930D01*
X55330930Y-108653233D01*
X55330932Y-108653242D01*
X55331514Y-108656667D01*
X55332475Y-108660004D01*
X55332477Y-108660011D01*
X55426349Y-108985849D01*
X55426352Y-108985858D01*
X55427313Y-108989193D01*
X55428642Y-108992401D01*
X55428645Y-108992410D01*
X55509768Y-109188257D01*
X55559741Y-109308902D01*
X55561423Y-109311945D01*
X55725453Y-109608737D01*
X55725457Y-109608743D01*
X55727132Y-109611774D01*
X55799535Y-109713817D01*
X55925358Y-109891149D01*
X55927381Y-109893999D01*
X55929695Y-109896589D01*
X55929698Y-109896592D01*
X56155660Y-110149443D01*
X56157971Y-110152029D01*
X56416001Y-110382619D01*
X56698226Y-110582868D01*
X57001098Y-110750259D01*
X57320807Y-110882687D01*
X57653333Y-110978486D01*
X57994494Y-111036452D01*
X58340000Y-111055855D01*
X58685506Y-111036452D01*
X59026667Y-110978486D01*
X59359193Y-110882687D01*
X59678902Y-110750259D01*
X59981774Y-110582868D01*
X60263999Y-110382619D01*
X60522029Y-110152029D01*
X60752619Y-109893999D01*
X60952868Y-109611774D01*
X61120259Y-109308902D01*
X61248211Y-108999999D01*
X65744540Y-108999999D01*
X65764326Y-109188257D01*
X65822820Y-109368284D01*
X65917466Y-109532216D01*
X66044129Y-109672889D01*
X66197269Y-109784151D01*
X66370197Y-109861144D01*
X66555352Y-109900500D01*
X66555354Y-109900500D01*
X66744648Y-109900500D01*
X66868084Y-109874262D01*
X66929803Y-109861144D01*
X67102730Y-109784151D01*
X67102730Y-109784150D01*
X67114636Y-109778850D01*
X67115700Y-109781241D01*
X67163879Y-109764046D01*
X67231935Y-109779865D01*
X67272099Y-109816088D01*
X67325358Y-109891149D01*
X67325365Y-109891158D01*
X67327381Y-109893999D01*
X67329695Y-109896589D01*
X67329698Y-109896592D01*
X67555660Y-110149443D01*
X67557971Y-110152029D01*
X67816001Y-110382619D01*
X68098226Y-110582868D01*
X68401098Y-110750259D01*
X68720807Y-110882687D01*
X69053333Y-110978486D01*
X69394494Y-111036452D01*
X69740000Y-111055855D01*
X70085506Y-111036452D01*
X70426667Y-110978486D01*
X70759193Y-110882687D01*
X71078902Y-110750259D01*
X71381774Y-110582868D01*
X71663999Y-110382619D01*
X71922029Y-110152029D01*
X72152619Y-109893999D01*
X72352868Y-109611774D01*
X72520259Y-109308902D01*
X72652687Y-108989193D01*
X72748486Y-108656667D01*
X72806452Y-108315506D01*
X72825855Y-107970000D01*
X72806452Y-107624494D01*
X72748486Y-107283333D01*
X72652687Y-106950807D01*
X72520259Y-106631098D01*
X72352868Y-106328226D01*
X72152619Y-106046001D01*
X71922029Y-105787971D01*
X71663999Y-105557381D01*
X71381774Y-105357132D01*
X71378743Y-105355457D01*
X71378737Y-105355453D01*
X71081945Y-105191423D01*
X71078902Y-105189741D01*
X71075691Y-105188411D01*
X71075687Y-105188409D01*
X70762410Y-105058645D01*
X70762401Y-105058642D01*
X70759193Y-105057313D01*
X70755858Y-105056352D01*
X70755849Y-105056349D01*
X70430011Y-104962477D01*
X70430004Y-104962475D01*
X70426667Y-104961514D01*
X70423242Y-104960932D01*
X70423233Y-104960930D01*
X70088930Y-104904129D01*
X70088916Y-104904127D01*
X70085506Y-104903548D01*
X70082042Y-104903353D01*
X70082038Y-104903353D01*
X69743472Y-104884340D01*
X69740000Y-104884145D01*
X69736528Y-104884340D01*
X69397961Y-104903353D01*
X69397955Y-104903353D01*
X69394494Y-104903548D01*
X69391085Y-104904127D01*
X69391069Y-104904129D01*
X69056766Y-104960930D01*
X69056753Y-104960932D01*
X69053333Y-104961514D01*
X69049999Y-104962474D01*
X69049988Y-104962477D01*
X68724150Y-105056349D01*
X68724135Y-105056354D01*
X68720807Y-105057313D01*
X68717603Y-105058639D01*
X68717589Y-105058645D01*
X68404312Y-105188409D01*
X68404301Y-105188414D01*
X68401098Y-105189741D01*
X68398058Y-105191420D01*
X68398054Y-105191423D01*
X68101262Y-105355453D01*
X68101247Y-105355461D01*
X68098226Y-105357132D01*
X68095400Y-105359136D01*
X68095397Y-105359139D01*
X67818838Y-105555367D01*
X67818826Y-105555376D01*
X67816001Y-105557381D01*
X67813418Y-105559688D01*
X67813407Y-105559698D01*
X67560556Y-105785660D01*
X67560547Y-105785668D01*
X67557971Y-105787971D01*
X67555668Y-105790547D01*
X67555660Y-105790556D01*
X67329698Y-106043407D01*
X67329688Y-106043418D01*
X67327381Y-106046001D01*
X67325376Y-106048826D01*
X67325367Y-106048838D01*
X67129139Y-106325397D01*
X67127132Y-106328226D01*
X67125461Y-106331247D01*
X67125453Y-106331262D01*
X66961423Y-106628054D01*
X66959741Y-106631098D01*
X66958414Y-106634301D01*
X66958409Y-106634312D01*
X66828645Y-106947589D01*
X66828639Y-106947603D01*
X66827313Y-106950807D01*
X66826354Y-106954135D01*
X66826349Y-106954150D01*
X66732477Y-107279988D01*
X66732474Y-107279999D01*
X66731514Y-107283333D01*
X66730932Y-107286753D01*
X66730930Y-107286766D01*
X66674129Y-107621069D01*
X66674127Y-107621085D01*
X66673548Y-107624494D01*
X66654145Y-107970000D01*
X66654340Y-107973472D01*
X66654340Y-107976952D01*
X66654182Y-107971275D01*
X66638270Y-108039188D01*
X66588083Y-108087799D01*
X66556181Y-108099323D01*
X66370197Y-108138855D01*
X66197269Y-108215848D01*
X66044129Y-108327110D01*
X65917466Y-108467783D01*
X65822820Y-108631715D01*
X65764326Y-108811742D01*
X65744540Y-108999999D01*
X61248211Y-108999999D01*
X61252687Y-108989193D01*
X61348486Y-108656667D01*
X61406452Y-108315506D01*
X61425855Y-107970000D01*
X61406452Y-107624494D01*
X61348486Y-107283333D01*
X61252687Y-106950807D01*
X61120259Y-106631098D01*
X60952868Y-106328226D01*
X60752619Y-106046001D01*
X60522029Y-105787971D01*
X60263999Y-105557381D01*
X59981774Y-105357132D01*
X59978743Y-105355457D01*
X59978737Y-105355453D01*
X59681945Y-105191423D01*
X59678902Y-105189741D01*
X59675691Y-105188411D01*
X59675687Y-105188409D01*
X59362410Y-105058645D01*
X59362401Y-105058642D01*
X59359193Y-105057313D01*
X59355858Y-105056352D01*
X59355849Y-105056349D01*
X59030011Y-104962477D01*
X59030004Y-104962475D01*
X59026667Y-104961514D01*
X59023242Y-104960932D01*
X59023233Y-104960930D01*
X58688930Y-104904129D01*
X58688916Y-104904127D01*
X58685506Y-104903548D01*
X58682042Y-104903353D01*
X58682038Y-104903353D01*
X58343472Y-104884340D01*
X58340000Y-104884145D01*
X58336528Y-104884340D01*
X57997961Y-104903353D01*
X57997955Y-104903353D01*
X57994494Y-104903548D01*
X57991085Y-104904127D01*
X57991069Y-104904129D01*
X57656766Y-104960930D01*
X57656753Y-104960932D01*
X57653333Y-104961514D01*
X57649999Y-104962474D01*
X57649988Y-104962477D01*
X57324150Y-105056349D01*
X57324135Y-105056354D01*
X57320807Y-105057313D01*
X57317603Y-105058639D01*
X57317589Y-105058645D01*
X57004312Y-105188409D01*
X57004301Y-105188414D01*
X57001098Y-105189741D01*
X56998058Y-105191420D01*
X56998054Y-105191423D01*
X56701262Y-105355453D01*
X56701247Y-105355461D01*
X56698226Y-105357132D01*
X56695400Y-105359136D01*
X56695397Y-105359139D01*
X56418838Y-105555367D01*
X56418826Y-105555376D01*
X56416001Y-105557381D01*
X56413418Y-105559688D01*
X56413407Y-105559698D01*
X56160556Y-105785660D01*
X56160547Y-105785668D01*
X56157971Y-105787971D01*
X56155668Y-105790547D01*
X56155660Y-105790556D01*
X55929698Y-106043407D01*
X55929688Y-106043418D01*
X55927381Y-106046001D01*
X55925376Y-106048826D01*
X55925367Y-106048838D01*
X55729139Y-106325397D01*
X55727132Y-106328226D01*
X55725461Y-106331247D01*
X55725453Y-106331262D01*
X55561423Y-106628054D01*
X55559741Y-106631098D01*
X55558414Y-106634301D01*
X55558409Y-106634312D01*
X55428645Y-106947589D01*
X55428639Y-106947603D01*
X55427313Y-106950807D01*
X55426354Y-106954135D01*
X55426349Y-106954150D01*
X55332477Y-107279988D01*
X55332474Y-107279999D01*
X55331514Y-107283333D01*
X55330932Y-107286753D01*
X55330930Y-107286766D01*
X55274129Y-107621069D01*
X55274127Y-107621085D01*
X55273548Y-107624494D01*
X55254145Y-107970000D01*
X51910500Y-107970000D01*
X51910500Y-104790000D01*
X80214357Y-104790000D01*
X80234885Y-105011537D01*
X80295769Y-105225526D01*
X80394941Y-105424688D01*
X80529019Y-105602237D01*
X80693437Y-105752124D01*
X80882595Y-105869245D01*
X80882597Y-105869245D01*
X80882599Y-105869247D01*
X81090060Y-105949618D01*
X81308757Y-105990500D01*
X81308759Y-105990500D01*
X81531241Y-105990500D01*
X81531243Y-105990500D01*
X81749940Y-105949618D01*
X81957401Y-105869247D01*
X82146562Y-105752124D01*
X82310981Y-105602236D01*
X82445058Y-105424689D01*
X82544229Y-105225528D01*
X82554412Y-105189741D01*
X82592090Y-105057313D01*
X82605115Y-105011536D01*
X82625643Y-104790000D01*
X90374357Y-104790000D01*
X90394885Y-105011537D01*
X90455769Y-105225526D01*
X90554941Y-105424688D01*
X90689019Y-105602237D01*
X90853437Y-105752124D01*
X91042595Y-105869245D01*
X91042597Y-105869245D01*
X91042599Y-105869247D01*
X91250060Y-105949618D01*
X91468757Y-105990500D01*
X91468759Y-105990500D01*
X91691241Y-105990500D01*
X91691243Y-105990500D01*
X91909940Y-105949618D01*
X92117401Y-105869247D01*
X92306562Y-105752124D01*
X92470981Y-105602236D01*
X92605058Y-105424689D01*
X92704229Y-105225528D01*
X92714412Y-105189741D01*
X92752090Y-105057313D01*
X92765115Y-105011536D01*
X92785643Y-104790000D01*
X92765115Y-104568464D01*
X92742227Y-104488021D01*
X92704230Y-104354473D01*
X92605058Y-104155311D01*
X92470980Y-103977762D01*
X92306562Y-103827875D01*
X92117404Y-103710754D01*
X92056174Y-103687033D01*
X91909940Y-103630382D01*
X91691243Y-103589500D01*
X91468757Y-103589500D01*
X91250060Y-103630382D01*
X91042595Y-103710754D01*
X90853437Y-103827875D01*
X90689019Y-103977762D01*
X90554941Y-104155311D01*
X90455769Y-104354473D01*
X90394885Y-104568462D01*
X90374357Y-104790000D01*
X82625643Y-104790000D01*
X82605115Y-104568464D01*
X82582227Y-104488021D01*
X82544230Y-104354473D01*
X82445058Y-104155311D01*
X82310980Y-103977762D01*
X82146562Y-103827875D01*
X81957404Y-103710754D01*
X81896174Y-103687033D01*
X81749940Y-103630382D01*
X81531243Y-103589500D01*
X81308757Y-103589500D01*
X81090059Y-103630382D01*
X81090060Y-103630382D01*
X80882595Y-103710754D01*
X80693437Y-103827875D01*
X80529019Y-103977762D01*
X80394941Y-104155311D01*
X80295769Y-104354473D01*
X80234885Y-104568462D01*
X80214357Y-104790000D01*
X51910500Y-104790000D01*
X51910500Y-100749999D01*
X56844540Y-100749999D01*
X56864326Y-100938257D01*
X56922820Y-101118284D01*
X57017466Y-101282216D01*
X57144129Y-101422889D01*
X57297269Y-101534151D01*
X57470197Y-101611144D01*
X57655352Y-101650500D01*
X57655354Y-101650500D01*
X57844648Y-101650500D01*
X57968083Y-101624262D01*
X58029803Y-101611144D01*
X58202730Y-101534151D01*
X58243426Y-101504584D01*
X58355870Y-101422889D01*
X58482533Y-101282216D01*
X58577179Y-101118284D01*
X58588659Y-101082953D01*
X58625360Y-100970000D01*
X60209436Y-100970000D01*
X60229650Y-101201047D01*
X60289680Y-101425080D01*
X60314921Y-101479209D01*
X60387699Y-101635282D01*
X60520730Y-101825269D01*
X60684731Y-101989270D01*
X60874718Y-102122301D01*
X61084921Y-102220320D01*
X61308950Y-102280349D01*
X61462983Y-102293824D01*
X61539999Y-102300563D01*
X61539999Y-102300562D01*
X61540000Y-102300563D01*
X61771050Y-102280349D01*
X61995079Y-102220320D01*
X62205282Y-102122301D01*
X62395269Y-101989270D01*
X62559270Y-101825269D01*
X62692301Y-101635282D01*
X62790320Y-101425079D01*
X62850349Y-101201050D01*
X62870563Y-100970000D01*
X65209938Y-100970000D01*
X65230145Y-101200961D01*
X65290151Y-101424907D01*
X65388133Y-101635032D01*
X65443023Y-101713422D01*
X65443024Y-101713423D01*
X66014070Y-101142376D01*
X66016884Y-101155915D01*
X66086442Y-101290156D01*
X66189638Y-101400652D01*
X66318819Y-101479209D01*
X66370002Y-101493549D01*
X65796575Y-102066975D01*
X65796575Y-102066976D01*
X65874967Y-102121866D01*
X66085092Y-102219848D01*
X66309038Y-102279854D01*
X66540000Y-102300061D01*
X66770961Y-102279854D01*
X66994907Y-102219848D01*
X67205028Y-102121867D01*
X67283423Y-102066975D01*
X66711568Y-101495121D01*
X66828458Y-101444349D01*
X66945739Y-101348934D01*
X67032928Y-101225415D01*
X67063354Y-101139802D01*
X67636975Y-101713423D01*
X67691867Y-101635028D01*
X67789848Y-101424907D01*
X67849854Y-101200961D01*
X67870061Y-100970000D01*
X67849854Y-100739038D01*
X67789848Y-100515092D01*
X67691867Y-100304972D01*
X67636974Y-100226576D01*
X67065928Y-100797621D01*
X67063116Y-100784085D01*
X66993558Y-100649844D01*
X66890362Y-100539348D01*
X66761181Y-100460791D01*
X66709996Y-100446449D01*
X67283423Y-99873023D01*
X67205032Y-99818133D01*
X66994907Y-99720151D01*
X66770961Y-99660145D01*
X66540000Y-99639938D01*
X66309038Y-99660145D01*
X66085092Y-99720151D01*
X65874968Y-99818133D01*
X65796577Y-99873023D01*
X65796576Y-99873025D01*
X66368430Y-100444879D01*
X66251542Y-100495651D01*
X66134261Y-100591066D01*
X66047072Y-100714585D01*
X66016645Y-100800197D01*
X65443024Y-100226576D01*
X65443023Y-100226577D01*
X65388133Y-100304968D01*
X65290151Y-100515092D01*
X65230145Y-100739038D01*
X65209938Y-100970000D01*
X62870563Y-100970000D01*
X62850349Y-100738950D01*
X62790320Y-100514921D01*
X62692301Y-100304719D01*
X62559270Y-100114731D01*
X62395269Y-99950730D01*
X62205282Y-99817699D01*
X62108365Y-99772506D01*
X61995080Y-99719680D01*
X61771047Y-99659650D01*
X61539999Y-99639436D01*
X61308952Y-99659650D01*
X61084919Y-99719680D01*
X60874721Y-99817698D01*
X60874719Y-99817699D01*
X60684731Y-99950730D01*
X60684727Y-99950733D01*
X60520733Y-100114727D01*
X60520730Y-100114730D01*
X60520730Y-100114731D01*
X60442416Y-100226576D01*
X60387698Y-100304721D01*
X60289680Y-100514919D01*
X60229650Y-100738952D01*
X60209436Y-100970000D01*
X58625360Y-100970000D01*
X58635674Y-100938256D01*
X58655460Y-100750000D01*
X58635674Y-100561744D01*
X58577179Y-100381716D01*
X58577179Y-100381715D01*
X58482533Y-100217783D01*
X58355870Y-100077110D01*
X58202730Y-99965848D01*
X58029802Y-99888855D01*
X57844648Y-99849500D01*
X57844646Y-99849500D01*
X57655354Y-99849500D01*
X57655352Y-99849500D01*
X57470197Y-99888855D01*
X57297269Y-99965848D01*
X57144129Y-100077110D01*
X57017466Y-100217783D01*
X56922820Y-100381715D01*
X56864326Y-100561742D01*
X56844540Y-100749999D01*
X51910500Y-100749999D01*
X51910500Y-98500000D01*
X95704862Y-98500000D01*
X95767199Y-98668318D01*
X95868862Y-98831423D01*
X96001277Y-98970722D01*
X96159024Y-99080517D01*
X96335641Y-99156309D01*
X96523905Y-99195000D01*
X96700000Y-99195000D01*
X96700000Y-98500000D01*
X97200000Y-98500000D01*
X97200000Y-99195000D01*
X97324778Y-99195000D01*
X97331043Y-99194682D01*
X97471210Y-99180428D01*
X97654587Y-99122892D01*
X97822632Y-99029621D01*
X97968461Y-98904431D01*
X98086102Y-98752451D01*
X98170746Y-98579893D01*
X98191432Y-98500000D01*
X97299624Y-98500000D01*
X97372545Y-98485495D01*
X97455240Y-98430240D01*
X97510495Y-98347545D01*
X97529898Y-98250000D01*
X97510495Y-98152455D01*
X97455240Y-98069760D01*
X97372545Y-98014505D01*
X97299624Y-98000000D01*
X98195138Y-98000000D01*
X98195138Y-97999999D01*
X98132800Y-97831681D01*
X98031137Y-97668576D01*
X97898722Y-97529277D01*
X97740975Y-97419482D01*
X97564358Y-97343690D01*
X97376095Y-97305000D01*
X97200000Y-97305000D01*
X97200000Y-98000000D01*
X96700000Y-98000000D01*
X96700000Y-97305000D01*
X96575222Y-97305000D01*
X96568956Y-97305317D01*
X96428789Y-97319571D01*
X96245412Y-97377107D01*
X96077367Y-97470378D01*
X95931538Y-97595568D01*
X95813897Y-97747548D01*
X95729253Y-97920106D01*
X95708568Y-98000000D01*
X96600376Y-98000000D01*
X96527455Y-98014505D01*
X96444760Y-98069760D01*
X96389505Y-98152455D01*
X96370102Y-98250000D01*
X96389505Y-98347545D01*
X96444760Y-98430240D01*
X96527455Y-98485495D01*
X96600376Y-98500000D01*
X95704862Y-98500000D01*
X51910500Y-98500000D01*
X51910500Y-97000000D01*
X93275175Y-97000000D01*
X93989503Y-97000000D01*
X93975000Y-97072912D01*
X93975000Y-97427088D01*
X93989503Y-97500000D01*
X93280141Y-97500000D01*
X93290033Y-97597278D01*
X93349396Y-97786480D01*
X93445628Y-97959859D01*
X93574792Y-98110317D01*
X93731597Y-98231693D01*
X93909630Y-98319022D01*
X93999999Y-98342420D01*
X94000000Y-98342420D01*
X94000000Y-97520836D01*
X94051736Y-97598264D01*
X94142700Y-97659045D01*
X94250000Y-97680388D01*
X94357300Y-97659045D01*
X94448264Y-97598264D01*
X94500000Y-97520836D01*
X94500000Y-98347130D01*
X94681595Y-98279876D01*
X94849883Y-98174980D01*
X94993602Y-98038364D01*
X95106883Y-97875610D01*
X95185081Y-97693385D01*
X95224825Y-97500000D01*
X94510497Y-97500000D01*
X94525000Y-97427088D01*
X94525000Y-97072912D01*
X94510497Y-97000000D01*
X95219858Y-97000000D01*
X95219858Y-96999999D01*
X95209966Y-96902721D01*
X95150603Y-96713519D01*
X95054371Y-96540140D01*
X94925207Y-96389682D01*
X94768402Y-96268306D01*
X94590366Y-96180975D01*
X94500000Y-96157577D01*
X94500000Y-96979163D01*
X94448264Y-96901736D01*
X94357300Y-96840955D01*
X94250000Y-96819612D01*
X94142700Y-96840955D01*
X94051736Y-96901736D01*
X94000000Y-96979163D01*
X94000000Y-96152869D01*
X93999999Y-96152868D01*
X93818403Y-96220124D01*
X93650116Y-96325019D01*
X93506397Y-96461635D01*
X93393116Y-96624389D01*
X93314918Y-96806614D01*
X93275175Y-97000000D01*
X51910500Y-97000000D01*
X51910500Y-93799999D01*
X54194540Y-93799999D01*
X54214326Y-93988257D01*
X54272820Y-94168284D01*
X54367466Y-94332216D01*
X54494129Y-94472889D01*
X54647269Y-94584151D01*
X54820197Y-94661144D01*
X55005352Y-94700500D01*
X55005354Y-94700500D01*
X55194648Y-94700500D01*
X55318084Y-94674262D01*
X55379803Y-94661144D01*
X55552730Y-94584151D01*
X55705871Y-94472888D01*
X55832533Y-94332216D01*
X55927179Y-94168284D01*
X55985674Y-93988256D01*
X56005460Y-93800000D01*
X55985674Y-93611744D01*
X55927179Y-93431716D01*
X55927179Y-93431715D01*
X55832533Y-93267783D01*
X55705870Y-93127110D01*
X55552730Y-93015848D01*
X55517133Y-92999999D01*
X82844540Y-92999999D01*
X82864326Y-93188257D01*
X82922820Y-93368284D01*
X83017466Y-93532216D01*
X83144129Y-93672889D01*
X83297269Y-93784151D01*
X83470197Y-93861144D01*
X83655352Y-93900500D01*
X83655354Y-93900500D01*
X83844648Y-93900500D01*
X83968083Y-93874262D01*
X84029803Y-93861144D01*
X84202730Y-93784151D01*
X84355871Y-93672888D01*
X84482533Y-93532216D01*
X84577179Y-93368284D01*
X84635674Y-93188256D01*
X84655460Y-93000000D01*
X84635674Y-92811744D01*
X84577179Y-92631716D01*
X84577179Y-92631715D01*
X84482533Y-92467783D01*
X84355870Y-92327110D01*
X84202730Y-92215848D01*
X84029802Y-92138855D01*
X83844648Y-92099500D01*
X83844646Y-92099500D01*
X83655354Y-92099500D01*
X83655352Y-92099500D01*
X83470197Y-92138855D01*
X83297269Y-92215848D01*
X83144129Y-92327110D01*
X83017466Y-92467783D01*
X82922820Y-92631715D01*
X82864326Y-92811742D01*
X82844540Y-92999999D01*
X55517133Y-92999999D01*
X55379802Y-92938855D01*
X55194648Y-92899500D01*
X55194646Y-92899500D01*
X55005354Y-92899500D01*
X55005352Y-92899500D01*
X54820197Y-92938855D01*
X54647269Y-93015848D01*
X54494129Y-93127110D01*
X54367466Y-93267783D01*
X54272820Y-93431715D01*
X54214326Y-93611742D01*
X54194540Y-93799999D01*
X51910500Y-93799999D01*
X51910500Y-91250000D01*
X87094540Y-91250000D01*
X87114326Y-91438257D01*
X87172820Y-91618284D01*
X87267466Y-91782216D01*
X87394129Y-91922889D01*
X87547269Y-92034151D01*
X87720197Y-92111144D01*
X87905352Y-92150500D01*
X87905354Y-92150500D01*
X88094648Y-92150500D01*
X88218083Y-92124262D01*
X88279803Y-92111144D01*
X88452730Y-92034151D01*
X88499735Y-92000000D01*
X93275175Y-92000000D01*
X93989503Y-92000000D01*
X93975000Y-92072912D01*
X93975000Y-92427088D01*
X93989503Y-92500000D01*
X93280141Y-92500000D01*
X93290033Y-92597278D01*
X93349396Y-92786480D01*
X93445628Y-92959859D01*
X93574792Y-93110317D01*
X93731597Y-93231693D01*
X93909630Y-93319022D01*
X93999999Y-93342420D01*
X94000000Y-93342420D01*
X94000000Y-92520836D01*
X94051736Y-92598264D01*
X94142700Y-92659045D01*
X94250000Y-92680388D01*
X94357300Y-92659045D01*
X94448264Y-92598264D01*
X94500000Y-92520836D01*
X94500000Y-93347130D01*
X94681595Y-93279876D01*
X94849883Y-93174980D01*
X94993602Y-93038364D01*
X95106883Y-92875610D01*
X95185081Y-92693385D01*
X95224825Y-92500000D01*
X94510497Y-92500000D01*
X94525000Y-92427088D01*
X94525000Y-92072912D01*
X94510497Y-92000000D01*
X95219858Y-92000000D01*
X95219858Y-91999999D01*
X95209966Y-91902721D01*
X95150603Y-91713519D01*
X95054371Y-91540140D01*
X95019912Y-91500000D01*
X95704862Y-91500000D01*
X95767199Y-91668318D01*
X95868862Y-91831423D01*
X96001277Y-91970722D01*
X96159024Y-92080517D01*
X96335641Y-92156309D01*
X96523905Y-92195000D01*
X96700000Y-92195000D01*
X96700000Y-91500000D01*
X97200000Y-91500000D01*
X97200000Y-92195000D01*
X97324778Y-92195000D01*
X97331043Y-92194682D01*
X97471210Y-92180428D01*
X97654587Y-92122892D01*
X97822632Y-92029621D01*
X97968461Y-91904431D01*
X98086102Y-91752451D01*
X98170746Y-91579893D01*
X98191432Y-91500000D01*
X97299624Y-91500000D01*
X97372545Y-91485495D01*
X97455240Y-91430240D01*
X97510495Y-91347545D01*
X97529898Y-91250000D01*
X97510495Y-91152455D01*
X97455240Y-91069760D01*
X97372545Y-91014505D01*
X97299624Y-91000000D01*
X98195138Y-91000000D01*
X98195138Y-90999999D01*
X98132800Y-90831681D01*
X98031137Y-90668576D01*
X97898722Y-90529277D01*
X97740975Y-90419482D01*
X97564358Y-90343690D01*
X97376095Y-90305000D01*
X97200000Y-90305000D01*
X97200000Y-91000000D01*
X96700000Y-91000000D01*
X96700000Y-90305000D01*
X96575222Y-90305000D01*
X96568956Y-90305317D01*
X96428789Y-90319571D01*
X96245412Y-90377107D01*
X96077367Y-90470378D01*
X95931538Y-90595568D01*
X95813897Y-90747548D01*
X95729253Y-90920106D01*
X95708568Y-91000000D01*
X96600376Y-91000000D01*
X96527455Y-91014505D01*
X96444760Y-91069760D01*
X96389505Y-91152455D01*
X96370102Y-91250000D01*
X96389505Y-91347545D01*
X96444760Y-91430240D01*
X96527455Y-91485495D01*
X96600376Y-91500000D01*
X95704862Y-91500000D01*
X95019912Y-91500000D01*
X94925207Y-91389682D01*
X94768402Y-91268306D01*
X94590366Y-91180975D01*
X94500000Y-91157577D01*
X94500000Y-91979163D01*
X94448264Y-91901736D01*
X94357300Y-91840955D01*
X94250000Y-91819612D01*
X94142700Y-91840955D01*
X94051736Y-91901736D01*
X94000000Y-91979163D01*
X94000000Y-91152869D01*
X93999999Y-91152868D01*
X93818403Y-91220124D01*
X93650116Y-91325019D01*
X93506397Y-91461635D01*
X93393116Y-91624389D01*
X93314918Y-91806614D01*
X93275175Y-92000000D01*
X88499735Y-92000000D01*
X88605870Y-91922889D01*
X88624030Y-91902721D01*
X88732533Y-91782216D01*
X88827179Y-91618284D01*
X88885674Y-91438256D01*
X88905460Y-91250000D01*
X88885674Y-91061744D01*
X88827179Y-90881716D01*
X88827179Y-90881715D01*
X88732533Y-90717783D01*
X88605870Y-90577110D01*
X88452730Y-90465848D01*
X88279802Y-90388855D01*
X88094648Y-90349500D01*
X88094646Y-90349500D01*
X87905354Y-90349500D01*
X87905352Y-90349500D01*
X87720197Y-90388855D01*
X87547269Y-90465848D01*
X87394129Y-90577110D01*
X87267466Y-90717783D01*
X87172820Y-90881715D01*
X87114326Y-91061742D01*
X87094540Y-91250000D01*
X51910500Y-91250000D01*
X51910500Y-77679999D01*
X57144340Y-77679999D01*
X57164936Y-77915407D01*
X57209709Y-78082502D01*
X57226097Y-78143663D01*
X57325965Y-78357830D01*
X57461505Y-78551401D01*
X57628599Y-78718495D01*
X57814596Y-78848732D01*
X57858219Y-78903307D01*
X57865412Y-78972806D01*
X57833890Y-79035160D01*
X57814594Y-79051881D01*
X57738626Y-79105073D01*
X58367466Y-79733913D01*
X58357685Y-79735320D01*
X58226900Y-79795048D01*
X58118239Y-79889202D01*
X58040507Y-80010156D01*
X58016923Y-80090476D01*
X57385072Y-79458625D01*
X57326399Y-79542422D01*
X57226569Y-79756507D01*
X57165430Y-79984681D01*
X57144842Y-80220000D01*
X57165430Y-80455318D01*
X57226569Y-80683492D01*
X57326400Y-80897580D01*
X57385073Y-80981373D01*
X58016923Y-80349523D01*
X58040507Y-80429844D01*
X58118239Y-80550798D01*
X58226900Y-80644952D01*
X58357685Y-80704680D01*
X58367466Y-80706086D01*
X57738625Y-81334925D01*
X57815031Y-81388425D01*
X57858655Y-81443002D01*
X57865848Y-81512501D01*
X57834326Y-81574855D01*
X57815029Y-81591576D01*
X57738625Y-81645072D01*
X58367466Y-82273913D01*
X58357685Y-82275320D01*
X58226900Y-82335048D01*
X58118239Y-82429202D01*
X58040507Y-82550156D01*
X58016923Y-82630476D01*
X57385072Y-81998625D01*
X57326399Y-82082422D01*
X57226569Y-82296507D01*
X57165430Y-82524681D01*
X57144842Y-82760000D01*
X57165430Y-82995318D01*
X57226569Y-83223492D01*
X57326400Y-83437580D01*
X57385073Y-83521373D01*
X58016923Y-82889523D01*
X58040507Y-82969844D01*
X58118239Y-83090798D01*
X58226900Y-83184952D01*
X58357685Y-83244680D01*
X58367466Y-83246086D01*
X57738625Y-83874925D01*
X57815031Y-83928425D01*
X57858655Y-83983002D01*
X57865848Y-84052501D01*
X57834326Y-84114855D01*
X57815029Y-84131576D01*
X57738625Y-84185072D01*
X58367466Y-84813913D01*
X58357685Y-84815320D01*
X58226900Y-84875048D01*
X58118239Y-84969202D01*
X58040507Y-85090156D01*
X58016923Y-85170476D01*
X57385072Y-84538625D01*
X57326399Y-84622422D01*
X57226569Y-84836507D01*
X57165430Y-85064681D01*
X57144842Y-85300000D01*
X57165430Y-85535318D01*
X57226569Y-85763492D01*
X57326400Y-85977580D01*
X57385073Y-86061373D01*
X58016923Y-85429523D01*
X58040507Y-85509844D01*
X58118239Y-85630798D01*
X58226900Y-85724952D01*
X58357685Y-85784680D01*
X58367466Y-85786086D01*
X57734208Y-86419342D01*
X57723788Y-86471193D01*
X57675172Y-86521376D01*
X57653032Y-86531206D01*
X57580664Y-86555186D01*
X57431342Y-86647288D01*
X57307288Y-86771342D01*
X57215186Y-86920665D01*
X57160000Y-87087202D01*
X57149819Y-87186858D01*
X57149817Y-87186878D01*
X57149500Y-87189991D01*
X57149500Y-87193138D01*
X57149500Y-87193139D01*
X57149500Y-88486859D01*
X57149500Y-88486878D01*
X57149501Y-88490008D01*
X57149820Y-88493140D01*
X57149821Y-88493141D01*
X57160000Y-88592796D01*
X57215186Y-88759334D01*
X57307288Y-88908657D01*
X57431342Y-89032711D01*
X57468716Y-89055763D01*
X57580666Y-89124814D01*
X57692016Y-89161712D01*
X57747202Y-89179999D01*
X57846858Y-89190180D01*
X57846859Y-89190180D01*
X57849991Y-89190500D01*
X59150008Y-89190499D01*
X59252797Y-89179999D01*
X59419334Y-89124814D01*
X59568656Y-89032712D01*
X59692712Y-88908656D01*
X59784814Y-88759334D01*
X59787538Y-88751111D01*
X59827307Y-88693668D01*
X59891822Y-88666843D01*
X59960599Y-88679155D01*
X59991654Y-88705909D01*
X59993834Y-88703730D01*
X60001504Y-88711401D01*
X60001505Y-88711401D01*
X60168599Y-88878495D01*
X60362170Y-89014035D01*
X60576337Y-89113903D01*
X60804592Y-89175063D01*
X61040000Y-89195659D01*
X61275408Y-89175063D01*
X61503663Y-89113903D01*
X61717830Y-89014035D01*
X61911401Y-88878495D01*
X62078495Y-88711401D01*
X62214035Y-88517830D01*
X62313903Y-88303663D01*
X62375063Y-88075408D01*
X62395659Y-87840000D01*
X62375063Y-87604592D01*
X62349278Y-87508360D01*
X66796040Y-87508360D01*
X66815826Y-87696617D01*
X66874320Y-87876644D01*
X66968966Y-88040576D01*
X67095629Y-88181249D01*
X67248769Y-88292511D01*
X67433604Y-88374806D01*
X67432597Y-88377066D01*
X67478056Y-88401607D01*
X67511834Y-88462769D01*
X67514115Y-88476741D01*
X67515325Y-88488252D01*
X67515325Y-88488254D01*
X67515326Y-88488256D01*
X67524934Y-88517827D01*
X67573820Y-88668284D01*
X67668466Y-88832216D01*
X67795129Y-88972889D01*
X67948269Y-89084151D01*
X68015091Y-89113902D01*
X68121197Y-89161144D01*
X68136382Y-89164371D01*
X68197864Y-89197561D01*
X68228536Y-89247344D01*
X68273320Y-89385177D01*
X68367966Y-89549109D01*
X68494629Y-89689782D01*
X68647769Y-89801044D01*
X68820697Y-89878037D01*
X69005852Y-89917393D01*
X69005854Y-89917393D01*
X69195148Y-89917393D01*
X69380298Y-89878038D01*
X69380297Y-89878038D01*
X69380303Y-89878037D01*
X69410117Y-89864762D01*
X69479364Y-89855477D01*
X69542641Y-89885105D01*
X69579856Y-89944239D01*
X69583873Y-89965080D01*
X69588973Y-90013610D01*
X69647467Y-90193637D01*
X69742113Y-90357569D01*
X69868776Y-90498242D01*
X70021916Y-90609504D01*
X70194844Y-90686497D01*
X70379999Y-90725853D01*
X70380001Y-90725853D01*
X70569295Y-90725853D01*
X70692731Y-90699615D01*
X70754450Y-90686497D01*
X70927377Y-90609504D01*
X70971964Y-90577110D01*
X71080517Y-90498242D01*
X71207180Y-90357569D01*
X71301826Y-90193637D01*
X71354275Y-90032216D01*
X71360321Y-90013609D01*
X71380107Y-89825353D01*
X71360321Y-89637097D01*
X71315775Y-89500000D01*
X84094540Y-89500000D01*
X84114326Y-89688257D01*
X84172820Y-89868284D01*
X84267466Y-90032216D01*
X84394129Y-90172889D01*
X84547269Y-90284151D01*
X84720197Y-90361144D01*
X84905352Y-90400500D01*
X84905354Y-90400500D01*
X85094648Y-90400500D01*
X85218084Y-90374262D01*
X85279803Y-90361144D01*
X85452730Y-90284151D01*
X85452729Y-90284150D01*
X85605870Y-90172889D01*
X85732533Y-90032216D01*
X85827179Y-89868284D01*
X85841128Y-89825353D01*
X85885674Y-89688256D01*
X85905460Y-89500000D01*
X85885674Y-89311744D01*
X85851039Y-89205149D01*
X85827179Y-89131715D01*
X85732533Y-88967783D01*
X85605870Y-88827110D01*
X85452730Y-88715848D01*
X85279802Y-88638855D01*
X85094648Y-88599500D01*
X85094646Y-88599500D01*
X84905354Y-88599500D01*
X84905352Y-88599500D01*
X84720197Y-88638855D01*
X84547269Y-88715848D01*
X84394129Y-88827110D01*
X84267466Y-88967783D01*
X84172820Y-89131715D01*
X84114326Y-89311742D01*
X84094540Y-89500000D01*
X71315775Y-89500000D01*
X71301826Y-89457069D01*
X71301826Y-89457068D01*
X71207180Y-89293136D01*
X71080517Y-89152463D01*
X70927377Y-89041201D01*
X70754449Y-88964208D01*
X70569295Y-88924853D01*
X70569293Y-88924853D01*
X70380001Y-88924853D01*
X70379999Y-88924853D01*
X70194843Y-88964208D01*
X70165028Y-88977483D01*
X70095778Y-88986767D01*
X70032502Y-88957138D01*
X69995289Y-88898003D01*
X69991275Y-88877176D01*
X69986174Y-88828637D01*
X69949526Y-88715848D01*
X69927679Y-88648608D01*
X69833033Y-88484676D01*
X69706370Y-88344003D01*
X69553232Y-88232742D01*
X69380303Y-88155749D01*
X69380302Y-88155749D01*
X69365110Y-88152519D01*
X69303630Y-88119326D01*
X69272964Y-88069548D01*
X69228179Y-87931715D01*
X69133533Y-87767783D01*
X69006870Y-87627110D01*
X68853732Y-87515849D01*
X68736388Y-87463604D01*
X68680803Y-87438856D01*
X68680801Y-87438855D01*
X68668898Y-87433556D01*
X68669903Y-87431296D01*
X68624437Y-87406747D01*
X68590663Y-87345582D01*
X68588383Y-87331609D01*
X68587174Y-87320102D01*
X68528679Y-87140075D01*
X68447807Y-87000000D01*
X88094540Y-87000000D01*
X88114326Y-87188257D01*
X88172820Y-87368284D01*
X88267466Y-87532216D01*
X88394129Y-87672889D01*
X88547269Y-87784151D01*
X88720197Y-87861144D01*
X88905352Y-87900500D01*
X88905354Y-87900500D01*
X89094648Y-87900500D01*
X89218083Y-87874262D01*
X89279803Y-87861144D01*
X89452730Y-87784151D01*
X89605871Y-87672888D01*
X89732533Y-87532216D01*
X89827179Y-87368284D01*
X89885674Y-87188256D01*
X89901256Y-87040000D01*
X92994659Y-87040000D01*
X93013976Y-87236133D01*
X93071185Y-87424726D01*
X93071186Y-87424727D01*
X93164090Y-87598538D01*
X93289117Y-87750883D01*
X93441462Y-87875910D01*
X93615273Y-87968814D01*
X93803868Y-88026024D01*
X94000000Y-88045341D01*
X94196132Y-88026024D01*
X94384727Y-87968814D01*
X94386853Y-87967677D01*
X94392011Y-87966603D01*
X94396414Y-87965268D01*
X94396533Y-87965661D01*
X94455254Y-87953435D01*
X94519617Y-87977768D01*
X94527669Y-87983796D01*
X94662517Y-88034091D01*
X94722127Y-88040500D01*
X95817872Y-88040499D01*
X95877483Y-88034091D01*
X96012331Y-87983796D01*
X96127546Y-87897546D01*
X96213796Y-87782331D01*
X96264091Y-87647483D01*
X96270500Y-87587873D01*
X96270499Y-86492128D01*
X96264091Y-86432517D01*
X96213796Y-86297669D01*
X96207768Y-86289617D01*
X96183351Y-86224155D01*
X96195619Y-86166520D01*
X96195268Y-86166414D01*
X96196522Y-86162276D01*
X96197677Y-86156853D01*
X96198814Y-86154727D01*
X96256024Y-85966132D01*
X96275341Y-85770000D01*
X96256024Y-85573868D01*
X96198814Y-85385273D01*
X96153234Y-85299998D01*
X96100153Y-85200690D01*
X96101828Y-85199794D01*
X96080406Y-85149362D01*
X96092193Y-85080494D01*
X96103970Y-85062168D01*
X96165824Y-84946447D01*
X96198814Y-84884727D01*
X96256024Y-84696132D01*
X96275341Y-84500000D01*
X96256024Y-84303868D01*
X96198814Y-84115273D01*
X96128114Y-83983002D01*
X96100153Y-83930690D01*
X96101828Y-83929794D01*
X96080406Y-83879362D01*
X96092193Y-83810494D01*
X96103970Y-83792168D01*
X96136359Y-83731571D01*
X96198814Y-83614727D01*
X96256024Y-83426132D01*
X96275341Y-83230000D01*
X96256024Y-83033868D01*
X96198814Y-82845273D01*
X96153234Y-82759999D01*
X96100153Y-82660690D01*
X96101828Y-82659794D01*
X96080406Y-82609362D01*
X96092193Y-82540494D01*
X96103970Y-82522168D01*
X96172429Y-82394090D01*
X96198814Y-82344727D01*
X96256024Y-82156132D01*
X96275341Y-81960000D01*
X96256024Y-81763868D01*
X96198814Y-81575273D01*
X96105910Y-81401462D01*
X95980883Y-81249117D01*
X95828538Y-81124090D01*
X95806091Y-81112092D01*
X95654726Y-81031185D01*
X95466133Y-80973976D01*
X95368065Y-80964317D01*
X95270000Y-80954659D01*
X95269999Y-80954659D01*
X95073866Y-80973976D01*
X94885273Y-81031185D01*
X94700691Y-81129847D01*
X94699864Y-81128300D01*
X94648957Y-81149919D01*
X94580090Y-81138125D01*
X94562073Y-81126545D01*
X94384534Y-81031649D01*
X94250001Y-80990839D01*
X94250000Y-80990839D01*
X94249999Y-81711061D01*
X94168885Y-81647928D01*
X94058405Y-81610000D01*
X93970995Y-81610000D01*
X93884784Y-81624386D01*
X93782053Y-81679981D01*
X93702940Y-81765921D01*
X93656018Y-81872892D01*
X93646372Y-81989302D01*
X93675047Y-82102538D01*
X93738936Y-82200327D01*
X93751364Y-82210000D01*
X93030840Y-82210000D01*
X93030839Y-82210001D01*
X93071649Y-82344534D01*
X93170264Y-82529030D01*
X93168552Y-82529945D01*
X93189918Y-82580248D01*
X93178128Y-82649116D01*
X93165678Y-82668489D01*
X93071185Y-82845273D01*
X93013976Y-83033866D01*
X92994659Y-83230000D01*
X93013976Y-83426133D01*
X93071185Y-83614726D01*
X93169847Y-83799309D01*
X93168299Y-83800136D01*
X93189918Y-83851034D01*
X93178129Y-83919902D01*
X93166541Y-83937933D01*
X93071649Y-84115465D01*
X93030839Y-84249998D01*
X93030840Y-84250000D01*
X93754419Y-84250000D01*
X93702940Y-84305921D01*
X93656018Y-84412892D01*
X93646372Y-84529302D01*
X93675047Y-84642538D01*
X93738936Y-84740327D01*
X93831115Y-84812072D01*
X93941595Y-84850000D01*
X94029005Y-84850000D01*
X94115216Y-84835614D01*
X94217947Y-84780019D01*
X94250000Y-84745200D01*
X94250000Y-85521061D01*
X94168885Y-85457928D01*
X94058405Y-85420000D01*
X93970995Y-85420000D01*
X93884784Y-85434386D01*
X93782053Y-85489981D01*
X93702940Y-85575921D01*
X93656018Y-85682892D01*
X93646372Y-85799302D01*
X93675047Y-85912538D01*
X93738936Y-86010327D01*
X93751364Y-86020000D01*
X93030840Y-86020000D01*
X93030839Y-86020001D01*
X93071649Y-86154534D01*
X93170264Y-86339030D01*
X93168552Y-86339945D01*
X93189918Y-86390248D01*
X93178128Y-86459116D01*
X93165678Y-86478489D01*
X93071185Y-86655273D01*
X93013976Y-86843866D01*
X92994659Y-87040000D01*
X89901256Y-87040000D01*
X89905460Y-87000000D01*
X89885674Y-86811744D01*
X89832239Y-86647288D01*
X89827179Y-86631715D01*
X89732533Y-86467783D01*
X89605870Y-86327110D01*
X89452730Y-86215848D01*
X89279802Y-86138855D01*
X89094648Y-86099500D01*
X89094646Y-86099500D01*
X88905354Y-86099500D01*
X88905352Y-86099500D01*
X88720197Y-86138855D01*
X88547269Y-86215848D01*
X88394129Y-86327110D01*
X88267466Y-86467783D01*
X88172820Y-86631715D01*
X88114326Y-86811742D01*
X88094540Y-87000000D01*
X68447807Y-87000000D01*
X68434033Y-86976143D01*
X68307370Y-86835470D01*
X68154230Y-86724208D01*
X67981302Y-86647215D01*
X67796148Y-86607860D01*
X67796146Y-86607860D01*
X67606854Y-86607860D01*
X67606852Y-86607860D01*
X67421697Y-86647215D01*
X67248769Y-86724208D01*
X67095629Y-86835470D01*
X66968966Y-86976143D01*
X66874320Y-87140075D01*
X66815826Y-87320102D01*
X66796040Y-87508360D01*
X62349278Y-87508360D01*
X62313903Y-87376337D01*
X62214035Y-87162171D01*
X62078495Y-86968599D01*
X61911401Y-86801505D01*
X61725402Y-86671267D01*
X61681780Y-86616692D01*
X61674587Y-86547193D01*
X61706109Y-86484839D01*
X61725405Y-86468119D01*
X61801373Y-86414925D01*
X61172533Y-85786086D01*
X61182315Y-85784680D01*
X61313100Y-85724952D01*
X61421761Y-85630798D01*
X61499493Y-85509844D01*
X61523076Y-85429523D01*
X62154925Y-86061372D01*
X62213600Y-85977576D01*
X62313430Y-85763492D01*
X62372255Y-85543953D01*
X69594040Y-85543953D01*
X69613826Y-85732210D01*
X69672320Y-85912237D01*
X69766966Y-86076169D01*
X69893629Y-86216842D01*
X70046769Y-86328104D01*
X70219697Y-86405097D01*
X70404852Y-86444453D01*
X70404854Y-86444453D01*
X70594148Y-86444453D01*
X70727363Y-86416137D01*
X70779303Y-86405097D01*
X70952230Y-86328104D01*
X71105371Y-86216841D01*
X71232033Y-86076169D01*
X71326679Y-85912237D01*
X71385174Y-85732209D01*
X71404960Y-85543953D01*
X71402442Y-85519998D01*
X93030839Y-85519998D01*
X93030840Y-85520000D01*
X93750000Y-85520000D01*
X93750000Y-84750000D01*
X93030840Y-84750000D01*
X93030839Y-84750001D01*
X93071649Y-84884534D01*
X93170264Y-85069030D01*
X93168678Y-85069877D01*
X93190240Y-85120637D01*
X93178453Y-85189505D01*
X93166197Y-85208578D01*
X93071649Y-85385465D01*
X93030839Y-85519998D01*
X71402442Y-85519998D01*
X71385174Y-85355697D01*
X71326679Y-85175669D01*
X71326679Y-85175668D01*
X71232033Y-85011736D01*
X71105370Y-84871063D01*
X70952230Y-84759801D01*
X70779302Y-84682808D01*
X70594148Y-84643453D01*
X70594146Y-84643453D01*
X70404854Y-84643453D01*
X70404852Y-84643453D01*
X70219697Y-84682808D01*
X70046769Y-84759801D01*
X69893629Y-84871063D01*
X69766966Y-85011736D01*
X69672320Y-85175668D01*
X69613826Y-85355695D01*
X69594040Y-85543953D01*
X62372255Y-85543953D01*
X62374569Y-85535318D01*
X62395157Y-85300000D01*
X62374569Y-85064681D01*
X62313430Y-84836507D01*
X62213599Y-84622421D01*
X62154926Y-84538626D01*
X62154925Y-84538625D01*
X61523076Y-85170473D01*
X61499493Y-85090156D01*
X61421761Y-84969202D01*
X61313100Y-84875048D01*
X61182315Y-84815320D01*
X61172533Y-84813913D01*
X61801373Y-84185073D01*
X61801373Y-84185072D01*
X61724969Y-84131574D01*
X61699731Y-84100000D01*
X76344540Y-84100000D01*
X76364326Y-84288257D01*
X76422820Y-84468284D01*
X76517466Y-84632216D01*
X76644129Y-84772889D01*
X76797269Y-84884151D01*
X76970197Y-84961144D01*
X77155352Y-85000500D01*
X77155354Y-85000500D01*
X77344648Y-85000500D01*
X77468083Y-84974262D01*
X77529803Y-84961144D01*
X77702730Y-84884151D01*
X77801939Y-84812072D01*
X77855870Y-84772889D01*
X77876480Y-84750000D01*
X77982533Y-84632216D01*
X78077179Y-84468284D01*
X78135674Y-84288256D01*
X78155460Y-84100000D01*
X78136542Y-83919999D01*
X81473982Y-83919999D01*
X81493768Y-84108256D01*
X81552262Y-84288283D01*
X81646908Y-84452215D01*
X81773571Y-84592888D01*
X81926711Y-84704150D01*
X82099639Y-84781143D01*
X82284794Y-84820499D01*
X82284796Y-84820499D01*
X82474090Y-84820499D01*
X82597525Y-84794261D01*
X82659245Y-84781143D01*
X82832172Y-84704150D01*
X82985312Y-84592888D01*
X83111975Y-84452215D01*
X83206621Y-84288283D01*
X83219060Y-84250000D01*
X83265116Y-84108255D01*
X83284902Y-83919999D01*
X83265116Y-83731743D01*
X83206621Y-83551715D01*
X83206621Y-83551714D01*
X83111975Y-83387782D01*
X82985312Y-83247109D01*
X82832172Y-83135847D01*
X82659244Y-83058854D01*
X82474090Y-83019499D01*
X82474088Y-83019499D01*
X82284796Y-83019499D01*
X82284794Y-83019499D01*
X82099639Y-83058854D01*
X81926711Y-83135847D01*
X81773571Y-83247109D01*
X81646908Y-83387782D01*
X81552262Y-83551714D01*
X81493768Y-83731741D01*
X81473982Y-83919999D01*
X78136542Y-83919999D01*
X78135674Y-83911744D01*
X78099410Y-83800136D01*
X78077179Y-83731715D01*
X77982533Y-83567783D01*
X77855870Y-83427110D01*
X77702730Y-83315848D01*
X77529802Y-83238855D01*
X77344648Y-83199500D01*
X77344646Y-83199500D01*
X77155354Y-83199500D01*
X77155352Y-83199500D01*
X76970197Y-83238855D01*
X76797269Y-83315848D01*
X76644129Y-83427110D01*
X76517466Y-83567783D01*
X76422820Y-83731715D01*
X76364326Y-83911742D01*
X76344540Y-84100000D01*
X61699731Y-84100000D01*
X61681344Y-84076997D01*
X61674150Y-84007499D01*
X61705673Y-83945144D01*
X61724969Y-83928424D01*
X61801373Y-83874925D01*
X61172533Y-83246086D01*
X61182315Y-83244680D01*
X61313100Y-83184952D01*
X61421761Y-83090798D01*
X61499493Y-82969844D01*
X61523076Y-82889525D01*
X62154925Y-83521373D01*
X62213600Y-83437576D01*
X62313430Y-83223492D01*
X62374569Y-82995318D01*
X62395157Y-82760000D01*
X62374569Y-82524681D01*
X62313430Y-82296507D01*
X62213599Y-82082421D01*
X62154926Y-81998626D01*
X62154925Y-81998625D01*
X61523076Y-82630474D01*
X61499493Y-82550156D01*
X61421761Y-82429202D01*
X61313100Y-82335048D01*
X61182315Y-82275320D01*
X61172533Y-82273913D01*
X61736448Y-81709998D01*
X93030839Y-81709998D01*
X93030840Y-81710000D01*
X93750000Y-81710000D01*
X93750000Y-80990839D01*
X93749998Y-80990839D01*
X93615465Y-81031649D01*
X93441742Y-81124506D01*
X93289472Y-81249472D01*
X93164506Y-81401742D01*
X93071649Y-81575465D01*
X93030839Y-81709998D01*
X61736448Y-81709998D01*
X61801373Y-81645073D01*
X61801373Y-81645072D01*
X61724969Y-81591574D01*
X61681344Y-81536997D01*
X61674150Y-81467499D01*
X61705673Y-81405144D01*
X61724969Y-81388424D01*
X61801373Y-81334925D01*
X61172533Y-80706086D01*
X61182315Y-80704680D01*
X61313100Y-80644952D01*
X61421761Y-80550798D01*
X61499493Y-80429844D01*
X61523076Y-80349525D01*
X62154925Y-80981373D01*
X62213600Y-80897576D01*
X62313430Y-80683492D01*
X62374569Y-80455318D01*
X62395157Y-80220000D01*
X62374569Y-79984681D01*
X62313430Y-79756507D01*
X62213599Y-79542421D01*
X62154926Y-79458626D01*
X62154925Y-79458625D01*
X61523076Y-80090474D01*
X61499493Y-80010156D01*
X61421761Y-79889202D01*
X61313100Y-79795048D01*
X61182315Y-79735320D01*
X61172533Y-79733913D01*
X61801373Y-79105073D01*
X61801373Y-79105072D01*
X61725405Y-79051880D01*
X61681780Y-78997304D01*
X61674586Y-78927805D01*
X61706108Y-78865451D01*
X61725399Y-78848734D01*
X61911401Y-78718495D01*
X62078495Y-78551401D01*
X62135493Y-78469999D01*
X79660040Y-78469999D01*
X79679826Y-78658257D01*
X79738320Y-78838284D01*
X79832966Y-79002216D01*
X79959629Y-79142889D01*
X80112769Y-79254151D01*
X80285697Y-79331144D01*
X80470852Y-79370500D01*
X80470854Y-79370500D01*
X80660148Y-79370500D01*
X80783584Y-79344262D01*
X80845303Y-79331144D01*
X81018230Y-79254151D01*
X81171371Y-79142888D01*
X81298033Y-79002216D01*
X81392679Y-78838284D01*
X81451174Y-78658256D01*
X81470960Y-78470000D01*
X81451174Y-78281744D01*
X81409028Y-78152032D01*
X81392679Y-78101715D01*
X81298033Y-77937783D01*
X81171370Y-77797110D01*
X81018230Y-77685848D01*
X80845302Y-77608855D01*
X80660148Y-77569500D01*
X80660146Y-77569500D01*
X80470854Y-77569500D01*
X80470852Y-77569500D01*
X80285697Y-77608855D01*
X80112769Y-77685848D01*
X79959629Y-77797110D01*
X79832966Y-77937783D01*
X79738320Y-78101715D01*
X79679826Y-78281742D01*
X79660040Y-78469999D01*
X62135493Y-78469999D01*
X62214035Y-78357830D01*
X62313903Y-78143663D01*
X62375063Y-77915408D01*
X62395659Y-77680000D01*
X62375063Y-77444592D01*
X62313903Y-77216337D01*
X62214035Y-77002171D01*
X62078495Y-76808599D01*
X61911401Y-76641505D01*
X61717830Y-76505965D01*
X61503663Y-76406097D01*
X61412671Y-76381716D01*
X61275407Y-76344936D01*
X61040000Y-76324340D01*
X60804592Y-76344936D01*
X60576336Y-76406097D01*
X60362170Y-76505965D01*
X60168598Y-76641505D01*
X60001505Y-76808598D01*
X59871575Y-76994159D01*
X59816998Y-77037784D01*
X59747500Y-77044978D01*
X59685145Y-77013455D01*
X59668425Y-76994159D01*
X59608854Y-76909083D01*
X59538495Y-76808599D01*
X59371401Y-76641505D01*
X59177830Y-76505965D01*
X58963663Y-76406097D01*
X58872671Y-76381716D01*
X58735407Y-76344936D01*
X58499999Y-76324340D01*
X58264592Y-76344936D01*
X58036336Y-76406097D01*
X57822170Y-76505965D01*
X57628598Y-76641505D01*
X57461505Y-76808598D01*
X57325965Y-77002170D01*
X57226097Y-77216336D01*
X57164936Y-77444592D01*
X57144340Y-77679999D01*
X51910500Y-77679999D01*
X51910500Y-76000000D01*
X70344540Y-76000000D01*
X70364326Y-76188257D01*
X70422820Y-76368284D01*
X70517466Y-76532216D01*
X70644129Y-76672889D01*
X70797269Y-76784151D01*
X70970197Y-76861144D01*
X71155352Y-76900500D01*
X71155354Y-76900500D01*
X71344648Y-76900500D01*
X71468083Y-76874262D01*
X71529803Y-76861144D01*
X71702730Y-76784151D01*
X71749735Y-76750000D01*
X74810537Y-76750000D01*
X74830323Y-76938257D01*
X74888817Y-77118284D01*
X74983463Y-77282216D01*
X75110126Y-77422889D01*
X75263266Y-77534151D01*
X75436194Y-77611144D01*
X75621349Y-77650500D01*
X75621351Y-77650500D01*
X75810645Y-77650500D01*
X75995797Y-77611145D01*
X75995798Y-77611144D01*
X75995800Y-77611144D01*
X76165314Y-77535670D01*
X76234560Y-77526385D01*
X76266183Y-77535671D01*
X76435697Y-77611144D01*
X76620852Y-77650500D01*
X76620854Y-77650500D01*
X76810148Y-77650500D01*
X76933583Y-77624262D01*
X76995303Y-77611144D01*
X77168230Y-77534151D01*
X77321371Y-77422888D01*
X77448033Y-77282216D01*
X77542679Y-77118284D01*
X77581112Y-76999999D01*
X78094540Y-76999999D01*
X78114326Y-77188257D01*
X78172820Y-77368284D01*
X78267466Y-77532216D01*
X78394129Y-77672889D01*
X78547269Y-77784151D01*
X78720197Y-77861144D01*
X78905352Y-77900500D01*
X78905354Y-77900500D01*
X79094648Y-77900500D01*
X79218084Y-77874262D01*
X79279803Y-77861144D01*
X79452730Y-77784151D01*
X79605871Y-77672888D01*
X79732533Y-77532216D01*
X79827179Y-77368284D01*
X79885674Y-77188256D01*
X79905460Y-77000000D01*
X79885674Y-76811744D01*
X79827179Y-76631716D01*
X79827179Y-76631715D01*
X79732533Y-76467783D01*
X79605870Y-76327110D01*
X79452730Y-76215848D01*
X79279802Y-76138855D01*
X79094648Y-76099500D01*
X79094646Y-76099500D01*
X78905354Y-76099500D01*
X78905352Y-76099500D01*
X78720197Y-76138855D01*
X78547269Y-76215848D01*
X78394129Y-76327110D01*
X78267466Y-76467783D01*
X78172820Y-76631715D01*
X78114326Y-76811742D01*
X78094540Y-76999999D01*
X77581112Y-76999999D01*
X77601174Y-76938256D01*
X77620960Y-76750000D01*
X77601174Y-76561744D01*
X77542679Y-76381716D01*
X77542679Y-76381715D01*
X77448033Y-76217783D01*
X77321370Y-76077110D01*
X77168230Y-75965848D01*
X76995302Y-75888855D01*
X76810148Y-75849500D01*
X76810146Y-75849500D01*
X76620854Y-75849500D01*
X76620852Y-75849500D01*
X76435697Y-75888855D01*
X76266184Y-75964328D01*
X76196934Y-75973613D01*
X76165312Y-75964328D01*
X75995799Y-75888855D01*
X75810645Y-75849500D01*
X75810643Y-75849500D01*
X75621351Y-75849500D01*
X75621349Y-75849500D01*
X75436194Y-75888855D01*
X75263266Y-75965848D01*
X75110126Y-76077110D01*
X74983463Y-76217783D01*
X74888817Y-76381715D01*
X74830323Y-76561742D01*
X74810537Y-76750000D01*
X71749735Y-76750000D01*
X71855870Y-76672889D01*
X71892943Y-76631716D01*
X71982533Y-76532216D01*
X72077179Y-76368284D01*
X72135674Y-76188256D01*
X72155460Y-76000000D01*
X72135674Y-75811744D01*
X72098629Y-75697732D01*
X72077179Y-75631715D01*
X71982533Y-75467783D01*
X71966521Y-75450000D01*
X90044356Y-75450000D01*
X90064891Y-75697816D01*
X90064891Y-75697819D01*
X90064892Y-75697821D01*
X90125937Y-75938881D01*
X90152751Y-76000011D01*
X90225825Y-76166604D01*
X90225827Y-76166607D01*
X90361836Y-76374785D01*
X90530256Y-76557738D01*
X90535403Y-76561744D01*
X90726485Y-76710470D01*
X90726487Y-76710471D01*
X90726491Y-76710474D01*
X90945190Y-76828828D01*
X91180386Y-76909571D01*
X91425665Y-76950500D01*
X91674335Y-76950500D01*
X91919614Y-76909571D01*
X92154810Y-76828828D01*
X92373509Y-76710474D01*
X92569744Y-76557738D01*
X92738164Y-76374785D01*
X92874173Y-76166607D01*
X92974063Y-75938881D01*
X93035108Y-75697821D01*
X93055643Y-75450000D01*
X93055643Y-75449999D01*
X94544858Y-75449999D01*
X94565386Y-75697732D01*
X94626413Y-75938721D01*
X94726268Y-76166370D01*
X94826563Y-76319882D01*
X94826564Y-76319882D01*
X95524070Y-75622375D01*
X95526884Y-75635915D01*
X95596442Y-75770156D01*
X95699638Y-75880652D01*
X95828819Y-75959209D01*
X95880002Y-75973549D01*
X95179942Y-76673609D01*
X95179942Y-76673610D01*
X95226766Y-76710055D01*
X95445393Y-76828368D01*
X95680506Y-76909083D01*
X95925707Y-76950000D01*
X96174293Y-76950000D01*
X96419493Y-76909083D01*
X96654606Y-76828368D01*
X96873233Y-76710053D01*
X96920056Y-76673609D01*
X96221568Y-75975121D01*
X96338458Y-75924349D01*
X96455739Y-75828934D01*
X96542928Y-75705415D01*
X96573354Y-75619802D01*
X97273434Y-76319882D01*
X97373730Y-76166369D01*
X97473586Y-75938721D01*
X97534613Y-75697732D01*
X97555141Y-75449999D01*
X97534613Y-75202267D01*
X97473586Y-74961278D01*
X97373730Y-74733630D01*
X97273434Y-74580116D01*
X96575929Y-75277622D01*
X96573116Y-75264085D01*
X96503558Y-75129844D01*
X96400362Y-75019348D01*
X96271181Y-74940791D01*
X96219997Y-74926450D01*
X96920057Y-74226390D01*
X96920056Y-74226388D01*
X96873235Y-74189947D01*
X96654606Y-74071631D01*
X96419493Y-73990916D01*
X96174293Y-73950000D01*
X95925707Y-73950000D01*
X95680506Y-73990916D01*
X95445393Y-74071631D01*
X95226764Y-74189946D01*
X95179942Y-74226388D01*
X95179942Y-74226390D01*
X95878431Y-74924878D01*
X95761542Y-74975651D01*
X95644261Y-75071066D01*
X95557072Y-75194585D01*
X95526645Y-75280197D01*
X94826564Y-74580116D01*
X94726266Y-74733634D01*
X94626413Y-74961278D01*
X94565386Y-75202267D01*
X94544858Y-75449999D01*
X93055643Y-75449999D01*
X93035108Y-75202179D01*
X92974063Y-74961119D01*
X92874173Y-74733393D01*
X92738164Y-74525215D01*
X92569744Y-74342262D01*
X92547612Y-74325036D01*
X92373514Y-74189529D01*
X92373510Y-74189526D01*
X92373509Y-74189526D01*
X92154810Y-74071172D01*
X92154806Y-74071170D01*
X92154805Y-74071170D01*
X91919615Y-73990429D01*
X91674335Y-73949500D01*
X91425665Y-73949500D01*
X91180384Y-73990429D01*
X90945194Y-74071170D01*
X90726485Y-74189529D01*
X90530259Y-74342259D01*
X90530256Y-74342261D01*
X90530256Y-74342262D01*
X90361836Y-74525215D01*
X90325968Y-74580116D01*
X90225825Y-74733395D01*
X90160547Y-74882216D01*
X90125937Y-74961119D01*
X90091667Y-75096447D01*
X90064891Y-75202183D01*
X90044356Y-75450000D01*
X71966521Y-75450000D01*
X71855870Y-75327110D01*
X71702730Y-75215848D01*
X71529802Y-75138855D01*
X71344648Y-75099500D01*
X71344646Y-75099500D01*
X71155354Y-75099500D01*
X71155352Y-75099500D01*
X70970197Y-75138855D01*
X70797269Y-75215848D01*
X70644129Y-75327110D01*
X70517466Y-75467783D01*
X70422820Y-75631715D01*
X70364326Y-75811742D01*
X70344540Y-76000000D01*
X51910500Y-76000000D01*
X51910500Y-74349999D01*
X64634540Y-74349999D01*
X64654326Y-74538257D01*
X64712820Y-74718284D01*
X64807466Y-74882216D01*
X64934129Y-75022889D01*
X65087269Y-75134151D01*
X65260197Y-75211144D01*
X65445352Y-75250500D01*
X65445354Y-75250500D01*
X65634648Y-75250500D01*
X65758083Y-75224262D01*
X65819803Y-75211144D01*
X65992730Y-75134151D01*
X66044625Y-75096447D01*
X66145870Y-75022889D01*
X66188404Y-74975651D01*
X66272533Y-74882216D01*
X66367179Y-74718284D01*
X66425674Y-74538256D01*
X66445460Y-74350000D01*
X66425674Y-74161744D01*
X66395332Y-74068363D01*
X66367179Y-73981715D01*
X66272533Y-73817783D01*
X66145870Y-73677110D01*
X65992730Y-73565848D01*
X65819802Y-73488855D01*
X65634648Y-73449500D01*
X65634646Y-73449500D01*
X65445354Y-73449500D01*
X65445352Y-73449500D01*
X65260197Y-73488855D01*
X65087269Y-73565848D01*
X64934129Y-73677110D01*
X64807466Y-73817783D01*
X64712820Y-73981715D01*
X64654326Y-74161742D01*
X64634540Y-74349999D01*
X51910500Y-74349999D01*
X51910500Y-73010000D01*
X72844540Y-73010000D01*
X72864326Y-73198257D01*
X72922820Y-73378284D01*
X73017466Y-73542216D01*
X73144129Y-73682889D01*
X73297269Y-73794151D01*
X73470197Y-73871144D01*
X73655352Y-73910500D01*
X73655354Y-73910500D01*
X73844648Y-73910500D01*
X73968083Y-73884262D01*
X74029803Y-73871144D01*
X74202730Y-73794151D01*
X74355871Y-73682888D01*
X74482533Y-73542216D01*
X74577179Y-73378284D01*
X74635674Y-73198256D01*
X74655460Y-73010000D01*
X75344540Y-73010000D01*
X75364326Y-73198257D01*
X75422820Y-73378284D01*
X75517466Y-73542216D01*
X75644129Y-73682889D01*
X75797269Y-73794151D01*
X75970197Y-73871144D01*
X76155352Y-73910500D01*
X76155354Y-73910500D01*
X76344648Y-73910500D01*
X76468084Y-73884262D01*
X76529803Y-73871144D01*
X76702730Y-73794151D01*
X76855871Y-73682888D01*
X76982533Y-73542216D01*
X77077179Y-73378284D01*
X77135674Y-73198256D01*
X77155460Y-73010000D01*
X77844540Y-73010000D01*
X77864326Y-73198257D01*
X77922820Y-73378284D01*
X78017466Y-73542216D01*
X78144129Y-73682889D01*
X78297269Y-73794151D01*
X78470197Y-73871144D01*
X78655352Y-73910500D01*
X78655354Y-73910500D01*
X78844648Y-73910500D01*
X78968083Y-73884262D01*
X79029803Y-73871144D01*
X79202730Y-73794151D01*
X79355871Y-73682888D01*
X79482533Y-73542216D01*
X79577179Y-73378284D01*
X79635674Y-73198256D01*
X79655460Y-73010000D01*
X79635674Y-72821744D01*
X79577179Y-72641716D01*
X79577179Y-72641715D01*
X79482533Y-72477783D01*
X79355870Y-72337110D01*
X79202730Y-72225848D01*
X79029802Y-72148855D01*
X78844648Y-72109500D01*
X78844646Y-72109500D01*
X78655354Y-72109500D01*
X78655352Y-72109500D01*
X78470197Y-72148855D01*
X78297269Y-72225848D01*
X78144129Y-72337110D01*
X78017466Y-72477783D01*
X77922820Y-72641715D01*
X77864326Y-72821742D01*
X77844540Y-73010000D01*
X77155460Y-73010000D01*
X77135674Y-72821744D01*
X77077179Y-72641716D01*
X77077179Y-72641715D01*
X76982533Y-72477783D01*
X76855870Y-72337110D01*
X76702730Y-72225848D01*
X76529802Y-72148855D01*
X76344648Y-72109500D01*
X76344646Y-72109500D01*
X76155354Y-72109500D01*
X76155352Y-72109500D01*
X75970197Y-72148855D01*
X75797269Y-72225848D01*
X75644129Y-72337110D01*
X75517466Y-72477783D01*
X75422820Y-72641715D01*
X75364326Y-72821742D01*
X75344540Y-73010000D01*
X74655460Y-73010000D01*
X74635674Y-72821744D01*
X74577179Y-72641716D01*
X74577179Y-72641715D01*
X74482533Y-72477783D01*
X74355870Y-72337110D01*
X74202730Y-72225848D01*
X74029802Y-72148855D01*
X73844648Y-72109500D01*
X73844646Y-72109500D01*
X73655354Y-72109500D01*
X73655352Y-72109500D01*
X73470197Y-72148855D01*
X73297269Y-72225848D01*
X73144129Y-72337110D01*
X73017466Y-72477783D01*
X72922820Y-72641715D01*
X72864326Y-72821742D01*
X72844540Y-73010000D01*
X51910500Y-73010000D01*
X51910500Y-72605491D01*
X51930185Y-72538452D01*
X51982989Y-72492697D01*
X52052147Y-72482753D01*
X52107385Y-72505173D01*
X52131573Y-72522747D01*
X52147271Y-72534152D01*
X52320197Y-72611144D01*
X52505352Y-72650500D01*
X52505354Y-72650500D01*
X52694648Y-72650500D01*
X52818084Y-72624262D01*
X52879803Y-72611144D01*
X53052730Y-72534151D01*
X53205871Y-72422888D01*
X53332533Y-72282216D01*
X53427179Y-72118284D01*
X53485674Y-71938256D01*
X53505460Y-71750000D01*
X53485674Y-71561744D01*
X53427179Y-71381716D01*
X53427179Y-71381715D01*
X53332533Y-71217783D01*
X53205870Y-71077110D01*
X53052730Y-70965848D01*
X52879802Y-70888855D01*
X52694648Y-70849500D01*
X52694646Y-70849500D01*
X52505354Y-70849500D01*
X52505352Y-70849500D01*
X52320197Y-70888855D01*
X52147269Y-70965848D01*
X52107385Y-70994826D01*
X52041579Y-71018306D01*
X51973525Y-71002480D01*
X51924830Y-70952375D01*
X51910500Y-70894508D01*
X51910500Y-70000000D01*
X57344540Y-70000000D01*
X57364326Y-70188257D01*
X57422820Y-70368284D01*
X57517466Y-70532216D01*
X57644129Y-70672889D01*
X57797269Y-70784151D01*
X57970197Y-70861144D01*
X58155352Y-70900500D01*
X58155354Y-70900500D01*
X58344648Y-70900500D01*
X58468084Y-70874262D01*
X58529803Y-70861144D01*
X58702730Y-70784151D01*
X58855871Y-70672888D01*
X58982533Y-70532216D01*
X59077179Y-70368284D01*
X59135674Y-70188256D01*
X59155460Y-70000000D01*
X59135674Y-69811744D01*
X59077179Y-69631716D01*
X59077179Y-69631715D01*
X58982533Y-69467783D01*
X58855870Y-69327110D01*
X58702730Y-69215848D01*
X58529802Y-69138855D01*
X58344648Y-69099500D01*
X58344646Y-69099500D01*
X58155354Y-69099500D01*
X58155352Y-69099500D01*
X57970197Y-69138855D01*
X57797269Y-69215848D01*
X57644129Y-69327110D01*
X57517466Y-69467783D01*
X57422820Y-69631715D01*
X57364326Y-69811742D01*
X57344540Y-70000000D01*
X51910500Y-70000000D01*
X51910500Y-68949999D01*
X90044356Y-68949999D01*
X90064891Y-69197816D01*
X90064891Y-69197819D01*
X90064892Y-69197821D01*
X90125937Y-69438881D01*
X90170960Y-69541523D01*
X90225825Y-69666604D01*
X90225827Y-69666607D01*
X90361836Y-69874785D01*
X90530256Y-70057738D01*
X90530259Y-70057740D01*
X90726485Y-70210470D01*
X90726487Y-70210471D01*
X90726491Y-70210474D01*
X90945190Y-70328828D01*
X91180386Y-70409571D01*
X91425665Y-70450500D01*
X91674335Y-70450500D01*
X91919614Y-70409571D01*
X92154810Y-70328828D01*
X92373509Y-70210474D01*
X92569744Y-70057738D01*
X92738164Y-69874785D01*
X92874173Y-69666607D01*
X92974063Y-69438881D01*
X93035108Y-69197821D01*
X93055643Y-68950000D01*
X93055643Y-68949999D01*
X94544858Y-68949999D01*
X94565386Y-69197732D01*
X94626413Y-69438721D01*
X94726268Y-69666370D01*
X94826563Y-69819882D01*
X94826564Y-69819882D01*
X95524070Y-69122375D01*
X95526884Y-69135915D01*
X95596442Y-69270156D01*
X95699638Y-69380652D01*
X95828819Y-69459209D01*
X95880002Y-69473549D01*
X95179942Y-70173609D01*
X95179942Y-70173610D01*
X95226766Y-70210055D01*
X95445393Y-70328368D01*
X95680506Y-70409083D01*
X95925707Y-70450000D01*
X96174293Y-70450000D01*
X96419493Y-70409083D01*
X96654606Y-70328368D01*
X96873233Y-70210053D01*
X96920056Y-70173609D01*
X96221568Y-69475121D01*
X96338458Y-69424349D01*
X96455739Y-69328934D01*
X96542928Y-69205415D01*
X96573354Y-69119802D01*
X97273434Y-69819882D01*
X97373730Y-69666369D01*
X97473586Y-69438721D01*
X97534613Y-69197732D01*
X97555141Y-68949999D01*
X97534613Y-68702267D01*
X97473586Y-68461278D01*
X97373730Y-68233630D01*
X97273434Y-68080116D01*
X96575929Y-68777622D01*
X96573116Y-68764085D01*
X96503558Y-68629844D01*
X96400362Y-68519348D01*
X96271181Y-68440791D01*
X96219997Y-68426450D01*
X96920057Y-67726390D01*
X96920056Y-67726388D01*
X96873235Y-67689947D01*
X96654606Y-67571631D01*
X96419493Y-67490916D01*
X96174293Y-67450000D01*
X95925707Y-67450000D01*
X95680506Y-67490916D01*
X95445393Y-67571631D01*
X95226764Y-67689946D01*
X95179942Y-67726388D01*
X95179942Y-67726390D01*
X95878431Y-68424878D01*
X95761542Y-68475651D01*
X95644261Y-68571066D01*
X95557072Y-68694585D01*
X95526645Y-68780197D01*
X94826564Y-68080116D01*
X94726266Y-68233634D01*
X94626413Y-68461278D01*
X94565386Y-68702267D01*
X94544858Y-68949999D01*
X93055643Y-68949999D01*
X93035108Y-68702179D01*
X92974063Y-68461119D01*
X92874173Y-68233393D01*
X92738164Y-68025215D01*
X92569744Y-67842262D01*
X92547612Y-67825036D01*
X92373514Y-67689529D01*
X92373510Y-67689526D01*
X92373509Y-67689526D01*
X92154810Y-67571172D01*
X92154806Y-67571170D01*
X92154805Y-67571170D01*
X91919615Y-67490429D01*
X91674335Y-67449500D01*
X91425665Y-67449500D01*
X91180384Y-67490429D01*
X90945194Y-67571170D01*
X90726485Y-67689529D01*
X90530259Y-67842259D01*
X90361837Y-68025214D01*
X90225825Y-68233395D01*
X90152746Y-68400000D01*
X90125937Y-68461119D01*
X90091667Y-68596447D01*
X90064891Y-68702183D01*
X90044356Y-68949999D01*
X51910500Y-68949999D01*
X51910500Y-64470000D01*
X66469364Y-64470000D01*
X66526569Y-64683492D01*
X66626399Y-64897576D01*
X66761893Y-65091081D01*
X66928918Y-65258106D01*
X67122423Y-65393600D01*
X67336509Y-65493430D01*
X67550000Y-65550634D01*
X67550000Y-64655501D01*
X67657685Y-64704680D01*
X67764237Y-64720000D01*
X67835763Y-64720000D01*
X67942315Y-64704680D01*
X68050000Y-64655501D01*
X68050000Y-65550633D01*
X68263490Y-65493430D01*
X68477576Y-65393600D01*
X68671081Y-65258106D01*
X68838109Y-65091078D01*
X68968119Y-64905405D01*
X69022696Y-64861780D01*
X69092194Y-64854586D01*
X69154549Y-64886109D01*
X69171265Y-64905400D01*
X69301505Y-65091401D01*
X69468599Y-65258495D01*
X69662170Y-65394035D01*
X69876337Y-65493903D01*
X70104592Y-65555063D01*
X70340000Y-65575659D01*
X70575408Y-65555063D01*
X70803663Y-65493903D01*
X71017830Y-65394035D01*
X71211401Y-65258495D01*
X71378495Y-65091401D01*
X71508426Y-64905839D01*
X71563002Y-64862216D01*
X71632500Y-64855022D01*
X71694855Y-64886545D01*
X71711571Y-64905837D01*
X71841505Y-65091401D01*
X72008599Y-65258495D01*
X72202170Y-65394035D01*
X72416337Y-65493903D01*
X72644592Y-65555063D01*
X72880000Y-65575659D01*
X73115408Y-65555063D01*
X73343663Y-65493903D01*
X73557830Y-65394035D01*
X73751401Y-65258495D01*
X73918495Y-65091401D01*
X74048426Y-64905839D01*
X74103002Y-64862216D01*
X74172500Y-64855022D01*
X74234855Y-64886545D01*
X74251571Y-64905837D01*
X74381505Y-65091401D01*
X74548599Y-65258495D01*
X74742170Y-65394035D01*
X74956337Y-65493903D01*
X75168059Y-65550633D01*
X75184592Y-65555063D01*
X75419999Y-65575659D01*
X75419999Y-65575658D01*
X75420000Y-65575659D01*
X75655408Y-65555063D01*
X75883663Y-65493903D01*
X76097830Y-65394035D01*
X76291401Y-65258495D01*
X76458495Y-65091401D01*
X76588427Y-64905838D01*
X76643001Y-64862216D01*
X76712499Y-64855022D01*
X76774854Y-64886545D01*
X76791572Y-64905838D01*
X76921505Y-65091401D01*
X77088599Y-65258495D01*
X77282170Y-65394035D01*
X77496337Y-65493903D01*
X77708059Y-65550633D01*
X77724592Y-65555063D01*
X77959999Y-65575659D01*
X77959999Y-65575658D01*
X77960000Y-65575659D01*
X78195408Y-65555063D01*
X78423663Y-65493903D01*
X78637830Y-65394035D01*
X78831401Y-65258495D01*
X78998495Y-65091401D01*
X79128426Y-64905839D01*
X79183002Y-64862216D01*
X79252500Y-64855022D01*
X79314855Y-64886545D01*
X79331571Y-64905837D01*
X79461505Y-65091401D01*
X79628599Y-65258495D01*
X79822170Y-65394035D01*
X80036337Y-65493903D01*
X80248059Y-65550633D01*
X80264592Y-65555063D01*
X80499999Y-65575659D01*
X80499999Y-65575658D01*
X80500000Y-65575659D01*
X80735408Y-65555063D01*
X80963663Y-65493903D01*
X81177830Y-65394035D01*
X81371401Y-65258495D01*
X81493329Y-65136566D01*
X81554648Y-65103084D01*
X81624340Y-65108068D01*
X81680274Y-65149939D01*
X81697189Y-65180916D01*
X81746204Y-65312331D01*
X81832454Y-65427546D01*
X81947669Y-65513796D01*
X82082517Y-65564091D01*
X82142127Y-65570500D01*
X83937872Y-65570499D01*
X83997483Y-65564091D01*
X84132331Y-65513796D01*
X84247546Y-65427546D01*
X84333796Y-65312331D01*
X84384091Y-65177483D01*
X84390500Y-65117873D01*
X84390499Y-63322128D01*
X84384091Y-63262517D01*
X84333796Y-63127669D01*
X84247546Y-63012454D01*
X84132331Y-62926204D01*
X83997483Y-62875909D01*
X83937873Y-62869500D01*
X83934550Y-62869500D01*
X82145439Y-62869500D01*
X82145420Y-62869500D01*
X82142128Y-62869501D01*
X82138848Y-62869853D01*
X82138840Y-62869854D01*
X82082515Y-62875909D01*
X81947669Y-62926204D01*
X81832454Y-63012454D01*
X81746204Y-63127669D01*
X81697189Y-63259083D01*
X81655317Y-63315016D01*
X81589852Y-63339433D01*
X81521580Y-63324581D01*
X81493326Y-63303430D01*
X81371404Y-63181508D01*
X81371401Y-63181505D01*
X81177830Y-63045965D01*
X80963663Y-62946097D01*
X80902502Y-62929709D01*
X80735407Y-62884936D01*
X80500000Y-62864340D01*
X80264592Y-62884936D01*
X80036336Y-62946097D01*
X79822170Y-63045965D01*
X79628598Y-63181505D01*
X79461505Y-63348598D01*
X79331575Y-63534159D01*
X79276998Y-63577784D01*
X79207500Y-63584978D01*
X79145145Y-63553455D01*
X79128425Y-63534159D01*
X78998494Y-63348598D01*
X78831404Y-63181508D01*
X78831401Y-63181505D01*
X78637830Y-63045965D01*
X78423663Y-62946097D01*
X78362502Y-62929709D01*
X78195407Y-62884936D01*
X77959999Y-62864340D01*
X77724592Y-62884936D01*
X77496336Y-62946097D01*
X77282170Y-63045965D01*
X77088598Y-63181505D01*
X76921505Y-63348598D01*
X76791575Y-63534159D01*
X76736998Y-63577784D01*
X76667500Y-63584978D01*
X76605145Y-63553455D01*
X76588425Y-63534159D01*
X76458494Y-63348598D01*
X76291404Y-63181508D01*
X76291401Y-63181505D01*
X76097830Y-63045965D01*
X75883663Y-62946097D01*
X75822502Y-62929709D01*
X75655407Y-62884936D01*
X75420000Y-62864340D01*
X75184592Y-62884936D01*
X74956336Y-62946097D01*
X74742170Y-63045965D01*
X74548598Y-63181505D01*
X74381505Y-63348598D01*
X74251575Y-63534159D01*
X74196998Y-63577784D01*
X74127500Y-63584978D01*
X74065145Y-63553455D01*
X74048425Y-63534159D01*
X73918494Y-63348598D01*
X73751404Y-63181508D01*
X73751401Y-63181505D01*
X73557830Y-63045965D01*
X73343663Y-62946097D01*
X73282502Y-62929709D01*
X73115407Y-62884936D01*
X72879999Y-62864340D01*
X72644592Y-62884936D01*
X72416336Y-62946097D01*
X72202170Y-63045965D01*
X72008598Y-63181505D01*
X71841505Y-63348598D01*
X71711575Y-63534159D01*
X71656998Y-63577784D01*
X71587500Y-63584978D01*
X71525145Y-63553455D01*
X71508425Y-63534159D01*
X71378494Y-63348598D01*
X71211404Y-63181508D01*
X71211401Y-63181505D01*
X71017830Y-63045965D01*
X70803663Y-62946097D01*
X70742502Y-62929709D01*
X70575407Y-62884936D01*
X70340000Y-62864340D01*
X70104592Y-62884936D01*
X69876336Y-62946097D01*
X69662170Y-63045965D01*
X69468598Y-63181505D01*
X69301508Y-63348595D01*
X69171269Y-63534596D01*
X69116692Y-63578220D01*
X69047193Y-63585413D01*
X68984839Y-63553891D01*
X68968119Y-63534595D01*
X68838109Y-63348921D01*
X68671081Y-63181893D01*
X68477576Y-63046399D01*
X68263492Y-62946569D01*
X68050000Y-62889364D01*
X68050000Y-63784498D01*
X67942315Y-63735320D01*
X67835763Y-63720000D01*
X67764237Y-63720000D01*
X67657685Y-63735320D01*
X67550000Y-63784498D01*
X67550000Y-62889364D01*
X67549999Y-62889364D01*
X67336507Y-62946569D01*
X67122421Y-63046400D01*
X66928921Y-63181890D01*
X66761890Y-63348921D01*
X66626400Y-63542421D01*
X66526569Y-63756507D01*
X66469364Y-63969999D01*
X66469364Y-63970000D01*
X67366314Y-63970000D01*
X67340507Y-64010156D01*
X67300000Y-64148111D01*
X67300000Y-64291889D01*
X67340507Y-64429844D01*
X67366314Y-64470000D01*
X66469364Y-64470000D01*
X51910500Y-64470000D01*
X51910500Y-61534500D01*
X51930185Y-61467461D01*
X51982989Y-61421706D01*
X52034500Y-61410500D01*
X98465500Y-61410500D01*
X98532539Y-61430185D01*
G37*
%TD.AperFunction*%
%TD*%
M02*
